<?xml version="1.0" encoding="UTF-8"?>
<svg width="84px" height="84px" viewBox="0 0 84 84" version="1.1" xmlns="http://www.w3.org/2000/svg" xmlns:xlink="http://www.w3.org/1999/xlink">
    <!-- Generator: Sketch 41.2 (35397) - http://www.bohemiancoding.com/sketch -->
    <title>Group 52</title>
    <desc>Created with Sketch.</desc>
    <defs></defs>
    <g id="final-page" stroke="none" stroke-width="1" fill="none" fill-rule="evenodd">
        <g id="Onepager" transform="translate(-486.000000, -4803.000000)">
            <g id="Group-52" transform="translate(487.000000, 4804.000000)">
                <path d="M56.8156566,28.7439024 C56.9781385,28.7439024 57.1,28.6380863 57.1,28.4969981 L57.1,24.4054409 C57.1,24.2643527 56.9781385,24.1585366 56.8156566,24.1585366 C56.6531746,24.1585366 56.5313131,24.2643527 56.5313131,24.4054409 L56.5313131,28.4617261 C56.4906926,28.6380863 56.6531746,28.7439024 56.8156566,28.7439024 Z" id="Shape" fill="#4A4A4A"></path>
                <path d="M56.8156566,31.6097561 C56.9781385,31.6097561 57.1,31.5086083 57.1,31.3737446 L57.1,30.1262554 C57.1,29.9913917 56.9781385,29.8902439 56.8156566,29.8902439 C56.6531746,29.8902439 56.5313131,29.9913917 56.5313131,30.1262554 L56.5313131,31.3737446 C56.4906926,31.5086083 56.6531746,31.6097561 56.8156566,31.6097561 Z" id="Shape" fill="#4A4A4A"></path>
                <path d="M22.3125,51.097561 C22.1482143,51.097561 22.025,51.2041974 22.025,51.3463793 L22.025,55.4341085 C22.025,55.5762904 22.1482143,55.6829268 22.3125,55.6829268 C22.4767857,55.6829268 22.6,55.5762904 22.6,55.4341085 L22.6,51.3463793 C22.6,51.2041974 22.4767857,51.097561 22.3125,51.097561 Z" id="Shape" fill="#4A4A4A"></path>
                <path d="M22.3125,56.8292683 C22.1482143,56.8292683 22.025,56.9304161 22.025,57.0652798 L22.025,58.312769 C22.025,58.4476327 22.1482143,58.5487805 22.3125,58.5487805 C22.4767857,58.5487805 22.6,58.4476327 22.6,58.312769 L22.6,57.0652798 C22.6,56.9304161 22.4767857,56.8292683 22.3125,56.8292683 Z" id="Shape" fill="#4A4A4A"></path>
                <path d="M49.7381148,20.0705503 C49.7758197,20.1084459 49.8512295,20.1463415 49.9266393,20.1463415 C50.0020492,20.1463415 50.077459,20.1084459 50.1151639,20.0705503 C50.2282787,19.9568635 50.2282787,19.7673856 50.1151639,19.6915944 L49.5118852,19.0852651 C49.3987705,18.9715783 49.2102459,18.9715783 49.1348361,19.0852651 C49.0217213,19.1989518 49.0217213,19.3884298 49.1348361,19.4642209 L49.7381148,20.0705503 Z" id="Shape" fill="#4A4A4A"></path>
                <path d="M51.4631148,22.3632332 C51.5008197,22.4011288 51.5762295,22.4390244 51.6516393,22.4390244 C51.7270492,22.4390244 51.802459,22.4011288 51.8401639,22.3632332 C51.9532787,22.2495465 51.9532787,22.0600685 51.8401639,21.9842774 L51.2368852,21.377948 C51.1237705,21.2642612 50.9352459,21.2642612 50.8598361,21.377948 C50.7467213,21.4916348 50.7467213,21.6811127 50.8598361,21.7569039 L51.4631148,22.3632332 Z" id="Shape" fill="#4A4A4A"></path>
                <path d="M49.3233607,22.4390244 C49.3987705,22.4390244 49.4741803,22.4011288 49.5118852,22.3632332 L50.1151639,21.7569039 C50.2282787,21.6432171 50.2282787,21.4537392 50.1151639,21.377948 C50.0020492,21.2642612 49.8135246,21.2642612 49.7381148,21.377948 L49.1348361,21.9842774 C49.0217213,22.0979641 49.0217213,22.287442 49.1348361,22.3632332 C49.172541,22.4011288 49.2479508,22.4390244 49.3233607,22.4390244 Z" id="Shape" fill="#4A4A4A"></path>
                <path d="M51.0483607,20.1463415 C51.1237705,20.1463415 51.1991803,20.1084459 51.2368852,20.0705503 L51.8401639,19.4642209 C51.9532787,19.3505342 51.9532787,19.1610562 51.8401639,19.0852651 C51.7270492,18.9715783 51.5385246,18.9715783 51.4631148,19.0852651 L50.8598361,19.6915944 C50.7467213,19.8052812 50.7467213,19.9947591 50.8598361,20.0705503 C50.897541,20.1463415 50.9729508,20.1463415 51.0483607,20.1463415 Z" id="Shape" fill="#4A4A4A"></path>
                <path d="M25.9368852,62.6462407 C25.8237705,62.5325539 25.6352459,62.5325539 25.5598361,62.6462407 C25.4467213,62.7599274 25.4467213,62.9494054 25.5598361,63.0251965 L26.1631148,63.6315259 C26.2008197,63.6694215 26.2762295,63.7073171 26.3516393,63.7073171 C26.4270492,63.7073171 26.502459,63.6694215 26.5401639,63.6315259 C26.6532787,63.5178391 26.6532787,63.3283612 26.5401639,63.25257 L25.9368852,62.6462407 Z" id="Shape" fill="#4A4A4A"></path>
                <path d="M27.6618852,64.9389236 C27.5487705,64.8252368 27.3602459,64.8252368 27.2848361,64.9389236 C27.1717213,65.0526104 27.1717213,65.2420883 27.2848361,65.3178795 L27.8881148,65.9242088 C27.9258197,65.9621044 28.0012295,66 28.0766393,66 C28.1520492,66 28.227459,65.9621044 28.2651639,65.9242088 C28.3782787,65.8105221 28.3782787,65.6210441 28.2651639,65.545253 L27.6618852,64.9389236 Z" id="Shape" fill="#4A4A4A"></path>
                <path d="M26.1631148,64.9389236 L25.5598361,65.545253 C25.4467213,65.6589397 25.4467213,65.8484177 25.5598361,65.9242088 C25.597541,65.9621044 25.6729508,66 25.7483607,66 C25.8237705,66 25.8991803,65.9621044 25.9368852,65.9242088 L26.5401639,65.3178795 C26.6532787,65.2041927 26.6532787,65.0147148 26.5401639,64.9389236 C26.4270492,64.8252368 26.2762295,64.8252368 26.1631148,64.9389236 Z" id="Shape" fill="#4A4A4A"></path>
                <path d="M27.8881148,62.6462407 L27.2848361,63.25257 C27.1717213,63.3662568 27.1717213,63.5557347 27.2848361,63.6315259 C27.322541,63.6694215 27.3979508,63.7073171 27.4733607,63.7073171 C27.5487705,63.7073171 27.6241803,63.6694215 27.6618852,63.6315259 L28.2651639,63.0251965 C28.3782787,62.9115098 28.3782787,62.7220318 28.2651639,62.6462407 C28.1897541,62.5325539 28.0012295,62.5325539 27.8881148,62.6462407 Z" id="Shape" fill="#4A4A4A"></path>
                <path d="M57.7881148,50.4485991 C57.8258197,50.4864947 57.9012295,50.5243902 57.9766393,50.5243902 C58.0520492,50.5243902 58.127459,50.4864947 58.1651639,50.4485991 C58.2782787,50.3349123 58.2782787,50.1454344 58.1651639,50.0696432 L57.5618852,49.4633138 C57.4487705,49.3496271 57.2602459,49.3496271 57.1848361,49.4633138 C57.0717213,49.5770006 57.0717213,49.7664785 57.1848361,49.8422697 L57.7881148,50.4485991 Z" id="Shape" fill="#4A4A4A"></path>
                <path d="M59.4848361,51.5617819 L60.0881148,52.1681113 C60.1258197,52.2060069 60.2012295,52.2439024 60.2766393,52.2439024 C60.3520492,52.2439024 60.427459,52.2060069 60.4651639,52.1681113 C60.5782787,52.0544245 60.5782787,51.8649466 60.4651639,51.7891554 L59.8618852,51.182826 C59.7487705,51.0691393 59.5602459,51.0691393 59.4848361,51.182826 C59.3717213,51.2965128 59.3717213,51.4480951 59.4848361,51.5617819 Z" id="Shape" fill="#4A4A4A"></path>
                <path d="M57.7329832,52.1681113 C57.7716387,52.2060069 57.8489496,52.2439024 57.9262605,52.2439024 C58.0035714,52.2439024 58.0808824,52.2060069 58.1195378,52.1681113 L58.7380252,51.5617819 C58.8539916,51.4480951 58.8539916,51.2586172 58.7380252,51.182826 C58.6220588,51.0691393 58.4287815,51.0691393 58.3514706,51.182826 L57.7329832,51.7891554 C57.6556723,51.8649466 57.6556723,52.0544245 57.7329832,52.1681113 Z" id="Shape" fill="#4A4A4A"></path>
                <path d="M59.6733607,50.5243902 C59.7487705,50.5243902 59.8241803,50.4864947 59.8618852,50.4485991 L60.4651639,49.8422697 C60.5782787,49.7285829 60.5782787,49.539105 60.4651639,49.4633138 C60.3520492,49.3496271 60.1635246,49.3496271 60.0881148,49.4633138 L59.4848361,50.0696432 C59.3717213,50.18333 59.3717213,50.3728079 59.4848361,50.4485991 C59.5602459,50.4864947 59.5979508,50.5243902 59.6733607,50.5243902 Z" id="Shape" fill="#4A4A4A"></path>
                <path d="M61.4125,25.8780488 C62.189527,25.8780488 62.85,25.219677 62.85,24.445122 C62.85,23.6705669 62.189527,23.0121951 61.4125,23.0121951 C60.635473,23.0121951 59.975,23.6705669 59.975,24.445122 C59.975,25.219677 60.5966216,25.8780488 61.4125,25.8780488 Z M61.4125,23.5931114 C61.8787162,23.5931114 62.2672297,23.9803889 62.2672297,24.445122 C62.2672297,24.909855 61.8787162,25.2971325 61.4125,25.2971325 C60.9462838,25.2971325 60.5577703,24.909855 60.5577703,24.445122 C60.5577703,23.9803889 60.9462838,23.5931114 61.4125,23.5931114 Z" id="Shape" fill="#4A4A4A"></path>
                <path d="M42.4375,62.5609756 C41.660473,62.5609756 41,63.2193474 41,63.9939024 C41,64.7684575 41.660473,65.4268293 42.4375,65.4268293 C43.214527,65.4268293 43.875,64.7684575 43.875,63.9939024 C43.875,63.2193474 43.2533784,62.5609756 42.4375,62.5609756 Z M42.4375,64.845913 C41.9712838,64.845913 41.5827703,64.4586355 41.5827703,63.9939024 C41.5827703,63.5291694 41.9712838,63.1418919 42.4375,63.1418919 C42.9037162,63.1418919 43.2922297,63.5291694 43.2922297,63.9939024 C43.2922297,64.4586355 42.9037162,64.845913 42.4375,64.845913 Z" id="Shape" fill="#4A4A4A"></path>
                <path d="M20.5875,44.7926829 C19.810473,44.7926829 19.15,45.4510547 19.15,46.2256098 C19.15,47.0001648 19.810473,47.6585366 20.5875,47.6585366 C21.364527,47.6585366 22.025,47.0001648 22.025,46.2256098 C22.025,45.4510547 21.364527,44.7926829 20.5875,44.7926829 Z M20.5875,47.0776203 C20.1212838,47.0776203 19.7327703,46.6903428 19.7327703,46.2256098 C19.7327703,45.7608767 20.1212838,45.3735992 20.5875,45.3735992 C21.0537162,45.3735992 21.4422297,45.7608767 21.4422297,46.2256098 C21.4422297,46.6903428 21.0537162,47.0776203 20.5875,47.0776203 Z" id="Shape" fill="#4A4A4A"></path>
                <path d="M26.3528056,20.7195122 L21.1412822,20.7195122 C20.989121,20.7195122 20.875,20.8423345 20.875,21.0060976 C20.875,21.1698606 20.989121,21.2926829 21.1412822,21.2926829 L26.3528056,21.2926829 C26.5049669,21.2926829 26.6190879,21.1698606 26.6190879,21.0060976 C26.6571282,20.8423345 26.5049669,20.7195122 26.3528056,20.7195122 Z" id="Shape" fill="#4A4A4A"></path>
                <path d="M18.282991,21.2926829 L20.0231556,21.2926829 C20.1813524,21.2926829 20.3,21.1698606 20.3,21.0060976 C20.3,20.8423345 20.1813524,20.7195122 20.0231556,20.7195122 L18.282991,20.7195122 C18.1247942,20.7195122 18.0061466,20.8423345 18.0061466,21.0060976 C17.9665974,21.1698606 18.1247942,21.2926829 18.282991,21.2926829 Z" id="Shape" fill="#4A4A4A"></path>
                <path d="M22.025,22.7224632 C22.025,22.5604982 21.9152273,22.4390244 21.7688636,22.4390244 L18.2561364,22.4390244 C18.1097727,22.4390244 18,22.5604982 18,22.7224632 C18,22.8844283 18.1097727,23.0059021 18.2561364,23.0059021 L21.7688636,23.0059021 C21.9152273,23.0463933 22.025,22.8844283 22.025,22.7224632 Z" id="Shape" fill="#4A4A4A"></path>
                <path d="M24.0504907,22.4390244 L22.8671957,22.4390244 C22.7145124,22.4390244 22.6,22.5618467 22.6,22.7256098 C22.6,22.8893728 22.7145124,23.0121951 22.8671957,23.0121951 L24.0504907,23.0121951 C24.203174,23.0121951 24.3176864,22.8893728 24.3176864,22.7256098 C24.3558572,22.5618467 24.2413448,22.4390244 24.0504907,22.4390244 Z" id="Shape" fill="#4A4A4A"></path>
                <path d="M60.2834437,63.7073171 L55.0665563,63.7073171 C54.9142384,63.7073171 54.8,63.8301394 54.8,63.9939024 C54.8,64.1576655 54.9142384,64.2804878 55.0665563,64.2804878 L60.2834437,64.2804878 C60.4357616,64.2804878 60.55,64.1576655 60.55,63.9939024 C60.55,63.8710801 60.4357616,63.7073171 60.2834437,63.7073171 Z" id="Shape" fill="#4A4A4A"></path>
                <path d="M63.717009,63.7073171 L61.9768444,63.7073171 C61.8186476,63.7073171 61.7,63.8301394 61.7,63.9939024 C61.7,64.1576655 61.8186476,64.2804878 61.9768444,64.2804878 L63.717009,64.2804878 C63.8752058,64.2804878 63.9938534,64.1576655 63.9938534,63.9939024 C64.0334026,63.8710801 63.8752058,63.7073171 63.717009,63.7073171 Z" id="Shape" fill="#4A4A4A"></path>
                <path d="M59.4,62.2775368 C59.4,62.4395018 59.5097727,62.5609756 59.6561364,62.5609756 L63.1688636,62.5609756 C63.3152273,62.5609756 63.425,62.4395018 63.425,62.2775368 C63.425,62.1155717 63.3152273,61.9940979 63.1688636,61.9940979 L59.6561364,61.9940979 C59.5097727,61.9536067 59.4,62.1155717 59.4,62.2775368 Z" id="Shape" fill="#4A4A4A"></path>
                <path d="M57.1,62.2775368 C57.1,62.4395018 57.215,62.5609756 57.3683333,62.5609756 L58.5566667,62.5609756 C58.71,62.5609756 58.825,62.4395018 58.825,62.2775368 C58.825,62.1155717 58.71,61.9940979 58.5566667,61.9940979 L57.3683333,61.9940979 C57.215,61.9536067 57.1,62.1155717 57.1,62.2775368 Z" id="Shape" fill="#4A4A4A"></path>
                <path d="M37.8106115,24.7317073 L42.4643885,24.7317073 C42.6133094,24.7317073 42.725,24.608885 42.725,24.445122 C42.725,24.2813589 42.6505396,24.1585366 42.4643885,24.1585366 L37.8106115,24.1585366 C37.6616906,24.1585366 37.55,24.2813589 37.55,24.445122 C37.55,24.608885 37.6616906,24.7317073 37.8106115,24.7317073 Z" id="Shape" fill="#4A4A4A"></path>
                <path d="M33.7916635,39.0609756 L48.2141285,39.0609756 C48.3631979,39.0609756 48.475,38.9381533 48.475,38.7743902 C48.475,38.6106272 48.3631979,38.4878049 48.2141285,38.4878049 L33.7916635,38.4878049 C33.6425941,38.4878049 33.530792,38.6106272 33.530792,38.7743902 C33.4935246,38.9381533 33.6425941,39.0609756 33.7916635,39.0609756 Z" id="Shape" fill="#4A4A4A"></path>
                <path d="M30.65,37.3414634 C30.0073529,37.3414634 29.5,37.8472023 29.5,38.4878049 C29.5,39.1284075 30.0073529,39.6341463 30.65,39.6341463 C31.2926471,39.6341463 31.8,39.1284075 31.8,38.4878049 C31.8,37.8472023 31.2926471,37.3414634 30.65,37.3414634 Z M30.65,39.1284075 C30.2779412,39.1284075 30.0073529,38.8249641 30.0073529,38.4878049 C30.0073529,38.1169297 30.3117647,37.8472023 30.65,37.8472023 C31.0220588,37.8472023 31.2926471,38.1506456 31.2926471,38.4878049 C31.2926471,38.8249641 30.9882353,39.1284075 30.65,39.1284075 Z" id="Shape" fill="#4A4A4A"></path>
                <path d="M33.7850421,43.6463415 L46.4899579,43.6463415 C46.6385534,43.6463415 46.75,43.5235192 46.75,43.3597561 C46.75,43.195993 46.6385534,43.0731707 46.4899579,43.0731707 L33.7850421,43.0731707 C33.6364466,43.0731707 33.525,43.195993 33.525,43.3597561 C33.525,43.5235192 33.6364466,43.6463415 33.7850421,43.6463415 Z" id="Shape" fill="#4A4A4A"></path>
                <path d="M30.65,41.9268293 C30.0073529,41.9268293 29.5,42.4325681 29.5,43.0731707 C29.5,43.7137733 30.0073529,44.2195122 30.65,44.2195122 C31.2926471,44.2195122 31.8,43.7137733 31.8,43.0731707 C31.8,42.4325681 31.2926471,41.9268293 30.65,41.9268293 Z M30.65,43.7137733 C30.2779412,43.7137733 30.0073529,43.41033 30.0073529,43.0731707 C30.0073529,42.7022956 30.3117647,42.4325681 30.65,42.4325681 C31.0220588,42.4325681 31.2926471,42.7360115 31.2926471,43.0731707 C31.2926471,43.41033 30.9882353,43.7137733 30.65,43.7137733 Z" id="Shape" fill="#4A4A4A"></path>
                <path d="M33.7963056,47.6585366 L37.2845873,47.6585366 C37.4362517,47.6585366 37.55,47.5357143 37.55,47.3719512 C37.55,47.2081882 37.4362517,47.0853659 37.2845873,47.0853659 L33.7963056,47.0853659 C33.6446411,47.0853659 33.5308928,47.2081882 33.5308928,47.3719512 C33.4929767,47.5357143 33.6446411,47.6585366 33.7963056,47.6585366 Z" id="Shape" fill="#4A4A4A"></path>
                <path d="M30.65,46.5121951 C30.0073529,46.5121951 29.5,47.017934 29.5,47.6585366 C29.5,48.2991392 30.0073529,48.804878 30.65,48.804878 C31.2926471,48.804878 31.8,48.2991392 31.8,47.6585366 C31.8,47.017934 31.2926471,46.5121951 30.65,46.5121951 Z M30.65,48.2991392 C30.2779412,48.2991392 30.0073529,47.9956958 30.0073529,47.6585366 C30.0073529,47.2876614 30.3117647,47.017934 30.65,47.017934 C31.0220588,47.017934 31.2926471,47.3213773 31.2926471,47.6585366 C31.2926471,47.9956958 30.9882353,48.2991392 30.65,48.2991392 Z" id="Shape" fill="#4A4A4A"></path>
                <path d="M33.7803042,52.2439024 L39.0252411,52.2439024 C39.1679605,52.2439024 39.275,52.1210801 39.275,51.9573171 C39.275,51.793554 39.1679605,51.6707317 39.0252411,51.6707317 L33.7803042,51.6707317 C33.6375848,51.6707317 33.5305453,51.793554 33.5305453,51.9573171 C33.4948654,52.1210801 33.6375848,52.2439024 33.7803042,52.2439024 Z" id="Shape" fill="#4A4A4A"></path>
                <path d="M30.65,50.5243902 C30.0073529,50.5243902 29.5,51.0301291 29.5,51.6707317 C29.5,52.3113343 30.0073529,52.8170732 30.65,52.8170732 C31.2926471,52.8170732 31.8,52.3113343 31.8,51.6707317 C31.8,51.0301291 31.2926471,50.5243902 30.65,50.5243902 Z M30.65,52.3113343 C30.2779412,52.3113343 30.0073529,52.007891 30.0073529,51.6707317 C30.0073529,51.2998565 30.3117647,51.0301291 30.65,51.0301291 C31.0220588,51.0301291 31.2926471,51.3335725 31.2926471,51.6707317 C31.2926471,52.007891 30.9882353,52.3113343 30.65,52.3113343 Z" id="Shape" fill="#4A4A4A"></path>
                <path d="M33.525,56.5426829 C33.525,56.706446 33.6368454,56.8292683 33.7859726,56.8292683 L48.2140274,56.8292683 C48.3631546,56.8292683 48.475,56.706446 48.475,56.5426829 C48.475,56.3789199 48.3631546,56.2560976 48.2140274,56.2560976 L33.8232544,56.2560976 C33.6741272,56.2560976 33.525,56.3789199 33.525,56.5426829 Z" id="Shape" fill="#4A4A4A"></path>
                <path d="M30.65,55.1097561 C30.0073529,55.1097561 29.5,55.615495 29.5,56.2560976 C29.5,56.8967001 30.0073529,57.402439 30.65,57.402439 C31.2926471,57.402439 31.8,56.8967001 31.8,56.2560976 C31.8,55.615495 31.2926471,55.1097561 30.65,55.1097561 Z M30.65,56.8967001 C30.2779412,56.8967001 30.0073529,56.5932568 30.0073529,56.2560976 C30.0073529,55.8852224 30.3117647,55.615495 30.65,55.615495 C31.0220588,55.615495 31.2926471,55.9189383 31.2926471,56.2560976 C31.2926471,56.5932568 30.9882353,56.8967001 30.65,56.8967001 Z" id="Shape" fill="#4A4A4A"></path>
                <path d="M50.481015,28.7439024 L41.2572368,28.7439024 C41.1102444,28.7439024 41,28.8667247 41,29.0304878 C41,29.1942509 41.1102444,29.3170732 41.2572368,29.3170732 L50.5177632,29.3170732 C50.6647556,29.3170732 50.775,29.1942509 50.775,29.0304878 C50.775,28.9076655 50.6647556,28.7439024 50.481015,28.7439024 Z" id="Shape" fill="#4A4A4A"></path>
                <path d="M50.4794693,31.6097561 L37.8085894,31.6097561 C37.660824,31.6097561 37.55,31.7325784 37.55,31.8963415 C37.55,32.0601045 37.660824,32.1829268 37.8085894,32.1829268 L50.5164106,32.1829268 C50.664176,32.1829268 50.775,32.0601045 50.775,31.8963415 C50.775,31.7325784 50.664176,31.6097561 50.4794693,31.6097561 Z" id="Shape" fill="#4A4A4A"></path>
                <path d="M59.975,38.0080013 C59.975,37.713376 59.864934,37.3819225 59.644802,37.1609535 C59.1678493,36.7190156 58.4340759,36.7190156 57.9571232,37.1609535 L52.8207096,42.3168966 L52.8207096,26.4807858 C52.8207096,25.8178788 52.3070682,25.3022845 51.6466722,25.3022845 L43.7586084,25.3022845 L44.3823157,22.8716256 C44.4190044,22.7979693 44.3823157,22.6874848 44.3456271,22.6506567 C44.3089384,22.5770003 44.1988724,22.5401722 44.125495,22.5401722 L41.0436469,22.5401722 C41.1537129,22.282375 41.1904015,22.061406 41.1904015,21.8036089 C41.1904015,20.8829048 40.4933168,20.1463415 39.6127888,20.1463415 C38.7322607,20.1463415 38.035176,20.8829048 38.035176,21.8036089 C38.035176,22.061406 38.0718647,22.282375 38.1819307,22.503344 L35.1000825,22.503344 C35.0267052,22.503344 34.9533278,22.5401722 34.8799505,22.6138285 C34.8432618,22.6874848 34.8065732,22.7611412 34.8432618,22.8347975 L35.4669692,25.2654564 L27.7990374,25.2654564 C27.1386414,25.2654564 26.625,25.7810507 26.625,26.4439576 L26.625,59.6629621 C26.625,60.3258691 27.1386414,60.8414634 27.7990374,60.8414634 L51.6099835,60.8414634 C52.2703795,60.8414634 52.7840209,60.3258691 52.7840209,59.6629621 L52.7840209,45.6682596 L59.6081133,38.8182209 C59.864934,38.597252 59.975,38.3026266 59.975,38.0080013 Z M39.6127888,20.6987639 C40.1998075,20.6987639 40.6767602,21.2143582 40.6767602,21.840437 C40.6767602,22.0982342 40.6033828,22.3192032 40.4566282,22.5401722 L38.8056381,22.5401722 C38.6221947,22.3192032 38.5488174,22.061406 38.5488174,21.8036089 C38.5488174,21.2143582 39.0257701,20.6987639 39.6127888,20.6987639 Z M35.4302805,23.0557665 L38.6588834,23.0557665 L40.5666942,23.0557665 L43.795297,23.0557665 L43.2082783,25.3022845 L35.9806106,25.3022845 L35.4302805,23.0557665 Z M27.17533,26.4807858 C27.17533,26.1125041 27.4688394,25.8178788 27.8357261,25.8178788 L35.8338559,25.8178788 L43.465099,25.8178788 L51.6466722,25.8178788 C52.0135589,25.8178788 52.3070682,26.1125041 52.3070682,26.4807858 L52.3070682,34.141044 L27.17533,34.141044 L27.17533,26.4807858 Z M52.2703795,59.6997903 C52.2703795,60.068072 51.9768702,60.3626973 51.6099835,60.3626973 L27.7990374,60.3626973 C27.4321507,60.3626973 27.1386414,60.068072 27.1386414,59.6997903 L27.1386414,34.6566383 L52.2336909,34.6566383 L52.2336909,42.8693191 L44.6391364,50.4927491 L40.5300055,46.3679947 C40.3098735,46.1470257 40.0163641,46.0365412 39.6861661,46.0365412 C39.3559681,46.0365412 39.0624587,46.1470257 38.8423267,46.3679947 C38.6221947,46.5889637 38.47544,46.883589 38.47544,47.2150425 C38.47544,47.546496 38.5855061,47.8411213 38.8423267,48.0620903 L44.4556931,53.6967995 C44.4923817,53.7336276 44.5657591,53.7704558 44.6391364,53.7704558 C44.7125138,53.7704558 44.7858911,53.7336276 44.8225798,53.6967995 L52.2336909,46.2575102 L52.2336909,59.6997903 L52.2703795,59.6997903 Z M59.2412266,38.4499393 L52.3804455,45.3368061 C52.3437569,45.3368061 52.3437569,45.3736343 52.3070682,45.4104624 L44.6391364,53.1075488 L39.2459021,47.6569805 C39.1358361,47.546496 39.0624587,47.3623551 39.0624587,47.2150425 C39.0624587,47.0309017 39.1358361,46.883589 39.2459021,46.7731045 C39.3559681,46.66262 39.5394114,46.5889637 39.6861661,46.5889637 C39.8696095,46.5889637 40.0163641,46.66262 40.1264301,46.7731045 L44.4556931,51.1188279 C44.5657591,51.2293124 44.7492024,51.2293124 44.8225798,51.1188279 L58.3240099,37.5292352 C58.5808306,37.271438 58.9844059,37.271438 59.2412266,37.5292352 C59.3512926,37.6397197 59.42467,37.8238605 59.42467,37.9711732 C59.42467,38.155314 59.3512926,38.3394548 59.2412266,38.4499393 Z M34.9485524,29.5779515 L33.1488654,29.5779515 L32.6089593,27.7879831 C32.5729656,27.6737298 32.4649844,27.597561 32.3570031,27.597561 C32.2490219,27.597561 32.1410407,27.6737298 32.1050469,27.7879831 L31.5651408,29.5779515 L29.7654538,29.5779515 C29.6574726,29.5779515 29.5494914,29.6541204 29.5134977,29.7683737 C29.4775039,29.882627 29.5134977,29.9968803 29.6214789,30.0730492 L31.0612285,31.1774978 L30.5213224,32.9674662 C30.4853286,33.0817195 30.5213224,33.1959728 30.6293036,33.2721416 C30.7372848,33.3483105 30.845266,33.3483105 30.9532473,33.2721416 L32.3929969,32.1676931 L33.8327465,33.2721416 C33.8687402,33.3102261 33.9407277,33.3102261 33.9767214,33.3102261 C34.0127152,33.3102261 34.0847027,33.3102261 34.1206964,33.2721416 C34.2286776,33.1959728 34.2646714,33.0817195 34.2286776,32.9674662 L33.6887715,31.1774978 L35.1285211,30.0730492 C35.2365023,29.9968803 35.2724961,29.882627 35.2365023,29.7683737 C35.1645149,29.6541204 35.0565336,29.5779515 34.9485524,29.5779515 Z" id="Combined-Shape" fill="#4A4A4A"></path>
                <circle id="Oval-4-Copy" stroke="#9B9B9B" opacity="0.400000006" cx="41" cy="41" r="41"></circle>
            </g>
        </g>
    </g>
</svg>