<?xml version="1.0" encoding="UTF-8"?>
<svg width="84px" height="40px" viewBox="0 0 84 40" version="1.1" xmlns="http://www.w3.org/2000/svg" xmlns:xlink="http://www.w3.org/1999/xlink">
    <!-- Generator: Sketch 41.2 (35397) - http://www.bohemiancoding.com/sketch -->
    <title>Page 1</title>
    <desc>Created with Sketch.</desc>
    <defs>
        <polygon id="path-1" points="0 39.3631429 83.7864407 39.3631429 83.7864407 0.000285714286 0 0.000285714286"></polygon>
    </defs>
    <g id="Page-1" stroke="none" stroke-width="1" fill="none" fill-rule="evenodd">
        <g id="Artboard" transform="translate(-1807.000000, -1082.000000)">
            <g id="Page-1" transform="translate(1807.000000, 1082.000000)">
                <path d="M35.8608814,10.0655714 C35.8608814,11.6834286 36.3912203,12.4912857 37.453322,12.4912857 L48.8581017,12.4912857 C51.5631864,12.4912857 53.8653559,13.4491429 55.7667458,15.3641429 C57.6674237,17.2798571 58.6177627,19.5877143 58.6177627,22.2891429 L58.6177627,23.0077143 C58.6177627,25.7091429 57.6695593,28.0177143 55.7731525,29.9327143 C53.8767458,31.8484286 51.5788475,32.8055714 48.8794576,32.8055714 L30.2229153,32.8055714 L30.2229153,24.6798571 L48.8794576,24.6798571 C49.323661,24.6798571 49.7080678,24.5148571 50.032678,24.1848571 C50.3572881,23.8555714 50.5195932,23.4648571 50.5195932,23.0134286 C50.5195932,21.4162857 49.9728814,20.617 48.8794576,20.617 L37.5010169,20.617 C34.8357966,20.617 32.5464407,19.6577143 30.6329492,17.737 C28.7187458,15.8177143 27.7627119,13.5027143 27.7627119,10.7941429 L27.7627119,10.0741429 C27.7627119,7.36628571 28.7187458,5.052 30.6329492,3.13128571 C32.5464407,1.21128571 34.8357966,0.251285714 37.5010169,0.251285714 L56.2088136,0.251285714 L56.2088136,8.377 L37.4540339,8.377 C37.0425763,8.377 36.6738305,8.54414286 36.3492203,8.87842857 C36.0238983,9.21271429 35.8608814,9.60842857 35.8608814,10.0655714 Z" id="Fill-1" fill="#D57970"></path>
                <mask id="mask-2" fill="white">
                    <use xlink:href="#path-1"></use>
                </mask>
                <g id="Clip-4"></g>
                <polygon id="Fill-3" fill="#D57970" mask="url(#mask-2)" points="26.1254237 32.8574286 33.7188814 32.8574286 33.7188814 24.7024286 26.1254237 24.7024286"></polygon>
                <path d="M4.53607119,5.08578571 C7.56007119,1.89721429 11.1905797,0.302928571 15.4275966,0.302928571 L26.8060373,0.302928571 L26.8060373,8.48007143 L15.4275966,8.48007143 C13.4108847,8.48007143 11.6938678,9.27721429 10.2765458,10.8715 C8.85851186,12.4657857 8.14949492,14.3772143 8.14949492,16.6057857 C8.14949492,18.8350714 8.85851186,20.7379286 10.2765458,22.3143571 C11.6938678,23.8915 13.4108847,24.6800714 15.4275966,24.6800714 L26.8060373,24.6800714 L26.8060373,32.8572143 L15.4275966,32.8572143 C11.1905797,32.8572143 7.56007119,31.2715 4.53607119,28.1000714 C1.51207119,24.9293571 7.11864404e-05,21.0979286 7.11864404e-05,16.6057857 C7.11864404e-05,12.1143571 1.51207119,8.27435714 4.53607119,5.08578571" id="Fill-5" fill="#D57970" mask="url(#mask-2)"></path>
                <path d="M7.42730847,35.2165714 L6.03490169,37.6465714 L8.81971525,37.6465714 L7.42730847,35.2165714 Z M9.76364746,39.2858571 L8.98202034,37.9101429 L5.88256271,37.9101429 L5.09096949,39.2858571 L4.70941017,39.2858571 L7.42730847,34.548 L10.1551729,39.2858571 L9.76364746,39.2858571 Z" id="Fill-6" fill="#D27668" mask="url(#mask-2)"></path>
                <path d="M13.0162271,39.1182857 C12.7620915,39.264 12.4567017,39.3375714 12.1007695,39.3375714 C11.4899898,39.3375714 11.032261,39.1504286 10.7275831,38.7775714 L11.0607356,38.6425714 C11.168939,38.7761429 11.2992102,38.8782857 11.452261,38.9518571 C11.6110068,39.0332857 11.8274136,39.074 12.1007695,39.074 C12.6980237,39.074 12.9970068,38.9018571 12.9970068,38.5597143 C12.9970068,38.4097143 12.8923627,38.2782857 12.6823627,38.1668571 C12.6182949,38.1418571 12.5278881,38.1125714 12.4104305,38.0804286 C12.2929729,38.0482857 12.1484644,38.0104286 11.9769051,37.9682857 C11.6587017,37.8904286 11.4294814,37.814 11.2899559,37.7361429 C11.0863627,37.6247143 10.9845661,37.4647143 10.9845661,37.2547143 C10.9845661,37.0747143 11.0863627,36.9204286 11.2899559,36.7911429 C11.4871424,36.659 11.7441254,36.5918571 12.0623288,36.5918571 C12.5008373,36.5918571 12.8731424,36.6947143 13.1785322,36.9011429 L12.8923627,37.0675714 C12.6759559,36.9225714 12.3990407,36.849 12.0623288,36.849 C11.6046,36.849 11.3753797,36.9847143 11.3753797,37.2547143 C11.3753797,37.3747143 11.4451424,37.4725714 11.5853797,37.5504286 C11.6999898,37.6104286 11.8815153,37.6682857 12.1292441,37.724 C12.3456508,37.7747143 12.5236169,37.8232857 12.6631424,37.8682857 C12.8033797,37.9132857 12.9080237,37.9525714 12.9777864,37.9868571 C13.2511424,38.1282857 13.3878203,38.3197143 13.3878203,38.5597143 C13.3878203,38.7904286 13.2639559,38.9775714 13.0162271,39.1182857" id="Fill-7" fill="#D27668" mask="url(#mask-2)"></path>
                <path d="M16.1727051,39.1182857 C15.9185695,39.264 15.6131797,39.3375714 15.2572475,39.3375714 C14.6464678,39.3375714 14.188739,39.1504286 13.884061,38.7775714 L14.2172136,38.6425714 C14.3254169,38.7761429 14.4556881,38.8782857 14.608739,38.9518571 C14.7674847,39.0332857 14.9838915,39.074 15.2572475,39.074 C15.8545017,39.074 16.1534847,38.9018571 16.1534847,38.5597143 C16.1534847,38.4097143 16.0488407,38.2782857 15.8388407,38.1668571 C15.7747729,38.1418571 15.6843661,38.1125714 15.5669085,38.0804286 C15.4494508,38.0482857 15.3049424,38.0104286 15.1333831,37.9682857 C14.8151797,37.8904286 14.5859593,37.814 14.4464339,37.7361429 C14.2428407,37.6247143 14.1410441,37.4647143 14.1410441,37.2547143 C14.1410441,37.0747143 14.2428407,36.9204286 14.4464339,36.7911429 C14.6436203,36.659 14.9006034,36.5918571 15.2188068,36.5918571 C15.6573153,36.5918571 16.0296203,36.6947143 16.3350102,36.9011429 L16.0488407,37.0675714 C15.8324339,36.9225714 15.5555186,36.849 15.2188068,36.849 C14.761078,36.849 14.5318576,36.9847143 14.5318576,37.2547143 C14.5318576,37.3747143 14.6016203,37.4725714 14.7418576,37.5504286 C14.8564678,37.6104286 15.0379932,37.6682857 15.285722,37.724 C15.5021288,37.7747143 15.6800949,37.8232857 15.8196203,37.8682857 C15.9598576,37.9132857 16.0645017,37.9525714 16.1342644,37.9868571 C16.4076203,38.1282857 16.5442983,38.3197143 16.5442983,38.5597143 C16.5442983,38.7904286 16.4204339,38.9775714 16.1727051,39.1182857" id="Fill-8" fill="#D27668" mask="url(#mask-2)"></path>
                <path d="M20.3020169,37.1707857 C19.9838136,36.9522143 19.593,36.8429286 19.1288644,36.8429286 C18.6839492,36.8429286 18.2995424,36.9543571 17.9749322,37.1772143 C17.6446271,37.4000714 17.4794746,37.6615 17.4794746,37.9615 C17.4794746,38.2657857 17.6410678,38.5272143 17.965678,38.7457857 C18.2895763,38.9643571 18.6775424,39.0736429 19.1288644,39.0736429 C19.5865932,39.0736429 19.9745593,38.9665 20.2927627,38.7522143 C20.616661,38.5336429 20.7789661,38.2700714 20.7789661,37.9615 C20.7789661,37.6486429 20.6202203,37.3850714 20.3020169,37.1707857 M20.5789322,38.9322143 C20.1845593,39.1979286 19.7012034,39.3307857 19.1288644,39.3307857 C18.5565254,39.3307857 18.0767288,39.2000714 17.6887627,38.9386429 C17.2943898,38.6729286 17.0979153,38.3465 17.0979153,37.9615 C17.0979153,37.5800714 17.2943898,37.2565 17.6887627,36.9907857 C18.0767288,36.7207857 18.5565254,36.5857857 19.1288644,36.5857857 C19.6947966,36.5857857 20.1745932,36.7186429 20.5689661,36.9843571 C20.963339,37.2500714 21.1605254,37.5757857 21.1605254,37.9615 C21.1605254,38.3465 20.9661864,38.6707857 20.5789322,38.9322143" id="Fill-9" fill="#D27668" mask="url(#mask-2)"></path>
                <path d="M24.0021458,39.3373571 C23.4169932,39.3373571 22.9307898,39.2059286 22.5428237,38.9452143 C22.1548576,38.6837857 21.9612305,38.3559286 21.9612305,37.9616429 C21.9612305,37.5666429 22.1548576,37.2387857 22.5428237,36.9773571 C22.9307898,36.7166429 23.4169932,36.5852143 24.0021458,36.5852143 C24.504722,36.5852143 24.9047898,36.6630714 25.2037729,36.8173571 L25.2037729,37.1323571 L24.9560441,37.0230714 L24.6890949,36.9266429 C24.447061,36.8709286 24.2185525,36.8430714 24.0021458,36.8430714 C23.5123831,36.8430714 23.1151627,36.9452143 22.8097729,37.1509286 C22.4986881,37.3609286 22.3427898,37.6309286 22.3427898,37.9616429 C22.3427898,38.2866429 22.4986881,38.5552143 22.8097729,38.7652143 C23.1215695,38.9752143 23.5187898,39.0802143 24.0021458,39.0802143 C24.4598746,39.0802143 24.8606542,38.9773571 25.2037729,38.7716429 L25.2037729,39.0995 C24.8478407,39.2580714 24.447061,39.3373571 24.0021458,39.3373571" id="Fill-10" fill="#D27668" mask="url(#mask-2)"></path>
                <path d="M26.1574576,39.286 L26.5482712,39.286 L26.5482712,36.631 L26.1574576,36.631 L26.1574576,39.286 Z M26.3574915,36.1552857 C26.2877288,36.1552857 26.2151186,36.1352857 26.1382373,36.0974286 C26.0812881,36.0588571 26.0492542,36.0074286 26.0428475,35.9431429 C26.0428475,35.8274286 26.1474915,35.756 26.3574915,35.731 C26.5169492,35.731 26.6215932,35.8017143 26.6728475,35.9431429 C26.6728475,36.0838571 26.5674915,36.1552857 26.3574915,36.1552857 L26.3574915,36.1552857 Z" id="Fill-11" fill="#D27668" mask="url(#mask-2)"></path>
                <path d="M30.7447119,37.1770714 C30.4201017,36.9585 30.0328475,36.8492143 29.5808136,36.8492143 C29.1230847,36.8492143 28.7358305,36.9563571 28.4176271,37.1706429 C28.0930169,37.3892143 27.9314237,37.6527857 27.9314237,37.9620714 C27.9314237,38.2656429 28.0930169,38.5277857 28.4176271,38.7456429 C28.7422373,38.9642143 29.1294915,39.0735 29.5808136,39.0735 C30.0385424,39.0735 30.4265085,38.9663571 30.7447119,38.7520714 C31.069322,38.5335 31.2309153,38.2699286 31.2309153,37.9620714 C31.2309153,37.6570714 31.069322,37.3956429 30.7447119,37.1770714 L30.7447119,37.1770714 Z M31.1547458,39.2856429 L31.1547458,38.8292143 C30.7411525,39.1635 30.2165085,39.3313571 29.5808136,39.3313571 C29.0091864,39.3313571 28.528678,39.1999286 28.1407119,38.9385 C27.7470508,38.6727857 27.5498644,38.3470714 27.5498644,37.9620714 C27.5498644,37.5763571 27.7434915,37.2520714 28.1314576,36.9906429 C28.5258305,36.7249286 29.0091864,36.5920714 29.5808136,36.5920714 C30.2108136,36.5920714 30.7347458,36.7592143 31.1547458,37.0935 L31.1547458,36.6306429 L31.5455593,36.6306429 L31.5455593,39.2856429 L31.1547458,39.2856429 Z" id="Fill-12" fill="#D27668" mask="url(#mask-2)"></path>
                <polygon id="Fill-13" fill="#D27668" mask="url(#mask-2)" points="33.3005186 36.8945 33.3005186 39.2859286 32.9097051 39.2859286 32.9097051 36.8945 32.3758068 36.8945 32.3758068 36.6309286 32.9097051 36.6309286 32.9097051 35.4673571 33.3005186 35.4673571 33.3005186 36.6309286 34.2159763 36.6309286 34.2159763 36.8945"></polygon>
                <path d="M35.1604068,39.286 L35.5512203,39.286 L35.5512203,36.631 L35.1604068,36.631 L35.1604068,39.286 Z M35.3604407,36.1552857 C35.290678,36.1552857 35.2180678,36.1352857 35.1411864,36.0974286 C35.0842373,36.0588571 35.0522034,36.0074286 35.0457966,35.9431429 C35.0457966,35.8274286 35.1504407,35.756 35.3604407,35.731 C35.5191864,35.731 35.6245424,35.8017143 35.6757966,35.9431429 C35.6757966,36.0838571 35.5704407,36.1552857 35.3604407,36.1552857 L35.3604407,36.1552857 Z" id="Fill-14" fill="#D27668" mask="url(#mask-2)"></path>
                <path d="M39.7569864,37.1707857 C39.4387831,36.9522143 39.0479695,36.8429286 38.5838339,36.8429286 C38.1389186,36.8429286 37.7545119,36.9543571 37.4299017,37.1772143 C37.0995966,37.4000714 36.9344441,37.6615 36.9344441,37.9615 C36.9344441,38.2657857 37.0960373,38.5272143 37.4206475,38.7457857 C37.7445458,38.9643571 38.1325119,39.0736429 38.5838339,39.0736429 C39.0415627,39.0736429 39.4295288,38.9665 39.7477322,38.7522143 C40.0716305,38.5336429 40.2339356,38.2700714 40.2339356,37.9615 C40.2339356,37.6486429 40.0751898,37.3850714 39.7569864,37.1707857 M40.0339017,38.9322143 C39.6395288,39.1979286 39.1561729,39.3307857 38.5838339,39.3307857 C38.0114949,39.3307857 37.5316983,39.2000714 37.1437322,38.9386429 C36.7493593,38.6729286 36.5528847,38.3465 36.5528847,37.9615 C36.5528847,37.5800714 36.7493593,37.2565 37.1437322,36.9907857 C37.5316983,36.7207857 38.0114949,36.5857857 38.5838339,36.5857857 C39.1497661,36.5857857 39.6295627,36.7186429 40.0239356,36.9843571 C40.4183085,37.2500714 40.6154949,37.5757857 40.6154949,37.9615 C40.6154949,38.3465 40.4211559,38.6707857 40.0339017,38.9322143" id="Fill-15" fill="#D27668" mask="url(#mask-2)"></path>
                <path d="M44.2485661,39.2857143 L44.2485661,37.6978571 C44.2485661,37.1364286 43.8734136,36.8557143 43.1231085,36.8557143 C42.7543627,36.8557143 42.4746,36.9285714 42.2838203,37.0742857 C42.0866339,37.22 41.9883966,37.4192857 41.9883966,37.6721429 L41.9883966,39.2857143 L41.5975831,39.2857143 L41.5975831,36.6307143 L41.9883966,36.6307143 L41.9883966,36.9521429 C42.1663627,36.7164286 42.5443627,36.5985714 43.1231085,36.5985714 C43.6128712,36.5985714 43.9880237,36.6928571 44.2485661,36.8814286 C44.5091085,37.07 44.6393797,37.3342857 44.6393797,37.6721429 L44.6393797,39.2857143 L44.2485661,39.2857143 Z" id="Fill-16" fill="#D27668" mask="url(#mask-2)"></path>
                <path d="M51.2389322,37.1707857 C50.9207288,36.9522143 50.5299153,36.8429286 50.0657797,36.8429286 C49.6208644,36.8429286 49.2364576,36.9543571 48.9118475,37.1772143 C48.5815424,37.4000714 48.4163898,37.6615 48.4163898,37.9615 C48.4163898,38.2657857 48.5779831,38.5272143 48.9025932,38.7457857 C49.2264915,38.9643571 49.6144576,39.0736429 50.0657797,39.0736429 C50.5235085,39.0736429 50.9114746,38.9665 51.229678,38.7522143 C51.5535763,38.5336429 51.7158814,38.2700714 51.7158814,37.9615 C51.7158814,37.6486429 51.5571356,37.3850714 51.2389322,37.1707857 M51.5158475,38.9322143 C51.1214746,39.1979286 50.6381186,39.3307857 50.0657797,39.3307857 C49.4934407,39.3307857 49.0136441,39.2000714 48.625678,38.9386429 C48.2313051,38.6729286 48.0348305,38.3465 48.0348305,37.9615 C48.0348305,37.5800714 48.2313051,37.2565 48.625678,36.9907857 C49.0136441,36.7207857 49.4934407,36.5857857 50.0657797,36.5857857 C50.6317119,36.5857857 51.1115085,36.7186429 51.5058814,36.9843571 C51.9002542,37.2500714 52.0974407,37.5757857 52.0974407,37.9615 C52.0974407,38.3465 51.9031017,38.6707857 51.5158475,38.9322143" id="Fill-17" fill="#D27668" mask="url(#mask-2)"></path>
                <path d="M54.0717966,34.7921429 L53.8141017,34.7728571 C53.4581695,34.7728571 53.2802034,34.9142857 53.2802034,35.1971429 L53.2802034,36.6307143 L54.2148814,36.6307143 L54.2148814,36.8942857 L53.2802034,36.8942857 L53.2802034,39.2857143 L52.888678,39.2857143 L52.888678,36.8942857 L52.3547797,36.8942857 L52.3547797,36.6307143 L52.888678,36.6307143 L52.888678,35.12 C52.888678,34.7128571 53.1940678,34.5092857 53.8048475,34.5092857 C53.9443729,34.5092857 54.0333559,34.5135714 54.0717966,34.5221429 C54.1479661,34.5221429 54.2341017,34.5371429 54.3287797,34.5671429 L54.3287797,34.8307143 L54.0717966,34.7921429 Z" id="Fill-18" fill="#D27668" mask="url(#mask-2)"></path>
                <polygon id="Fill-19" fill="#D27668" mask="url(#mask-2)" points="58.0767458 35.3899286 58.0767458 39.2856429 57.6951864 39.2856429 57.6951864 34.6635 62.7786102 38.6813571 62.7786102 34.6956429 63.1694237 34.6956429 63.1694237 39.3627857"></polygon>
                <polygon id="Fill-20" fill="#D27668" mask="url(#mask-2)" points="64.0087119 39.2857143 64.0087119 34.6957143 67.2797288 34.6957143 67.2797288 34.9592857 64.3995254 34.9592857 64.3995254 36.6307143 67.2797288 36.6307143 67.2797288 36.9135714 64.3995254 36.9135714 64.3995254 39.0221429 67.2797288 39.0221429 67.2797288 39.2857143"></polygon>
                <path d="M70.7707119,35.1778571 C70.5101695,35.0321429 70.166339,34.9592857 69.7406441,34.9592857 L68.4721017,34.9592857 L68.4721017,36.7271429 L69.7406441,36.7271429 C70.1606441,36.7271429 70.5101695,36.65 70.7899322,36.4957143 C71.0696949,36.3328571 71.2092203,36.1121429 71.2092203,35.8335714 C71.2092203,35.555 71.0632881,35.3364286 70.7707119,35.1778571 M71.0668475,36.6692857 C70.7102034,36.8835714 70.2716949,36.9907143 69.7498983,36.9907143 L68.4721017,36.9907143 L68.4721017,39.2857143 L68.0905424,39.2857143 L68.0905424,34.6957143 L69.7498983,34.6957143 C70.2716949,34.6957143 70.7102034,34.7985714 71.0668475,35.0042857 C71.4227797,35.21 71.6007458,35.4871429 71.6007458,35.8335714 C71.6007458,36.185 71.4227797,36.4635714 71.0668475,36.6692857" id="Fill-21" fill="#D07E7A" mask="url(#mask-2)"></path>
                <path d="M73.5552407,35.2165714 L72.1628339,37.6465714 L74.9476475,37.6465714 L73.5552407,35.2165714 Z M75.8915797,39.2858571 L75.1099525,37.9101429 L72.0104949,37.9101429 L71.2189017,39.2858571 L70.8373424,39.2858571 L73.5552407,34.548 L76.2831051,39.2858571 L75.8915797,39.2858571 Z" id="Fill-22" fill="#D07E7A" mask="url(#mask-2)"></path>
                <polygon id="Fill-23" fill="#D07E7A" mask="url(#mask-2)" points="76.8646983 39.2857143 76.8646983 34.6957143 77.2462576 34.6957143 77.2462576 39.0221429 79.1633085 39.0221429 79.1633085 39.2857143"></polygon>
                <polygon id="Fill-24" fill="#00AEEE" mask="url(#mask-2)" points="60.0101695 33.0031429 68.108339 33.0031429 68.108339 11.1338571 60.0101695 11.1338571"></polygon>
                <polygon id="Fill-25" fill="#00AEEE" mask="url(#mask-2)" points="69.1933627 0 69.1933627 7.85714286 69.1933627 33.2142857 77.0238712 33.2142857 77.0238712 7.85714286 83.7865831 7.85714286 83.7865831 0"></polygon>
                <polygon id="Fill-26" fill="#00AEEE" mask="url(#mask-2)" points="60.0101695 8.10242857 68.108339 8.10242857 68.108339 0.123142857 60.0101695 0.123142857"></polygon>
            </g>
        </g>
    </g>
</svg>