<?xml version="1.0" encoding="UTF-8"?>
<svg width="84px" height="84px" viewBox="0 0 84 84" version="1.1" xmlns="http://www.w3.org/2000/svg" xmlns:xlink="http://www.w3.org/1999/xlink">
    <!-- Generator: Sketch 41.2 (35397) - http://www.bohemiancoding.com/sketch -->
    <title>Group 20</title>
    <desc>Created with Sketch.</desc>
    <defs></defs>
    <g id="homepage" stroke="none" stroke-width="1" fill="none" fill-rule="evenodd">
        <g id="Desktop-HD-Copy-8" transform="translate(-486.000000, -4481.000000)" stroke="#9B9B9B">
            <g id="Group-23" transform="translate(0.000000, 4115.000000)">
                <g id="Group-31">
                    <g id="Group-20" transform="translate(487.000000, 367.000000)">
                        <path d="M51.9049479,37.364134 C51.9049479,34.4015407 49.7072061,32 46.9960234,32 L20.9089245,32 C18.1977419,32 16,34.4015407 16,37.364134 L16,52.5306029 C16,55.4931962 18.1977419,57.8947368 20.9089245,57.8947368 L46.9960234,57.8947368 C49.7072061,57.8947368 51.9049479,55.4931962 51.9049479,52.5306029 L51.9049479,37.364134 Z M47.2811087,35.5311005 L34.272387,45.4307368 L21.2633063,35.5311005 L47.2811087,35.5311005 Z M21.2284785,54.3636364 C21.0690605,54.3636364 20.9150283,54.2070909 20.767818,54.1647177 L27.2895928,48.4360957 C27.9563477,47.8562105 28.067653,46.7627464 27.537696,46.0337703 C27.0070208,45.3051866 25.9499792,45.1674737 25.2828652,45.7465742 L19.2314453,50.9094354 L19.2314453,37.7906124 L33.3036715,48.4337416 C33.568291,48.6350144 33.9201595,48.7362392 34.228583,48.7362392 C34.5370065,48.7362392 34.6343089,48.6350144 34.8992874,48.4337416 L48.6735026,37.7906124 L48.6735026,50.9094354 L42.9423548,45.7312727 C42.2752409,45.1517799 41.4210622,45.2734067 40.8911051,46.0019904 C40.3611481,46.7309665 40.5302604,47.791866 41.1973743,48.3705742 L47.747514,54.1647177 C47.6003037,54.2066986 47.4753545,54.3636364 47.3159365,54.3636364 L21.2284785,54.3636364 Z" id="Shape"></path>
                        <polygon id="Star" points="61.5 31 57.6793959 32.854102 58.4090663 28.927051 55.3181326 26.145898 59.5896979 25.572949 61.5 22 63.4103021 25.572949 67.6818674 26.145898 64.5909337 28.927051 65.3206041 32.854102"></polygon>
                        <circle id="Oval-4" opacity="0.400000006" cx="41" cy="41" r="41"></circle>
                    </g>
                </g>
            </g>
        </g>
    </g>
</svg>