<?xml version="1.0" encoding="UTF-8"?>
<svg width="84px" height="84px" viewBox="0 0 84 84" version="1.1" xmlns="http://www.w3.org/2000/svg" xmlns:xlink="http://www.w3.org/1999/xlink">
    <!-- Generator: Sketch 41.2 (35397) - http://www.bohemiancoding.com/sketch -->
    <title>Group 20</title>
    <desc>Created with Sketch.</desc>
    <defs></defs>
    <g id="homepage" stroke="none" stroke-width="1" fill="none" fill-rule="evenodd">
        <g id="Desktop-HD-Copy-8" transform="translate(-418.000000, -4601.000000)" stroke="#9B9B9B">
            <g id="Group-23" transform="translate(-68.000000, 4112.000000)">
                <g id="Group-31">
                    <g id="Group-20" transform="translate(487.000000, 490.000000)">
                        <circle id="Oval-4" opacity="0.400000006" cx="41" cy="41" r="41"></circle>
                        <path d="M46.6268069,19.7514769 L25.4756897,19.7514769 C23.8138162,19.7514769 22.4541016,21.1111916 22.4541016,22.773065 L22.4541016,43.9241822 C22.4541016,45.5860557 23.8138162,46.9457704 25.4756897,46.9457704 L46.6268069,46.9457704 C48.2886804,46.9457704 49.648395,45.5860557 49.648395,43.9241822 L49.648395,22.773065 C49.648395,21.1111916 48.2886804,19.7514769 46.6268069,19.7514769 L46.6268069,19.7514769 Z M33.137574,42.696662 L25.8533882,34.9338679 L27.8929603,32.7602855 L33.137574,38.3494973 L44.2095363,26.5500502 L46.2491084,28.7236326 L33.137574,42.696662 L33.137574,42.696662 Z" id="Shape"></path>
                        <path d="M59.5240811,56.71406 L59.5240811,56.71406 L61.4739922,60.341536 C61.6300068,60.6307339 61.5240039,60.9944056 61.234806,61.1504202 L59.4006828,62.1343452 C59.3099008,62.1849005 59.2120519,62.2088191 59.1152902,62.2088191 C58.9032843,62.2088191 58.6983452,62.0946621 58.591255,61.8957026 L55.800387,56.7146036 L54.3935374,54.1074741 L51.0422127,55.9187659 C50.9557795,55.9655159 50.8590178,55.9883473 50.7627997,55.9883473 C50.6600584,55.9883473 50.5578606,55.9622543 50.4676222,55.9095246 C50.2882326,55.8078705 50.1729883,55.6203268 50.163747,55.4175621 L49.6489531,43.3305054 C49.6391682,43.1103454 49.7587613,42.8983394 49.9522847,42.7885312 C50.0446975,42.7243859 50.1398284,42.696662 50.2338721,42.696662 C50.3556396,42.696662 50.4736019,42.743412 50.577974,42.8162551 L60.6835906,49.7309104 C60.8531953,49.8505035 60.949957,50.0478321 60.9407157,50.2549456 C60.932018,50.4669516 60.8124249,50.6506901 60.6286865,50.7469081 L57.2806234,52.5527639 L59.5240811,56.71406 Z" id="Shape" stroke-width="2"></path>
                    </g>
                </g>
            </g>
        </g>
    </g>
</svg>