<?xml version="1.0" encoding="UTF-8"?>
<svg width="314px" height="336px" viewBox="0 0 314 336" version="1.1" xmlns="http://www.w3.org/2000/svg" xmlns:xlink="http://www.w3.org/1999/xlink">
    <!-- Generator: Sketch 41.2 (35397) - http://www.bohemiancoding.com/sketch -->
    <title>Group 59</title>
    <desc>Created with Sketch.</desc>
    <defs></defs>
    <g id="final-page" stroke="none" stroke-width="1" fill="none" fill-rule="evenodd">
        <g id="Onepager" transform="translate(-876.000000, -7523.000000)">
            <g id="Group-42" transform="translate(250.000000, 5875.000000)">
                <g id="Group-39" transform="translate(0.000000, 93.000000)">
                    <g id="Group-30" transform="translate(334.000000, 1556.000000)">
                        <g id="Group-59" transform="translate(293.000000, 0.000000)">
                            <g id="Group-57">
                                <g id="Group-56">
                                    <g id="Group-55" transform="translate(82.000000, 104.000000)">
                                        <g id="Group-54" stroke="#082674" stroke-width="2">
                                            <path d="M128.100425,76.9273627 C129.258739,77.4473672 130.467191,77.8978333 131.729876,78.2601832 C131.729876,78.2601832 159.272224,36.4178021 119.408299,9.6591307 C119.408299,9.6591307 67.7770553,-23.7465992 35.3742929,33.6908037 C15.0799312,68.971345 59.7616351,99.1387644 46.4594484,123 C46.4594484,123 56.0951773,118.906094 67.686157,111.270669" id="Stroke-3" fill="#FFFFFF"></path>
                                            <path d="M35.2079503,33.7006216 C34.414828,34.9596886 32.6758093,35.3767692 31.3433076,34.6273562 L29.3752156,33.5206359 C28.0427139,32.7712229 27.6013072,31.1280422 28.3942533,29.8689751 L33.7921011,21.2994269 C34.5850471,20.0403599 36.324242,19.6232793 37.6567438,20.3725258 L39.6248358,21.4794126 C40.9573375,22.2286591 41.3987441,23.8720063 40.6056219,25.1310734 L35.2079503,33.7006216 Z" id="Stroke-5" fill="#FFFFFF"></path>
                                            <path d="M35,18 C35,26.2843036 28.284342,33 20.0000857,33 C11.715658,33 5,26.2843036 5,18 C5,9.71569636 11.715658,3 20.0000857,3 C28.284342,3 35,9.71569636 35,18 Z" id="Stroke-7" fill="#FFFFFF"></path>
                                            <path d="M34.803608,18.4071174 C34.803608,26.4665754 28.1319134,33 19.9018892,33 C11.6716946,33 5,26.4665754 5,18.4071174 C5,10.3476593 20.2721415,25.1096565 28.5021657,25.1096565 C36.73219,25.1096565 34.803608,10.3476593 34.803608,18.4071174 Z" id="Stroke-9" fill="#FFFFFF"></path>
                                            <path d="M107.183285,49 C108.368453,77.3322914 85.8519667,98.8374161 68,111.351965 C74.476869,117.94735 83.2614904,122 92.9366835,122 C112.853874,122 129,104.828187 129,83.6457523 C129,80.6749878 128.682169,77.7830468 128.081105,75.006365 C113.520403,68.0502305 107.183285,49 107.183285,49 Z" id="Stroke-1"></path>
                                            <path d="M14.4583348,11.6539121 C14.4583348,19.9382157 28.7895486,33 20.3255466,33 C11.8615446,33 5,26.2843036 5,18 C5,9.71569636 11.8615446,3 20.3255466,3 C28.7895486,3 14.4583348,3.36960845 14.4583348,11.6539121 Z" id="Stroke-11" fill="#FFFFFF"></path>
                                            <path d="M8.13985393,28 C8.13985393,28 -2.67992185,33.3945487 0.629293256,47.6687155 C3.93833866,61.9428823 7.24738407,64.4662878 2.41100861,70 C2.41100861,70 15.268073,58.1360617 13.4213612,49.5258805 C13.4213612,49.5258805 17.9380156,58.1623899 15.1380802,63.1298745 C15.1380802,63.1298745 26.0900549,52.395314 22.1413976,43.9629337 C22.1413976,43.9629337 13.7499069,38.154143 13.807606,32.2265334 C13.807606,32.2265334 9.3377898,29.6689353 8.13985393,28 Z" id="Stroke-13" fill="#FFFFFF"></path>
                                            <path d="M117,86.5 C117,88.4329612 116.552333,90 116,90 C115.447667,90 115,88.4329612 115,86.5 C115,84.5668774 115.447667,83 116,83 C116.552333,83 117,84.5668774 117,86.5 Z" id="Stroke-15"></path>
                                            <path d="M79,87.5 C79,89.4329612 78.5523333,91 78,91 C77.4476667,91 77,89.4329612 77,87.5 C77,85.5668774 77.4476667,84 78,84 C78.5523333,84 79,85.5668774 79,87.5 Z" id="Stroke-17"></path>
                                            <path d="M94,81.5 C94,91.7173861 85.7172536,100 75.5000854,100 C65.2827464,100 57,91.7173861 57,81.5 C57,71.2826139 65.2827464,63 75.5000854,63 C85.7172536,63 94,71.2826139 94,81.5 Z" id="Stroke-19"></path>
                                            <path d="M140,81.5 C140,91.7173861 131.717254,100 121.500085,100 C111.282746,100 103,91.7173861 103,81.5 C103,71.2826139 111.282746,63 121.500085,63 C131.717254,63 140,71.2826139 140,81.5 Z" id="Stroke-21"></path>
                                        </g>
                                        <g id="Group-27" transform="translate(57.000000, 63.000000)">
                                            <path d="M36.9795733,18.4415128 C36.9795733,28.6002193 28.7064074,36.8352651 18.5010571,36.8352651 C8.29553641,36.8352651 0.0223705069,28.6002193 0.0223705069,18.4415128 C0.0223705069,8.28280642 8.29553641,0.0477605505 18.5010571,0.0477605505 C28.7064074,0.0477605505 36.9795733,8.28280642 36.9795733,18.4415128" id="Fill-23" fill-opacity="0.45" fill="#F5A623"></path>
                                            <path d="M36.9795733,18.4415128 C36.9795733,28.6002193 28.7064074,36.8352651 18.5010571,36.8352651 C8.29553641,36.8352651 0.0223705069,28.6002193 0.0223705069,18.4415128 C0.0223705069,8.28280642 8.29553641,0.0477605505 18.5010571,0.0477605505 C28.7064074,0.0477605505 36.9795733,8.28280642 36.9795733,18.4415128 Z" id="Stroke-25" stroke="#082674" stroke-width="2"></path>
                                        </g>
                                        <g id="Group-32" transform="translate(103.000000, 63.000000)">
                                            <path d="M36.8925472,18.4415128 C36.8925472,28.6002193 28.6573317,36.8352651 18.498795,36.8352651 C8.34008853,36.8352651 0.104872936,28.6002193 0.104872936,18.4415128 C0.104872936,8.28280642 8.34008853,0.0477605505 18.498795,0.0477605505 C28.6573317,0.0477605505 36.8925472,8.28280642 36.8925472,18.4415128" id="Fill-28" fill-opacity="0.45" fill="#F5A623"></path>
                                            <path d="M36.8925472,18.4415128 C36.8925472,28.6002193 28.6573317,36.8352651 18.498795,36.8352651 C8.34008853,36.8352651 0.104872936,28.6002193 0.104872936,18.4415128 C0.104872936,8.28280642 8.34008853,0.0477605505 18.498795,0.0477605505 C28.6573317,0.0477605505 36.8925472,8.28280642 36.8925472,18.4415128 Z" id="Stroke-30" stroke="#082674" stroke-width="2"></path>
                                        </g>
                                    </g>
                                    <polygon id="Stroke-33" stroke="#082674" stroke-width="2" points="176 188 184 188 184 186 176 186"></polygon>
                                    <path d="M207,171 C207,171 214.024793,173.25 217,181" id="Stroke-35" stroke="#FFFFFF" stroke-width="2"></path>
                                    <path d="M144,181 C144,181 146.25,173.975207 154,171" id="Stroke-36" stroke="#FFFFFF" stroke-width="2"></path>
                                    <path d="M166,234 C166,234 179.182875,240.75 189,234" id="Stroke-37" stroke="#082674" stroke-width="2"></path>
                                    <path d="M176,212.5 C176,214.432951 175.104626,216 174.000076,216 C172.895527,216 172,214.432951 172,212.5 C172,210.567049 172.895527,209 174.000076,209 C175.104626,209 176,210.567049 176,212.5 Z" id="Stroke-38" stroke="#082674" stroke-width="2"></path>
                                    <polygon id="Stroke-39" stroke="#082674" stroke-width="2" points="290 85.0483092 291.561066 87 295 84.9516908 293.439118 83"></polygon>
                                    <polygon id="Stroke-40" stroke="#082674" stroke-width="2" points="287 81.0483092 288.561066 83 292 80.9516908 290.439118 79"></polygon>
                                    <polygon id="Stroke-41" stroke="#082674" stroke-width="2" points="290.241229 75 298 86.2413303 286.758771 94 279 82.7588408"></polygon>
                                    <path d="M259.240855,120.969069 C252.266537,125.851469 246.961721,124.865482 242.147976,117.791521 L240.703802,115.669367 C238.104287,111.849421 235.049022,104.484573 243.836667,98.3327031 L268.595812,81 L284,103.636366 L259.240855,120.969069 Z" id="Stroke-42" stroke="#082674" stroke-width="2"></path>
                                    <polygon id="Stroke-43" stroke="#082674" stroke-width="2" points="286.847477 103 271 80.4586251 273.152523 79 289 101.541375"></polygon>
                                    <path d="M259.240855,120.969069 C252.266537,125.851469 246.961721,124.865482 242.147976,117.791521 L240.703802,115.669367 C238.104287,111.849421 235.049022,104.484573 243.836667,98.3327031 L268.595812,81 L284,103.636366 L259.240855,120.969069 Z" id="Stroke-44" stroke="#082674" stroke-width="2"></path>
                                    <path d="M257.890802,118.810435 L262,116.020802 L260.581857,114 L256.472659,116.789632 C253.69073,118.877018 249.505331,119.828872 246.054599,114.911509 L244,116.306326 C248.348806,122.50354 254.060398,121.709127 257.890802,118.810435 Z" id="Stroke-45" fill="#0A2674"></path>
                                    <path d="M312,96 C312,119.748249 292.748287,139 269.000086,139 C245.251884,139 226,119.748249 226,96 C226,72.2517512 245.251884,53 269.000086,53 C292.748287,53 312,72.2517512 312,96 Z" id="Stroke-46" stroke="#F6A623" stroke-width="2"></path>
                                    <path d="M167.046802,43.3571189 C167.459059,43.4365381 167.8008,43.8593134 167.681441,44.3147408 L163.2273,67.6634708 C163.149449,68.0840353 162.700851,68.3903179 162.288428,68.3110687 C161.876171,68.2316496 161.575939,67.7738413 161.653789,67.3532768 L166.066588,44.0394096 C166.18578,43.5839823 166.600371,43.2353541 167.046802,43.3571189 Z M155.299566,39.2451779 C155.092354,39.4193219 155.029173,39.6856397 155,39.9943032 L155.073849,69.5491237 C155.076683,70.3280099 155.698986,71.0120013 156.455152,71.0861485 C156.455152,71.0861485 156.606518,71.101114 156.833401,71.1233922 C156.804895,72.6388191 157.981152,73.9222807 159.500985,73.9935369 C160.903625,74.0923432 162.147063,73.0464589 162.353609,71.6653814 C162.580492,71.6876595 162.731691,71.702455 162.731691,71.702455 C163.488023,71.7767723 164.192678,71.1841045 164.375218,70.4623593 L169.972942,41.4643233 C170.036289,41.1980055 169.989779,40.8820294 169.818908,40.6706417 C169.648038,40.459254 169.394149,40.3174219 169.091749,40.287831 L156.009387,39.003349 C155.782505,38.9810708 155.506944,39.0708638 155.299566,39.2451779 Z" id="Stroke-47" stroke="#082674"></path>
                                    <path d="M170.370098,36 C170.062247,35.8967558 169.74692,35.8679855 169.43142,35.8392153 L155.789825,34.5976545 C155.474325,34.5688843 155.158998,34.540114 154.836024,34.585982 C153.573676,33.3044717 152.57833,31.7461092 152,30 L174,32.0025756 C173.123379,33.5785292 171.867637,34.9696953 170.370098,36 Z" id="Stroke-48" stroke="#082674" stroke-width="2"></path>
                                    <path d="M152.05144,23.9270403 C152.657247,17.315 158.309944,12.4192347 164.603887,13.0556596 C170.897831,13.6920845 175.523798,19.5867419 174.95226,26.24251 C174.864665,27.1983766 174.667076,28.1031396 174.393426,29 L152.099249,26.7459951 C151.9936,25.8106753 151.963845,24.8830825 152.05144,23.9270403 Z" id="Stroke-49" stroke="#082674" stroke-width="2"></path>
                                    <path d="M207,43 C207,66.7482488 187.748287,86 164.000086,86 C140.251884,86 121,66.7482488 121,43 C121,19.2517512 140.251884,0 164.000086,0 C168.821323,0 173.457237,0.793461255 177.784367,2.25692273 C194.771594,8.00210483 207,24.0729977 207,43 Z" id="Stroke-50" stroke="#F6A623" stroke-width="2"></path>
                                    <path d="M86,81 C86,104.748249 66.7482872,124 43.0000858,124 C19.2518844,124 0,104.748249 0,81 C0,57.2517512 19.2518844,38 43.0000858,38 C66.7482872,38 86,57.2517512 86,81 Z" id="Stroke-51" stroke="#F6A623" stroke-width="2" fill="#FFFFFF"></path>
                                    <path d="M35.9644511,65.1324706 C35.9651372,65.1319565 35.9665092,65.1310996 35.9671953,65.1307568 C36.1841543,64.9886857 36.4753768,65.0486675 36.61893,65.2646019 C36.7624831,65.4805364 36.70417,65.7742759 36.4870394,65.9173753 L27.2915772,72.0283213 L27.2895191,72.0296924 C27.0734175,72.1712494 26.7813375,72.1116104 26.6377843,71.8956759 C26.4928591,71.6788845 26.5520298,71.3865161 26.7693318,71.242217 L35.9644511,65.1324706 Z M43.5201146,87.1781822 L43.7039723,87.0578758 C44.5971919,86.473139 45.8221102,86.7637936 46.4397146,87.7058507 C47.057319,88.6479077 46.8347001,89.8861035 45.941652,90.4708404 L45.7577942,90.5911467 C44.8652607,91.1753695 43.6403425,90.8847148 43.0227381,89.9426578 C42.4051337,89.0006007 42.6277525,87.762405 43.5201146,87.1781822 Z M66.855819,82.7513538 L64.3739103,78.9024073 L64.9549833,78.5219513 C65.5851078,78.1094478 65.7602186,77.267132 65.3477392,76.6381799 C64.9661313,76.0560137 64.2145783,75.863215 63.6048633,76.1662088 C63.5962879,75.7259424 63.4734873,75.2940734 63.2232555,74.9125891 C62.697923,74.1110609 61.7467334,73.7355748 60.7658726,73.8356587 C60.7096176,73.7302621 60.6489034,73.6262366 60.5820148,73.5242675 L58.4678217,70.2998172 C57.6586416,69.0653917 56.2822808,68.4264998 54.9067775,68.4995062 L53.4451767,66.2700683 C53.0615108,65.6848173 52.4233253,65.3669138 51.7715906,65.3645145 C49.3723493,61.6866018 45.5108211,55.8157543 43.6460023,53.246648 C43.6350257,53.2276252 43.6249066,53.2084311 43.6127295,53.189751 C43.5760265,53.1340536 39.7232453,47.4467505 39.4514033,47.2076802 C38.281025,46.1730798 36.8979753,45.785426 35.5564309,46.1137835 C34.2924086,46.4239751 33.2288804,47.340497 32.7831282,48.5084284 C32.4872749,49.2775665 31.0647781,49.8487646 25.9608378,48.1961803 C25.2900656,47.9792176 25.0650456,47.9062111 24.7820555,47.9204354 C23.0741675,48.0038958 21.7051816,48.9481807 21.0263485,50.5126775 C20.219741,52.3707424 20.5516112,54.7184301 21.8305548,56.5247392 C21.5859828,57.1165026 21.6280025,57.8146907 22.0058371,58.3908588 L23.2834087,60.3394105 C22.9577128,61.2886653 23.0556445,62.3714226 23.6487231,63.2759481 L25.7630878,66.5009126 C25.9815904,66.83424 26.2512028,67.1125556 26.5520298,67.3396296 L25.2444441,68.1956556 C23.7363643,69.182956 23.3312597,71.2339909 24.3421346,72.7760374 L39.3328905,95.6407576 C40.3434224,97.1819472 42.3869537,97.6312966 43.8957196,96.6436533 L46.8575108,94.7046987 L47.2161364,95.2519042 L45.7610529,96.2042438 C45.3285069,96.4873579 45.2084505,97.0666107 45.4907545,97.4974515 C45.7740876,97.9294918 46.353617,98.0508264 46.7859915,97.7677123 L48.241075,96.8152013 L48.5834072,97.3373857 L47.1284953,98.2898968 C46.6959492,98.5730109 46.5753783,99.1515782 46.8587114,99.5837899 C47.1415299,100.015145 47.7205448,100.135622 48.1529193,99.8525084 L49.6080028,98.9001688 L50.0379762,99.5558555 L48.9615849,100.260385 C48.5677999,100.518306 48.456319,101.046489 48.7149548,101.440827 C48.9729045,101.834307 49.5028677,101.944674 49.8968242,101.686923 L50.9732155,100.982223 L51.3340708,101.532684 C51.3606547,101.573301 51.3901542,101.611003 51.4208544,101.646993 L50.7169809,102.107824 C50.3645296,102.338497 50.2667694,102.812525 50.4977922,103.164875 C50.728815,103.517225 51.2018372,103.615595 51.5542885,103.384922 L52.3967414,102.833433 C53.1925437,103.98474 53.422023,105.468176 52.9409398,106.576126 C52.625363,107.304819 52.0753332,107.710124 51.3047427,107.78673 C51.189317,107.753311 51.0203805,107.696586 50.8114824,107.628721 C48.5566518,106.898999 42.5656662,104.957817 41.1460851,108.673946 C40.9991018,109.059201 40.5756457,109.51352 39.9654162,109.665188 C39.3934333,109.804518 38.7904071,109.627828 38.2136219,109.151916 C37.7296231,108.470694 34.7186088,104.095621 34.3652999,103.556984 C34.3297975,103.50283 34.2896644,103.453644 34.2471301,103.407716 C32.9800207,101.661045 30.7282772,98.292296 28.6708536,95.170843 C29.0651531,94.5269812 29.0521184,93.7595569 28.6079098,93.0821053 C28.6079098,93.0821053 27.5766253,90.1205467 27.0252235,89.2796018 C26.4745076,88.4395138 24.9012543,86.0400703 24.9012543,86.0400703 C24.5673261,85.5305678 23.8296653,85.3351985 23.0462115,85.3633042 L23.1316231,85.3074355 L22.4622229,84.2862025 L21.9360329,84.6308407 L19.4033575,80.6970628 L17,82.2701284 L19.5330184,86.203735 L18.9034084,86.6158957 L19.5728085,87.6371287 L19.6625078,87.5783465 C19.2987369,88.3010415 19.1584425,89.0720648 19.4921992,89.5810532 C19.4921992,89.5810532 21.1424601,92.1175979 21.7302219,92.9947033 C22.2541824,93.7787511 24.5704132,95.6080247 24.5704132,95.6080247 C25.044636,96.3312338 25.9327103,96.6362842 26.8022616,96.460109 C28.8605427,99.5822475 31.1133152,102.950997 32.4106103,104.739483 C32.423645,104.763133 32.4366797,104.786783 32.451601,104.809576 C32.4877894,104.864759 36.3403991,110.553262 36.6132702,110.792504 C37.783134,111.826247 39.1666982,112.214758 40.5084141,111.886229 C41.7707214,111.57518 42.8349356,110.658316 43.2815453,109.491755 C43.5763696,108.722446 44.9990378,108.150048 50.1040072,109.804004 C50.774608,110.020966 50.9996279,110.093973 51.282618,110.079748 C52.1015741,110.039304 52.8407785,109.80229 53.4640427,109.394413 C54.1428759,108.949863 54.6836442,108.301888 55.0388396,107.485278 C55.8298397,105.664402 55.526097,103.372755 54.3092397,101.581527 L54.5912007,101.396954 C54.9431375,101.166453 55.0422698,100.693453 54.8114185,100.341103 C54.5803957,99.9889241 54.1065159,99.8890116 53.7538931,100.119856 L53.3019666,100.415652 C53.281214,100.372979 53.2585748,100.330992 53.2318193,100.290376 L52.8709641,99.739914 L53.6931789,99.2016202 C54.0885075,98.9428415 54.1975873,98.4141448 53.939466,98.0206642 C53.6810018,97.6263266 53.1525821,97.5169884 52.7581111,97.7752529 L51.9357248,98.3135467 L51.5059229,97.6576886 L52.7082019,96.8707273 C53.1400619,96.587956 53.2613189,96.0090459 52.9785003,95.5775197 C52.6951673,95.1454793 52.1154664,95.0253443 51.6836064,95.3079443 L50.4813273,96.0950769 L50.1389951,95.5727211 L51.3412741,94.7857599 C51.7731341,94.5031599 51.8938766,93.9233929 51.6105435,93.4913526 C51.3282394,93.0605119 50.748024,92.9396914 50.3163355,93.2222913 L49.113885,94.009424 L48.7552594,93.4623899 L52.2377524,91.1827387 C53.7472043,90.1945813 54.1523089,88.1435465 53.1412625,86.6015 L38.1505066,63.7367798 C37.1399747,62.1955902 35.0966149,61.7462408 33.587163,62.7343982 L31.8525196,63.8699394 C31.7643639,63.5035362 31.6166945,63.1455306 31.3981919,62.8122031 L29.2836558,59.5870673 C28.6629642,58.6402117 27.6462581,58.1118577 26.5949071,58.0708987 L25.3634715,56.1927828 C24.9926687,55.6270687 24.3838113,55.3119072 23.7550588,55.2891141 C22.8887662,54.1223824 22.6268717,52.5707388 23.1247627,51.4225158 C23.4411971,50.6951936 23.9891688,50.2881742 24.7613029,50.2124257 C24.8769001,50.2460155 25.045322,50.3018843 25.2545632,50.3704349 C27.5090507,51.0994709 33.4979782,53.0421958 34.9191029,49.3240096 C35.0671153,48.9389264 35.4885133,48.4840929 36.1006294,48.3341384 C36.6722693,48.1939524 37.2756385,48.3713272 37.8524237,48.8474113 C38.3355649,49.5272622 41.3476083,53.9035345 41.7004026,54.4416569 C41.735905,54.4958119 41.7760382,54.5448256 41.8184009,54.5909259 C43.6425721,57.1050203 47.5101031,62.985979 49.8966527,66.6441834 C49.6709467,67.2268638 49.7184547,67.9053436 50.0875424,68.4681443 L51.5488002,70.6968967 C50.9315388,71.928066 50.9673842,73.444406 51.7772504,74.6796884 L53.891272,77.9039673 C53.9581605,78.0062791 54.0296798,78.103621 54.1041148,78.1977068 C53.6218311,79.0554465 53.5877008,80.0754799 54.1128618,80.8764941 C54.36155,81.2559218 54.7061119,81.5400642 55.10367,81.7241226 C54.5347742,82.1517072 54.3874479,82.9511789 54.782948,83.5542531 C55.1952559,84.1832051 56.0385663,84.3586947 56.6680049,83.9467055 L57.5267511,83.3845903 L60.0009419,87.2229115 C60.2724408,87.6431269 60.8351623,87.7644615 61.2557027,87.4931724 C61.2577608,87.4918013 61.2598189,87.4904303 61.261191,87.4895734 C61.6784727,87.2163992 61.7971571,86.6587398 61.5278877,86.2390386 L59.045979,82.390092 L62.8553684,79.8963914 L65.3302452,83.7343699 C65.5996861,84.1557849 66.1625791,84.2771195 66.583634,84.0053162 C66.5863781,84.0036025 66.5877502,84.0027456 66.5898083,84.0013746 C67.006404,83.7285431 67.1250883,83.1710551 66.855819,82.7513538 Z" id="Stroke-52" stroke="#082674"></path>
                                    <polygon id="Stroke-53" stroke="#082674" stroke-width="2" points="18.4498841 79 16 80.2825239 16.5650637 81 19 79.6986175"></polygon>
                                    <path d="M78,309 C82.4182978,309 86,305.435757 86,301.038996 L86,290 L70,290 L70,301.038996 C70,305.435757 73.5817022,309 78,309" id="Fill-54" fill="#FFFFFF"></path>
                                    <path d="M78,309 C82.4182978,309 86,305.435757 86,301.038996 L86,290 L70,290 L70,301.038996 C70,305.435757 73.5817022,309 78,309 Z" id="Stroke-55" stroke="#082674" stroke-width="2"></path>
                                </g>
                                <g id="Group-58" transform="translate(78.000000, 300.000000)">
                                    <path d="M0,0.00272820513 L0,6.9131641" id="Fill-56" fill="#FFFFFF"></path>
                                    <path d="M0,0.00272820513 L0,6.9131641" id="Stroke-57" stroke="#082674" stroke-width="2"></path>
                                </g>
                                <path d="M242,312.281452 C242,314.876559 239.88803,317 237.306562,317 L115.693267,317 C113.11197,317 111,314.876559 111,312.281452 L111,234.718548 C111,232.123269 113.11197,230 115.693267,230 L237.306562,230 C239.88803,230 242,232.123269 242,234.718548 L242,312.281452 Z" id="Fill-59" fill="#FFFFFF"></path>
                                <path d="M242,312.281452 C242,314.876559 239.88803,317 237.306562,317 L115.693267,317 C113.11197,317 111,314.876559 111,312.281452 L111,234.718548 C111,232.123269 113.11197,230 115.693267,230 L237.306562,230 C239.88803,230 242,232.123269 242,234.718548 L242,312.281452 Z" id="Stroke-60" stroke="#082674" stroke-width="2"></path>
                                <path d="M78,309 C78,309 82.3998725,332.427389 95.4711181,332.427389 C108.542364,332.427389 96.8847552,319.532049 103.186147,319.217596 C109.487538,318.902971 116.10393,317.644985 116.418931,325.193414 C116.734104,332.741843 123.035323,334 124.29567,334 C125.555845,334 140.024059,329.961854 128.694168,316.726671" id="Stroke-61" stroke="#082674" stroke-width="2"></path>
                                <path d="M79,284.513488 L110,266 L110,277.552222 L87.7628708,293 C87.7628708,293 84.4640227,286.066637 79.1581478,286.229326 L79,284.513488 Z" id="Fill-62" fill="#FFFFFF"></path>
                                <path d="M79,284.513488 L110,266 L110,277.552222 L87.7628708,293 C87.7628708,293 84.4640227,286.066637 79.1581478,286.229326 L79,284.513488 Z" id="Stroke-63" stroke="#082674" stroke-width="2"></path>
                            </g>
                            <g id="Group-66" transform="translate(79.000000, 300.000000)">
                                <path d="M0.102304,0 L3.919264,0" id="Fill-64" fill="#FFFFFF"></path>
                                <path d="M0.102304,0 L3.919264,0" id="Stroke-65" stroke="#082674" stroke-width="2"></path>
                            </g>
                            <g id="Group-69" transform="translate(71.000000, 300.000000)">
                                <path d="M0.048736,0 L3.865696,0" id="Fill-67" fill="#FFFFFF"></path>
                                <path d="M0.048736,0 L3.865696,0" id="Stroke-68" stroke="#082674" stroke-width="2"></path>
                            </g>
                            <path d="M70.9441213,289.797657 L69.7201889,293.221427 C66.858617,303.074419 71.4479462,302.90363 71.5560875,300.92512 C71.9385872,293.921732 75.2275508,290.288465 75.2275508,290.288465 C75.2275508,290.288465 80.9929164,286.566748 84.7079366,295.089076 C86.3033543,298.748657 89.1200342,296.172214 88.9960388,295.089076 C88.6076982,291.698582 85.1101287,288.245102 83.4120769,287.151948 C82.2894436,286.429233 79.8170468,286.058284 79.8170468,286.058284 C79.8170468,280.062316 74.2739716,276.4136 74.2739716,276.4136 C71.2550275,274.779555 71.5560875,278.514684 71.5560875,278.514684 C75.916117,280.615599 76.9918558,286.058284 76.9918558,286.058284 C76.9918558,286.058284 68.8023231,285.517903 67.3108746,292.637924 C65.8192592,299.757775 70.1363994,292.535722 70.9441213,289.797657" id="Fill-70" fill="#FFFFFF"></path>
                            <path d="M70.9441213,289.797657 L69.7201889,293.221427 C66.858617,303.074419 71.4479462,302.90363 71.5560875,300.92512 C71.9385872,293.921732 75.2275508,290.288465 75.2275508,290.288465 C75.2275508,290.288465 80.9929164,286.566748 84.7079366,295.089076 C86.3033543,298.748657 89.1200342,296.172214 88.9960388,295.089076 C88.6076982,291.698582 85.1101287,288.245102 83.4120769,287.151948 C82.2894436,286.429233 79.8170468,286.058284 79.8170468,286.058284 C79.8170468,280.062316 74.2739716,276.4136 74.2739716,276.4136 C71.2550275,274.779555 71.5560875,278.514684 71.5560875,278.514684 C75.916117,280.615599 76.9918558,286.058284 76.9918558,286.058284 C76.9918558,286.058284 68.8023231,285.517903 67.3108746,292.637924 C65.8192592,299.757775 70.1363994,292.535722 70.9441213,289.797657 Z" id="Stroke-71" stroke="#082674" stroke-width="2"></path>
                            <polygon id="Fill-74" fill="#FFFFFF" points="176 282 165 271.000086 176 260 187 271.000086"></polygon>
                            <polygon id="Stroke-75" stroke="#082674" stroke-width="2" points="176 282 165 271.000086 176 260 187 271.000086"></polygon>
                        </g>
                    </g>
                </g>
            </g>
        </g>
    </g>
</svg>