<?xml version="1.0" encoding="UTF-8"?>
<svg width="559px" height="210px" viewBox="0 0 559 210" version="1.1" xmlns="http://www.w3.org/2000/svg" xmlns:xlink="http://www.w3.org/1999/xlink">
    <!-- Generator: Sketch 41.2 (35397) - http://www.bohemiancoding.com/sketch -->
    <title>Group 44</title>
    <desc>Created with Sketch.</desc>
    <defs></defs>
    <g id="homepage" stroke="none" stroke-width="1" fill="none" fill-rule="evenodd">
        <g id="Desktop-HD-Copy-8" transform="translate(-443.000000, -7430.000000)">
            <g id="Group-44" transform="translate(444.000000, 7255.000000)">
                <path d="M522.526378,215.709046 C534.717182,212.441038 542.901116,208.412057 540.173767,208.614139 C533.848768,209.083007 518.683573,199.236783 525.755352,201.112255 C532.827131,202.987726 554.985372,191.734899 548.856497,193.61037 C542.727622,195.485841 540.370362,189.859428 512.554698,179.544337 C484.739034,169.229246 456.923369,193.61037 456.923369,193.61037 C450.794494,187.515089 455.509014,181.419808 455.509014,181.419808 C445.137071,183.764147 445.91591,200.174519 445.91591,200.174519 C441.980229,195.485841 432.319707,198.299048 432.319707,198.299048 C440.717209,199.236783 439.479648,210.357389 439.479648,210.357389 C433.822224,210.225637 430.522061,222.680172 433.350773,217.522627 C436.179484,212.365081 440.422552,220.335833 440.422552,220.335833 C439.302853,237.484672 445.732515,242.766936 452.792036,243.590737" id="Stroke-3" stroke="#082674" stroke-width="2" fill="#FFFFFF"></path>
                <path d="M469.837674,213.837429 C469.837674,213.837429 461.862341,224.711231 469.837674,240.888297 C469.837674,240.888297 461.322378,245.474571 453.571834,244.554284 C454.329561,266.060205 471.786783,283.261814 493.224647,283.261814 C515.144403,283.261814 532.913989,265.280661 532.913989,243.099926 C532.913989,232.835068 529.102875,223.473913 522.84156,216.374144 C506.862327,220.732953 483.949752,223.752558 469.837674,213.837429 Z" id="Stroke-1" stroke="#082674" stroke-width="2" fill="#FFFFFF"></path>
                <path d="M495.818839,353.1048 L493.324213,363.16818 C493.014806,364.416464 491.698762,365.437617 490.399724,365.437617 L469.208395,365.437617 C467.909357,365.437617 466.894218,364.387021 466.95232,363.103219 L469.364752,310.002797 C469.422855,308.718995 468.68878,306.956162 467.732688,306.085962 L430.053494,271.782233 C429.097402,270.912033 429.377994,270.199796 430.677033,270.199796 L439.781637,270.199796 C441.080675,270.199796 443.079305,270.698922 444.222931,271.308343 L469.23107,284.64175 C470.374696,285.25117 472.33459,286.030705 473.58639,286.37327 C473.58639,286.37327 486.670776,289.956419 519.910093,285.144615 L541.344224,270.459173 C542.412269,269.727776 544.348545,269.125833 545.647583,269.122094 L555.750321,269.093586 C557.049359,269.089847 557.391833,269.860035 556.511321,270.80501 L523.768,305.949965 C522.887489,306.89494 522.214823,308.718995 522.272925,310.002797 L524.685358,363.103219 C524.74346,364.387021 523.728321,365.437617 522.429282,365.437617 L501.237954,365.437617 C499.938916,365.437617 498.622872,364.416464 498.313465,363.16818 L495.818839,353.1048" id="Stroke-5" stroke="#082674" stroke-width="2"></path>
                <path d="M474.193509,371.104914 C472.909776,371.104914 470.809121,371.12101 469.525854,371.141009 C469.525854,371.141009 461.278216,371.26734 460.655955,381.022683 L485.241554,381.022683 C486.525287,381.022683 487.575615,379.925207 487.575615,378.583847 L487.575615,373.54375 C487.575615,372.20239 486.525287,371.104914 485.241554,371.104914 L474.193509,371.104914 Z" id="Stroke-7" stroke="#082674" stroke-width="2"></path>
                <path d="M516.542786,371.104914 C517.82652,371.104914 519.927175,371.12101 521.210908,371.141009 C521.210908,371.141009 529.45808,371.26734 530.08034,381.022683 L505.494742,381.022683 C504.211008,381.022683 503.160681,379.925207 503.160681,378.583847 L503.160681,373.54375 C503.160681,372.20239 504.211008,371.104914 505.494742,371.104914 L516.542786,371.104914 Z" id="Stroke-9" stroke="#082674" stroke-width="2"></path>
                <path d="M483.325142,244.386938 C483.325142,244.386938 491.100183,236.630069 501.529426,240.349775 L501.743857,242.500847 C491.315068,238.781141 483.948857,246.424385 483.948857,246.424385 L483.325142,244.386938 Z" id="Fill-11" fill="#FFFFFF"></path>
                <path d="M483.325142,244.386938 C483.325142,244.386938 491.100183,236.630069 501.529426,240.349775 L501.743857,242.500847 C491.315068,238.781141 483.948857,246.424385 483.948857,246.424385 L483.325142,244.386938 Z" id="Stroke-13" stroke="#082674" stroke-width="2"></path>
                <path d="M490.424063,269.093572 C490.424063,269.093572 495.375548,270.956283 500.327032,269.093572 C500.327032,269.093572 499.781019,274.760869 494.84889,274.760869 C489.916311,274.760869 490.424063,269.093572 490.424063,269.093572 Z" id="Stroke-15" stroke="#082674" stroke-width="2" stroke-linecap="round" stroke-linejoin="round"></path>
                <path d="M545.665403,259.575825 C545.667723,260.871808 544.626031,261.934043 543.350017,261.936399 L505.540103,262.009446 C504.264089,262.012273 503.217757,260.953808 503.215437,259.657825 L503.160685,230.439297 C503.158365,229.143314 504.20052,228.081079 505.476534,228.078251 L543.286449,228.005676 C544.562463,228.002849 545.60833,229.061314 545.61065,230.357297 L545.665403,259.575825 Z" id="Fill-17" fill-opacity="0.445935236" fill="#F6A623"></path>
                <path d="M545.665403,259.575825 C545.667723,260.871808 544.626031,261.934043 543.350017,261.936399 L505.540103,262.009446 C504.264089,262.012273 503.217757,260.953808 503.215437,259.657825 L503.160685,230.439297 C503.158365,229.143314 504.20052,228.081079 505.476534,228.078251 L543.286449,228.005676 C544.562463,228.002849 545.60833,229.061314 545.61065,230.357297 L545.665403,259.575825 Z" id="Stroke-19" stroke="#082674" stroke-width="2"></path>
                <path d="M486.13466,262.219691 C486.319329,263.520766 485.42371,264.738673 484.144657,264.926043 L446.246728,270.485966 C444.967675,270.673336 443.770384,269.762297 443.586186,268.461221 L439.427619,239.129662 C439.243421,237.828586 440.13857,236.61068 441.417623,236.42331 L479.315552,230.863865 C480.594605,230.676017 481.791896,231.587056 481.976094,232.888132 L486.13466,262.219691 Z" id="Fill-21" fill-opacity="0.445935236" fill="#F6A623"></path>
                <path d="M486.13466,262.219691 C486.319329,263.520766 485.42371,264.738673 484.144657,264.926043 L446.246728,270.485966 C444.967675,270.673336 443.770384,269.762297 443.586186,268.461221 L439.427619,239.129662 C439.243421,237.828586 440.13857,236.61068 441.417623,236.42331 L479.315552,230.863865 C480.594605,230.676017 481.791896,231.587056 481.976094,232.888132 L486.13466,262.219691 Z" id="Stroke-23" stroke="#082674" stroke-width="2"></path>
                <path d="M435.15312,235.798204 C435.15312,236.971678 434.201784,237.92344 433.027608,237.92344 C431.853983,237.92344 430.902647,236.971678 430.902647,235.798204 C430.902647,234.62473 431.853983,233.672968 433.027608,233.672968 C434.201784,233.672968 435.15312,234.62473 435.15312,235.798204" id="Fill-25" fill="#FFFFFF"></path>
                <path d="M435.15312,235.798204 C435.15312,236.971678 434.201784,237.92344 433.027608,237.92344 C431.853983,237.92344 430.902647,236.971678 430.902647,235.798204 C430.902647,234.62473 431.853983,233.672968 433.027608,233.672968 C434.201784,233.672968 435.15312,234.62473 435.15312,235.798204 Z" id="Stroke-27" stroke="#082674" stroke-width="2"></path>
                <path d="M432,232 L432,229" id="Stroke-29" stroke="#082674" stroke-width="2"></path>
                <path d="M434.867964,234.735685 C435.45492,235.7518 435.106707,237.051789 434.090124,237.638242 C433.074092,238.225245 431.774208,237.877004 431.187803,236.860889 C430.600847,235.844224 430.94906,234.544785 431.965643,233.957782 C432.981675,233.371329 434.281009,233.71957 434.867964,234.735685" id="Fill-31" fill="#FFFFFF"></path>
                <path d="M434.867964,234.735685 C435.45492,235.7518 435.106707,237.051789 434.090124,237.638242 C433.074092,238.225245 431.774208,237.877004 431.187803,236.860889 C430.600847,235.844224 430.94906,234.544785 431.965643,233.957782 C432.981675,233.371329 434.281009,233.71957 434.867964,234.735685 Z" id="Stroke-33" stroke="#082674" stroke-width="2"></path>
                <path d="M430.902647,233.672968 L429.485823,230.839319" id="Stroke-35" stroke="#082674" stroke-width="2"></path>
                <path d="M429.485823,233.672968 L426.652175,232.256143" id="Stroke-37" stroke="#082674" stroke-width="2"></path>
                <path d="M430,235 L427,235" id="Stroke-39" stroke="#082674" stroke-width="2"></path>
                <path d="M429.485823,236.506616 L426.652175,237.92344" id="Stroke-41" stroke="#082674" stroke-width="2"></path>
                <path d="M430,238 L429,241" id="Stroke-43" stroke="#082674" stroke-width="2"></path>
                <path d="M432,238 L432,241" id="Stroke-45" stroke="#082674" stroke-width="2"></path>
                <path d="M434,238 L435,241" id="Stroke-47" stroke="#082674" stroke-width="2"></path>
                <path d="M435,237 L438,238" id="Stroke-49" stroke="#082674" stroke-width="2"></path>
                <path d="M435,235 L438,235" id="Stroke-51" stroke="#082674" stroke-width="2"></path>
                <path d="M435,233 L438,232" id="Stroke-53" stroke="#082674" stroke-width="2"></path>
                <path d="M433.736296,233.672968 L435.15312,230.839319" id="Stroke-55" stroke="#082674" stroke-width="2"></path>
                <g id="Group-60" transform="translate(536.000000, 229.000000)">
                    <path d="M2.60221096,0.543680662 L5.79900227,0.543680662 C6.99785351,0.543680662 7.97873179,1.39377517 7.97873179,2.43277958 L7.97873179,4.3218785" id="Fill-57" fill="#FFFFFF"></path>
                    <path d="M0.602210956,2.54368066 L3.79900227,2.54368066 C4.99785351,2.54368066 5.97873179,3.39377517 5.97873179,4.43277958 L5.97873179,6.3218785" id="Stroke-59" stroke="#082674" stroke-width="2"></path>
                </g>
                <g id="Group-64" transform="translate(504.000000, 229.000000)">
                    <path d="M3.2763662,0.567917801 L1.93841189,0.567917801 C1.20213559,0.567917801 0.599985311,1.16298396 0.599985311,1.89009813 L0.599985311,3.2128452" id="Fill-61" fill="#FFFFFF"></path>
                    <path d="M5.2763662,2.5679178 L3.93841189,2.5679178 C3.20213559,2.5679178 2.59998531,3.16298396 2.59998531,3.89009813 L2.59998531,5.2128452" id="Stroke-63" stroke="#082674" stroke-width="2"></path>
                </g>
                <g id="Group-68" transform="translate(539.000000, 253.000000)">
                    <path d="M2.99812827,0.0575329323 L2.99812827,2.63357691 C2.99812827,4.0504011 2.43625628,5.20962089 1.75010856,5.20962089 L0.50168405,5.20962089" id="Fill-65" fill="#FFFFFF"></path>
                    <path d="M2.99812827,0.0575329323 L2.99812827,2.63357691 C2.99812827,4.0504011 2.43625628,5.20962089 1.75010856,5.20962089 L0.50168405,5.20962089" id="Stroke-67" stroke="#082674" stroke-width="2"></path>
                </g>
                <path d="M467.740076,337.101133 C467.740076,337.101133 501.87681,328.194876 522.996219,336.166596" id="Stroke-69" stroke="#082674" stroke-width="2"></path>
                <path d="M474.824197,311.592915 C474.824197,311.064912 475.784238,310.23642 476.957774,309.752299 L485.442038,306.252314 C486.615574,305.768192 487.575615,305.83926 487.575615,306.410667 C487.575615,306.982074 486.610523,307.832983 485.431478,308.301365 L479.291991,310.741052 C478.112486,311.209433 478.112486,311.976874 479.291073,312.446686 L485.431937,314.892097 C486.610983,315.36191 487.575615,316.213773 487.575615,316.785656 C487.575615,317.35754 486.615574,317.428608 485.442497,316.943533 L476.957315,313.434962 C475.784238,312.949887 474.824197,312.120918 474.824197,311.592915 Z" id="Stroke-71" stroke="#082674" stroke-width="2"></path>
                <path d="M495.654052,303.968571 C496.017987,302.710292 496.675869,301.680529 497.11679,301.680529 C497.557711,301.680529 497.620699,302.710292 497.256765,303.968571 L493.665534,316.394377 C493.301599,317.653136 492.64328,318.682419 492.202359,318.682419 C491.761875,318.682419 491.698887,317.653136 492.062384,316.394377 L495.654052,303.968571 Z" id="Stroke-73" stroke="#082674" stroke-width="2"></path>
                <path d="M514.495274,311.603662 C514.495274,312.137799 513.534774,312.970481 512.361238,313.453589 L503.877893,316.945512 C502.704357,317.42862 501.743857,317.356607 501.743857,316.785271 C501.743857,316.213935 502.708489,315.362176 503.887076,314.891945 L510.017379,312.446836 C511.196425,311.976604 511.195966,311.208305 510.01692,310.739504 L503.887535,308.302026 C502.708489,307.832748 501.743857,306.981944 501.743857,306.410608 C501.743857,305.839272 502.703898,305.768212 503.877434,306.252274 L512.361697,309.751827 C513.535234,310.235889 514.495274,311.069525 514.495274,311.603662 Z" id="Stroke-75" stroke="#082674" stroke-width="2"></path>
                <path d="M96.9445688,228.515932 C108.770212,231.964265 117,222.390373 117,222.390373 C110.248301,217.783996 115.10107,206.268056 102.943429,197.74626 C67.1719094,170.568639 50.1282999,203.50423 50.1282999,203.50423 C47.3460706,202.813273 46.8312412,199.819129 46.8312412,199.819129 C45.4284365,201.201042 46.8312412,205.807418 46.8312412,205.807418 C38.5205586,203.679733 42.2108701,186 42.2108701,186 C25.4323907,192.448927 25.0690643,213.407939 25.0690643,213.407939 L18.9149601,206.789958 L23.5559056,226.536111 C23.5559056,226.536111 16.8766848,224.800889 14,224.048668 C17.7983275,225.196577 21.048626,233.40514 22.5935816,238" id="Stroke-122" stroke="#082674" stroke-width="2" fill="#FFFFFF"></path>
                <path d="M64.6388335,357.316894 L62.1416272,367.411591 C61.8318999,368.663759 60.5144947,369.68809 59.2141127,369.68809 L38.0008629,369.68809 C36.7004809,369.68809 35.6842915,368.634224 35.7424541,367.346428 L38.1573816,314.080765 C38.2155442,312.792968 37.4816559,311.023712 36.5255205,310.149398 L0.755558143,277.432698 C-0.20010441,276.558384 0.0803052355,275.782049 1.3783229,275.70751 L11.4910391,275.126665 C12.7890567,275.052126 14.7769862,275.511551 15.9080821,276.147714 L38.0481496,288.596262 C39.1792455,289.232425 41.1302913,290.034075 42.3833867,290.377706 C42.3833867,290.377706 55.4813071,293.972005 88.7550088,289.145228 L108.132592,274.460968 C109.165805,273.678069 111.062944,273.194267 112.34914,273.386006 L120.78129,274.642862 C122.067486,274.834602 122.423081,275.788613 121.571449,276.76325 L92.5620544,309.967034 C91.7108953,310.941672 91.0621229,312.792968 91.1202855,314.080765 L93.535213,367.346428 C93.5933756,368.634224 92.5771862,369.68809 91.2768042,369.68809 L70.0635544,369.68809 C68.7631724,369.68809 67.4457672,368.663759 67.1360399,367.411591 L64.6388335,357.316894" id="Stroke-77" stroke="#082674" stroke-width="2"></path>
                <path d="M43.478956,373.938562 C42.1952224,373.938562 40.0945675,373.954658 38.8113007,373.974657 C38.8113007,373.974657 30.5636626,374.100989 29.941402,383.856331 L54.5270005,383.856331 C55.8107341,383.856331 56.8610615,382.758855 56.8610615,381.417496 L56.8610615,376.377398 C56.8610615,375.036038 55.8107341,373.938562 54.5270005,373.938562 L43.478956,373.938562 Z" id="Stroke-79" stroke="#082674" stroke-width="2"></path>
                <path d="M65.959965,209.337963 C65.959965,209.337963 78.8550545,216.866298 81.760054,225.100416 C81.760054,225.100416 68.749813,215.689996 64.3029076,215.689996 C64.3029076,215.689996 46.5152859,219.529918 47.6855242,239.018426 C47.6855242,239.018426 34.1107603,225.570937 38.0895704,220.630466 C38.0895704,220.630466 24.0223702,231.074621 24.6196599,241.379971 C24.6196599,241.379971 24.2737374,240.094978 23.6563197,238.221834 C23.1329892,240.805465 22.857281,243.479906 22.857281,246.218809 C22.857281,268.242014 40.6186893,286.095462 62.5283583,286.095462 C84.4380272,286.095462 102.199436,268.242014 102.199436,246.218809 C102.199436,239.865835 100.714637,233.864339 98.085814,228.534278 C94.4524582,227.453021 90.4802015,225.119707 86.303387,220.865727 C68.5157654,202.750669 68.0851177,209.337963 65.959965,209.337963 Z" id="Stroke-120" stroke="#082674" stroke-width="2" fill="#FFFFFF"></path>
                <path d="M85.4220438,374 C86.7096086,374 88.8165329,374.01623 90.1036295,374.036394 C90.1036295,374.036394 98.3758822,374.163773 99,384 L74.3410269,384 C73.0534621,384 72,382.893424 72,381.540943 L72,376.459057 C72,375.106576 73.0534621,374 74.3410269,374 L85.4220438,374 Z" id="Stroke-81" stroke="#082674" stroke-width="2"></path>
                <path d="M59.6947099,273.344045 C59.6947099,273.344045 64.6535946,275.098897 69.6124792,273.344045 C69.6124792,273.344045 68.858278,279.011342 64.6535946,279.011342 C60.4489112,279.011342 59.6947099,273.344045 59.6947099,273.344045 Z" id="Stroke-83" stroke="#082674" stroke-width="2" stroke-linecap="round" stroke-linejoin="round"></path>
                <path d="M37.0255229,339.934782 C37.0255229,339.934782 71.1622568,331.028525 92.2816662,339.000244" id="Stroke-118" stroke="#082674" stroke-width="2"></path>
                <path d="M14.3563359,224.279532 C14.3071657,224.258988 14.2585077,224.22711 14.2093375,224.209399 C12.2409938,223.498862 12.7746951,223.699343 14.3563359,224.279532 Z" id="Stroke-124" stroke="#082674" stroke-width="2"></path>
                <path d="M54.7157443,321.13128 L53.5083384,318.038455 L52.2532843,321.13128 L54.7157443,321.13128 Z M52.9537132,317 L54.1534953,317 L57,324 L55.835954,324 L55.0173576,321.903104 L51.9402355,321.903104 L51.0892383,324 L50,324 L52.9537132,317 Z" id="Stroke-126" stroke="#082674" stroke-width="2"></path>
                <path d="M58,324 L59,324 L59,318.920418 L58,318.920418 L58,324 Z M58,317.972116 L59,317.972116 L59,317 L58,317 L58,317.972116 Z" id="Stroke-128" stroke="#082674" stroke-width="2"></path>
                <path d="M64,327.601783 C64,328.920802 62.9208024,330 61.6017831,330 L49.3982169,330 C48.0791976,330 47,328.920802 47,327.601783 L47,315.398217 C47,314.079198 48.0791976,313 49.3982169,313 L61.6017831,313 C62.9208024,313 64,314.079198 64,315.398217 L64,327.601783 Z" id="Stroke-130" stroke="#082674" stroke-width="2"></path>
                <path d="M73.4372629,309.743923 C73.2092305,309.699188 72.9195909,309.729796 72.5670605,309.835278 L70.7487908,310.38105 L71.390533,312.972408 L73.2092305,312.426635 C73.6190899,312.303731 73.9284097,312.106895 74.1363341,311.836599 C74.343403,311.566774 74.3870414,311.187229 74.2659661,310.698436 C74.1294889,310.148896 73.8535397,309.830569 73.4372629,309.743923 Z M69.6124792,309.786775 L72.6530539,308.874644 C73.2541525,308.693818 73.7855151,308.736199 74.2484251,308.999903 C74.7104795,309.264077 75.0262167,309.735447 75.1943532,310.414484 C75.3389591,310.998398 75.3000267,311.555943 75.0771283,312.087588 C74.8542298,312.619233 74.4037267,312.987005 73.7239078,313.191376 L71.602308,313.828031 L72.3856613,316.989177 L71.4649751,317.265595 L69.6124792,309.786775 Z" id="Stroke-131" stroke="#082674" stroke-width="2"></path>
                <path d="M78.2168557,312.85796 C78.3389118,313.135997 78.494068,313.335286 78.6843929,313.454508 C79.0309083,313.670514 79.5243049,313.704389 80.1635482,313.556132 C80.5436808,313.468146 80.856579,313.321208 81.1017258,313.1162 C81.3468725,312.911192 81.422899,312.66439 81.3303225,312.375794 C81.259985,312.157148 81.091382,312.017689 80.823479,311.956979 C80.6528073,311.921784 80.3352544,311.908586 79.8708203,311.917385 L79.0029802,311.934542 C78.4495899,311.9473 78.0285995,311.915185 77.7389747,311.839517 C77.225925,311.709737 76.9037174,311.440498 76.7723519,311.031361 C76.6177129,310.549636 76.6999457,310.111463 77.0180158,309.717724 C77.3360859,309.323545 77.8449981,309.045508 78.543718,308.883173 C79.4581049,308.671125 80.1888904,308.743714 80.737626,309.100059 C81.0815555,309.327064 81.3034287,309.605981 81.4016943,309.93725 L80.4511043,310.158096 C80.3699059,309.969805 80.2318169,309.814509 80.0368374,309.690008 C79.7280766,309.520634 79.2822613,309.503917 78.6978397,309.639416 C78.3094322,309.729602 78.0337714,309.860262 77.8729262,310.029636 C77.712081,310.19945 77.6644998,310.385101 77.7291482,310.58747 C77.8000028,310.808316 77.9882589,310.954813 78.2944337,311.026962 C78.4718289,311.070075 78.7174929,311.088113 79.0334942,311.079314 L79.7560047,311.059957 C80.5400605,311.0384 81.0800039,311.067876 81.3753178,311.149263 C81.8371659,311.277284 82.1428235,311.575997 82.293325,312.045405 C82.4386546,312.498535 82.359525,312.938027 82.0559361,313.362562 C81.75183,313.787536 81.1808554,314.096809 80.3430122,314.291259 C79.4410377,314.500226 78.7474897,314.47647 78.261851,314.21955 C77.7762122,313.962629 77.438489,313.583408 77.2497156,313.082325 L78.2168557,312.85796 Z" id="Stroke-132" stroke="#082674" stroke-width="2"></path>
                <path d="M85.113152,315.259386 C85.460909,316.535464 84.7019042,317.864452 83.4253525,318.212211 L71.6189326,321.431506 C70.3428619,321.779746 69.0138821,321.020256 68.6656442,319.744178 L65.4463674,307.937209 C65.0986105,306.661131 65.8580962,305.332144 67.1341669,304.984385 L78.9410678,301.76509 C80.2171385,301.41685 81.5456373,302.17634 81.8938752,303.452418 L85.113152,315.259386 Z" id="Stroke-133" stroke="#082674" stroke-width="2"></path>
                <path d="M54.0274132,251.287108 C54.0274132,251.287108 62.1344956,243.30409 72.3354693,247.795005 L72.4461276,250.119648 C62.2456074,245.628733 54.5507726,253.508506 54.5507726,253.508506 L54.0274132,251.287108 Z" id="Fill-134" fill="#FFFFFF"></path>
                <path d="M54.0274132,251.287108 C54.0274132,251.287108 62.1344956,243.30409 72.3354693,247.795005 L72.4461276,250.119648 C62.2456074,245.628733 54.5507726,253.508506 54.5507726,253.508506 L54.0274132,251.287108 Z" id="Stroke-135" stroke="#082674" stroke-width="2"></path>
                <polygon id="Fill-136" fill-opacity="0.445935236" fill="#F6A623" points="109.988419 236.460774 109.857781 239.357443 112.976238 239.501707 112.891019 241.397545 116.367677 241.558893 115.302439 265.206322 112.004647 265.053516 111.902571 267.321403 108.604779 267.168597 108.454475 270.510396 78.8300684 269.139414 78.9738171 265.955641 76.3231284 265.833206 76.4322276 263.407293 72.4461276 263.223167 73.5329053 239.101185 77.5190053 239.285786 77.6046926 237.389474 80.2553812 237.512383 80.3644804 235.089792"></polygon>
                <polygon id="Stroke-137" stroke="#082674" stroke-width="2" points="109.988419 236.460774 109.857781 239.357443 112.976238 239.501707 112.891019 241.397545 116.367677 241.558893 115.302439 265.206322 112.004647 265.053516 111.902571 267.321403 108.604779 267.168597 108.454475 270.510396 78.8300684 269.139414 78.9738171 265.955641 76.3231284 265.833206 76.4322276 263.407293 72.4461276 263.223167 73.5329053 239.101185 77.5190053 239.285786 77.6046926 237.389474 80.2553812 237.512383 80.3644804 235.089792"></polygon>
                <g id="Group-140" transform="translate(105.000000, 238.000000)" fill="#FFFFFF">
                    <polyline id="Fill-138" points="0.461059299 0.270089747 2.74120169 0.373990188 2.58346193 3.83387486"></polyline>
                </g>
                <g id="Group-143" transform="translate(112.000000, 243.000000)" fill="#FFFFFF">
                    <polyline id="Fill-141" points="0.261720948 0.826982162 2.62073322 0.919278138 2.49935862 3.19591221"></polyline>
                </g>
                <g id="Group-146" transform="translate(106.000000, 260.000000)" fill="#FFFFFF">
                    <polyline id="Fill-144" points="0.915069219 4.33713405 4.09973579 4.48271273 4.26816076 0.793833853"></polyline>
                </g>
                <g id="Group-149" transform="translate(74.000000, 256.000000)" fill="#FFFFFF">
                    <polyline id="Fill-147" points="0.36275585 0.380735756 0.190160904 3.57447545 5.16553224 3.76672759 5.04806464 5.94384144"></polyline>
                </g>
                <polygon id="Fill-150" fill-opacity="0.445935236" fill="#F6A623" points="44.5479388 237 45.0419307 239.805238 48.1626292 239.275965 48.4860989 241.112578 51.9654165 240.522738 56 263.424492 52.7002294 263.984049 53.086873 266.179878 49.7871024 266.739434 50.357568 269.975638 20.7137818 275 20.1708658 271.916615 17.5185095 272.366217 17.1043164 270.017104 13.1153321 270.693604 9 247.332463 12.9889842 246.656429 12.6655146 244.820282 15.3178708 244.37068 14.9046276 242.024362"></polygon>
                <polygon id="Stroke-151" stroke="#082674" stroke-width="2" points="44.5479388 237 45.0419307 239.805238 48.1626292 239.275965 48.4860989 241.112578 51.9654165 240.522738 56 263.424492 52.7002294 263.984049 53.086873 266.179878 49.7871024 266.739434 50.357568 269.975638 20.7137818 275 20.1708658 271.916615 17.5185095 272.366217 17.1043164 270.017104 13.1153321 270.693604 9 247.332463 12.9889842 246.656429 12.6655146 244.820282 15.3178708 244.37068 14.9046276 242.024362"></polygon>
                <g id="Group-154" transform="translate(40.000000, 238.000000)" fill="#FFFFFF">
                    <polyline id="Fill-152" points="0.159578487 0.51935635 2.0876738 0.0820889844 2.59287283 3.92132833"></polyline>
                </g>
                <polyline id="Fill-155" fill="#FFFFFF" points="46.9469287 264.741561 49.7390169 264.258896 49.1803159 261.024758"></polyline>
                <g id="Group-160" transform="translate(14.000000, 263.000000)" fill="#FFFFFF">
                    <polyline id="Fill-158" points="0.718912098 0.833376302 1.26340853 4.2460335 5.41579327 3.46866929 5.78721918 5.79556688"></polyline>
                </g>
                <g id="Group-163" transform="translate(47.000000, 242.000000)" fill="#FFFFFF">
                    <path d="M0.0153141163,0.62256016 C0.0153141163,0.62256016 0.542844989,0.569530455 1.18797227,0.504356542 C1.83309955,0.439587436 2.43052708,0.895804825 2.51553653,1.51799305 C2.60101826,2.14058608 2.67091492,2.64983317 2.67091492,2.64983317" id="Fill-161"></path>
                </g>
                <path d="M219.795843,240.757088 C219.795843,262.666757 202.034435,280.428166 180.124766,280.428166 C158.215097,280.428166 140.453689,262.666757 140.453689,240.757088 C140.453689,218.84742 158.215097,201.086011 180.124766,201.086011 C202.034435,201.086011 219.795843,218.84742 219.795843,240.757088 Z" id="Stroke-164" stroke="#082674" stroke-width="2" fill="#FFFFFF"></path>
                <path d="M182.211767,293.821088 C181.114021,292.985909 179.301441,292.963214 178.1837,293.770655 L175.305366,295.849525 C174.187625,296.656966 174.173128,297.998499 175.272874,298.830652 L178.216692,301.057798 C179.316437,301.889951 181.114021,301.887934 182.211767,301.052754 L184.969128,298.955223 C186.066374,298.120044 186.066374,296.753799 184.969128,295.918619 L182.211767,293.821088 Z" id="Stroke-165" stroke="#082674" stroke-width="2"></path>
                <path d="M180.533871,301.244816 C180.357322,299.937947 180.056905,299.936508 179.866594,301.241459 L177.39444,318.196224 C177.204128,319.501174 177.284335,321.620939 177.572412,322.907666 L179.583262,331.884536 C179.871339,333.171262 180.350203,333.172701 180.647773,331.888852 L182.651503,323.236661 C182.948599,321.952333 183.047314,319.832567 182.870765,318.525699 L180.533871,301.244816 Z" id="Stroke-166" stroke="#082674" stroke-width="2"></path>
                <path d="M180.778077,354.624436 L178.291299,364.722697 C177.982865,365.975308 176.670961,367 175.37601,367 L154.251345,367 C152.956394,367 151.944448,365.945763 152.002368,364.657511 L154.407211,311.373038 C154.46513,310.084786 155.464833,309.493419 156.628406,310.059462 L173.07853,318.06238 C174.242103,318.628423 174.903705,318.076918 174.548182,316.83697 L172.817185,310.792926 C172.461662,309.552509 171.544836,307.686959 170.779167,306.646791 L157.738297,288.927351 C156.973098,287.887183 157.367705,287.317857 158.615568,287.66161 C158.615568,287.66161 171.658792,291.257178 204.793544,286.428696 L226.187088,269.45632 C227.199975,268.652511 228.502461,268.939049 229.081658,270.092239 L232.681153,277.259458 C233.26082,278.412647 233.027729,280.142196 232.163643,281.103109 L208.614358,307.284117 C207.750272,308.244561 207.091024,310.084786 207.148944,311.373038 L209.553787,364.657511 C209.611706,365.945763 208.59976,367 207.304809,367 L186.180145,367 C184.885193,367 183.573289,365.975308 183.264855,364.722697 L180.778077,354.624436" id="Stroke-167" stroke="#082674" stroke-width="2"></path>
                <path d="M159.658539,371.104914 C158.374806,371.104914 156.274151,371.12101 154.990884,371.141009 C154.990884,371.141009 146.743246,371.26734 146.120985,381.022683 L170.706584,381.022683 C171.990318,381.022683 173.040645,379.925207 173.040645,378.583847 L173.040645,373.54375 C173.040645,372.20239 171.990318,371.104914 170.706584,371.104914 L159.658539,371.104914 Z" id="Stroke-168" stroke="#082674" stroke-width="2"></path>
                <path d="M202.007817,371.104914 C203.29155,371.104914 205.392205,371.12101 206.675472,371.141009 C206.675472,371.141009 214.92311,371.26734 215.545371,381.022683 L190.959772,381.022683 C189.676039,381.022683 188.625711,379.925207 188.625711,378.583847 L188.625711,373.54375 C188.625711,372.20239 189.676039,371.104914 190.959772,371.104914 L202.007817,371.104914 Z" id="Stroke-169" stroke="#082674" stroke-width="2"></path>
                <path d="M187.208887,263.426275 C187.208887,263.426275 192.276758,262.762501 195.709832,259.175803" id="Stroke-170" stroke="#082674" stroke-width="2" stroke-linecap="round" stroke-linejoin="round"></path>
                <path d="M170.202946,243.062632 C176.363185,254.406536 172.161234,268.596135 160.817292,274.756828 C149.473824,280.917046 135.283705,276.715109 129.123466,265.371204 C122.962753,254.0273 127.164704,239.837702 138.508646,233.677009 C149.852588,227.51679 164.042707,231.718728 170.202946,243.062632" id="Fill-171" fill-opacity="0.445935236" fill="#F6A623"></path>
                <path d="M170.202946,243.062632 C176.363185,254.406536 172.161234,268.596135 160.817292,274.756828 C149.473824,280.917046 135.283705,276.715109 129.123466,265.371204 C122.962753,254.0273 127.164704,239.837702 138.508646,233.677009 C149.852588,227.51679 164.042707,231.718728 170.202946,243.062632 Z" id="Stroke-172" stroke="#082674" stroke-width="2"></path>
                <path d="M231.126386,217.559797 C237.286625,228.903701 233.084674,243.093299 221.740732,249.253992 C210.397264,255.414211 196.207145,251.212273 190.046906,239.868369 C183.886193,228.524465 188.088144,214.334866 199.432086,208.174174 C210.776028,202.013955 224.966147,206.215892 231.126386,217.559797" id="Fill-173" fill-opacity="0.445935236" fill="#F6A623"></path>
                <path d="M231.126386,217.559797 C237.286625,228.903701 233.084674,243.093299 221.740732,249.253992 C210.397264,255.414211 196.207145,251.212273 190.046906,239.868369 C183.886193,228.524465 188.088144,214.334866 199.432086,208.174174 C210.776028,202.013955 224.966147,206.215892 231.126386,217.559797 Z" id="Stroke-174" stroke="#082674" stroke-width="2"></path>
                <path d="M170.206997,243.093062 C170.206997,243.093062 176.358334,233.698212 187.904016,235.266321 L188.625711,237.379839 C177.080029,235.81173 171.320782,245.007561 171.320782,245.007561 L170.206997,243.093062 Z" id="Fill-175" fill="#FFFFFF"></path>
                <path d="M170.206997,243.093062 C170.206997,243.093062 176.358334,233.698212 187.904016,235.266321 L188.625711,237.379839 C177.080029,235.81173 171.320782,245.007561 171.320782,245.007561 L170.206997,243.093062 Z" id="Stroke-176" stroke="#082674" stroke-width="2"></path>
                <path d="M209.430274,230.878477 C209.430274,230.878477 205.575221,231.457599 208.02448,235.51193 C210.474198,239.566741 218.324931,230.914942 210.349605,227.261726 C202.37428,223.608509 199.569106,231.937881 205.505137,238.025136 C211.44071,244.112391 222.671485,236.617395 215.74833,225.275343 C208.825632,213.932812 191.788915,225.645271 201.427465,237.533338 C211.066015,249.421405 234.436362,236.855857 218.798567,218.087901" id="Stroke-177" stroke="#FFFFFF" stroke-width="2"></path>
                <path d="M150.946379,254.878057 C150.946379,254.878057 153.64566,251.819727 155.660352,256.160721 C157.675043,260.501237 145.875879,262.678183 147.368565,253.72151 C148.86125,244.764358 157.495091,246.826653 159.224658,255.318988 C160.954706,263.811322 148.193064,269.571606 142.597181,257.366951 C137.001781,245.162295 156.649847,236.60929 161.148649,251.485805 C165.646969,266.361841 141.646764,279.992476 134.786392,256.138268" id="Stroke-178" stroke="#FFFFFF" stroke-width="2"></path>
                <path d="M175.894682,318.461581 C175.259672,318.906387 174.563271,318.65775 174.347696,317.909001 L171.688624,308.684356 C171.47258,307.935607 171.814688,306.956655 172.447823,306.509485 L235.11926,262.262387 C235.752864,261.815218 236.627349,261.97688 237.062717,262.621636 L242.221523,270.263225 C242.656423,270.907981 242.492867,271.799484 241.857858,272.244763 L175.894682,318.461581 Z" id="Fill-179" fill="#FFFFFF"></path>
                <path d="M175.894682,318.461581 C175.259672,318.906387 174.563271,318.65775 174.347696,317.909001 L171.688624,308.684356 C171.47258,307.935607 171.814688,306.956655 172.447823,306.509485 L235.11926,262.262387 C235.752864,261.815218 236.627349,261.97688 237.062717,262.621636 L242.221523,270.263225 C242.656423,270.907981 242.492867,271.799484 241.857858,272.244763 L175.894682,318.461581 Z" id="Stroke-180" stroke="#082674" stroke-width="2"></path>
                <path d="M241.048206,263.426275 C241.048206,263.426275 256.788393,250.960695 255.087967,236.506616" id="Stroke-181" stroke="#082674" stroke-width="2" stroke-linecap="round" stroke-linejoin="round"></path>
                <path d="M245.298679,267.676748 C245.298679,267.676748 252.836281,263.642792 259.46692,265.201055" id="Stroke-182" stroke="#082674" stroke-width="2" stroke-linecap="round" stroke-linejoin="round"></path>
                <path d="M264,233.817259 C264,233.817259 272.129872,228.482307 274.294656,224 L278,228.127747 C278,228.127747 275.092412,233.809658 265.957031,238 C265.957031,238 265.954139,235.863247 264,233.817259 Z" id="Stroke-183" stroke="#082674" stroke-width="2" stroke-linecap="round" stroke-linejoin="round"></path>
                <path d="M316,203.817259 C316,203.817259 324.129872,198.482307 326.294656,194 L330,198.127747 C330,198.127747 327.092412,203.809658 317.957031,208 C317.957031,208 317.954139,205.863247 316,203.817259 Z" id="Stroke-184" stroke="#082674" stroke-width="2" stroke-linecap="round" stroke-linejoin="round"></path>
                <path d="M298.969579,254.92533 C298.969579,254.92533 290.177268,250.925769 284.969756,251.271308 L287.103429,246.427675 C287.103429,246.427675 293.781079,246.120385 301.971646,251.445165 C301.971646,251.445165 299.972011,252.431364 298.969579,254.92533 Z" id="Stroke-185" stroke="#082674" stroke-width="2" stroke-linecap="round" stroke-linejoin="round"></path>
                <path d="M272.218338,258.583415 C272.218338,258.583415 279.931023,254.682173 284.539546,257.173784 C289.148069,259.665825 284.64916,257.637059 284.64916,257.637059 C284.64916,257.637059 284.241886,261.89609 287.803404,263.426275 C287.803404,263.426275 278.810784,258.869732 273.018239,261.968853 L272.218338,258.583415 Z" id="Stroke-186" stroke="#082674" stroke-width="2" stroke-linecap="round" stroke-linejoin="round"></path>
                <path d="M287.803404,220.329161 C287.803404,220.329161 295.516089,216.42792 300.124612,218.919531 C304.733135,221.411572 300.234226,219.382806 300.234226,219.382806 C300.234226,219.382806 299.826952,223.641837 303.38847,225.172022 C303.38847,225.172022 294.39585,220.615479 288.603305,223.7146 L287.803404,220.329161 Z" id="Stroke-187" stroke="#082674" stroke-width="2" stroke-linecap="round" stroke-linejoin="round"></path>
                <path d="M292.694795,191.168242 C292.694795,191.168242 283.930741,193.60461 282.640611,198.564101 C281.350971,203.523593 282.940824,198.975407 282.940824,198.975407 C282.940824,198.975407 286.719972,201.791164 285.399429,205.336484 C285.399429,205.336484 288.167076,195.88095 294.887525,194.174144 L292.694795,191.168242 Z" id="Stroke-188" stroke="#082674" stroke-width="2" stroke-linecap="round" stroke-linejoin="round" fill="#FFFFFF"></path>
                <path d="M309.055767,249.348486 C309.055767,249.348486 316.441547,253.773539 321.10478,251.383309 C325.768479,248.993528 321.236487,250.905083 321.236487,250.905083 C321.236487,250.905083 321.057776,246.441339 324.640833,245.007561 C324.640833,245.007561 315.55637,249.351635 310.018664,245.851542 L309.055767,249.348486 Z" id="Stroke-189" stroke="#082674" stroke-width="2" stroke-linecap="round" stroke-linejoin="round"></path>
                <path d="M279.089904,209.83121 C279.503052,210.479045 279.295289,211.336976 278.628261,211.738236 L263.701657,220.715111 C263.034629,221.116371 262.150804,220.914586 261.738131,220.266752 L261.0963,219.260599 C260.683151,218.612765 260.890914,217.754372 261.557943,217.353573 L276.484547,208.376237 C277.151575,207.975439 278.0354,208.177223 278.448073,208.825058 L279.089904,209.83121 Z" id="Stroke-190" stroke="#082674" stroke-width="2" stroke-linecap="round" stroke-linejoin="round"></path>
                <path d="M294.854314,234.337674 C295.020986,235.028894 294.543782,235.719686 293.793757,235.87329 L277.010611,239.309657 C276.260587,239.463261 275.510562,239.023472 275.343889,238.332251 L275.085035,237.258306 C274.918829,236.567514 275.396033,235.876294 276.145592,235.722689 L292.929203,232.286752 C293.679228,232.133147 294.428787,232.572937 294.59546,233.263729 L294.854314,234.337674 Z" id="Stroke-191" stroke="#082674" stroke-width="2" stroke-linecap="round" stroke-linejoin="round"></path>
                <path d="M267.855814,248.92284 C268.431971,251.59961 266.729487,254.236663 264.052684,254.813303 C261.375881,255.389454 258.738305,253.6865 258.162148,251.00973 C257.58599,248.33296 259.288475,245.695908 261.965278,245.119757 C264.642081,244.543116 267.279656,246.24607 267.855814,248.92284 Z" id="Stroke-192" stroke="#082674" stroke-width="2" stroke-linecap="round" stroke-linejoin="round"></path>
                <path d="M306.157998,237.327149 C306.487543,238.856872 305.514356,240.363852 303.984634,240.692968 C302.45534,241.022512 300.94836,240.049326 300.618815,238.519603 C300.289699,236.99031 301.262457,235.48333 302.792179,235.153785 C304.321902,234.824669 305.828453,235.797427 306.157998,237.327149 Z" id="Stroke-193" stroke="#082674" stroke-width="2" stroke-linecap="round" stroke-linejoin="round"></path>
                <path d="M296.25631,208.431236 C296.503311,209.578725 295.773463,210.708683 294.626636,210.955712 C293.479277,211.202741 292.348916,210.473342 292.101915,209.325852 C291.854914,208.178363 292.584762,207.048405 293.732121,206.801377 C294.878948,206.554348 296.009309,207.283747 296.25631,208.431236 Z" id="Stroke-194" stroke="#082674" stroke-width="2" stroke-linecap="round" stroke-linejoin="round"></path>
                <path d="M311.841376,216.932181 C312.088377,218.07967 311.358529,219.209628 310.211702,219.456657 C309.064343,219.703686 307.933982,218.974287 307.686981,217.826798 C307.43998,216.679309 308.169828,215.549351 309.317187,215.302322 C310.464014,215.055293 311.594375,215.784692 311.841376,216.932181 Z" id="Stroke-195" stroke="#082674" stroke-width="2" stroke-linecap="round" stroke-linejoin="round"></path>
                <path d="M410.607306,259.881573 C411.285386,259.493375 411.203866,259.175803 410.426359,259.175803 L293.093524,259.175803 C292.316018,259.175803 291.10028,259.44389 290.392513,259.771071 L268.463996,269.914648 C267.755758,270.24231 267.812775,270.510396 268.590282,270.510396 L390.635278,270.510396 C391.412785,270.510396 392.603548,270.192824 393.281157,269.804627 L410.607306,259.881573 Z" id="Stroke-196" stroke="#082674" stroke-width="2" stroke-linecap="round" stroke-linejoin="round"></path>
                <path d="M409.217029,259.175803 C409.989652,259.175803 410.82268,259.783283 411.068514,260.525547 L426.583251,307.414431 C426.828617,308.15717 426.397821,308.76465 425.625198,308.76465 L309.010177,308.76465 C308.237554,308.76465 307.409677,308.155272 307.170866,307.410634 L292.119235,260.529818 C291.880424,259.785181 292.316839,259.175803 293.089462,259.175803 L409.217029,259.175803 Z" id="Stroke-197" stroke="#082674" stroke-width="2" stroke-linecap="round" stroke-linejoin="round"></path>
                <path d="M392,378.593948 C392,379.367276 391.363208,380 390.584906,380 L268.415094,380 C267.636792,380 267,379.367276 267,378.593948 L267,272.406052 C267,271.632724 267.636792,271 268.415094,271 L390.584906,271 C391.363208,271 392,271.632724 392,272.406052 L392,378.593948 Z" id="Fill-198" fill="#FFFFFF"></path>
                <path d="M392,378.593948 C392,379.367276 391.363208,380 390.584906,380 L268.415094,380 C267.636792,380 267,379.367276 267,378.593948 L267,272.406052 C267,271.632724 267.636792,271 268.415094,271 L390.584906,271 C391.363208,271 392,271.632724 392,272.406052 L392,378.593948 Z" id="Stroke-199" stroke="#082674" stroke-width="2"></path>
                <path d="M291.221226,333.84737 C290.702043,333.282616 289.971207,333 289.028266,333 C288.085324,333 287.344991,333.267288 286.807266,333.801864 C286.269089,334.33644 286,335.123454 286,336.162428 L286,341.034445 C286,342.053301 286.29758,342.801994 286.892741,343.281005 C287.487902,343.760495 288.195221,344 289.014246,344 C289.833271,344 290.535615,343.760495 291.121278,343.281005 C291.706942,342.801994 292,342.053301 292,341.034445 L292,336.177277 C292,335.189079 291.739956,334.412602 291.221226,333.84737 Z M290.592598,342.660686 C290.178337,343.018986 289.649657,343.198136 289.00701,343.198136 C288.364363,343.198136 287.835683,343.014196 287.421422,342.645837 C287.007161,342.277957 286.80003,341.735717 286.80003,341.019596 L286.80003,336.026389 C286.80003,335.29015 286.999925,334.735455 287.399714,334.361827 C287.799955,333.988678 288.333157,333.801864 288.999774,333.801864 C289.66639,333.801864 290.202306,333.988678 290.60707,334.361827 C291.011834,334.735455 291.21399,335.29015 291.21399,336.026389 L291.21399,341.003789 C291.21399,341.750566 291.006859,342.302865 290.592598,342.660686 Z" id="Stroke-200" stroke="#082674" stroke-width="2"></path>
                <path d="M295.729434,343.045906 C296.190128,343.613833 296.854041,343.897298 297.721174,343.897298 C298.58783,343.897298 299.277443,343.642779 299.788109,343.132742 C300.299727,342.623204 300.554822,341.890588 300.554822,340.933895 L300.554822,338.742533 C300.554822,337.83874 300.311625,337.10313 299.825707,336.535701 C299.339789,335.967774 298.660646,335.684309 297.788755,335.684309 C296.916863,335.684309 296.205357,335.994224 295.654238,336.614053 L295.729434,335.810571 L294.887525,335.810571 L294.887525,347.018903 L295.729434,346.672058 L295.729434,343.045906 Z M299.14942,342.580784 C298.77344,342.922639 298.295137,343.093816 297.713559,343.093816 C297.132456,343.093816 296.656057,342.930624 296.285312,342.604739 C295.914568,342.279354 295.729434,341.774807 295.729434,341.091597 L295.729434,338.600801 C295.759417,337.87567 295.969775,337.342178 296.360984,337.000823 C296.751717,336.658968 297.215267,336.488291 297.751633,336.488291 C298.287522,336.488291 298.748216,336.661963 299.13419,337.008309 C299.520164,337.355653 299.713389,337.912601 299.713389,338.679652 L299.713389,341.091597 C299.713389,341.743366 299.525399,342.239928 299.14942,342.580784 Z" id="Stroke-201" stroke="#082674" stroke-width="2"></path>
                <path d="M302.050386,341.845965 C301.641237,341.62856 301.436412,341.275815 301.436412,340.787299 L301.436412,339.959358 L306.222119,339.728634 L306.222119,337.964478 C306.222119,337.249965 305.977925,336.690986 305.490035,336.287972 C305.001646,335.885816 304.322388,335.684309 303.451263,335.684309 C302.580138,335.684309 301.87945,335.887965 301.349699,336.294846 C300.819947,336.702157 300.554822,337.271877 300.554822,338.005295 L300.554822,340.787299 C300.554822,342.108053 301.467809,342.76843 303.293783,342.76843 C304.175373,342.76843 305.020086,342.556181 305.828418,342.130825 L305.482061,341.547356 C304.673729,341.918146 303.907757,342.103757 303.183646,342.103757 C302.7431,342.103757 302.365347,342.017826 302.050386,341.845965 Z M301.436412,339.21305 L301.436412,338.018615 C301.436412,337.439442 301.625289,337.014515 302.003042,336.742974 C302.380796,336.471434 302.85822,336.335663 303.435814,336.335663 C303.697949,336.335663 303.960582,336.369606 304.222717,336.437491 C304.484852,336.505376 304.73702,336.663489 304.978224,336.912687 C305.219428,337.161457 305.340528,337.480259 305.340528,337.869095 L305.340528,339.049782 L301.436412,339.21305 Z" id="Stroke-202" stroke="#082674" stroke-width="2"></path>
                <path d="M308.910604,336.123409 L308,336.123409 L308,343 L308.910604,343 L308.910604,337.166305 C309.571551,336.855609 310.268531,336.699609 311,336.699609 C311.731469,336.699609 312.281743,336.859954 312.650309,337.18021 C312.9535,337.445714 313.105353,337.816376 313.105353,338.291762 L313.105353,343 L314,343 L314,338.250916 C314,337.281023 313.539293,336.617481 312.617879,336.260289 C312.216369,336.086908 311.734043,336 311.170899,336 C310.173301,336 309.398593,336.196846 308.845745,336.590105 L308.910604,336.123409 Z" id="Stroke-203" stroke="#082674" stroke-width="2"></path>
                <path d="M325,340.147051 L325,336.23819 C325,335.258604 324.716439,334.47367 324.150222,333.884292 C323.583553,333.294463 322.761815,333 321.685912,333 L319,333 L319,343 L321.971734,343 C323.990578,343 325,342.049318 325,340.147051 Z M321.742896,342.286876 L319.80003,342.286876 L319.80003,333.727125 L321.828823,333.727125 C322.456999,333.727125 323.009648,333.922681 323.485867,334.312438 C323.962086,334.702195 324.19997,335.296541 324.19997,336.095475 L324.19997,340.289314 C324.19997,341.621624 323.380945,342.286876 321.742896,342.286876 Z" id="Stroke-204" stroke="#082674" stroke-width="2"></path>
                <path d="M333,342.865491 L333,338.846032 C333,338.504423 332.984212,338.176478 332.953129,337.861343 C332.932407,337.65467 332.890963,337.49027 332.828304,337.368999 C332.766138,337.247728 332.688184,337.10596 332.594935,336.944122 C332.501192,336.782285 332.371433,336.652047 332.205164,336.55298 C332.038895,336.453913 331.84697,336.355274 331.628402,336.256207 C331.223337,336.085402 330.599704,336 329.75849,336 L329.711619,336.579882 C330.656936,336.579882 331.295864,336.726347 331.628402,337.018422 C331.960941,337.310498 332.12721,337.704203 332.12721,338.198255 C331.389113,337.695236 330.407779,337.443299 329.181728,337.443299 C328.817614,337.443299 328.449058,337.519734 328.075076,337.672604 C327.358194,337.978344 327,338.576161 327,339.46648 L327,340.586104 C327,342.195937 328.137735,343 330.412713,343 C331.057068,343 331.919497,342.955164 333,342.865491 Z M330.459584,342.33984 C329.908971,342.33984 329.415591,342.271945 328.978949,342.13701 C328.230984,341.912829 327.857002,341.42689 327.857002,340.680473 L327.857002,339.507046 C327.857002,339.012566 327.997122,338.659428 328.277855,338.448057 C328.558589,338.236686 328.896061,338.131215 329.290766,338.131215 C329.352932,338.131215 329.415591,338.135912 329.477757,338.144452 C330.38163,338.20765 331.264781,338.41902 332.12721,338.778564 L332.12721,342.245044 C331.566236,342.307814 331.010197,342.33984 330.459584,342.33984 Z" id="Stroke-205" stroke="#082674" stroke-width="2"></path>
                <path d="M335.954496,340.966343 L335.954496,336.534479 L337.590468,336.534479 L338,335.791173 L335.954496,335.791173 L335.954496,333 L335,333 L335,340.966343 C335,341.518272 335.141906,341.957418 335.426259,342.285112 C335.710072,342.612362 336.170324,342.850362 336.807014,343 L337.079496,342.397451 C336.329496,342.191865 335.954496,341.714977 335.954496,340.966343 Z" id="Stroke-206" stroke="#082674" stroke-width="2"></path>
                <path d="M343,342.865491 L343,338.846032 C343,338.504423 342.984212,338.176478 342.953129,337.861343 C342.932407,337.65467 342.890963,337.49027 342.828304,337.368999 C342.766138,337.247728 342.688184,337.10596 342.594935,336.944122 C342.501192,336.782285 342.371433,336.652047 342.205164,336.55298 C342.038895,336.453913 341.84697,336.355274 341.628402,336.256207 C341.223337,336.085402 340.599704,336 339.75849,336 L339.711619,336.579882 C340.656936,336.579882 341.295864,336.726347 341.628402,337.018422 C341.960941,337.310498 342.12721,337.704203 342.12721,338.198255 C341.389113,337.695236 340.407779,337.443299 339.181728,337.443299 C338.817614,337.443299 338.449058,337.519734 338.075076,337.672604 C337.358194,337.978344 337,338.576161 337,339.46648 L337,340.586104 C337,342.195937 338.137735,343 340.412713,343 C341.057068,343 341.919497,342.955164 343,342.865491 Z M340.459584,342.33984 C339.908971,342.33984 339.415591,342.271945 338.978949,342.13701 C338.230984,341.912829 337.857002,341.42689 337.857002,340.680473 L337.857002,339.507046 C337.857002,339.012566 337.997122,338.659428 338.277855,338.448057 C338.558589,338.236686 338.896061,338.131215 339.290766,338.131215 C339.352932,338.131215 339.415591,338.135912 339.477757,338.144452 C340.38163,338.20765 341.264781,338.41902 342.12721,338.778564 L342.12721,342.245044 C341.566236,342.307814 341.010197,342.33984 340.459584,342.33984 Z" id="Stroke-207" stroke="#082674" stroke-width="2"></path>
                <path d="M355,340.147051 L355,336.23819 C355,335.258604 354.716439,334.47367 354.150222,333.884292 C353.583553,333.294463 352.761815,333 351.685912,333 L349,333 L349,343 L351.971734,343 C353.990578,343 355,342.049318 355,340.147051 Z M351.742896,342.286876 L349.80003,342.286876 L349.80003,333.727125 L351.828823,333.727125 C352.456999,333.727125 353.009648,333.922681 353.485867,334.312438 C353.962086,334.702195 354.19997,335.296541 354.19997,336.095475 L354.19997,340.289314 C354.19997,341.621624 353.380945,342.286876 351.742896,342.286876 Z" id="Stroke-208" stroke="#082674" stroke-width="2"></path>
                <path d="M363,342.865491 L363,338.846032 C363,338.504423 362.984212,338.176478 362.953129,337.861343 C362.932407,337.65467 362.890963,337.49027 362.828304,337.368999 C362.766138,337.247728 362.688184,337.10596 362.594935,336.944122 C362.501192,336.782285 362.371433,336.652047 362.205164,336.55298 C362.038895,336.453913 361.84697,336.355274 361.628402,336.256207 C361.223337,336.085402 360.599704,336 359.75849,336 L359.711619,336.579882 C360.656936,336.579882 361.295864,336.726347 361.628402,337.018422 C361.960941,337.310498 362.12721,337.704203 362.12721,338.198255 C361.389113,337.695236 360.407779,337.443299 359.181728,337.443299 C358.817614,337.443299 358.449058,337.519734 358.075076,337.672604 C357.358194,337.978344 357,338.576161 357,339.46648 L357,340.586104 C357,342.195937 358.137735,343 360.412713,343 C361.057068,343 361.919497,342.955164 363,342.865491 Z M360.459584,342.33984 C359.908971,342.33984 359.415591,342.271945 358.978949,342.13701 C358.230984,341.912829 357.857002,341.42689 357.857002,340.680473 L357.857002,339.507046 C357.857002,339.012566 357.997122,338.659428 358.277855,338.448057 C358.558589,338.236686 358.896061,338.131215 359.290766,338.131215 C359.352932,338.131215 359.415591,338.135912 359.477757,338.144452 C360.38163,338.20765 361.264781,338.41902 362.12721,338.778564 L362.12721,342.245044 C361.566236,342.307814 361.010197,342.33984 360.459584,342.33984 Z" id="Stroke-209" stroke="#082674" stroke-width="2"></path>
                <path d="M368.14916,346.189861 C368.383698,345.833399 368.5012,345.344414 368.5012,344.723387 L368.5012,337.649782 C368.5012,337.089698 368.667467,336.732753 369,336.580398 L368.779859,336 C368.330289,336.152355 368.021906,336.406763 367.855639,336.763708 C367.758108,337.008442 367.708878,337.502264 367.708878,338.245658 L367.708878,341.255507 C367.708878,341.917645 367.523106,342.406631 367.15156,342.72198 C366.780014,343.03733 366.298398,343.195972 365.706711,343.195972 C365.11456,343.195972 364.647806,343.035396 364.305519,342.714242 C363.963232,342.393088 363.792321,341.907488 363.792321,341.255507 L363.792321,336.137361 L363,336.137361 L363,341.102185 C363,343.017016 363.928864,343.974674 365.787522,343.974674 C366.716387,343.974674 367.361948,343.66416 367.72374,343.04265 L367.72374,344.753858 C367.72374,345.558194 367.395851,346.087807 366.741002,346.342699 L366.960678,347 C367.518461,346.816207 367.914622,346.546322 368.14916,346.189861 Z" id="Stroke-210" stroke="#082674" stroke-width="2"></path>
                <path d="M317,364.828304 L311.296395,364.828304 L316.082606,356.692974 C316.667489,355.581814 316.960152,354.518683 316.960152,353.504581 C316.960152,352.490479 316.607717,351.637973 315.902846,350.947062 C315.264832,350.315687 314.503732,350 313.619545,350 C312.735357,350 312.017204,350.25215 311.465528,350.755449 C310.913852,351.258747 310.511828,351.908633 310.259013,352.704606 L311.296395,353.155374 C311.482353,352.569025 311.775016,352.096245 312.173941,351.73553 C312.572423,351.374816 313.037761,351.194709 313.569513,351.194709 C314.101265,351.194709 314.603352,351.419843 315.075332,351.871111 C315.547312,352.321378 315.783302,352.967762 315.783302,353.808761 C315.783302,354.484663 315.544213,355.258622 315.065591,356.129639 L310,364.805291 L310,366 L317,366 L317,364.828304 Z" id="Stroke-211" stroke="#082674" stroke-width="2" stroke-linecap="round" stroke-linejoin="round"></path>
                <path d="M327.832065,351.23231 C327.053283,350.410444 325.957184,350 324.542816,350 C323.128449,350 322.017602,350.388456 321.210752,351.165857 C320.403425,351.943747 320,353.088594 320,354.59942 L320,361.686425 C320,363.168423 320.446242,364.257566 321.339201,364.954344 C322.23216,365.651611 323.292578,366 324.521408,366 C325.749762,366 326.80352,365.651611 327.682207,364.954344 C328.560419,364.257566 329,363.168423 329,361.686425 L329,354.621896 C329,353.183387 328.610371,352.054176 327.832065,351.23231 Z M326.889153,364.051855 C326.26784,364.573217 325.474786,364.833654 324.510466,364.833654 C323.546147,364.833654 322.753568,364.565888 322.132255,364.029867 C321.510466,363.494824 321.19981,362.706184 321.19981,361.664437 L321.19981,354.401038 C321.19981,353.330463 321.5,352.523744 322.099905,351.980394 C322.69981,351.438021 323.5,351.165857 324.5,351.165857 C325.499524,351.165857 326.30352,351.438021 326.910561,351.980394 C327.517602,352.523744 327.821598,353.330463 327.821598,354.401038 L327.821598,361.642449 C327.821598,362.728172 327.510466,363.53147 326.889153,364.051855 Z" id="Stroke-212" stroke="#082674" stroke-width="2" stroke-linecap="round" stroke-linejoin="round"></path>
                <path d="M335,350 L333.956702,350 C333.707667,350.333471 333.388307,350.613213 332.996966,350.840115 C332.605626,351.066574 332.273028,351.179803 332,351.179803 L332.242002,352.239716 L332.521649,352.159789 C332.707805,352.106505 332.944015,352.003489 333.229868,351.849853 C333.515306,351.69666 333.757722,351.519934 333.956702,351.320118 L333.956702,364 L335,364 L335,350 Z" id="Stroke-213" stroke="#082674" stroke-width="2" stroke-linecap="round" stroke-linejoin="round"></path>
                <polygon id="Stroke-214" stroke="#082674" stroke-width="2" stroke-linecap="round" stroke-linejoin="round" points="344.476372 350.965609 344.476372 349.852551 335.975427 349.852551 335.975427 350.965609 343.095393 350.965609 336.256125 364.020793 337.593514 364.020793"></polygon>
                <path d="M268.465557,270.510396 C267.690079,270.510396 266.853972,271.117876 266.607229,271.86014 L251.035154,318.749025 C250.788881,319.491763 251.221269,320.099243 251.996747,320.099243 L374.212604,320.099243 C374.988082,320.099243 375.819019,319.489865 376.058712,318.745228 L391.16597,271.864412 C391.405664,271.119774 390.967636,270.510396 390.192158,270.510396 L268.465557,270.510396 Z" id="Fill-215" fill="#FFFFFF"></path>
                <path d="M268.465557,270.510396 C267.690079,270.510396 266.853972,271.117876 266.607229,271.86014 L251.035154,318.749025 C250.788881,319.491763 251.221269,320.099243 251.996747,320.099243 L374.212604,320.099243 C374.988082,320.099243 375.819019,319.489865 376.058712,318.745228 L391.16597,271.864412 C391.405664,271.119774 390.967636,270.510396 390.192158,270.510396 L268.465557,270.510396 Z" id="Stroke-216" stroke="#082674" stroke-width="2"></path>
                <path d="M391.23157,271.102591 C397.371141,268.40019 409.859974,260.77286 409.859974,260.77286 C410.523993,260.367571 411.067109,260.669193 411.067109,261.443184 L411.067109,365.165012 C411.067109,365.939003 410.542884,366.932526 409.901535,367.372528 L392.396672,379.395188 C391.755795,379.835659 391.23157,379.562651 391.23157,378.78866 L391.23157,271.102591 Z" id="Fill-217" fill="#FFFFFF"></path>
                <path d="M391.23157,271.102591 C397.371141,268.40019 409.859974,260.77286 409.859974,260.77286 C410.523993,260.367571 411.067109,260.669193 411.067109,261.443184 L411.067109,365.165012 C411.067109,365.939003 410.542884,366.932526 409.901535,367.372528 L392.396672,379.395188 C391.755795,379.835659 391.23157,379.562651 391.23157,378.78866 L391.23157,271.102591 Z" id="Stroke-218" stroke="#082674" stroke-width="2"></path>
                <path d="M442.237241,364.729205 C442.237241,372.162971 436.211072,378.189035 428.777175,378.189035 C421.34375,378.189035 415.317581,372.162971 415.317581,364.729205 C415.317581,357.295439 421.34375,351.269375 428.777175,351.269375 C436.211072,351.269375 442.237241,357.295439 442.237241,364.729205 Z" id="Stroke-219" stroke="#082674" stroke-width="2"></path>
                <ellipse id="Oval-5" stroke="#0A2674" cx="515" cy="250" rx="1" ry="4"></ellipse>
                <ellipse id="Oval-5-Copy" stroke="#0A2674" cx="475" cy="250" rx="1" ry="4"></ellipse>
                <ellipse id="Oval-6" stroke="#0A2674" cx="86" cy="251.5" rx="1" ry="2.5"></ellipse>
                <ellipse id="Oval-6-Copy" stroke="#0A2674" cx="42" cy="251.5" rx="1" ry="2.5"></ellipse>
            </g>
        </g>
    </g>
</svg>