<?xml version="1.0" encoding="UTF-8"?>
<svg width="207px" height="258px" viewBox="0 0 207 258" version="1.1" xmlns="http://www.w3.org/2000/svg" xmlns:xlink="http://www.w3.org/1999/xlink">
    <!-- Generator: Sketch 41.2 (35397) - http://www.bohemiancoding.com/sketch -->
    <title>Page 1</title>
    <desc>Created with Sketch.</desc>
    <defs></defs>
    <g id="homepage" stroke="none" stroke-width="1" fill="none" fill-rule="evenodd">
        <g id="Desktop-HD-Copy-8" transform="translate(-258.000000, -6988.000000)">
            <g id="Page-1" transform="translate(259.000000, 6989.000000)">
                <path d="M123.001127,223.486636 L119.914823,236.145292 C119.53203,237.715499 117.903845,239 116.2967,239 L90.0791844,239 C88.4720387,239 87.2161273,237.678463 87.2880105,236.063578 L90.2726263,169.268931 C90.3445096,167.654046 90.0517169,167.607016 89.6215862,169.16429 L87.127296,178.196949 C86.6971653,179.754811 85.030409,181.029318 83.4232633,181.029318 L71.8161643,181.029318 C70.2090185,181.029318 69.5416147,179.878264 70.3334992,178.471485 L91.2398359,141.319715 C92.0317204,139.912937 93.9468538,139.114606 95.4955579,139.545516 C95.4955579,139.545516 111.683315,144.052734 152.806376,138 L175.664664,178.473249 C176.458887,179.878852 175.793236,181.029318 174.18609,181.029318 L162.578991,181.029318 C160.971846,181.029318 159.305089,179.754811 158.874959,178.196949 L156.380668,169.16429 C155.950538,167.607016 155.657745,167.654046 155.729628,169.268931 L158.714244,236.063578 C158.786127,237.678463 157.530216,239 155.92307,239 L129.705555,239 C128.098409,239 126.470225,237.715499 126.087432,236.145292 L123.001127,223.486636 Z" id="Stroke-1" stroke="#082674" stroke-width="2"></path>
                <path d="M97.0981671,244 C95.4767892,244 92.8236253,244.019476 91.202837,244.043673 C91.202837,244.043673 80.7859261,244.196528 80,256 L111.05204,256 C112.673418,256 114,254.672109 114,253.049132 L114,246.950868 C114,245.327891 112.673418,244 111.05204,244 L97.0981671,244 Z" id="Stroke-3" stroke="#082674" stroke-width="2"></path>
                <path d="M150.901833,244 C152.523211,244 155.176375,244.019476 156.797163,244.043673 C156.797163,244.043673 167.214074,244.196528 168,256 L136.94796,256 C135.326582,256 134,254.672109 134,253.049132 L134,246.950868 C134,245.327891 135.326582,244 136.94796,244 L150.901833,244 Z" id="Stroke-5" stroke="#082674" stroke-width="2"></path>
                <path d="M89,201 C89,201 131.009771,190.523216 157,199.900666" id="Stroke-7" stroke="#082674" stroke-width="2"></path>
                <path d="M98,170.993351 C98,170.341185 99.2046232,169.317868 100.677132,168.719902 L111.322868,164.396872 C112.795377,163.798905 114,163.886686 114,164.592462 C114,165.298239 112.78904,166.349246 111.309617,166.927771 L103.60602,169.941167 C102.126022,170.519691 102.126022,171.4676 103.604868,172.047893 L111.310193,175.068358 C112.789616,175.64865 114,176.700835 114,177.407201 C114,178.113567 112.795377,178.201347 111.323444,177.602203 L100.676556,173.268568 C99.2046232,172.669424 98,171.645517 98,170.993351 Z" id="Stroke-9" stroke="#082674" stroke-width="2"></path>
                <path d="M125.403568,159.826091 C125.917304,158.271919 126.845982,157 127.468393,157 C128.090804,157 128.17972,158.271919 127.665984,159.826091 L122.596542,175.173909 C122.082806,176.728674 121.153511,178 120.531717,178 C119.909306,178 119.82039,176.728674 120.333509,175.173909 L125.403568,159.826091 Z" id="Stroke-11" stroke="#082674" stroke-width="2"></path>
                <path d="M148,171.006626 C148,171.666369 146.794801,172.694862 145.322291,173.291576 L134.677709,177.604648 C133.205199,178.201362 132,178.112414 132,177.406725 C132,176.701035 133.210384,175.64898 134.689231,175.06817 L142.381306,172.048078 C143.860728,171.467268 143.860152,170.518298 142.380729,169.939255 L134.689807,166.928587 C133.210384,166.348956 132,165.298079 132,164.592389 C132,163.8867 133.204623,163.79893 134.677132,164.396823 L145.322868,168.719319 C146.795377,169.317212 148,170.346882 148,171.006626 Z" id="Stroke-13" stroke="#082674" stroke-width="2"></path>
                <path d="M176.598496,83 C184.947522,81.5579275 192.248958,74.6449961 190.912621,54.1152233 C190.912621,54.1152233 196.194586,44.1618199 199.715896,50.6022574 C203.237206,57.0426949 199.129011,41.4896238 192.086391,41.6547332 C192.086391,41.6547332 190.545818,27.767979 201,26.5969903 C201,26.5969903 188.97414,23.0840244 184.074824,28.9389676 C184.074824,28.9389676 185.043771,8.44666646 172.132302,5.51919487 C172.132302,5.51919487 178.001152,13.130621 170.371647,20.7420471 C170.371647,20.7420471 135.745433,-9.70365741 101.11922,3.17721759 C66.4930059,16.0580926 56.312899,26.8669032 48.6833943,24.5249259 C41.0538896,22.1829487 61.3278312,36.8203066 70.1311058,34.4783294 C78.9343805,32.1363521 55.5792928,47.3592044 47.7050571,46.77371 C44.485993,46.5342429 56.6597481,49.8276484 74.3015105,52.3335641" id="Stroke-17" stroke="#082674" stroke-width="2" fill="#FFFFFF"></path>
                <path d="M154.594074,79.4753533 C164.559709,59.456291 154.594074,46 154.594074,46 C136.269711,58.7502257 99.4348986,56.770428 74,53.1409943 L74,95.7488683 C74,117.426363 96.8337684,135 125.000293,135 C153.166817,135 176,117.426363 176,95.7488683 L176,83.8571805 C166.043728,85.584812 154.594074,79.4753533 154.594074,79.4753533 Z" id="Stroke-15" stroke="#082674" stroke-width="2"></path>
                <path d="M117,116 C117,118.209244 115.880944,120 114.500298,120 C113.119652,120 112,118.209244 112,116 C112,113.790756 113.119652,112 114.500298,112 C115.880944,112 117,113.790756 117,116 Z" id="Stroke-19" stroke="#082674" stroke-width="2"></path>
                <path d="M108,103.042254 C108,104.669014 106.682359,106 105.071908,106 L53.9280922,106 C52.3176415,106 51,104.669014 51,103.042254 L51,66.9577465 C51,65.3309859 52.3176415,64 53.9280922,64 L105.071908,64 C106.682359,64 108,65.3309859 108,66.9577465 L108,103.042254 Z" id="Fill-21" fill="#F6A623" opacity="0.453066698"></path>
                <path d="M108,103.042254 C108,104.669014 106.682359,106 105.071908,106 L53.9280922,106 C52.3176415,106 51,104.669014 51,103.042254 L51,66.9577465 C51,65.3309859 52.3176415,64 53.9280922,64 L105.071908,64 C106.682359,64 108,65.3309859 108,66.9577465 L108,103.042254 Z" id="Stroke-23" stroke="#082674" stroke-width="3"></path>
                <path d="M184,103.042254 C184,104.669014 182.682359,106 181.071908,106 L129.928092,106 C128.317641,106 127,104.669014 127,103.042254 L127,66.9577465 C127,65.3309859 128.317641,64 129.928092,64 L181.071908,64 C182.682359,64 184,65.3309859 184,66.9577465 L184,103.042254 Z" id="Fill-25" fill="#F6A623" opacity="0.453066698"></path>
                <path d="M184,103.042254 C184,104.669014 182.682359,106 181.071908,106 L129.928092,106 C128.317641,106 127,104.669014 127,103.042254 L127,66.9577465 C127,65.3309859 128.317641,64 129.928092,64 L181.071908,64 C182.682359,64 184,65.3309859 184,66.9577465 L184,103.042254 Z" id="Stroke-27" stroke="#082674" stroke-width="3"></path>
                <polygon id="Fill-29" fill="#FFFFFF" points="108 82 127 82 127 76 108 76"></polygon>
                <polygon id="Stroke-31" stroke="#082674" stroke-width="2" points="108 82 127 82 127 76 108 76"></polygon>
                <path d="M140,193.055124 C140,194.674806 138.682008,196 137.07113,196 L2.92887029,196 C1.31799163,196 0,194.674806 0,193.055124 L0,139.944876 C0,138.325194 1.31799163,137 2.92887029,137 L137.07113,137 C138.682008,137 140,138.325194 140,139.944876 L140,193.055124 Z" id="Fill-32" fill="#FFFFFF"></path>
                <path d="M140,193.055124 C140,194.674806 138.682008,196 137.07113,196 L2.92887029,196 C1.31799163,196 0,194.674806 0,193.055124 L0,139.944876 C0,138.325194 1.31799163,137 2.92887029,137 L137.07113,137 C138.682008,137 140,138.325194 140,139.944876 L140,193.055124 Z" id="Stroke-33" stroke="#082674" stroke-width="2"></path>
                <path d="M99,252.09136 C99,253.691112 97.6913265,255 96.0918367,255 L44.9081633,255 C43.3086735,255 42,253.691112 42,252.09136 L42,197.90864 C42,196.308888 43.3086735,195 44.9081633,195 L96.0918367,195 C97.6913265,195 99,196.308888 99,197.90864 L99,252.09136 Z" id="Fill-34" fill="#FFFFFF"></path>
                <path d="M99,252.09136 C99,253.691112 97.6913265,255 96.0918367,255 L44.9081633,255 C43.3086735,255 42,253.691112 42,252.09136 L42,197.90864 C42,196.308888 43.3086735,195 44.9081633,195 L96.0918367,195 C97.6913265,195 99,196.308888 99,197.90864 L99,252.09136 Z" id="Stroke-35" stroke="#082674" stroke-width="2"></path>
                <polygon id="Stroke-36" stroke="#082674" stroke-width="2" points="65.5 189 43 166.500291 65.5 144 88 166.500291"></polygon>
                <polyline id="Stroke-37" stroke="#082674" stroke-width="2" points="59 155.80575 65.7994118 149 79 163"></polyline>
                <polygon id="Stroke-38" stroke="#082674" stroke-width="2" points="66 144 69.934115 144 92 166.499709 69.5810609 189 66 189 88.4735232 166.499709"></polygon>
                <path d="M64,137 C64,137 67.1829332,113.870006 89,115.043165" id="Stroke-39" stroke="#082674" stroke-width="2"></path>
                <path d="M97,114.5 C97,119.746969 92.7469687,124 87.5,124 C82.2530313,124 78,119.746969 78,114.5 C78,109.253031 82.2530313,105 87.5,105 C92.7469687,105 97,109.253031 97,114.5" id="Fill-40" fill="#FFFFFF"></path>
                <path d="M97,114.5 C97,119.746969 92.7469687,124 87.5,124 C82.2530313,124 78,119.746969 78,114.5 C78,109.253031 82.2530313,105 87.5,105 C92.7469687,105 97,109.253031 97,114.5 Z" id="Stroke-41" stroke="#0A2674" stroke-width="2"></path>
                <path d="M140,84.5 C140,86.9851429 139.328632,89 138.5,89 C137.671368,89 137,86.9851429 137,84.5 C137,82.0148571 137.671368,80 138.5,80 C139.328632,80 140,82.0148571 140,84.5 Z" id="Stroke-42" stroke="#082674" stroke-width="2"></path>
                <path d="M98,84.5 C98,86.9851429 97.3286316,89 96.5,89 C95.6713684,89 95,86.9851429 95,84.5 C95,82.0148571 95.6713684,80 96.5,80 C97.3286316,80 98,82.0148571 98,84.5 Z" id="Stroke-43" stroke="#082674" stroke-width="2"></path>
                <path d="M55,76 C55,76 57.2826087,69.5982906 62,69" id="Stroke-44" stroke="#082674" stroke-width="2"></path>
                <path d="M173,69 C173,69 179.401709,71.2826087 180,76" id="Stroke-45" stroke="#082674" stroke-width="2"></path>
            </g>
        </g>
    </g>
</svg>