<?xml version="1.0" encoding="UTF-8"?>
<svg width="344px" height="345px" viewBox="0 0 344 345" version="1.1" xmlns="http://www.w3.org/2000/svg" xmlns:xlink="http://www.w3.org/1999/xlink">
    <!-- Generator: Sketch 41.2 (35397) - http://www.bohemiancoding.com/sketch -->
    <title>Page 1</title>
    <desc>Created with Sketch.</desc>
    <defs></defs>
    <g id="final-page" stroke="none" stroke-width="1" fill="none" fill-rule="evenodd">
        <g id="Onepager" transform="translate(-846.000000, -121.000000)">
            <g id="Page-1" transform="translate(846.000000, 121.000000)">
                <g id="Group-3" fill="#27B798">
                    <path d="M343.557263,172.346444 C343.557263,267.530549 266.649594,344.692889 171.778632,344.692889 C76.9081206,344.692889 0,267.530549 0,172.346444 C0,77.1623396 76.9081206,0 171.778632,0 C266.649594,0 343.557263,77.1623396 343.557263,172.346444" id="Fill-1"></path>
                </g>
                <g id="Group-10" transform="translate(77.000000, 21.000000)">
                    <path d="M55.164,151 L39.772,151 L39.772,99.126 L53.684,99.126 C59.2586945,99.126 63.513652,100.655318 66.449,103.714 C69.384348,106.772682 70.852,110.842641 70.852,115.924 L70.852,136.2 C70.852,146.066716 65.622719,151 55.164,151 Z M66.708,136.94 L66.708,115.184 C66.708,111.039979 65.474679,107.956677 63.008,105.934 C60.541321,103.911323 57.6800163,102.9 54.424,102.9 L43.916,102.9 L43.916,147.3 L53.98,147.3 C62.4653758,147.3 66.708,143.846701 66.708,136.94 Z M95.568,151.74 C84.763946,151.74 79.362,147.324711 79.362,138.494 L79.362,132.352 C79.362,127.467976 81.063983,124.187342 84.468,122.51 C86.2440089,121.671329 87.9953247,121.252 89.722,121.252 C95.5433624,121.252 100.205316,122.63332 103.708,125.396 C103.708,122.682653 102.918675,120.524341 101.34,118.921 C99.7613254,117.317659 96.7273558,116.516 92.238,116.516 L92.46,113.334 C96.45602,113.334 99.4159904,113.802662 101.34,114.74 C102.376005,115.282669 103.288663,115.825331 104.078,116.368 C104.867337,116.910669 105.483998,117.625996 105.928,118.514 C106.372002,119.402004 106.741999,120.178997 107.038,120.845 C107.334001,121.511003 107.531333,122.411328 107.63,123.546 C107.778001,125.272675 107.852,127.073324 107.852,128.948 L107.852,151 C102.721308,151.493336 98.626682,151.74 95.568,151.74 Z M103.708,147.596 L103.708,128.578 C99.6133129,126.604657 95.4200215,125.445335 91.128,125.1 C90.8319985,125.050666 90.5360015,125.026 90.24,125.026 C88.365324,125.026 86.7620067,125.605661 85.43,126.765 C84.0979933,127.924339 83.432,129.860653 83.432,132.574 L83.432,139.012 C83.432,143.106687 85.2079822,145.770661 88.76,147.004 C90.8320104,147.744004 93.1753203,148.114 95.79,148.114 C98.4046797,148.114 101.043987,147.941335 103.708,147.596 Z M130.866,166.54 L129.756,163.358 C133.06135,162.124661 134.714,159.559353 134.714,155.662 L134.714,147.374 C132.888658,150.383348 129.63269,151.888 124.946,151.888 C115.57262,151.888 110.886,147.250713 110.886,137.976 L110.886,113.926 L114.882,113.926 L114.882,138.716 C114.882,141.873349 115.745325,144.228992 117.472,145.783 C119.198675,147.337008 121.554318,148.114 124.539,148.114 C127.523682,148.114 129.953324,147.349341 131.828,145.82 C133.702676,144.290659 134.64,141.922683 134.64,138.716 L134.64,124.138 C134.64,120.536649 134.886664,118.144006 135.38,116.96 C136.218671,115.233325 137.772655,114.000004 140.042,113.26 L141.152,116.072 C139.474658,116.812004 138.636,118.538653 138.636,121.252 L138.636,155.514 C138.636,158.523348 138.044006,160.891325 136.86,162.618 C135.675994,164.344675 133.678014,165.651996 130.866,166.54 Z" id="Day" fill="#FEFEFE"></path>
                    <path d="M155.75,148 L149.432,148 L149.432,147.046 L154.004,140.116 C154.436002,139.419997 154.652,138.802003 154.652,138.262 C154.652,137.589997 154.439002,137.074002 154.013,136.714 C153.586998,136.353998 153.134002,136.174 152.654,136.174 C152.173998,136.174 151.754002,136.317999 151.394,136.606 C151.033998,136.894001 150.770001,137.271998 150.602,137.74 L149.666,137.38 C149.894001,136.743997 150.256998,136.225002 150.755,135.823 C151.253002,135.420998 151.900996,135.22 152.699,135.22 C153.497004,135.22 154.183997,135.471997 154.76,135.976 C155.396003,136.528003 155.714,137.208996 155.714,138.019 C155.714,138.829004 155.450003,139.677996 154.922,140.566 L150.602,147.064 L155.75,147.064 L155.75,148 Z M164.876,138.892 L164.876,144.67 C164.876,145.882006 164.507004,146.772997 163.769,147.343 C163.030996,147.913003 162.146005,148.198 161.114,148.198 C160.081995,148.198 159.191004,147.913003 158.441,147.343 C157.690996,146.772997 157.316,145.882006 157.316,144.67 L157.316,138.874 C157.316,137.637994 157.654997,136.702003 158.333,136.066 C159.011003,135.429997 159.943994,135.112 161.132,135.112 C162.320006,135.112 163.240997,135.447997 163.895,136.12 C164.549003,136.792003 164.876,137.715994 164.876,138.892 Z M163.886,144.634 L163.886,138.712 C163.886,137.835996 163.631003,137.176002 163.121,136.732 C162.610997,136.287998 161.936004,136.066 161.096,136.066 C160.255996,136.066 159.584003,136.287998 159.08,136.732 C158.575997,137.176002 158.324,137.835996 158.324,138.712 L158.324,144.652 C158.324,145.504004 158.584997,146.148998 159.107,146.587 C159.629003,147.025002 160.294996,147.244 161.105,147.244 C161.915004,147.244 162.580997,147.031002 163.103,146.605 C163.625003,146.178998 163.886,145.522004 163.886,144.634 Z M169.394,148 L168.386,148 L168.386,136.588 C168.193999,136.768001 167.960001,136.926999 167.684,137.065 C167.407999,137.203001 167.180001,137.296 167,137.344 L166.73,137.416 L166.496,136.462 C166.760001,136.462 167.080998,136.360001 167.459,136.156 C167.837002,135.951999 168.145999,135.700002 168.386,135.4 L169.394,135.4 L169.394,148 Z M171.608,148 L170.492,148 L176.198,136.39 L170.258,136.39 L170.258,135.4 L177.35,135.4 L177.35,136.39 L171.608,148 Z" id="2017" fill="#FFFFFF"></path>
                    <path d="M21.028,100 L0.644,100 L0.644,31.302 L19.068,31.302 C26.4507036,31.302 32.0856472,33.3273131 35.973,37.378 C39.8603528,41.4286869 41.804,46.818633 41.804,53.548 L41.804,80.4 C41.804,93.466732 34.8787359,100 21.028,100 Z M34.748,81.38 L34.748,52.568 C34.748,47.6679755 33.3270142,44.0256786 30.485,41.641 C27.6429858,39.2563214 24.1640206,38.064 20.048,38.064 L7.7,38.064 L7.7,93.63 L19.46,93.63 C26.7120363,93.63 31.3506565,91.7026859 33.376,87.848 C34.2906712,86.1493248 34.748,83.9933464 34.748,81.38 Z M53.074,75.304 C53.074,65.5692847 58.0392837,60.702 67.97,60.702 C69.3420069,60.702 70.8119922,60.799999 72.38,60.996 C77.0186899,61.7800039 80.8079853,63.2499892 83.748,65.406 C83.748,58.676633 79.1420461,55.312 69.93,55.312 L70.42,50.118 C75.7120265,50.118 79.6319873,50.7386605 82.18,51.98 C83.5520069,52.6986703 84.7606614,53.4173297 85.806,54.136 C86.8513386,54.8546703 87.6679971,55.8019941 88.256,56.978 C88.8440029,58.1540059 89.333998,59.1829956 89.726,60.065 C90.118002,60.9470044 90.3793327,62.1393258 90.51,63.642 C90.706001,65.9286781 90.804,68.3133209 90.804,70.796 L90.804,100 C84.0092994,100.653337 78.5866869,100.98 74.536,100.98 C60.2279285,100.98 53.074,95.1327251 53.074,83.438 L53.074,75.304 Z M83.748,94.022 L83.748,71.776 C79.3053111,69.4893219 74.5033591,68.0520029 69.342,67.464 L67.97,67.464 C65.8793229,67.464 64.0500078,68.1009936 62.482,69.375 C60.9139922,70.6490064 60.13,72.821318 60.13,75.892 L60.13,83.536 C60.13,90.9840372 65.225949,94.708 75.418,94.708 C77.9006791,94.708 80.677318,94.4793356 83.748,94.022 Z M111.286,95.786 L109.228,101.274 C105.046646,100.489996 102.041342,98.9220118 100.212,96.57 C98.3826575,94.2179882 97.468,91.0493533 97.468,87.064 L97.468,31.4 L104.622,31.4 L104.622,50.902 L115.598,50.902 L113.246,57.566 L104.622,57.566 L104.622,87.064 C104.622,91.7026899 106.843311,94.6099941 111.286,95.786 Z M121.478,75.304 C121.478,65.5692847 126.443284,60.702 136.374,60.702 C137.746007,60.702 139.215992,60.799999 140.784,60.996 C145.42269,61.7800039 149.211985,63.2499892 152.152,65.406 C152.152,58.676633 147.546046,55.312 138.334,55.312 L138.824,50.118 C144.116026,50.118 148.035987,50.7386605 150.584,51.98 C151.956007,52.6986703 153.164661,53.4173297 154.21,54.136 C155.255339,54.8546703 156.071997,55.8019941 156.66,56.978 C157.248003,58.1540059 157.737998,59.1829956 158.13,60.065 C158.522002,60.9470044 158.783333,62.1393258 158.914,63.642 C159.110001,65.9286781 159.208,68.3133209 159.208,70.796 L159.208,100 C152.413299,100.653337 146.990687,100.98 142.94,100.98 C128.631928,100.98 121.478,95.1327251 121.478,83.438 L121.478,75.304 Z M152.152,94.022 L152.152,71.776 C147.709311,69.4893219 142.907359,68.0520029 137.746,67.464 L136.374,67.464 C134.283323,67.464 132.454008,68.1009936 130.886,69.375 C129.317992,70.6490064 128.534,72.821318 128.534,75.892 L128.534,83.536 C128.534,90.9840372 133.629949,94.708 143.822,94.708 C146.304679,94.708 149.081318,94.4793356 152.152,94.022 Z" id="Data" fill="#FEFEFE"></path>
                    <path d="M58.32,8.76 L58.32,21.6 C58.32,24.2933468 57.5000082,26.273327 55.86,27.54 C54.2199918,28.806673 52.2533448,29.44 49.96,29.44 C47.6666552,29.44 45.686675,28.806673 44.02,27.54 C42.353325,26.273327 41.52,24.2933468 41.52,21.6 L41.52,8.72 C41.52,5.9733196 42.2733258,3.8933404 43.78,2.48 C45.2866742,1.0666596 47.3599868,0.36 50,0.36 C52.6400132,0.36 54.6866594,1.1066592 56.14,2.6 C57.5933406,4.0933408 58.32,6.1466536 58.32,8.76 Z M56.12,21.52 L56.12,8.36 C56.12,6.4133236 55.553339,4.9466716 54.42,3.96 C53.286661,2.9733284 51.786676,2.48 49.92,2.48 C48.053324,2.48 46.5600056,2.9733284 45.44,3.96 C44.3199944,4.9466716 43.76,6.4133236 43.76,8.36 L43.76,21.56 C43.76,23.4533428 44.3399942,24.8866618 45.5,25.86 C46.6600058,26.8333382 48.139991,27.32 49.94,27.32 C51.740009,27.32 53.2199942,26.8466714 54.38,25.9 C55.5400058,24.9533286 56.12,23.4933432 56.12,21.52 Z M66.32,36.52 L64.08,37.4 L64.08,8.96 L66.32,8.96 L66.12,11 C67.586674,9.4266588 69.4799884,8.64 71.8,8.64 C74.1200116,8.64 75.9266602,9.3599928 77.22,10.8 C78.5133398,12.2400072 79.16,14.1066552 79.16,16.4 L79.16,21.96 C79.16,24.3866788 78.4800068,26.2466602 77.12,27.54 C75.7599932,28.8333398 73.9266782,29.48 71.62,29.48 C69.3133218,29.48 67.5466728,28.7600072 66.32,27.32 L66.32,36.52 Z M76.92,22.36 L76.92,16.24 C76.92,14.2933236 76.4066718,12.8800044 75.38,12 C74.3533282,11.1199956 73.1266738,10.68 71.7,10.68 C70.2733262,10.68 69.0400052,11.113329 68,11.98 C66.9599948,12.846671 66.4000004,14.1999908 66.32,16.04 L66.32,22.36 C66.32,24.093342 66.8133284,25.3733292 67.8,26.2 C68.7866716,27.0266708 70.0533256,27.44 71.6,27.44 C73.1466744,27.44 74.419995,27.006671 75.42,26.14 C76.420005,25.273329 76.92,24.0133416 76.92,22.36 Z M88.56,27.52 C90.4000092,27.52 92.3466564,26.9733388 94.4,25.88 L95.28,27.6 C93.2266564,28.8533396 91.0800112,29.48 88.84,29.48 C84.1999768,29.48 81.88,27.5333528 81.88,23.64 L81.88,15.44 C81.88,13.2799892 82.5533266,11.600006 83.9,10.4 C85.2466734,9.199994 87.0266556,8.6 89.24,8.6 C91.4533444,8.6 93.1799938,9.1933274 94.42,10.38 C95.6600062,11.5666726 96.28,13.2133228 96.28,15.32 L96.28,20.52 L84.12,21.2 L84.12,23.64 C84.12,25.0800072 84.6399948,26.1199968 85.68,26.76 C86.480004,27.2666692 87.4399944,27.52 88.56,27.52 Z M94.04,18.52 L94.04,15.04 C94.04,13.8933276 93.7333364,12.953337 93.12,12.22 C92.5066636,11.486663 91.86667,11.020001 91.2,10.82 C90.53333,10.619999 89.86667,10.52 89.2,10.52 C87.733326,10.52 86.5200048,10.919996 85.56,11.72 C84.5999952,12.520004 84.12,13.7733248 84.12,15.48 L84.12,19 L94.04,18.52 Z M102.48,10.32 C103.840007,9.1733276 105.746654,8.6 108.2,8.6 C109.586674,8.6 110.773328,8.8533308 111.76,9.36 C114.026678,10.4000052 115.16,12.3333192 115.16,15.16 L115.16,29 L112.96,29 L112.96,15.28 C112.96,13.8933264 112.58667,12.8133372 111.84,12.04 C110.933329,11.106662 109.580009,10.64 107.78,10.64 C105.979991,10.64 104.266675,11.0933288 102.64,12 L102.64,29 L100.4,29 L100.4,8.96 L102.64,8.96 L102.48,10.32 Z" id="Open" fill="#FEFEFE"></path>
                    <path d="M39.52,190 L38.18,190 L33.66,183.1 L32.7,184.62 L32.7,190 L31.58,190 L31.58,175.98 L32.7,175.98 L32.7,182.66 L37.18,175.98 L38.48,175.98 L34.38,182.04 L39.52,190 Z M44.62,190.2 C41.6999854,190.2 40.24,189.006679 40.24,186.62 L40.24,184.96 C40.24,183.639993 40.6999954,182.753336 41.62,182.3 C42.1000024,182.073332 42.573331,181.96 43.04,181.96 C44.6133412,181.96 45.8733286,182.33333 46.82,183.08 C46.82,182.346663 46.6066688,181.763335 46.18,181.33 C45.7533312,180.896664 44.9333394,180.68 43.72,180.68 L43.78,179.82 C44.8600054,179.82 45.6599974,179.946665 46.18,180.2 C46.4600014,180.346667 46.7066656,180.493333 46.92,180.64 C47.1333344,180.786667 47.2999994,180.979999 47.42,181.22 C47.5400006,181.460001 47.6399996,181.669999 47.72,181.85 C47.8000004,182.030001 47.8533332,182.273332 47.88,182.58 C47.9200002,183.046669 47.94,183.533331 47.94,184.04 L47.94,190 C46.5533264,190.133334 45.4466708,190.2 44.62,190.2 Z M46.82,189.08 L46.82,183.94 C45.7133278,183.406664 44.5800058,183.093334 43.42,183 C43.3399996,182.986667 43.2600004,182.98 43.18,182.98 C42.6733308,182.98 42.2400018,183.136665 41.88,183.45 C41.5199982,183.763335 41.34,184.286663 41.34,185.02 L41.34,186.76 C41.34,187.866672 41.8199952,188.586665 42.78,188.92 C43.3400028,189.120001 43.9733298,189.22 44.68,189.22 C45.3866702,189.22 46.0999964,189.173334 46.82,189.08 Z M51.46,189.4 L51.14,190.26 C50.3933296,190.046666 49.853335,189.706669 49.52,189.24 C49.186665,188.773331 49.02,188.146671 49.02,187.36 L49.02,176 L50.14,176 L50.14,179.98 L52.54,179.98 L52.06,181.04 L50.14,181.04 L50.14,187.36 C50.14,188.426672 50.5799956,189.106665 51.46,189.4 Z M55.4,180.52 C56.06667,180.039998 56.966661,179.8 58.1,179.8 C58.8200036,179.8 59.4399974,179.926665 59.96,180.18 C61.093339,180.700003 61.66,181.66666 61.66,183.08 L61.66,190 L60.56,190 L60.56,183.14 C60.56,182.446663 60.3733352,181.906669 60,181.52 C59.5466644,181.053331 58.8700045,180.82 57.97,180.82 C57.0699955,180.82 56.2133374,181.046664 55.4,181.5 L55.4,190 L54.28,190 L54.28,176 L55.4,176 L55.4,180.52 Z M70.56,180.78 C71.693339,180.139997 72.7666616,179.82 73.78,179.82 C74.7400048,179.82 75.4999972,180.126664 76.06,180.74 C76.6200028,181.353336 76.9,182.133329 76.9,183.08 L76.9,190 L75.8,190 L75.8,183.14 C75.8,182.539997 75.6733346,182.053335 75.42,181.68 C75.1666654,181.306665 74.8600018,181.073334 74.5,180.98 C74.1399982,180.886666 73.8500011,180.84 73.63,180.84 C73.4099989,180.84 73.1633347,180.85 72.89,180.87 C72.6166653,180.89 72.2533356,180.986666 71.8,181.16 L71.06,181.52 C71.2866678,181.973336 71.4,182.49333 71.4,183.08 L71.4,190 L70.3,190 L70.3,183.14 C70.3,182.446663 70.133335,181.906669 69.8,181.52 C69.399998,181.066664 68.7900041,180.84 67.97,180.84 C67.1499959,180.84 66.340004,181.059998 65.54,181.5 L65.54,190 L64.42,190 L64.42,179.98 L65.54,179.98 L65.44,180.62 C66.3600046,180.099997 67.2899953,179.84 68.23,179.84 C69.1700047,179.84 69.9466636,180.15333 70.56,180.78 Z M82.68,190.2 C79.7599854,190.2 78.3,189.006679 78.3,186.62 L78.3,184.96 C78.3,183.639993 78.7599954,182.753336 79.68,182.3 C80.1600024,182.073332 80.633331,181.96 81.1,181.96 C82.6733412,181.96 83.9333286,182.33333 84.88,183.08 C84.88,182.346663 84.6666688,181.763335 84.24,181.33 C83.8133312,180.896664 82.9933394,180.68 81.78,180.68 L81.84,179.82 C82.9200054,179.82 83.7199974,179.946665 84.24,180.2 C84.5200014,180.346667 84.7666656,180.493333 84.98,180.64 C85.1933344,180.786667 85.3599994,180.979999 85.48,181.22 C85.6000006,181.460001 85.6999996,181.669999 85.78,181.85 C85.8600004,182.030001 85.9133332,182.273332 85.94,182.58 C85.9800002,183.046669 86,183.533331 86,184.04 L86,190 C84.6133264,190.133334 83.5066708,190.2 82.68,190.2 Z M84.88,189.08 L84.88,183.94 C83.7733278,183.406664 82.6400058,183.093334 81.48,183 C81.3999996,182.986667 81.3200004,182.98 81.24,182.98 C80.7333308,182.98 80.3000018,183.136665 79.94,183.45 C79.5799982,183.763335 79.4,184.286663 79.4,185.02 L79.4,186.76 C79.4,187.866672 79.8799952,188.586665 80.84,188.92 C81.4000028,189.120001 82.0333298,189.22 82.74,189.22 C83.4466702,189.22 84.1599964,189.173334 84.88,189.08 Z M89.04,180.66 C89.7200034,180.086664 90.6733272,179.8 91.9,179.8 C92.5933368,179.8 93.1866642,179.926665 93.68,180.18 C94.813339,180.700003 95.38,181.66666 95.38,183.08 L95.38,190 L94.28,190 L94.28,183.14 C94.28,182.446663 94.0933352,181.906669 93.72,181.52 C93.2666644,181.053331 92.5900045,180.82 91.69,180.82 C90.7899955,180.82 89.9333374,181.046664 89.12,181.5 L89.12,190 L88,190 L88,179.98 L89.12,179.98 L89.04,180.66 Z M101.9,179.82 C103.006672,179.82 103.886663,180.053331 104.54,180.52 L104.54,176 L105.66,176 L105.66,190 C104.513328,190.160001 103.453338,190.24 102.48,190.24 C101.506662,190.24 100.626671,190.040002 99.84,189.64 C98.7999948,189.106664 98.28,188.180007 98.28,186.86 L98.28,183.08 C98.28,181.679993 98.846661,180.720003 99.98,180.2 C100.526669,179.946665 101.166663,179.82 101.9,179.82 Z M104.54,181.5 C103.726663,181.046664 102.840005,180.82 101.88,180.82 C101.039996,180.82 100.413335,181.033331 100,181.46 C99.5866646,181.886669 99.38,182.446663 99.38,183.14 L99.38,186.88 C99.38,188.440008 100.426656,189.22 102.52,189.22 C103.120003,189.22 103.79333,189.160001 104.54,189.04 L104.54,181.5 Z M114.5,190 L113.4,190 L113.48,188.98 C113.159998,189.380002 112.756669,189.686666 112.27,189.9 C111.783331,190.113334 111.293336,190.22 110.8,190.22 C108.293321,190.22 107.04,189.000012 107.04,186.56 L107.04,179.98 L108.16,179.98 L108.16,186.7 C108.16,187.553338 108.396664,188.186665 108.87,188.6 C109.343336,189.013335 109.986663,189.22 110.8,189.22 C112.520009,189.22 113.38,188.380008 113.38,186.7 L113.38,179.98 L114.5,179.98 L114.5,190 Z M116.28,191.68 L115.48,191.12 C116.080003,190.773332 116.466666,190.466668 116.64,190.2 L116.74,190.06 L116.54,190 C116.299999,189.826666 116.183333,189.620001 116.19,189.38 C116.196667,189.139999 116.263333,188.963334 116.39,188.85 C116.516667,188.736666 116.626666,188.68 116.72,188.68 C116.813334,188.68 116.906666,188.683333 117,188.69 C117.093334,188.696667 117.209999,188.776666 117.35,188.93 C117.490001,189.083334 117.56,189.259999 117.56,189.46 C117.56,190.233337 117.133338,190.97333 116.28,191.68 Z M135.4,190 L134.28,190 L126.68,178.06 L126.68,190 L125.56,190 L125.56,176 L126.68,176 L134.28,187.94 L134.28,176 L135.4,176 L135.4,190 Z M141.04,189.26 C141.960005,189.26 142.933328,188.986669 143.96,188.44 L144.4,189.3 C143.373328,189.92667 142.300006,190.24 141.18,190.24 C138.859988,190.24 137.7,189.266676 137.7,187.32 L137.7,183.22 C137.7,182.139995 138.036663,181.300003 138.71,180.7 C139.383337,180.099997 140.273328,179.8 141.38,179.8 C142.486672,179.8 143.349997,180.096664 143.97,180.69 C144.590003,181.283336 144.9,182.106661 144.9,183.16 L144.9,185.76 L138.82,186.1 L138.82,187.32 C138.82,188.040004 139.079997,188.559998 139.6,188.88 C140.000002,189.133335 140.479997,189.26 141.04,189.26 Z M143.78,184.76 L143.78,183.02 C143.78,182.446664 143.626668,181.976668 143.32,181.61 C143.013332,181.243331 142.693335,181.01 142.36,180.91 C142.026665,180.809999 141.693335,180.76 141.36,180.76 C140.626663,180.76 140.020002,180.959998 139.54,181.36 C139.059998,181.760002 138.82,182.386662 138.82,183.24 L138.82,185 L143.78,184.76 Z M147.32,193.76 L146.2,194.2 L146.2,179.98 L147.32,179.98 L147.22,181 C147.953337,180.213329 148.899994,179.82 150.06,179.82 C151.220006,179.82 152.12333,180.179996 152.77,180.9 C153.41667,181.620004 153.74,182.553328 153.74,183.7 L153.74,186.48 C153.74,187.693339 153.400003,188.62333 152.72,189.27 C152.039997,189.91667 151.123339,190.24 149.97,190.24 C148.816661,190.24 147.933336,189.880004 147.32,189.16 L147.32,193.76 Z M152.62,186.68 L152.62,183.62 C152.62,182.646662 152.363336,181.940002 151.85,181.5 C151.336664,181.059998 150.723337,180.84 150.01,180.84 C149.296663,180.84 148.680003,181.056664 148.16,181.49 C147.639997,181.923335 147.36,182.599995 147.32,183.52 L147.32,186.68 C147.32,187.546671 147.566664,188.186665 148.06,188.6 C148.553336,189.013335 149.186663,189.22 149.96,189.22 C150.733337,189.22 151.369998,189.003335 151.87,188.57 C152.370003,188.136664 152.62,187.506671 152.62,186.68 Z M159.52,190.2 C156.599985,190.2 155.14,189.006679 155.14,186.62 L155.14,184.96 C155.14,183.639993 155.599995,182.753336 156.52,182.3 C157.000002,182.073332 157.473331,181.96 157.94,181.96 C159.513341,181.96 160.773329,182.33333 161.72,183.08 C161.72,182.346663 161.506669,181.763335 161.08,181.33 C160.653331,180.896664 159.833339,180.68 158.62,180.68 L158.68,179.82 C159.760005,179.82 160.559997,179.946665 161.08,180.2 C161.360001,180.346667 161.606666,180.493333 161.82,180.64 C162.033334,180.786667 162.199999,180.979999 162.32,181.22 C162.440001,181.460001 162.54,181.669999 162.62,181.85 C162.7,182.030001 162.753333,182.273332 162.78,182.58 C162.82,183.046669 162.84,183.533331 162.84,184.04 L162.84,190 C161.453326,190.133334 160.346671,190.2 159.52,190.2 Z M161.72,189.08 L161.72,183.94 C160.613328,183.406664 159.480006,183.093334 158.32,183 C158.24,182.986667 158.16,182.98 158.08,182.98 C157.573331,182.98 157.140002,183.136665 156.78,183.45 C156.419998,183.763335 156.24,184.286663 156.24,185.02 L156.24,186.76 C156.24,187.866672 156.719995,188.586665 157.68,188.92 C158.240003,189.120001 158.87333,189.22 159.58,189.22 C160.28667,189.22 160.999996,189.173334 161.72,189.08 Z M166.24,190 L165.12,190 L165.12,176 L166.24,176 L166.24,190 Z" id="Kathmandu,-Nepal" fill="#FEFEFE"></path>
                </g>
                <g id="Group-11" transform="translate(107.000000, 253.000000)" fill="#FFFFFF">
                    <path d="M2.9,56 L1.028,56 L1.028,37.8 L9.712,37.8 L9.712,39.62 L2.9,39.62 L2.9,45.262 L7.112,45.262 L6.41,47.082 L2.9,47.082 L2.9,56 Z M9.764,52.412 C9.764,53.8853407 10.630658,54.622 12.364,54.622 C13.438672,54.622 14.6173269,54.2666702 15.9,53.556 L16.602,55.09 C15.2673267,55.9046707 13.8720073,56.312 12.416,56.312 C9.39998492,56.312 7.892,55.0466793 7.892,52.516 L7.892,47.186 C7.892,45.781993 8.32966229,44.6900039 9.205,43.91 C10.0803377,43.1299961 11.2373261,42.74 12.676,42.74 C14.1146739,42.74 15.236996,43.1256628 16.043,43.897 C16.849004,44.6683372 17.252,45.7386598 17.252,47.108 L17.252,50.67 L9.764,51.06 L9.764,52.412 Z M15.354,49.006 L15.354,47.004 C15.354,46.0853287 15.0680029,45.4310019 14.496,45.041 C13.9239971,44.650998 13.2566705,44.456 12.494,44.456 C11.7313295,44.456 11.0856693,44.6899977 10.557,45.158 C10.0283307,45.6260023 9.764,46.3106622 9.764,47.212 L9.764,49.292 L15.354,49.006 Z M21.152,43.468 C21.9666707,42.9999977 22.8939948,42.766 23.934,42.766 C24.9740052,42.766 25.8839961,42.930665 26.664,43.26 C28.1373407,43.9360034 28.874,45.1839909 28.874,47.004 L28.874,51.918 C28.874,53.6340086 28.1980068,54.8386632 26.846,55.532 C25.8233282,56.0520026 24.6793397,56.312 23.414,56.312 C22.1486603,56.312 20.7706741,56.208001 19.28,56 L19.28,37.8 L21.152,37.8 L21.152,43.468 Z M27.028,51.944 L27.028,47.29 C27.028,46.4579958 26.8026689,45.8080023 26.352,45.34 C25.8493308,44.802664 25.1040049,44.534 24.116,44.534 L22.816,44.664 C22.1746635,44.8026674 21.6200023,45.0106653 21.152,45.288 L21.152,54.388 C22.018671,54.5093339 22.6729978,54.57 23.115,54.57 C23.5570022,54.57 23.8039997,54.5613334 23.856,54.544 C24.722671,54.544 25.4679969,54.3186689 26.092,53.868 C26.7160031,53.4173311 27.028,52.7760042 27.028,51.944 Z M33.242,56 L31.37,56 L31.37,42.974 L33.19,42.974 L33.19,43.65 C33.9700039,43.0779971 34.957994,42.792 36.154,42.792 C36.7433363,42.792 37.3933298,42.8613326 38.104,43 L37.636,44.768 C37.0293303,44.5773324 36.4010033,44.482 35.751,44.482 C35.1009968,44.482 34.5203359,44.6509983 34.009,44.989 C33.4976641,45.3270017 33.242,45.7819971 33.242,46.354 L33.242,56 Z M49.258,56 L47.464,56 L47.464,55.038 C46.7186629,55.8700042 45.7133397,56.286 44.448,56.286 C41.189317,56.286 39.56,54.7000159 39.56,51.528 L39.56,42.974 L41.432,42.974 L41.432,51.528 C41.432,53.5213433 42.4373233,54.518 44.448,54.518 C46.4066765,54.518 47.386,53.5126767 47.386,51.502 L47.386,42.974 L49.258,42.974 L49.258,56 Z M51.208,49.448 C51.208,46.8653204 52.5253202,45.574 55.16,45.574 C55.5240018,45.574 55.9139979,45.5999997 56.33,45.652 C57.5606728,45.860001 58.5659961,46.2499971 59.346,46.822 C59.346,45.0366577 58.1240122,44.144 55.68,44.144 L55.81,42.766 C57.214007,42.766 58.2539966,42.930665 58.93,43.26 C59.2940018,43.4506676 59.6146653,43.6413324 59.892,43.832 C60.1693347,44.0226676 60.3859992,44.2739984 60.542,44.586 C60.6980008,44.8980016 60.8279995,45.1709988 60.932,45.405 C61.0360005,45.6390012 61.1053332,45.9553313 61.14,46.354 C61.1920003,46.9606697 61.218,47.59333 61.218,48.252 L61.218,56 C59.4153243,56.1733342 57.976672,56.26 56.902,56.26 C53.105981,56.26 51.208,54.7086822 51.208,51.606 L51.208,49.448 Z M59.346,54.414 L59.346,48.512 C58.1673274,47.9053303 56.8933402,47.5240008 55.524,47.368 L55.16,47.368 C54.6053306,47.368 54.1200021,47.5369983 53.704,47.875 C53.2879979,48.2130017 53.08,48.7893293 53.08,49.604 L53.08,51.632 C53.08,53.6080099 54.4319865,54.596 57.136,54.596 C57.79467,54.596 58.5313293,54.5353339 59.346,54.414 Z M65.612,56 L63.74,56 L63.74,42.974 L65.56,42.974 L65.56,43.65 C66.3400039,43.0779971 67.327994,42.792 68.524,42.792 C69.1133363,42.792 69.7633298,42.8613326 70.474,43 L70.006,44.768 C69.3993303,44.5773324 68.7710033,44.482 68.121,44.482 C67.4709968,44.482 66.8903359,44.6509983 66.379,44.989 C65.8676641,45.3270017 65.612,45.7819971 65.612,46.354 L65.612,56 Z M78.326,61.46 L77.728,60.004 C78.8893391,59.6573316 79.47,58.8513397 79.47,57.586 L79.47,55.09 C78.8633303,55.9046707 77.8016743,56.312 76.285,56.312 C74.7683258,56.312 73.5983375,55.9003374 72.775,55.077 C71.9516626,54.2536625 71.54,53.0360081 71.54,51.424 L71.54,42.974 L73.386,42.974 L73.386,51.372 C73.386,53.4693438 74.356657,54.518 76.298,54.518 C78.3953438,54.518 79.444,53.4693438 79.444,51.372 L79.444,46.562 C79.444,45.5393282 79.6043317,44.7030032 79.925,44.053 C80.2456683,43.4029967 80.8653287,42.9653345 81.784,42.74 L82.382,44.144 C81.6539964,44.3866679 81.29,45.0019951 81.29,45.99 L81.29,57.586 C81.29,58.660672 81.0603356,59.5099969 80.601,60.134 C80.1416644,60.7580031 79.3833386,61.1999987 78.326,61.46 Z M100.348,56 L91.04,56 L91.04,54.258 L97.436,44.612 C98.0426697,43.6413285 98.346,42.7920036 98.346,42.064 C98.346,41.2146624 98.077336,40.551669 97.54,40.075 C97.002664,39.5983309 96.4090032,39.36 95.759,39.36 C95.1089968,39.36 94.5500023,39.554998 94.082,39.945 C93.6139977,40.3350019 93.2846676,40.8333303 93.094,41.44 L91.404,40.66 C91.733335,39.7586622 92.2706629,39.0133363 93.016,38.424 C93.7613371,37.8346637 94.7233274,37.54 95.902,37.54 C97.0806726,37.54 98.0859958,37.9126629 98.918,38.658 C99.8193378,39.4726707 100.27,40.4693274 100.27,41.648 C100.27,42.8266726 99.8886705,44.0573269 99.126,45.34 L93.224,54.258 L100.348,54.258 L100.348,56 Z M101.414,53.842 L102.792,52.672 C103.606671,53.8506726 104.681327,54.44 106.016,54.44 C107.090672,54.44 107.965997,54.0846702 108.642,53.374 C109.318003,52.6633298 109.656,51.7880052 109.656,50.748 C109.656,49.7079948 109.27467,48.8370035 108.512,48.135 C107.74933,47.4329965 106.804672,47.082 105.678,47.082 L102.194,47.082 L103.182,37.8 L110.098,37.8 L110.098,39.672 L104.898,39.672 L104.3,45.262 L106.016,45.262 C107.558674,45.262 108.867328,45.799328 109.942,46.874 C111.016672,47.948672 111.554,49.2529923 111.554,50.787 C111.554,52.3210077 111.012339,53.625328 109.929,54.7 C108.845661,55.774672 107.541341,56.312 106.016,56.312 C105.079995,56.312 104.204671,56.0910022 103.39,55.649 C102.575329,55.2069978 101.916669,54.6046705 101.414,53.842 Z M116.884,54.882 L116.338,56.338 C115.228661,56.129999 114.431336,55.7140031 113.946,55.09 C113.460664,54.4659969 113.218,53.6253386 113.218,52.568 L113.218,37.8 L115.116,37.8 L115.116,42.974 L118.028,42.974 L117.404,44.742 L115.116,44.742 L115.116,52.568 C115.116,53.7986728 115.705327,54.5699984 116.884,54.882 Z M122.162,43.494 C122.92467,42.9913308 123.856328,42.74 124.957,42.74 C126.057672,42.74 126.96333,42.904665 127.674,43.234 C129.147341,43.9100034 129.884,45.1666575 129.884,47.004 L129.884,56 L128.012,56 L128.012,47.368 C128.012,46.501329 127.795336,45.8253358 127.362,45.34 C126.859331,44.7679971 126.083672,44.482 125.035,44.482 C123.986328,44.482 123.028671,44.7333308 122.162,45.236 L122.162,56 L120.29,56 L120.29,37.8 L122.162,37.8 L122.162,43.494 Z" id="February-25th"></path>
                    <path d="M13.24,22 L10.54,22 L10.54,12.25 L3.07,12.25 L3.07,22 L0.34,22 L0.34,1 L3.07,1 L3.07,9.61 L10.54,9.61 L10.54,1 L13.24,1 L13.24,22 Z M31.15,22 L27.97,22 L26.32,15.85 L20.8,15.85 L19.21,22 L16.18,22 L21.73,1 L25.3,1 L31.15,22 Z M25.66,13 L23.5,5.5 L21.46,13 L25.66,13 Z M42.16,18.79 L42.61,21.31 C40.9099915,21.9700033 39.2900077,22.3 37.75,22.3 C37.4299984,22.3 36.9450033,22.2700003 36.295,22.21 C35.6449968,22.1499997 34.9550037,21.925002 34.225,21.535 C33.4949964,21.1449981 32.9050023,20.5250043 32.455,19.675 C32.0049978,18.8249958 31.78,17.7700063 31.78,16.51 L31.78,6.88 C31.78,5.3599924 31.9949979,4.2100039 32.425,3.43 C32.8550022,2.6499961 33.5099956,1.9900027 34.39,1.45 C35.2900045,0.9499975 36.3599938,0.7 37.6,0.7 C39.1400077,0.7 40.5599935,1.0299967 41.86,1.69 L41.08,4.03 C40.1199952,3.6699982 39.1250052,3.49 38.095,3.49 C37.0649949,3.49 36.2100034,3.74499745 35.53,4.255 C34.8499966,4.76500255 34.51,5.5499947 34.51,6.61 L34.51,16.45 C34.51,17.3500045 34.7299978,18.0499975 35.17,18.55 C35.7300028,19.1900032 36.6299938,19.51 37.87,19.51 C39.1100062,19.51 40.5399919,19.2700024 42.16,18.79 Z M58.09,22 L54.73,22 L48.67,12.97 L48.01,13.96 L48.01,22 L45.13,22 L45.13,0.97 L48.01,0.97 L48.01,9.19 L53.53,0.97 L56.8,0.97 L50.29,10.48 L58.09,22 Z M73.63,22 L70.45,22 L68.8,15.85 L63.28,15.85 L61.69,22 L58.66,22 L64.21,1 L67.78,1 L73.63,22 Z M68.14,13 L65.98,5.5 L63.94,13 L68.14,13 Z M79,22 L76.27,22 L76.27,3.7 L71.68,3.7 L71.68,1 L83.74,1 L83.74,3.7 L79,3.7 L79,22 Z M98.98,22 L96.28,22 L96.28,12.25 L88.81,12.25 L88.81,22 L86.08,22 L86.08,1 L88.81,1 L88.81,9.61 L96.28,9.61 L96.28,1 L98.98,1 L98.98,22 Z M115.87,6.82 L115.87,16.45 C115.87,18.4700101 115.255006,19.9549953 114.025,20.905 C112.794994,21.8550048 111.320009,22.33 109.6,22.33 C107.879991,22.33 106.395006,21.8550048 105.145,20.905 C103.894994,19.9549953 103.27,18.4700101 103.27,16.45 L103.27,6.79 C103.27,4.7299897 103.834994,3.1700053 104.965,2.11 C106.095006,1.0499947 107.64999,0.52 109.63,0.52 C111.61001,0.52 113.144995,1.0799944 114.235,2.2 C115.325005,3.3200056 115.87,4.8599902 115.87,6.82 Z M113.14,16.03 L113.14,7.42 C113.14,6.0999934 112.865003,5.1000034 112.315,4.42 C111.764997,3.7399966 110.850006,3.4 109.57,3.4 C108.289994,3.4 107.375003,3.73499665 106.825,4.405 C106.274997,5.07500335 106,6.0699934 106,7.39 L106,16.06 C106,17.1800056 106.314997,18.0499969 106.945,18.67 C107.575003,19.2900031 108.439995,19.6 109.54,19.6 C110.640006,19.6 111.514997,19.2850032 112.165,18.655 C112.815003,18.0249969 113.14,17.1500056 113.14,16.03 Z M134.95,22 L132.19,22 L122.92,6.52 L122.92,22 L120.19,22 L120.19,1 L122.92,1 L132.19,16.42 L132.19,1 L134.95,1 L134.95,22 Z" id="HACKATHON"></path>
                </g>
                <path d="M53.5,231.5 L289.5,231.5" id="Line" stroke="#FFFFFF" stroke-linecap="square"></path>
            </g>
        </g>
    </g>
</svg>