<?xml version="1.0" encoding="UTF-8"?>
<svg width="382px" height="265px" viewBox="0 0 382 265" version="1.1" xmlns="http://www.w3.org/2000/svg" xmlns:xlink="http://www.w3.org/1999/xlink">
    <!-- Generator: Sketch 41.2 (35397) - http://www.bohemiancoding.com/sketch -->
    <title>Page 1</title>
    <desc>Created with Sketch.</desc>
    <defs></defs>
    <g id="homepage" stroke="none" stroke-width="1" fill="none" fill-rule="evenodd">
        <g id="Desktop-HD-Copy-8" transform="translate(-251.000000, -5684.000000)">
            <g id="Group-27" transform="translate(252.000000, 5620.000000)">
                <g id="Page-1" transform="translate(0.000000, 65.000000)">
                    <path d="M232,14.19 C232.188,14.123 232.363,14.069 232.553,14 C232.553,14 232.348,14.065 232,14.19 Z" id="Stroke-1" stroke="#092674" stroke-width="2"></path>
                    <path d="M212.043318,48.2275422 C223.59662,41.3598032 232.280427,32.3202097 235.861612,27.809887 C244.251262,17.2446374 252,17.8980233 252,17.8980233 C236.544732,12.4455182 222.080379,25.7902713 222.080379,25.7902713 C220.373228,18.412238 229.418076,14.7271417 231.340163,14.0332459 C205.060169,23.5027673 203.12964,7.13087749 177.078868,1.14912982 C150.906667,-4.86006006 135.494257,14.6552692 135.494257,14.6552692 C124.808492,11.3014395 117.300016,16.6101997 117.300016,16.6101997 C124.089009,15.377914 127.805909,20.3462602 127.805909,20.3462602 C121.210424,19.8457666 114,28.228054 114,28.228054 C122.963029,24.924535 124.818882,27.5295845 124.818882,27.5295845 C119.550026,27.5348115 116.618843,40.3156926 116.618843,40.3156926 C118.579242,34.5776579 123.763033,34.3195705 123.763033,34.3195705 C124.530569,35.4721431 124.031216,45.7420623 121.015617,51.8669015 C118.000019,57.9917406 114.429872,59.0057955 114.429872,59.0057955 C119.840937,60.6059375 127.805909,55.2351056 127.805909,55.2351056 C128.215651,55.0332094 137.231927,71 137.231927,71 C139.528692,69.9121125 141.526753,68.7608466 143.281307,67.5775648" id="Stroke-3" stroke="#092674" stroke-width="2"></path>
                    <path d="M205.880162,99 C209.738944,93.4713677 212,86.7599224 212,79.5246507 L212,48.3201162 C196.435855,57.4456899 175.679101,62.6936547 155.13542,48 C155.13542,48 156.254219,58.6576044 143,67.4721158 L143,79.5246507 C143,86.6163552 145.172438,93.2042809 148.892429,98.66889" id="Stroke-5" stroke="#092674" stroke-width="2"></path>
                    <path d="M155,71 C155,71 158.874464,66.6863905 162,67.0182066" id="Stroke-7" stroke="#231F1F" stroke-width="2"></path>
                    <path d="M194,68 L201,68" id="Stroke-9" stroke="#231F1F" stroke-width="2"></path>
                    <path d="M174,90 C174,90 177.67624,92.2380897 183,90.0177945" id="Stroke-11" stroke="#092674" stroke-width="2" stroke-linecap="round" stroke-linejoin="round"></path>
                    <path d="M212,83 L218.811871,83 C221.125031,83 223,77.627361 223,71.0003318 C223,64.372639 221.125031,59 218.811871,59 L212,59 L212,83 Z" id="Stroke-13" stroke="#092674" stroke-width="2"></path>
                    <path d="M131,83 L137.811871,83 C140.125031,83 142,77.627361 142,71.0003318 C142,64.372639 140.125031,59 137.811871,59 L131,59 L131,83 Z" id="Stroke-13" stroke="#092674" stroke-width="2" transform="translate(136.500000, 71.000000) scale(-1, 1) translate(-136.500000, -71.000000) "></path>
                    <path d="M232,14.19 C232.188,14.123 232.363,14.069 232.553,14 C232.553,14 232.348,14.065 232,14.19 Z" id="Stroke-17" stroke="#092674" stroke-width="2"></path>
                    <path d="M143.547542,67 C156.482018,58.1818887 155.374221,47.6186007 155.374221,47.6186007 C191.097116,73.3675895 227.471963,38.1458045 235.861612,27.6435684 C244.251262,17.1419818 252,17.7914708 252,17.7914708 C236.544732,12.3708361 222.080379,25.6359981 222.080379,25.6359981 C220.373228,18.3019691 229.418076,14.639501 231.340163,13.9497437 C205.060169,23.3621374 203.12964,7.08854259 177.078868,1.14247138 C150.906667,-4.83152785 135.494257,14.5680572 135.494257,14.5680572 C124.808492,11.233581 117.300016,16.5106786 117.300016,16.5106786 C124.089009,15.2857425 127.805909,20.2251058 127.805909,20.2251058 C121.210424,19.7269478 114,28.0592414 114,28.0592414 C122.963029,24.7754253 124.818882,27.3655872 124.818882,27.3655872 C119.550026,27.3701336 116.618843,40.0747867 116.618843,40.0747867 C118.579242,34.3709748 123.763033,34.1144267 123.763033,34.1144267 C124.530569,35.2601252 124.031216,45.4687923 121.015617,51.5571016 C118.000019,57.6454109 114.429872,58.6534177 114.429872,58.6534177 C119.840937,60.2440161 127.805909,54.9058665 127.805909,54.9058665 C128.03643,54.7928554 130.994236,59.7718376 133.535806,64.1467951" id="Stroke-19" stroke="#092674" stroke-width="2" fill="#FFFFFF"></path>
                    <path d="M161,73.5 C161,74.8804672 160.552071,76 160,76 C159.447337,76 159,74.8804672 159,73.5 C159,72.1195328 159.447337,71 160,71 C160.552071,71 161,72.1195328 161,73.5 Z" id="Stroke-21" stroke="#231F1F" stroke-width="2"></path>
                    <path d="M198,73.5 C198,74.8804672 197.552071,76 197,76 C196.447337,76 196,74.8804672 196,73.5 C196,72.1195328 196.447337,71 197,71 C197.552071,71 198,72.1195328 198,73.5 Z" id="Stroke-23" stroke="#231F1F" stroke-width="2"></path>
                    <polygon id="Stroke-25" stroke="#092674" stroke-width="2" points="173.071032 77 185 77 185 79 173 79"></polygon>
                    <path d="M217,77 C217,85.8365949 209.836448,93 200.999672,93 C192.163552,93 185,85.8365949 185,77 C185,68.1634051 192.163552,61 200.999672,61 C209.836448,61 217,68.1634051 217,77" id="Fill-27" fill="#F6A623" opacity="0.450000018"></path>
                    <path d="M217,77 C217,85.8361223 209.836628,93 200.999674,93 C192.163372,93 185,85.8361223 185,77 C185,68.1638777 192.163372,61 200.999674,61 C209.836628,61 217,68.1638777 217,77 Z" id="Stroke-29" stroke="#092674" stroke-width="2"></path>
                    <path d="M173,77 C173,85.8365949 165.836448,93 156.999672,93 C148.163552,93 141,85.8365949 141,77 C141,68.1634051 148.163552,61 156.999672,61 C165.836448,61 173,68.1634051 173,77" id="Fill-31" fill="#F6A623" opacity="0.450384795"></path>
                    <path d="M173,77 C173,85.8368009 165.836801,93 157,93 C148.163199,93 141,85.8368009 141,77 C141,68.1631991 148.163199,61 157,61 C165.836801,61 173,68.1631991 173,77 Z" id="Stroke-33" stroke="#092674" stroke-width="2"></path>
                    <path d="M202,63 C202,63 206.749855,63.7834507 211,68" id="Stroke-35" stroke="#FFFFFF" stroke-width="2" stroke-linecap="round" stroke-linejoin="round"></path>
                    <path d="M159,64 C159,64 163.891675,65.1831555 168,70" id="Stroke-37" stroke="#FFFFFF" stroke-width="2" stroke-linecap="round" stroke-linejoin="round"></path>
                    <polygon id="Stroke-67" stroke="#082674" stroke-width="2" points="43 145.699146 44.8562726 142.315579 46.5286503 147.971187 49.8041119 142 57 156 49.5995622 147.097619 46.1601942 153.367842"></polygon>
                    <path d="M298.5,148 C283.311458,148 271,149.425947 271,151.185198 L273.75,205.133192 C273.75,206.716064 284.830574,208 298.5,208 C312.169426,208 323.25,206.716064 323.25,205.133192 L326,151.185198 C326,149.425947 313.688542,148 298.5,148 Z" id="Stroke-69" stroke="#082674" stroke-width="2"></path>
                    <path d="M326,151 C326,152.657563 313.687232,154 298.5,154 C283.312768,154 271,152.657563 271,151 C271,149.342437 283.312768,148 298.5,148 C313.687232,148 326,149.342437 326,151 Z" id="Stroke-71" stroke="#082674" stroke-width="2"></path>
                    <path d="M270.623638,160.972732 C270.623638,160.972732 267.092536,157.3857 266.005179,158.092158 C266.005179,158.092158 265.5982,175.083871 272,190 L270.623638,160.972732 Z" id="Stroke-73" stroke="#092674" stroke-width="2"></path>
                    <path d="M266,158.092938 L271,158 L271,161 C271,161 268.499662,158.046144 266,158.092938 Z" id="Stroke-75" stroke="#092674" stroke-width="2"></path>
                    <path d="M318,124 C318,128.97009 313.970747,133 309.000657,133 C304.02991,133 300,128.97009 300,124 C300,119.02991 304.02991,115 309.000657,115 C313.970747,115 318,119.02991 318,124 Z" id="Stroke-77" stroke="#092674" stroke-width="2"></path>
                    <path d="M284,134.5 C284,135.32821 283.327626,136 282.499416,136 C281.670623,136 281,135.32821 281,134.5 C281,133.67179 281.670623,133 282.499416,133 C283.327626,133 284,133.67179 284,134.5 Z" id="Stroke-79" stroke="#092674" stroke-width="2"></path>
                    <path d="M300,86.5 C300,87.3282101 299.327626,88 298.499416,88 C297.670623,88 297,87.3282101 297,86.5 C297,85.6717899 297.670623,85 298.499416,85 C299.327626,85 300,85.6717899 300,86.5 Z" id="Stroke-81" stroke="#092674" stroke-width="2"></path>
                    <path d="M295,137.5 C295,138.32821 294.327626,139 293.499416,139 C292.670623,139 292,138.32821 292,137.5 C292,136.67179 292.670623,136 293.499416,136 C294.327626,136 295,136.67179 295,137.5 Z" id="Stroke-83" stroke="#092674" stroke-width="2"></path>
                    <path d="M306,107.5 C306,108.32821 305.327626,109 304.499416,109 C303.670623,109 303,108.32821 303,107.5 C303,106.67179 303.670623,106 304.499416,106 C305.327626,106 306,106.67179 306,107.5 Z" id="Stroke-85" stroke="#092674" stroke-width="2"></path>
                    <path d="M323,82 C323,84.2091046 321.208438,86 318.999333,86 C316.789561,86 315,84.2091046 315,82 C315,79.7908954 316.789561,78 318.999333,78 C321.208438,78 323,79.7908954 323,82 Z" id="Stroke-87" stroke="#092674" stroke-width="2"></path>
                    <path d="M288,104 C288,106.209105 286.208438,108 283.999333,108 C281.789561,108 280,106.209105 280,104 C280,101.790895 281.789561,100 283.999333,100 C286.208438,100 288,101.790895 288,104 Z" id="Stroke-89" stroke="#092674" stroke-width="2"></path>
                    <g id="Group-94" transform="translate(73.000000, 176.000000)">
                        <path id="Fill-91" fill="#FFFFFF"></path>
                        <path d="M0,0.0644923077 L0,7.60787692" id="Stroke-93" stroke="#082674" stroke-width="2"></path>
                    </g>
                    <path d="M255,197.305058 C255,200.437406 252.436575,203 249.303211,203 L101.696138,203 C98.5634248,203 96,200.437406 96,197.305058 L96,103.694942 C96,100.562594 98.5634248,98 101.696138,98 L249.303211,98 C252.436575,98 255,100.562594 255,103.694942 L255,197.305058 Z" id="Stroke-95" stroke="#082674" stroke-width="2"></path>
                    <path d="M74.1294909,187 C74.1294909,187 68.0966779,221.872839 83.915909,221.872839 C99.7351401,221.872839 85.6267847,206.47872 93.2528874,206.103065 C95.0232094,206.016227 101.943796,207.293067 104.330138,208.836209 C108.707602,211.667127 113.822591,222.15072 118.80105,223.749825 C123.93629,225.399746 137.836257,218.929353 124.124428,203.129347" id="Stroke-97" stroke="#082674" stroke-width="2"></path>
                    <path d="M103,142 L103,156.102706 L87.2344361,168 C87.2344361,168 86.1496163,161.33902 77,159.083676 L103,142 Z" id="Stroke-99" stroke="#092674" stroke-width="2"></path>
                    <g id="Group-104" transform="translate(76.000000, 176.000000)">
                        <path d="M0.0575,0 L4.804375,0" id="Fill-101" fill="#FFFFFF"></path>
                        <path d="M0.0575,0 L4.804375,0" id="Stroke-103" stroke="#082674" stroke-width="2"></path>
                    </g>
                    <g id="Group-108" transform="translate(65.000000, 176.000000)">
                        <path d="M0.498666667,0 L5.562,0" id="Fill-105" fill="#FFFFFF"></path>
                        <path d="M0.498666667,0 L5.562,0" id="Stroke-107" stroke="#082674" stroke-width="2"></path>
                    </g>
                    <path d="M82.7425317,170.933269 C78.1076198,160.400063 70.915921,164.99969 70.915921,164.99969 C70.915921,164.99969 66.8126377,169.490572 66.3352836,178.146755 C66.2927795,178.919841 65.6905286,179.468184 65,179.473457 C65.9808645,183.782436 69.801005,187 74.3737954,187 C79.6907351,187 84,182.656091 84,177.298536 L84,172.735158 C83.5494562,172.366739 83.1185297,171.788738 82.7425317,170.933269 Z" id="Stroke-109" stroke="#092674" stroke-width="2"></path>
                    <path d="M82.9694676,173.290299 C84.868461,174.864835 87.1180476,172.576867 86.9951792,171.495891 C86.5185009,167.322943 82.2258239,163.071892 80.1422062,161.726415 C78.764278,160.837087 75.7298771,160.380281 75.7298771,160.380281 C75.7298771,152.999847 68.9270807,148.509235 68.9270807,148.509235 C65.2223711,146.497583 65.5916198,151.095177 65.5916198,151.095177 C70.9425097,153.681118 72.2625416,160.380281 72.2625416,160.380281 C72.2625416,160.380281 62.2124152,159.714763 60.3816106,168.478741 C58.8582988,175.771883 62.2703113,171.058775 64.0303539,167.255998 L63.3388167,169.196766 C60.9374135,177.488187 62.8106753,180.011121 64.2780208,179.999963" id="Stroke-111" stroke="#092674" stroke-width="2"></path>
                    <path d="M233,102.001002 L247.770386,102.001002 C247.770386,102.001002 252,101.754361 252,109" id="Stroke-113" stroke="#092674" stroke-width="2" stroke-linecap="round" stroke-linejoin="round"></path>
                    <path d="M252,113 L252,119" id="Stroke-115" stroke="#092674" stroke-width="2" stroke-linecap="round" stroke-linejoin="round"></path>
                    <path d="M118,102 L111.238793,102.001301 C111.238793,102.001301 107,101.754671 107,109" id="Stroke-117" stroke="#092674" stroke-width="2" stroke-linecap="round" stroke-linejoin="round"></path>
                    <path d="M107,115 L107,138" id="Stroke-119" stroke="#092674" stroke-width="2" stroke-linecap="round" stroke-linejoin="round"></path>
                    <path d="M251,204.5 C251,205.324831 249.4949,206 247.655333,206 L103.345318,206 C101.505751,206 100,205.324831 100,204.5 C100,203.675169 101.505751,203 103.345318,203 L247.655333,203 C249.4949,203 251,203.675169 251,204.5 Z" id="Stroke-121" stroke="#082674" stroke-width="2"></path>
                    <polygon id="Stroke-123" stroke="#082674" stroke-width="2" points="174 164 158 148 174 132 190 148"></polygon>
                    <polyline id="Stroke-125" stroke="#092674" stroke-width="2" stroke-linecap="round" stroke-linejoin="round" points="170 141.888977 174.079933 138 182 146"></polyline>
                    <path d="M255,161 L266,161" id="Stroke-127" stroke="#082674" stroke-width="2"></path>
                    <path d="M96,161 L102,161" id="Stroke-129" stroke="#082674" stroke-width="2"></path>
                    <path d="M324.921573,161 L342.506685,161 C345.571639,161 348.888321,163.37003 349.876366,166.267455 L379.718693,253.732545 C380.706738,256.62932 379.007744,259 375.942789,259 L4.05686909,259 C0.991914559,259 -0.707079762,256.62932 0.281615248,253.732545 L30.1232927,166.267455 C31.1119877,163.37003 34.4286692,161 37.4936237,161 L58.1124679,161" id="Stroke-131" stroke="#082674" stroke-width="2"></path>
                    <path d="M377,261.933541 C377,262.52 376.498402,263 375.884905,263 L4.11444481,263 C3.50159775,263 3,262.52 3,261.933541 L3,260.066459 C3,259.48 3.50159775,259 4.11444481,259 L375.884905,259 C376.498402,259 377,259.48 377,260.066459 L377,261.933541 Z" id="Stroke-133" stroke="#082674" stroke-width="2"></path>
                </g>
            </g>
        </g>
    </g>
</svg>