<?xml version="1.0" encoding="UTF-8"?>
<svg width="181px" height="268px" viewBox="0 0 181 268" version="1.1" xmlns="http://www.w3.org/2000/svg" xmlns:xlink="http://www.w3.org/1999/xlink">
    <!-- Generator: Sketch 41.2 (35397) - http://www.bohemiancoding.com/sketch -->
    <title>Page 1</title>
    <desc>Created with Sketch.</desc>
    <defs></defs>
    <g id="final-page" stroke="none" stroke-width="1" fill="none" fill-rule="evenodd">
        <g id="Onepager" transform="translate(-280.000000, -7964.000000)">
            <g id="Group-42" transform="translate(250.000000, 5875.000000)">
                <g id="Group-39" transform="translate(0.000000, 93.000000)">
                    <g id="Page-1" transform="translate(32.000000, 1998.000000)">
                        <g id="Group-11" stroke="#082674" stroke-width="3">
                            <path d="M148.527641,19.0944947 L173.1827,19.0944947 C175.091524,19.0944947 176.653288,20.6576526 176.653288,22.5681789 L176.653288,260.179295 C176.653288,262.089821 175.091524,263.652979 173.1827,263.652979 L3.81799412,263.652979 C1.90917059,263.652979 0.347405882,262.089821 0.347405882,260.179295 L0.347405882,22.5681789 C0.347405882,20.6576526 1.90917059,19.0944947 3.81799412,19.0944947 L54.5920059,19.0944947" id="Stroke-1" fill="#F5A623"></path>
                            <path d="M44.4704518,4.77694105 L44.4704518,19.0947726 L54.5920753,19.0947726 C54.5920753,19.0947726 51.1117694,7.12237263 44.4704518,4.77694105 Z" id="Stroke-5"></path>
                            <path d="M151.051453,31.6105263 L160.225606,31.6105263 C162.134429,31.6105263 163.696194,33.1736842 163.696194,35.0842105 L163.696194,244.634905 C163.696194,246.545432 162.134429,248.108589 160.225606,248.108589 L16.7743941,248.108589 C14.8655706,248.108589 13.3038059,246.545432 13.3038059,244.634905 L13.3038059,35.0842105 C13.3038059,33.1736842 14.8655706,31.6105263 16.7743941,31.6105263 L57.1165118,31.6105263" id="Stroke-7" fill="#FFFFFF"></path>
                            <path d="M57.2368718,37.8523895 C58.1621306,5.43110526 39.3334953,1.11262105 39.3334953,1.11262105 C37.4725659,0.686052632 37.5121306,0.3366 39.4209541,0.3366 L126.414719,0.3366 C128.323542,0.3366 131.408201,0.686052632 133.268436,1.11262105 C133.268436,1.11262105 152.097072,5.43110526 151.171813,37.8523895 L57.2368718,37.8523895 Z" id="Stroke-3" fill="#FFFFFF"></path>
                            <path d="M127.023529,7.29473684 C127.023529,7.29473684 139.517647,13.2 139.864706,31.6105263" id="Stroke-9" stroke-linecap="round" stroke-linejoin="round"></path>
                        </g>
                        <path d="M56.5813001,61.34189 L56.9371101,63.51861 C56.2533934,63.7837247 55.5696869,63.9720928 54.8859701,64.08372 C54.4394612,64.1674404 53.992959,64.2093 53.5464501,64.2093 C53.3231956,64.2093 53.0929679,64.1953468 52.8557601,64.16744 C52.1859967,64.1116264 51.5964743,63.9476764 51.087175,63.675585 C50.5778758,63.4034936 50.1662566,62.9709446 49.852305,62.377925 C49.5383535,61.7849053 49.38138,61.0488744 49.38138,60.1698099 L49.38138,53.4512798 C49.38138,52.3908212 49.5313769,51.5885125 49.831375,51.0443298 C50.1313732,50.5001471 50.5883403,50.0396917 51.20229,49.6629498 C51.8301932,49.3141147 52.5766891,49.1396998 53.4418001,49.1396998 L53.7138901,49.1396998 C54.6906283,49.18156 55.5906093,49.4117877 56.4138601,49.8303898 L55.7650301,51.9233898 C55.1231736,51.686182 54.4185373,51.5675798 53.6511001,51.5675798 C53.0650571,51.5675798 52.5906485,51.7280415 52.2278601,52.0489698 C51.8650716,52.3698981 51.6836801,52.7745407 51.6836801,53.2629098 L51.6836801,60.1279499 C51.6836801,60.3791112 51.7115864,60.6058506 51.7674001,60.808175 C51.8232137,61.0104993 51.9139094,61.1744493 52.0394901,61.30003 C52.1650707,61.4256106 52.2906494,61.5372361 52.4162301,61.63491 C52.5418107,61.7325838 52.7162256,61.7953732 52.9394801,61.82328 C53.1627345,61.8511868 53.3511026,61.8756049 53.5045901,61.896535 C53.6580775,61.9174651 53.8708637,61.9070002 54.1429551,61.86514 C54.4150465,61.8232798 54.6278327,61.7918851 54.7813201,61.770955 C54.9348075,61.7500249 55.1545703,61.704677 55.4406151,61.63491 C55.7266599,61.5651429 55.9254929,61.5163068 56.0371201,61.4884 C56.1487473,61.4604932 56.3301389,61.411657 56.5813001,61.34189 Z M67.7369903,64 L65.3928303,64 L63.9905202,59.9186499 L60.9347402,59.9186499 L60.9347402,64 L58.6324402,64 L58.6324402,49.3489998 L63.5928502,49.3489998 C64.9463303,49.3489998 65.9718901,49.8268967 66.6695603,50.7827048 C67.3672304,51.7385129 67.7160603,52.9210461 67.7160603,54.3303399 C67.7160603,55.0140566 67.6986188,55.5582312 67.6637353,55.9628799 C67.6288518,56.3675286 67.4858315,56.8907734 67.2346703,57.5326299 C66.983509,58.1744865 66.6067728,58.7116844 66.1044503,59.1442399 L67.7369903,64 Z M60.9347402,57.7209999 L63.0486702,57.7209999 C63.4812257,57.7209999 63.8474971,57.6372807 64.1474952,57.4698399 C64.4474934,57.3023991 64.6672562,57.1175192 64.8067902,56.9151949 C64.9463243,56.7128705 65.0579498,56.4268301 65.1416702,56.0570649 C65.2253907,55.6872997 65.2707386,55.3977709 65.2777153,55.1884699 C65.284692,54.9791688 65.2881803,54.6931283 65.2881803,54.3303399 C65.2881803,53.2559278 65.0719057,52.5443149 64.6393502,52.1954798 C64.2067947,51.8466447 63.5370414,51.6722298 62.6300702,51.6722298 L60.9347402,51.6722298 L60.9347402,57.7209999 Z M73.6811104,64 L71.3788103,64 L71.3788103,51.6094398 L70.0811503,51.5675798 L70.0811503,49.3489998 L73.6811104,49.3489998 L73.6811104,64 Z M80.6717305,64 L78.3694304,64 L78.3694304,51.6722298 L75.3555104,51.6722298 L75.3555104,49.3489998 L83.7693705,49.3489998 L83.7693705,51.6722298 L80.6717305,51.6722298 L80.6717305,64 Z M92.3506706,64 L85.4019105,64 L85.4019105,49.3489998 L92.3925306,49.3489998 L92.3925306,51.6512998 L87.7042106,51.6512998 L87.7042106,55.3559099 L90.5716206,55.3559099 L89.9227906,57.5535599 L87.7042106,57.5535599 L87.7042106,61.907 L92.3506706,61.907 L92.3506706,64 Z M104.238911,64 L101.894751,64 L100.492441,59.9186499 L97.4366607,59.9186499 L97.4366607,64 L95.1343607,64 L95.1343607,49.3489998 L100.094771,49.3489998 C101.448251,49.3489998 102.473811,49.8268967 103.171481,50.7827048 C103.869151,51.7385129 104.217981,52.9210461 104.217981,54.3303399 C104.217981,55.0140566 104.200539,55.5582312 104.165656,55.9628799 C104.130772,56.3675286 103.987752,56.8907734 103.736591,57.5326299 C103.48543,58.1744865 103.108693,58.7116844 102.606371,59.1442399 L104.238911,64 Z M97.4366607,57.7209999 L99.5505908,57.7209999 C99.9831463,57.7209999 100.349418,57.6372807 100.649416,57.4698399 C100.949414,57.3023991 101.169177,57.1175192 101.308711,56.9151949 C101.448245,56.7128705 101.55987,56.4268301 101.643591,56.0570649 C101.727311,55.6872997 101.772659,55.3977709 101.779636,55.1884699 C101.786612,54.9791688 101.790101,54.6931283 101.790101,54.3303399 C101.790101,53.2559278 101.573826,52.5443149 101.141271,52.1954798 C100.708715,51.8466447 100.038962,51.6722298 99.1319907,51.6722298 L97.4366607,51.6722298 L97.4366607,57.7209999 Z M110.183031,64 L107.880731,64 L107.880731,51.6094398 L106.583071,51.5675798 L106.583071,49.3489998 L110.183031,49.3489998 L110.183031,64 Z M122.678241,64 L119.936411,64 L119.078281,60.1698099 L115.708551,60.1698099 L114.892281,64 L112.296961,64 L115.729481,49.3489998 L118.973631,49.3489998 L122.678241,64 Z M118.534101,57.7209999 L117.341091,53.2001198 L116.252731,57.7209999 L118.534101,57.7209999 Z" id="CRITERIA" fill="#082674"></path>
                        <g id="Group-28" transform="translate(26.000000, 72.000000)" stroke="#082674">
                            <path d="M18.1025,26.0237069 C18.1025,27.9321121 16.54,29.4935345 14.6302778,29.4935345 L3.47194444,29.4935345 C1.56222222,29.4935345 -0.000277777777,27.9321121 -0.000277777777,26.0237069 L-0.000277777777,14.9202586 C-0.000277777777,13.0118534 1.56222222,11.450431 3.47194444,11.450431 L14.6302778,11.450431 C16.54,11.450431 18.1025,13.0118534 18.1025,14.9202586 L18.1025,26.0237069 Z" id="Stroke-12" stroke-width="3"></path>
                            <path d="M18.6298611,52.2128552 C18.6298611,54.1212603 17.0673611,55.6826828 15.1576389,55.6826828 L3.99930556,55.6826828 C2.08958333,55.6826828 0.527083333,54.1212603 0.527083333,52.2128552 L0.527083333,41.1094069 C0.527083333,39.2010017 2.08958333,37.6395793 3.99930556,37.6395793 L15.1576389,37.6395793 C17.0673611,37.6395793 18.6298611,39.2010017 18.6298611,41.1094069 L18.6298611,52.2128552 Z" id="Stroke-14" stroke-width="3"></path>
                            <path d="M18.1025,78.4019341 C18.1025,80.3103392 16.54,81.8717616 14.6302778,81.8717616 L3.47194444,81.8717616 C1.56222222,81.8717616 -0.000277777777,80.3103392 -0.000277777777,78.4019341 L-0.000277777777,67.2984858 C-0.000277777777,65.3900806 1.56222222,63.8286582 3.47194444,63.8286582 L14.6302778,63.8286582 C16.54,63.8286582 18.1025,65.3900806 18.1025,67.2984858 L18.1025,78.4019341 Z" id="Stroke-16" stroke-width="3"></path>
                            <path d="M18.1025,104.591082 C18.1025,106.499488 16.54,108.06091 14.6302778,108.06091 L3.47194444,108.06091 C1.56222222,108.06091 -0.000277777777,106.499488 -0.000277777777,104.591082 L-0.000277777777,93.4876341 C-0.000277777777,91.5792289 1.56222222,90.0178065 3.47194444,90.0178065 L14.6302778,90.0178065 C16.54,90.0178065 18.1025,91.5792289 18.1025,93.4876341 L18.1025,104.591082 Z" id="Stroke-18" stroke-width="3"></path>
                            <path d="M18.1025,130.780231 C18.1025,132.688636 16.54,134.250058 14.6302778,134.250058 L3.47194444,134.250058 C1.56222222,134.250058 -0.000277777777,132.688636 -0.000277777777,130.780231 L-0.000277777777,119.676782 C-0.000277777777,117.768377 1.56222222,116.206955 3.47194444,116.206955 L14.6302778,116.206955 C16.54,116.206955 18.1025,117.768377 18.1025,119.676782 L18.1025,130.780231 Z" id="Stroke-20" stroke-width="3"></path>
                            <path d="M18.6298611,156.969379 C18.6298611,158.877784 17.0673611,160.439206 15.1576389,160.439206 L3.99930556,160.439206 C2.08958333,160.439206 0.527083333,158.877784 0.527083333,156.969379 L0.527083333,145.865931 C0.527083333,143.957525 2.08958333,142.396103 3.99930556,142.396103 L15.1576389,142.396103 C17.0673611,142.396103 18.6298611,143.957525 18.6298611,145.865931 L18.6298611,156.969379 Z" id="Stroke-22" stroke-width="3"></path>
                            <polyline id="Stroke-24" stroke-width="2.378" stroke-linecap="round" stroke-linejoin="round" points="5.61885417 43.7788229 11.2504937 50.9028469 32.7125347 36.2228582"></polyline>
                            <path d="M124.882292,0.254685345 L4.05104167,0.254685345 L124.882292,0.254685345 Z" id="Stroke-26" stroke-width="2.378" stroke-linecap="round" stroke-linejoin="round"></path>
                        </g>
                    </g>
                </g>
            </g>
        </g>
    </g>
</svg>