<?xml version="1.0" encoding="UTF-8"?>
<svg width="75px" height="131px" viewBox="0 0 75 131" version="1.1" xmlns="http://www.w3.org/2000/svg" xmlns:xlink="http://www.w3.org/1999/xlink">
    <!-- Generator: Sketch 41.2 (35397) - http://www.bohemiancoding.com/sketch -->
    <title>Group 32 Copy</title>
    <desc>Created with Sketch.</desc>
    <defs></defs>
    <g id="homepage" stroke="none" stroke-width="1" fill="none" fill-rule="evenodd">
        <g id="Desktop-HD-Copy-8" transform="translate(-1079.000000, -3628.000000)">
            <g id="Group-43" transform="translate(1043.000000, 3629.000000)">
                <g id="Group-35">
                    <g id="Group-32-Copy" transform="translate(37.000000, 0.000000)">
                        <path d="M35.4903688,112.666519 L33.9220619,119.058514 C33.7275455,119.851391 32.9001827,120.5 32.0835109,120.5 L18.7610693,120.5 C17.9443975,120.5 17.3062056,119.832689 17.3427331,119.017252 L18.8593669,85.2892623 C18.8958944,84.4738251 18.7471117,84.4500774 18.5285406,85.2364236 L17.2610659,89.7974692 C17.0424949,90.5841123 16.1955319,91.2276754 15.3788601,91.2276754 L9.48070779,91.2276754 C8.66403597,91.2276754 8.32489444,90.6464501 8.72729092,89.9360965 L19.3508549,71.1762919 C19.7532513,70.4659383 20.7264272,70.0628209 21.5134018,70.2804093 C21.5134018,70.2804093 29.7392173,72.556331 50.6359188,69.5 L62.2513678,89.9369871 C62.6549522,90.6467469 62.3167015,91.2276754 61.5000297,91.2276754 L55.6018774,91.2276754 C54.7852056,91.2276754 53.9382426,90.5841123 53.7196716,89.7974692 L52.4521969,85.2364236 C52.2336258,84.4500774 52.0848431,84.4738251 52.1213706,85.2892623 L53.6380044,119.017252 C53.6745319,119.832689 53.03634,120.5 52.2196682,120.5 L38.8972266,120.5 C38.0805548,120.5 37.253192,119.851391 37.0586756,119.058514 L35.4903688,112.666519" id="Stroke-150" stroke="#082674"></path>
                        <path d="M21.6956759,123 C20.8794721,123 19.5438658,123.009738 18.7279588,123.021836 C18.7279588,123.021836 13.4840716,123.098264 13.0884354,129 L28.7200746,129 C29.5362785,129 30.2040816,128.336055 30.2040816,127.524566 L30.2040816,124.475434 C30.2040816,123.663945 29.5362785,123 28.7200746,123 L21.6956759,123 Z" id="Stroke-151" stroke="#082674"></path>
                        <path d="M49.7873173,123 C50.6035211,123 51.9391274,123.009738 52.7550344,123.021836 C52.7550344,123.021836 57.9989216,123.098264 58.3945578,129 L42.7629186,129 C41.9467147,129 41.2789116,128.336055 41.2789116,127.524566 L41.2789116,124.475434 C41.2789116,123.663945 41.9467147,123 42.7629186,123 L49.7873173,123 Z" id="Stroke-152" stroke="#082674"></path>
                        <path d="M30.2040816,43.125018 C30.2040816,43.125018 36.7748982,39.0109726 42.7891156,43.8748375 L42.5017595,45.5 C36.487542,40.6361351 30.2040816,44.7498484 30.2040816,44.7498484 L30.2040816,43.125018 Z" id="Fill-153" fill="#FFFFFF"></path>
                        <path d="M30.2040816,43.125018 C30.2040816,43.125018 36.7748982,39.0109726 42.7891156,43.8748375 L42.5017595,45.5 C36.487542,40.6361351 30.2040816,44.7498484 30.2040816,44.7498484 L30.2040816,43.125018 Z" id="Stroke-154" stroke="#082674"></path>
                        <path d="M32.7210884,56 C32.7210884,56 35.9931973,57.125 39.2653061,56" id="Stroke-155" stroke="#082674" stroke-linecap="round" stroke-linejoin="round"></path>
                        <path d="M23.5386912,22.5 C23.5386912,22.5 18.4809183,29.2415379 23.5386912,39.270993 C23.5386912,39.270993 15.4575402,43.528157 10.0686212,40.5816354 C10.0686212,40.588099 10.0680272,40.5942688 10.0680272,40.6004387 C10.0680272,54.3520477 21.3370899,65.5 35.2380952,65.5 C49.1391006,65.5 60.4081633,54.3520477 60.4081633,40.6004387 C60.4081633,34.5584389 58.2315092,29.0200126 54.6129593,24.707908 C44.7050107,27.0248159 31.7644774,28.1500704 23.5386912,22.5 Z" id="Stroke-156" stroke="#082674"></path>
                        <path d="M54.2277892,25.0344423 C63.2590296,22.9077698 69.7688682,19.7832129 67.8695843,19.9241637 C63.8891575,20.219658 54.3464574,14.0142775 58.7965134,15.1962547 C63.2465694,16.378232 77.1900783,9.28636848 73.333363,10.4683457 C69.4766478,11.650323 67.9932958,8.10439123 50.4897422,1.60351637 C32.9861885,-4.89735849 15.4826349,10.4683457 15.4826349,10.4683457 C11.6259197,6.62691967 14.5926237,2.78549362 14.5926237,2.78549362 C8.06587486,4.26296518 8.55597436,14.6052661 8.55597436,14.6052661 C6.07907318,11.650323 0,13.4232888 0,13.4232888 C5.28458985,14.0142775 4.50583005,21.0228116 4.50583005,21.0228116 C0.945785238,20.9397777 -1.13090757,28.7889931 0.649114837,25.5385556 C2.42913724,22.2881182 5.09917085,27.3115215 5.09917085,27.3115215 C4.5684275,35.4515033 6.73293475,39.3493688 9.73138249,41" id="Stroke-157" stroke="#082674"></path>
                        <path d="M29.7006803,43 C29.7006803,51.008143 23.1645947,57.5 15.1018928,57.5 C7.03948691,57.5 0.503401361,51.008143 0.503401361,43 C0.503401361,34.991857 7.03948691,28.5 15.1018928,28.5 C23.1645947,28.5 29.7006803,34.991857 29.7006803,43" id="Fill-158" fill="#F6A623" opacity="0.44636194"></path>
                        <path d="M29.7006803,43 C29.7006803,51.008143 23.1645947,57.5 15.1018928,57.5 C7.03948691,57.5 0.503401361,51.008143 0.503401361,43 C0.503401361,34.991857 7.03948691,28.5 15.1018928,28.5 C23.1645947,28.5 29.7006803,34.991857 29.7006803,43 Z" id="Stroke-159" stroke="#082674"></path>
                        <path d="M70.9795918,47 C70.9795918,55.008143 64.4435063,61.5 56.3808043,61.5 C48.3183985,61.5 41.7823129,55.008143 41.7823129,47 C41.7823129,38.991857 48.3183985,32.5 56.3808043,32.5 C64.4435063,32.5 70.9795918,38.991857 70.9795918,47" id="Fill-160" fill="#F6A623" opacity="0.44636194"></path>
                        <path d="M70.9795918,47 C70.9795918,55.008143 64.4435063,61.5 56.3808043,61.5 C48.3183985,61.5 41.7823129,55.008143 41.7823129,47 C41.7823129,38.991857 48.3183985,32.5 56.3808043,32.5 C64.4435063,32.5 70.9795918,38.991857 70.9795918,47 Z" id="Stroke-161" stroke="#082674"></path>
                        <path d="M56.9962751,47.6882756 C56.9962751,47.6882756 54.654003,46.8110557 54.849682,49.7721182 C55.0456548,52.7331807 61.999312,50.4579285 58.5714032,46.0065417 C55.1434943,41.5551549 51.1282546,45.2153819 52.6951559,50.3591077 C54.2620573,55.5028335 62.7826157,54.9013028 62.194991,46.5962021 C61.6073663,38.2908046 48.5817829,39.3897036 50.5406299,48.831095 C52.4991831,58.2727832 69.344621,58.6683631 66.0145517,43.6324687" id="Stroke-162" stroke="#FFFFFF"></path>
                        <path d="M15.4935208,43.6882756 C15.4935208,43.6882756 17.835793,42.8110557 17.6401139,45.7721182 C17.4441411,48.7331807 10.4904839,46.4579285 13.9183928,42.0065417 C17.3463016,37.5551549 21.3615413,41.2153819 19.79464,46.3591077 C18.2277387,51.5028335 9.70718018,50.9013028 10.2948049,42.5962021 C10.8824296,34.2908046 23.908013,35.3897036 21.949166,44.831095 C19.9906128,54.2727832 3.14517491,54.6683631 6.47524421,39.6324687" id="Stroke-163" stroke="#FFFFFF"></path>
                        <path d="M18.122449,105.5 L31.0661426,105.5 C31.8861186,105.5 32.9401605,104.986001 33.4085904,104.357904 L35.5724325,101.455078 C36.0408624,100.826703 36.7645285,100.852305 37.1804799,101.511849 L38.3600526,103.381112 C38.7763023,104.040377 39.7877054,104.582483 40.6076814,104.585544 L53.3605442,104.633132" id="Stroke-164" stroke="#082674"></path>
                        <polyline id="Stroke-165" stroke="#082674" points="28.962851 80.5 28.6938776 92.5 44.2993197 92.5"></polyline>
                        <polyline id="Stroke-166" stroke="#082674" points="30.2040816 90 32.1297071 84.247994 32.7417185 86.6842105 35.2793554 82.2179609 36.2357688 83.3684211 37.0435425 81 43.292517 81"></polyline>
                    </g>
                </g>
            </g>
        </g>
    </g>
</svg>