<?xml version="1.0" encoding="UTF-8"?>
<svg width="65px" height="125px" viewBox="0 0 65 125" version="1.1" xmlns="http://www.w3.org/2000/svg" xmlns:xlink="http://www.w3.org/1999/xlink">
    <!-- Generator: Sketch 41.2 (35397) - http://www.bohemiancoding.com/sketch -->
    <title>Page 1</title>
    <desc>Created with Sketch.</desc>
    <defs></defs>
    <g id="homepage" stroke="none" stroke-width="1" fill="none" fill-rule="evenodd">
        <g id="Desktop-HD-Copy-8" transform="translate(-268.000000, -3633.000000)">
            <g id="Page-1" transform="translate(267.000000, 3632.000000)">
                <path d="M42.9857702,37 C43.5297815,49.4196346 33.1943454,58.8465385 25,64.332368 C27.9729891,67.2234961 32.0052743,69 36.4463465,69 C45.5886635,69 53,61.4726301 53,52.1871791 C53,50.8848471 52.8541103,49.617226 52.5782122,48.4000504 C45.8946114,45.350786 42.9857702,37 42.9857702,37 Z" id="Stroke-1" stroke="#082674"></path>
                <path d="M56.4288715,41.9498945 C56.4288715,41.9498945 57.8423514,60.8386038 65,67.5119901 L48,64 C48,64 55.3180879,57.261305 53.409044,48.6306525 C56.4288715,41.9498945 65.9738292,29.5804627 47.7879558,17.397653 C47.7879558,17.397653 24.2338461,2.1885402 9.45174579,28.3389025 C0.193482989,44.401588 20.5772213,58.136348 14.5087801,69 C14.5087801,69 18.9045099,67.1361077 24.1923784,63.6598167" id="Stroke-3" stroke="#082674"></path>
                <path d="M40,62 C40,62 41.6578404,64.25 44,62" id="Stroke-5" stroke="#082674"></path>
                <path d="M47,53 C47,54.1046415 46.7761667,55 46.5,55 C46.2238333,55 46,54.1046415 46,53 C46,51.8954508 46.2238333,51 46.5,51 C46.7761667,51 47,51.8954508 47,53 Z" id="Stroke-7" stroke="#082674"></path>
                <path d="M34,53 C34,54.1046415 33.7761667,55 33.5,55 C33.2238333,55 33,54.1046415 33,53 C33,51.8954508 33.2238333,51 33.5,51 C33.7761667,51 34,51.8954508 34,53 Z" id="Stroke-9" stroke="#082674"></path>
                <path d="M40,50.5 C40,55.1944747 36.1944138,59 31.5000392,59 C26.8055862,59 23,55.1944747 23,50.5 C23,45.8055253 26.8055862,42 31.5000392,42 C36.1944138,42 40,45.8055253 40,50.5 Z" id="Stroke-11" stroke="#082674"></path>
                <path d="M60,50.5 C60,55.1944747 56.1944138,59 51.5000392,59 C46.8055862,59 43,55.1944747 43,50.5 C43,45.8055253 46.8055862,42 51.5000392,42 C56.1944138,42 60,45.8055253 60,50.5 Z" id="Stroke-13" stroke="#082674"></path>
                <g id="Group-19" transform="translate(23.000000, 42.000000)">
                    <path d="M16.9678248,8.50104977 C16.9678248,13.1900728 13.1840771,16.9911788 8.51664128,16.9911788 C3.84912752,16.9911788 0.0653798165,13.1900728 0.0653798165,8.50104977 C0.0653798165,3.81202673 3.84912752,0.0109207373 8.51664128,0.0109207373 C13.1840771,0.0109207373 16.9678248,3.81202673 16.9678248,8.50104977" id="Fill-15" fill-opacity="0.45" fill="#F5A623"></path>
                    <path d="M16.9678248,8.50104977 C16.9678248,13.1900728 13.1840771,16.9911788 8.51664128,16.9911788 C3.84912752,16.9911788 0.0653798165,13.1900728 0.0653798165,8.50104977 C0.0653798165,3.81202673 3.84912752,0.0109207373 8.51664128,0.0109207373 C13.1840771,0.0109207373 16.9678248,3.81202673 16.9678248,8.50104977 Z" id="Stroke-17" stroke="#082674"></path>
                </g>
                <g id="Group-24" transform="translate(43.000000, 42.000000)">
                    <path d="M16.9278046,8.50104977 C16.9278046,13.1900728 13.1440569,16.9911788 8.4766211,16.9911788 C3.80910734,16.9911788 0.025359633,13.1900728 0.025359633,8.50104977 C0.025359633,3.81202673 3.80910734,0.0109207373 8.4766211,0.0109207373 C13.1440569,0.0109207373 16.9278046,3.81202673 16.9278046,8.50104977" id="Fill-20" fill-opacity="0.45" fill="#F5A623"></path>
                    <path d="M16.9278046,8.50104977 C16.9278046,13.1900728 13.1440569,16.9911788 8.4766211,16.9911788 C3.80910734,16.9911788 0.025359633,13.1900728 0.025359633,8.50104977 C0.025359633,3.81202673 3.80910734,0.0109207373 8.4766211,0.0109207373 C13.1440569,0.0109207373 16.9278046,3.81202673 16.9278046,8.50104977 Z" id="Stroke-22" stroke="#082674"></path>
                </g>
                <polygon id="Stroke-25" stroke="#082674" points="40 52 44 52 44 51 40 51"></polygon>
                <path d="M54,45 C54,45 56.8099174,45.9 58,49" id="Stroke-27" stroke="#FFFFFF"></path>
                <path d="M26,49 C26,49 26.9,46.1900826 30,45" id="Stroke-28" stroke="#FFFFFF"></path>
                <path d="M10.1107833,49 C10.1107833,49 8.76312079,63.8617726 1,66.5756976 C1,66.5756976 10.6362401,73.5520812 15.9406587,67.5894284 C15.9406587,67.5894284 16.5038655,63.5525448 14.160088,58.2433891 C11.8163866,52.9341536 10.1107833,49 10.1107833,49 Z" id="Stroke-29" stroke="#082674"></path>
                <g id="Group-22" transform="translate(17.329427, 13.469184) rotate(-5.000000) translate(-17.329427, -13.469184) translate(1.329427, 1.469184)" stroke="#082674">
                    <path d="M3.81824226,12.8925221 C6.34164504,11.7096934 12.5056277,11.3704485 13.64948,13.9798351 C14.7933324,16.5893041 10.4838796,21.1592302 7.96039717,22.3420588 C5.43699439,23.5248051 2.46409308,22.3683256 1.32024073,19.758939 C0.176468009,17.1495523 1.29483948,14.0753507 3.81824226,12.8925221 Z" id="Stroke-30" transform="translate(7.355176, 17.403015) rotate(2.000000) translate(-7.355176, -17.403015) "></path>
                    <path d="M10.3226421,14.219432 C10.3226421,14.219432 8.22203392,13.1890723 6.32264208,14.0865582" id="Stroke-31" transform="translate(8.322642, 14.219432) rotate(2.000000) translate(-8.322642, -14.219432) "></path>
                    <path d="M11.8239818,16.5293234 C11.8239818,16.5293234 10.6469331,18.6890224 8.58217297,19.7711323" id="Stroke-32" transform="translate(10.203077, 18.150228) rotate(2.000000) translate(-10.203077, -18.150228) "></path>
                    <path d="M11.0326847,15.4614008 L6.96532236,17.3205844" id="Stroke-33"></path>
                    <path d="M22.0119302,2.535962 C19.7863531,4.45142233 16.8096047,10.1326978 18.835129,12.2374222 C20.8607398,14.3420648 27.1214513,12.0731861 29.3470285,10.1577258 C31.5726922,8.24218367 31.7348621,4.98322655 29.7093378,2.87858394 C27.6838135,0.773859546 24.2375074,0.62050167 22.0119302,2.535962 Z" id="Stroke-34" transform="translate(24.644824, 7.137287) rotate(2.000000) translate(-24.644824, -7.137287) "></path>
                    <path d="M20,9 C20,9 20.1541759,6.68483582 22,5" id="Stroke-35" transform="translate(21.000000, 7.000000) rotate(2.000000) translate(-21.000000, -7.000000) "></path>
                    <path d="M22.3299497,11.5327912 C22.3299497,11.5327912 24.6960175,11.1970608 26.3299497,9.53279124" id="Stroke-36" transform="translate(24.329950, 10.532791) rotate(2.000000) translate(-24.329950, -10.532791) "></path>
                    <path d="M20.9592921,10.3321551 L23.7490167,8.04798427" id="Stroke-37"></path>
                    <polyline id="Stroke-38" transform="translate(16.000000, 12.803748) rotate(2.000000) translate(-16.000000, -12.803748) " points="19 12.5 14 15 13 13 18.3364791 10.6074952"></polyline>
                </g>
                <path d="M37,82.121456 L37,116 L57,116 L57,94.0695025 C57,82.2360501 48.2815309,72.4665518 37,71 L37,76.0793384" id="Stroke-39" stroke="#082674"></path>
                <path d="M34,82.121456 L34,116 L14,116 L14,94.0695025 C14,82.2360501 22.7184691,72.4665518 34,71 L34,76.0793384" id="Stroke-40" stroke="#082674"></path>
                <path d="M15,87 L9.36497029,98.2499798 C9.36497029,98.2499798 8.43035575,99.9211091 9.55235826,100.545897 C9.63791366,100.593561 9.73533616,100.635095 9.84598888,100.669371 C11.4094797,101.153185 13.6065776,102 13.6065776,102 C13.6065776,102 13.1783997,89.4193106 15,87 Z" id="Stroke-41" stroke="#082674"></path>
                <path d="M56,87 L61.6350297,98.2499798 C61.6350297,98.2499798 62.5696443,99.9211091 61.4476417,100.545897 C61.3620863,100.593561 61.2646638,100.635095 61.1540111,100.669371 C59.5905203,101.153185 57.3934224,102 57.3934224,102 C57.3934224,102 57.8216003,89.4193106 56,87 Z" id="Stroke-42" stroke="#082674"></path>
                <path d="M34.4504902,113 L37,113" id="Stroke-44" stroke="#082674"></path>
                <path d="M55,108 L40,108" id="Stroke-45" stroke="#082674"></path>
                <path d="M55,106 L40,106" id="Stroke-46" stroke="#082674"></path>
                <path d="M32,108 L17,108" id="Stroke-47" stroke="#082674"></path>
                <path d="M32,106 L17,106" id="Stroke-48" stroke="#082674"></path>
                <path d="M55.9963239,121.900774 C56.0698867,123.052141 55.0150031,124.930608 55.0150031,124.930608 L49.0495629,125 C49.0495629,125 48.0719524,123.442218 48.0090369,122.457257 C47.8618307,120.154438 49.530544,118.163125 51.7361364,118.009435 C53.9418095,117.855745 55.8491177,119.597955 55.9963239,121.900774 Z" id="Stroke-49" stroke="#082674"></path>
                <path d="M25.9963237,121.900774 C26.0698864,123.052141 25.0150835,124.930608 25.0150835,124.930608 L19.0495628,125 C19.0495628,125 18.0719524,123.442218 18.0090369,122.457257 C17.8618307,120.154438 19.5305439,118.163125 21.7361363,118.009435 C23.9418093,117.855745 25.8491175,119.597955 25.9963237,121.900774 Z" id="Stroke-50" stroke="#082674"></path>
                <polygon id="Stroke-51" stroke="#082674" points="38.4859619 82 32.4859619 82 33.9909094 76 36.9810144 76"></polygon>
                <polyline id="Stroke-52" stroke="#082674" points="35.6095 77.6666667 36.5 80.3333333 34.5 80.3333333"></polyline>
            </g>
        </g>
    </g>
</svg>