<?xml version="1.0" encoding="UTF-8"?>
<svg width="76px" height="123px" viewBox="0 0 76 123" version="1.1" xmlns="http://www.w3.org/2000/svg" xmlns:xlink="http://www.w3.org/1999/xlink">
    <!-- Generator: Sketch 41.2 (35397) - http://www.bohemiancoding.com/sketch -->
    <title>Page 1</title>
    <desc>Created with Sketch.</desc>
    <defs></defs>
    <g id="homepage" stroke="none" stroke-width="1" fill="none" fill-rule="evenodd">
        <g id="Desktop-HD-Copy-8" transform="translate(-423.000000, -3850.000000)">
            <g id="Page-1" transform="translate(424.000000, 3851.000000)">
                <path d="M29.0005688,104.16654 L27.4282222,110.558502 C27.2332331,111.35133 26.4037942,112 25.5850247,112 L12.228984,112 C11.4102145,112 10.7703881,111.332734 10.8071848,110.51729 L12.3275287,76.7891327 C12.3642414,75.9736044 12.2150382,75.9499829 11.995938,76.7365287 L10.7252743,81.2974894 C10.50609,82.0840352 9.65699265,82.7275955 8.83822316,82.7275955 L2.92520537,82.7275955 C2.10643588,82.7275955 1.76652809,82.1463558 2.16986405,81.4359516 L12.8204202,62.6762054 C13.2237562,61.9658012 14.1993739,61.5627279 14.9884035,61.7805148 C14.9884035,61.7805148 23.2347379,64.0562206 44.1843489,61 L55.8292572,81.4370405 C56.2336853,82.1468583 55.8947016,82.7275955 55.0759321,82.7275955 L49.1629143,82.7275955 C48.3441449,82.7275955 47.4950475,82.0840352 47.2758632,81.2974894 L46.0051995,76.7365287 C45.7860993,75.9499829 45.6368961,75.9736044 45.6736088,76.7891327 L47.1939527,110.51729 C47.2307494,111.332734 46.590923,112 45.7721535,112 L32.4161128,112 C31.5973433,112 30.7679044,111.35133 30.5729153,110.558502 L29.0005688,104.16654 Z" id="Stroke-1" stroke="#082674"></path>
                <path d="M14.5491214,115 C13.7383894,115 12.4119034,115.009742 11.6012546,115.021732 C11.6012546,115.021732 6.39305445,115.098337 6,121 L21.526025,121 C22.3366738,121 23,120.336035 23,119.524605 L23,116.475395 C23,115.663965 22.3366738,115 21.526025,115 L14.5491214,115 Z" id="Stroke-3" stroke="#082674"></path>
                <path d="M42.4508786,115 C43.2616106,115 44.5880966,115.009742 45.3987454,115.021732 C45.3987454,115.021732 50.6069456,115.098337 51,121 L35.473975,121 C34.6633262,121 34,120.336035 34,119.524605 L34,116.475395 C34,115.663965 34.6633262,115 35.473975,115 L42.4508786,115 Z" id="Stroke-5" stroke="#082674"></path>
                <path d="M12,93 C12,93 33.0048333,86.7139608 46,92.3403574" id="Stroke-7" stroke="#082674"></path>
                <path d="M22.3682917,81.951008 L21.5057624,79.7419947 L20.6094272,81.951008 L22.3682917,81.951008 Z M21.1096961,79 L21.9665591,79 L24,84 L23.1685875,84 L22.5838039,82.5023827 L20.3856556,82.5023827 L19.7780147,84 L19,84 L21.1096961,79 Z" id="Stroke-9" fill="#0A2674"></path>
                <path d="M25,84 L26,84 L26,80.3716852 L25,80.3716852 L25,84 Z M25,79.6943278 L26,79.6943278 L26,79 L25,79 L25,79.6943278 Z" id="Stroke-11" fill="#0A2674"></path>
                <path d="M28,85.4482262 C28,86.3017499 27.3016624,87 26.4482262,87 L18.5517738,87 C17.6983376,87 17,86.3017499 17,85.4482262 L17,77.5517738 C17,76.6983376 17.6983376,76 18.5517738,76 L26.4482262,76 C27.3016624,76 28,76.6983376 28,77.5517738 L28,85.4482262 Z" id="Stroke-13" stroke="#082674"></path>
                <path d="M34.699578,74.5759584 C34.538619,74.5496984 34.3341184,74.567674 34.0854798,74.6298072 L32.8018979,74.9508679 L33.2550371,76.4749685 L34.5385338,76.1539859 C34.8279873,76.0815362 35.0461213,75.9658668 35.1929356,75.8068996 C35.3392388,75.6480886 35.3699139,75.424878 35.2844497,75.1374239 C35.1883344,74.8140185 34.9935476,74.6268373 34.699578,74.5759584 Z M32,74.6012806 L34.1459779,74.0645903 C34.5704018,73.9584558 34.9454047,73.9831528 35.2721796,74.1384468 C35.598358,74.2938189 35.8210933,74.5710347 35.9397036,74.9703285 C36.0417835,75.3136634 36.0142611,75.6417581 35.8570513,75.9544562 C35.6998415,76.2672325 35.3818431,76.4834874 34.9019484,76.6035334 L33.4045781,76.977974 L33.9573261,78.8375158 L33.307696,79 L32,74.6012806 Z" id="Stroke-14" fill="#0A2674"></path>
                <path d="M37.9107102,76.5020873 C37.9970272,76.6984456 38.106314,76.8389895 38.2407337,76.9232808 C38.4853673,77.0757411 38.8336225,77.0994863 39.2847783,76.994867 C39.5531027,76.9326562 39.7736334,76.829176 39.9469885,76.6843387 C40.1197255,76.5397643 40.1733904,76.365574 40.1080861,76.1619431 C40.0586444,76.0074676 39.9393662,75.9088941 39.7504576,75.8661351 C39.6301494,75.8411632 39.4059105,75.8318754 39.077947,75.8381841 L38.4656936,75.8503634 C38.0748979,75.8593007 37.7780415,75.8367821 37.5735794,75.7832458 C37.2114187,75.691682 36.9837807,75.5016323 36.8911805,75.2129216 C36.7822027,74.8727775 36.8399877,74.5636511 37.0645355,74.2855425 C37.2891864,74.0074339 37.648051,73.8111631 38.1414382,73.6967303 C38.7866528,73.5470739 39.3025979,73.5981568 39.6898915,73.8497163 C39.932671,74.0097996 40.0891334,74.2067713 40.1584549,74.440719 L39.4875924,74.5963336 C39.4302194,74.463588 39.332881,74.3538867 39.1951651,74.2661783 C38.9774155,74.1465758 38.6627395,74.1348346 38.2503131,74.2305166 C37.9760145,74.2941293 37.7815436,74.3861312 37.6679307,74.5056461 C37.5544207,74.6256866 37.5208415,74.7567674 37.5665751,74.8994142 C37.6166349,75.0555546 37.7494065,75.1587719 37.9656111,75.209592 C38.0905545,75.2400841 38.2642185,75.2527891 38.4870153,75.2467433 L38.9970892,75.2330744 C39.5504246,75.2177408 39.9316409,75.2386822 40.1401202,75.2961614 C40.4658176,75.3864985 40.6818162,75.5972267 40.7880129,75.9285212 C40.8906045,76.2485125 40.8344675,76.5585151 40.620323,76.8581785 C40.4055605,77.1581047 40.0028164,77.3765435 39.4114727,77.5136701 C38.7748074,77.6613113 38.2853343,77.6444004 37.9424353,77.4631129 C37.5995363,77.2817377 37.3611859,77.0142312 37.2280023,76.6604182 L37.9107102,76.5020873 Z" id="Stroke-15" fill="#0A2674"></path>
                <path d="M42.9446458,78.89943 C43.1727228,79.7357702 42.6749386,80.6067134 41.838597,80.834701 L34.1005245,82.9446766 C33.2641829,83.1726642 32.3933273,82.6749697 32.1652503,81.8386295 L30.0553602,74.10057 C29.8272832,73.2642298 30.3249785,72.3932866 31.1614091,72.165299 L38.8993926,70.0553234 C39.7358231,69.8273358 40.6066787,70.3250303 40.8347557,71.1613705 L42.9446458,78.89943 Z" id="Stroke-16" stroke="#082674"></path>
                <path d="M42.5073061,7.99487278 C41.9459536,7.58943991 41.8329799,6.8177553 42.2562714,6.28008611 L42.8815412,5.48590295 C43.3048327,4.94823377 44.1105087,4.8400265 44.6718613,5.24545937 L48.4926702,8.00512722 C49.0541027,8.41056009 49.1669964,9.1822447 48.7437049,9.71991389 L48.1184352,10.514097 C47.6951437,11.0517662 46.8894677,11.1599735 46.3281151,10.7545406 L42.5073061,7.99487278 Z" id="Stroke-17" stroke="#082674"></path>
                <path d="M28,48 C28,48 29.6578404,50.25 32,48" id="Stroke-18" stroke="#082674"></path>
                <path d="M36,37 C36,38.1046415 35.7761667,39 35.5,39 C35.2238333,39 35,38.1046415 35,37 C35,35.8954508 35.2238333,35 35.5,35 C35.7761667,35 36,35.8954508 36,37 Z" id="Stroke-19" stroke="#082674"></path>
                <path d="M23,37 C23,38.1046415 22.7761667,39 22.5,39 C22.2238333,39 22,38.1046415 22,37 C22,35.8954508 22.2238333,35 22.5,35 C22.7761667,35 23,35.8954508 23,37 Z" id="Stroke-20" stroke="#082674"></path>
                <path d="M45,5.75134547 C45,5.75134547 46.2309723,0.279905013 49.2868969,0.0250361187 C52.3429068,-0.229832775 53.110899,1.55416453 56.8231032,1.17186119 C56.8231032,1.17186119 55.1590205,3.12967907 52.086881,3.04276878 C52.086881,3.04276878 59.511204,3.44970945 61.6873384,5.75134547 C61.6873384,5.75134547 59.6392169,5.1062723 56.5670774,5.75134547 C56.5670774,5.75134547 62.7114418,7.28837481 65.2715296,18.6295309 C67.8317028,29.9706019 73.7199561,30.3529053 75,30.6077742 C75,30.6077742 64.4100026,34.9402905 57.4804069,14.8066674 C57.4804069,14.8066674 57.5911808,23.9113489 58.9992376,26.813541 C58.9992376,26.813541 49.2868969,17.913774 49.2868969,8.96940508 L45,5.75134547 Z" id="Stroke-21" stroke="#082674"></path>
                <path d="M31.6348353,35 L31.6348353,35.93394 L27.5655458,35.93394 L27.5655458,35 C27.5655458,40.138344 23.5143743,44.303773 18.5170584,44.303773 C15.9572417,44.303773 13.6459841,43.2104992 12,41.4537065 C14.0195325,49.2533373 20.9346862,55 29.1564244,55 C36.9956805,55 43.6475803,49.7754647 46,42.5282654 C44.5073928,43.6447182 42.6703764,44.303773 40.6833227,44.303773 C35.6860068,44.303773 31.6348353,40.138344 31.6348353,35 Z" id="Stroke-22" stroke="#082674"></path>
                <path d="M49.1055317,33.3235627 L49.1055317,35.3072226 C49.1055317,37.5423604 48.2833041,39.5865705 46.9233155,41.1578929 C46.8047114,53.8978635 48.846903,64.7751917 48.846903,64.7751917 C49.7913187,70.5283688 55.5147394,76 55.5147394,76 C53.1809967,69.4987674 57,33.3235627 57,33.3235627 C57,17.6809114 44.2400948,5 28.5,5 C12.7598219,5 0,17.6809114 0,33.3235627 C0,33.3235627 3.9506931,69.4987674 1.61695034,76 C1.61695034,76 5.86544569,73.5371571 8.2847868,64.7751917 C8.2847868,64.7751917 10.4617521,53.1802902 10.1899544,39.911686 C9.37881207,38.5653352 8.91214687,36.9905338 8.91214687,35.3072226 L8.91214687,33.3235627 L49.1055317,33.3235627 Z" id="Stroke-23" stroke="#082674"></path>
                <path d="M27,36 L32,36" id="Stroke-24" stroke="#082674"></path>
                <path d="M11.736768,33 L10,33 C10.2440423,35.1551188 10.3811858,37.308785 10.4366689,39.4191114 C10.8798039,39.9918082 11.4050164,40.5220532 12,41 C11.5142097,39.587789 11.2537936,38.1043945 11.2537936,36.5737864 C11.2537936,35.34817 11.4211816,34.1528994 11.736768,33 Z" id="Stroke-25" stroke="#082674"></path>
                <path d="M46.5470093,33 C46.8110466,34.1515931 46.9510929,35.3455093 46.9510929,36.5697369 C46.9510929,38.4677493 46.6164653,40.2934495 46,42 C46.5944767,41.6003887 47.1368614,41.1387035 47.6154618,40.6246988 C47.6404171,38.1325499 47.7565551,35.5673632 48,33 L46.5470093,33 Z" id="Stroke-26" stroke="#082674"></path>
                <polygon id="Fill-27" fill="#FFFFFF" points="27 37 32 37 32 36 27 36"></polygon>
                <polygon id="Stroke-28" stroke="#082674" points="27 37 32 37 32 36 27 36"></polygon>
                <g id="Group-31" transform="translate(9.000000, 33.000000)">
                    <path d="M17.7163183,0.0757440299 C17.8598229,0.70824403 17.9356211,1.36635597 17.9356211,2.04195299 C17.9356211,6.95534104 13.9293,10.9384082 8.98722661,10.9384082 C4.04523578,10.9384082 0.0389146789,6.95534104 0.0389146789,2.04195299 C0.0389146789,1.36643806 0.114630275,0.708490299 0.258134862,0.0760723881 L17.7163183,0.0757440299 Z" id="Fill-29" fill-opacity="0.45" fill="#F5A623"></path>
                    <path d="M17.7163183,0.0757440299 C17.8598229,0.70824403 17.9356211,1.36635597 17.9356211,2.04195299 C17.9356211,6.95534104 13.9293,10.9384082 8.98722661,10.9384082 C4.04523578,10.9384082 0.0389146789,6.95534104 0.0389146789,2.04195299 C0.0389146789,1.36643806 0.114630275,0.708490299 0.258134862,0.0760723881 L17.7163183,0.0757440299 Z" id="Stroke-30" stroke="#082674"></path>
                </g>
                <g id="Group-34" transform="translate(32.000000, 33.000000)">
                    <path d="M17.7566037,0.0761708955 C17.9001083,0.708588806 17.9758239,1.36645448 17.9758239,2.0419694 C17.9758239,6.95535746 13.9695028,10.9383425 9.02742936,10.9383425 C4.08543853,10.9383425 0.0791174312,6.95535746 0.0791174312,2.0419694 C0.0791174312,1.36645448 0.154833028,0.708506716 0.298337615,0.0760067164 L17.7566037,0.0761708955 Z" id="Fill-32" fill-opacity="0.45" fill="#F5A623"></path>
                    <path d="M17.7566037,0.0761708955 C17.9001083,0.708588806 17.9758239,1.36645448 17.9758239,2.0419694 C17.9758239,6.95535746 13.9695028,10.9383425 9.02742936,10.9383425 C4.08543853,10.9383425 0.0791174312,6.95535746 0.0791174312,2.0419694 C0.0791174312,1.36645448 0.154833028,0.708506716 0.298337615,0.0760067164 L17.7566037,0.0761708955 Z" id="Stroke-33" stroke="#082674"></path>
                </g>
                <path d="M48,37 C48,37 46.6865471,40.1811721 44,41" id="Stroke-35" stroke="#FFFFFF"></path>
                <path d="M25,37 C25,37 23.6865471,40.1811721 21,41" id="Stroke-36" stroke="#FFFFFF"></path>
                <path d="M13,51.5 C13,55.0898432 12.5522836,58 11.9999605,58 C11.4477164,58 11,55.0898432 11,51.5 C11,47.9101568 11.4477164,45 11.9999605,45 C12.5522836,45 13,47.9101568 13,51.5 Z" id="Stroke-37" stroke="#082674"></path>
                <path d="M46,51.5 C46,55.0898432 45.5522836,58 44.9999605,58 C44.4477164,58 44,55.0898432 44,51.5 C44,47.9101568 44.4477164,45 44.9999605,45 C45.5522836,45 46,47.9101568 46,51.5 Z" id="Stroke-38" stroke="#082674"></path>
                <path d="M23.0413091,68.9756312 L24.4805598,68.9756312 L21.9625121,72.1391007 L23.0413091,68.9756312 Z M20.3044913,68.9756312 L22.6958261,68.9756312 L21.5001587,72.4331164 L20.3044913,68.9756312 Z M18.5197576,68.9756312 L19.9590083,68.9756312 L21.0378053,72.1391007 L18.5197576,68.9756312 Z M23.6154875,67.4720954 L24.5277877,68.6720675 L23.1581795,68.6720675 L23.6154875,67.4720954 Z M19.3847472,67.4720954 L19.8421379,68.6720675 L18.4725297,68.6720675 L19.3847472,67.4720954 Z M21.5001587,67.3938175 L22.596325,68.6720675 L20.4039097,68.6720675 L21.5001587,67.3938175 Z M21.8381978,67.3060705 L23.3420456,67.3060705 L22.8772109,68.5226924 L21.8381978,67.3060705 Z M19.6581891,67.3060705 L21.1621196,67.3060705 L20.1230238,68.5226924 L19.6581891,67.3060705 Z M21.5546651,72.9927404 C21.5554922,72.9919513 21.5563193,72.9911622 21.5570637,72.9903731 C21.5605376,72.9881636 21.563846,72.9857174 21.5670717,72.9832713 C21.5678988,72.9824822 21.5687259,72.9816931 21.5694703,72.980904 C21.5729442,72.9786156 21.5762526,72.9762483 21.5794784,72.9738021 C21.5803055,72.9730131 21.5811326,72.972224 21.581877,72.9714349 C21.5892382,72.9648854 21.5958551,72.9577836 21.6018103,72.9500505 L24.9574703,68.9257606 C25.0090819,68.8727336 25.0142926,68.792404 24.9699596,68.7336956 L23.6972058,67.0641349 C23.6660238,67.0220763 23.614495,66.9979301 23.5604848,67.0001395 L23.5608157,67.0001395 C23.5550259,67.0006919 23.5491534,67.001481 23.5434464,67.0025068 L19.4519083,67.0025068 L19.4344564,67.0025068 L19.4320577,67.0025068 C19.4279222,67.0024279 19.423704,67.0024279 19.4195684,67.0025068 C19.3730849,67.0057421 19.3303235,67.0283101 19.3027808,67.0642138 L18.0301096,68.7336956 C17.9856939,68.792404 17.9909047,68.8728125 18.0425162,68.9258395 L21.3784084,72.9477621 L21.380807,72.9501294 C21.3840327,72.9533647 21.3873412,72.9565999 21.390815,72.9595985 C21.3969356,72.9656745 21.4035525,72.9711981 21.4106656,72.9761694 C21.4123198,72.9770374 21.413974,72.9777476 21.4156283,72.9785367 L21.4180269,72.9785367 C21.4212526,72.9810618 21.424561,72.9834291 21.4280349,72.9856385 C21.428862,72.9857174 21.4296064,72.9857174 21.4304335,72.9856385 C21.434569,72.9873745 21.4387046,72.9889527 21.4429228,72.9903731 C21.4436672,72.9911622 21.4444943,72.9919513 21.4453214,72.9927404 C21.449457,72.9936873 21.4535925,72.9944764 21.4578108,72.9951076 C21.4626907,72.9969225 21.4676533,72.9984218 21.4726987,72.9997633 L21.47518,72.9997633 L21.4776614,72.9997633 C21.4817969,72.9999211 21.4859324,72.9999211 21.490068,72.9997633 L21.4925493,72.9997633 C21.4966848,72.9999211 21.5008204,72.9999211 21.5049559,72.9997633 L21.5074372,72.9997633 C21.513227,73.0000789 21.5190168,73.0000789 21.5248065,72.9997633 C21.5290248,72.999132 21.5331603,72.9984218 21.5372131,72.9974749 C21.5380402,72.9966858 21.5388673,72.9958967 21.5396945,72.9951076 C21.5447398,72.9945553 21.5497025,72.9937662 21.5546651,72.9927404 L21.5546651,72.9927404 Z" id="Fill-39" fill="#082674"></path>
            </g>
        </g>
    </g>
</svg>