<?xml version="1.0" encoding="UTF-8"?>
<svg width="78px" height="129px" viewBox="0 0 78 129" version="1.1" xmlns="http://www.w3.org/2000/svg" xmlns:xlink="http://www.w3.org/1999/xlink">
    <!-- Generator: Sketch 41.2 (35397) - http://www.bohemiancoding.com/sketch -->
    <title>Group 34</title>
    <desc>Created with Sketch.</desc>
    <defs></defs>
    <g id="homepage" stroke="none" stroke-width="1" fill="none" fill-rule="evenodd">
        <g id="Desktop-HD-Copy-8" transform="translate(-529.000000, -3628.000000)">
            <g id="Group-40" transform="translate(479.000000, 3629.000000)">
                <g id="Group-34" transform="translate(50.000000, 0.000000)">
                    <path d="M26.9230232,22.5 C26.9230232,22.5 21.8646863,29.3133174 26.9230232,39.4495597 C26.9230232,39.4495597 21.5222164,42.3232321 16.6064516,41.7465973 C17.0870382,55.2217986 28.1592415,66 41.756158,66 C55.6587132,66 66.9290323,54.7333515 66.9290323,40.8353242 C66.9290323,34.4035597 64.5118423,28.5380375 60.5406171,24.0894573 C50.4058249,26.8206041 35.8735765,28.7126314 26.9230232,22.5 Z" id="Stroke-1" stroke="#082674"></path>
                    <path d="M60.7705939,24.4145058 C68.4392372,22.353313 73.5873531,19.8121608 71.8720064,19.9396177 C67.8929598,20.2353412 58.3532719,14.0251475 62.8017849,15.2080415 C67.250298,16.3909356 81.1889722,9.29357136 77.3335942,10.4764654 C73.4782162,11.6593594 71.9953785,8.11067732 54.4978939,1.60476012 C37.0004093,-4.90115707 19.5029247,10.4764654 19.5029247,10.4764654 C15.6475468,6.63205978 18.6132221,2.78765416 18.6132221,2.78765416 C12.0887363,4.26627171 12.5786659,14.6165945 12.5786659,14.6165945 C10.1029201,11.6593594 4.02595474,13.4337005 4.02595474,13.4337005 C9.30841568,14.0251475 8.5299259,21.0391177 8.5299259,21.0391177 C4.97111547,20.9560194 2.89514272,28.8113229 4.67454794,25.5583643 C6.45395315,22.3054058 9.12306097,27.3327054 9.12306097,27.3327054 C8.41871307,38.1487927 12.4633011,41.4804138 16.9041034,42" id="Stroke-3" stroke="#082674"></path>
                    <path d="M43.5296049,111.166519 L41.961845,117.558514 C41.7673964,118.351391 40.9403222,119 40.1239351,119 L26.8061396,119 C25.9897526,119 25.3517832,118.332689 25.388298,117.517252 L26.9044029,83.7892623 C26.9409177,82.9738251 26.7921868,82.9500774 26.5736919,83.7364236 L25.3066593,88.2974692 C25.0881644,89.0841123 24.2414969,89.7276754 23.4251099,89.7276754 L17.5290144,89.7276754 C16.7126274,89.7276754 16.3736042,89.1464501 16.7758603,88.4360965 L27.3957194,69.6762919 C27.7979756,68.9659383 28.770812,68.5628209 29.5575122,68.7804093 C29.5575122,68.7804093 37.7804591,71.056331 58.6698731,68 L70.2812714,88.4369871 C70.684715,89.1467469 70.3465824,89.7276754 69.5301954,89.7276754 L63.6340999,89.7276754 C62.8177129,89.7276754 61.9710454,89.0841123 61.7525505,88.2974692 L60.4855179,83.7364236 C60.267023,82.9500774 60.1182921,82.9738251 60.1548069,83.7892623 L61.6709118,117.517252 C61.7074266,118.332689 61.0694572,119 60.2530702,119 L46.9352746,119 C46.1188876,119 45.2918134,118.351391 45.0973648,117.558514 L43.5296049,111.166519" id="Stroke-5" stroke="#082674"></path>
                    <path d="M29.236497,121 C28.4205778,121 27.0854372,121.009738 26.2698147,121.021836 C26.2698147,121.021836 21.0277564,121.098264 20.6322581,127 L36.258446,127 C37.0743652,127 37.7419355,126.336055 37.7419355,125.524566 L37.7419355,122.475434 C37.7419355,121.663945 37.0743652,121 36.258446,121 L29.236497,121 Z" id="Stroke-7" stroke="#082674"></path>
                    <path d="M57.3183417,121 C58.1342609,121 59.4694015,121.009738 60.2853207,121.021836 C60.2853207,121.021836 65.5270824,121.098264 65.9225806,127 L50.2963927,127 C49.4804735,127 48.8129032,126.336055 48.8129032,125.524566 L48.8129032,122.475434 C48.8129032,121.663945 49.4804735,121 50.2963927,121 L57.3183417,121 Z" id="Stroke-9" stroke="#082674"></path>
                    <path d="M35.7290323,41.705766 C35.7290323,41.705766 40.8272394,36.7784203 47.6658464,39.1412652 L47.8064516,40.5076766 C40.9681432,38.1448317 36.1380113,43 36.1380113,43 L35.7290323,41.705766 Z" id="Fill-11" fill="#FFFFFF"></path>
                    <path d="M35.7290323,41.705766 C35.7290323,41.705766 40.8272394,36.7784203 47.6658464,39.1412652 L47.8064516,40.5076766 C40.9681432,38.1448317 36.1380113,43 36.1380113,43 L35.7290323,41.705766 Z" id="Stroke-13" stroke="#082674"></path>
                    <path d="M40.2580645,58 C40.2580645,58 43.5290323,59.125 46.8,58" id="Stroke-15" stroke="#082674" stroke-linecap="round" stroke-linejoin="round"></path>
                    <path d="M74.9806427,50.497045 C74.9821259,51.2974162 74.3161501,51.9534295 73.5003667,51.9548847 L49.3276676,51.9999965 C48.5118842,52.0017428 47.8429418,51.3480578 47.8414586,50.5476867 L47.8064541,32.502955 C47.8049708,31.7025838 48.4712434,31.0465705 49.2870267,31.0448243 L73.4597259,31.0000035 C74.2755092,30.9982572 74.9441549,31.6519422 74.9456382,32.4523133 L74.9806427,50.497045 Z" id="Fill-17" fill-opacity="0.45" fill="#F5A623"></path>
                    <path d="M74.9806427,50.497045 C74.9821259,51.2974162 74.3161501,51.9534295 73.5003667,51.9548847 L49.3276676,51.9999965 C48.5118842,52.0017428 47.8429418,51.3480578 47.8414586,50.5476867 L47.8064541,32.502955 C47.8049708,31.7025838 48.4712434,31.0465705 49.2870267,31.0448243 L73.4597259,31.0000035 C74.2755092,30.9982572 74.9441549,31.6519422 74.9456382,32.4523133 L74.9806427,50.497045 Z" id="Stroke-19" stroke="#082674"></path>
                    <path d="M37.2233866,52.3798394 C37.3406542,53.1833556 36.7719214,53.9355081 35.9597018,54.0512239 L11.8938912,57.4849123 C11.0816716,57.6006281 10.321372,57.0379897 10.2044028,56.2344735 L7.56364468,38.1199366 C7.44667551,37.3164204 8.01510988,36.5642679 8.8273295,36.4485521 L32.8931401,33.0151588 C33.7053597,32.8991479 34.4656593,33.4617863 34.5826285,34.2653025 L37.2233866,52.3798394 Z" id="Fill-21" fill-opacity="0.45" fill="#F5A623"></path>
                    <path d="M37.2233866,52.3798394 C37.3406542,53.1833556 36.7719214,53.9355081 35.9597018,54.0512239 L11.8938912,57.4849123 C11.0816716,57.6006281 10.321372,57.0379897 10.2044028,56.2344735 L7.56364468,38.1199366 C7.44667551,37.3164204 8.01510988,36.5642679 8.8273295,36.4485521 L32.8931401,33.0151588 C33.7053597,32.8991479 34.4656593,33.4617863 34.5826285,34.2653025 L37.2233866,52.3798394 Z" id="Stroke-23" stroke="#082674"></path>
                    <path d="M4.52903226,36 C4.52903226,36.5521615 4.07850673,37 3.52245036,37 C2.96665456,37 2.51612903,36.5521615 2.51612903,36 C2.51612903,35.4478385 2.96665456,35 3.52245036,35 C4.07850673,35 4.52903226,35.4478385 4.52903226,36" id="Fill-25" fill="#FFFFFF"></path>
                    <path d="M4.52903226,36 C4.52903226,36.5521615 4.07850673,37 3.52245036,37 C2.96665456,37 2.51612903,36.5521615 2.51612903,36 C2.51612903,35.4478385 2.96665456,35 3.52245036,35 C4.07850673,35 4.52903226,35.4478385 4.52903226,36 Z" id="Stroke-27" stroke="#082674" stroke-width="0.5"></path>
                    <path d="M3.52258065,34 L3.52258065,32.5" id="Stroke-29" stroke="#082674" stroke-width="0.5"></path>
                    <path d="M4.39399061,35.5000466 C4.67195606,35.9781652 4.50705247,36.5898567 4.02562777,36.8658039 C3.54446359,37.1420099 2.92887562,36.9781501 2.65117068,36.5000315 C2.37320523,36.0216541 2.53810882,35.4102214 3.01953352,35.1340154 C3.5006977,34.8580682 4.11602516,35.021928 4.39399061,35.5000466" id="Fill-31" fill="#FFFFFF"></path>
                    <path d="M4.39399061,35.5000466 C4.67195606,35.9781652 4.50705247,36.5898567 4.02562777,36.8658039 C3.54446359,37.1420099 2.92887562,36.9781501 2.65117068,36.5000315 C2.37320523,36.0216541 2.53810882,35.4102214 3.01953352,35.1340154 C3.5006977,34.8580682 4.11602516,35.021928 4.39399061,35.5000466 Z" id="Stroke-33" stroke="#082674" stroke-width="0.5"></path>
                    <path d="M3.01935484,34.5 L1.50967742,33" id="Stroke-35" stroke="#082674" stroke-width="0.5"></path>
                    <path d="M1.50967742,36 L0,34.5" id="Stroke-37" stroke="#082674" stroke-width="0.5"></path>
                    <path d="M1.50967742,36.5 L0,36.5" id="Stroke-39" stroke="#082674" stroke-width="0.5"></path>
                    <path d="M1.50967742,37 L0,38.5" id="Stroke-41" stroke="#082674" stroke-width="0.5"></path>
                    <path d="M3.01935484,38 L1.50967742,39.5" id="Stroke-43" stroke="#082674" stroke-width="0.5"></path>
                    <path d="M3.52258065,38 L3.52258065,39.5" id="Stroke-45" stroke="#082674" stroke-width="0.5"></path>
                    <path d="M4.52903226,38 L6.03870968,39.5" id="Stroke-47" stroke="#082674" stroke-width="0.5"></path>
                    <path d="M5.03225806,37 L6.54193548,38.5" id="Stroke-49" stroke="#082674" stroke-width="0.5"></path>
                    <path d="M5.53548387,36.5 L7.04516129,36.5" id="Stroke-51" stroke="#082674" stroke-width="0.5"></path>
                    <path d="M5.03225806,36 L6.54193548,34.5" id="Stroke-53" stroke="#082674" stroke-width="0.5"></path>
                    <path d="M4.52903226,34.5 L6.03870968,33" id="Stroke-55" stroke="#082674" stroke-width="0.5"></path>
                    <g id="Group-60" transform="translate(70.451613, 32.500000)">
                        <path d="M0.196273548,0 L2.46713806,0 C3.31875097,0 4.01552516,0.45 4.01552516,1 L4.01552516,2" id="Fill-57" fill="#FFFFFF"></path>
                        <path d="M0.196273548,0 L2.46713806,0 C3.31875097,0 4.01552516,0.45 4.01552516,1 L4.01552516,2" id="Stroke-59" stroke="#082674"></path>
                    </g>
                    <g id="Group-64" transform="translate(48.812903, 32.500000)">
                        <path d="M1.81175668,0 L0.997105991,0 C0.548803687,0 0.182167742,0.315 0.182167742,0.6999 L0.182167742,1.4001" id="Fill-61" fill="#FFFFFF"></path>
                        <path d="M1.81175668,0 L0.997105991,0 C0.548803687,0 0.182167742,0.315 0.182167742,0.6999 L0.182167742,1.4001" id="Stroke-63" stroke="#082674"></path>
                    </g>
                    <g id="Group-68" transform="translate(71.961290, 48.500000)">
                        <path d="M2.00347134,0 L2.00347134,1.5 C2.00347134,2.325 1.60434138,3 1.11693124,3 L0.230103594,3" id="Fill-65" fill="#FFFFFF"></path>
                        <path d="M2.00347134,0 L2.00347134,1.5 C2.00347134,2.325 1.60434138,3 1.11693124,3 L0.230103594,3" id="Stroke-67" stroke="#082674"></path>
                    </g>
                    <path d="M25.6645161,99.5 C25.6645161,99.5 47.1158051,94.2616078 60.3870968,98.9503331" id="Stroke-69" stroke="#082674"></path>
                    <path d="M30.6967742,83.9966757 C30.6967742,83.6705927 31.3029717,83.1589339 32.0439763,82.8599509 L37.401185,80.6984358 C38.1421896,80.3994527 38.7483871,80.4433428 38.7483871,80.7962312 C38.7483871,81.1491196 38.1390006,81.6746229 37.3945171,81.9638853 L33.5178682,83.4705833 C32.7730948,83.7598457 32.7730948,84.2338002 33.5172884,84.5239463 L37.394807,86.0341791 C38.1392905,86.3243252 38.7483871,86.8504176 38.7483871,87.2036006 C38.7483871,87.5567835 38.1421896,87.6006737 37.4014749,87.3011014 L32.0436864,85.1342842 C31.3029717,84.834712 30.6967742,84.3227587 30.6967742,83.9966757 Z" id="Stroke-71" stroke="#082674" stroke-width="0.5"></path>
                    <path d="M43.983731,78.9130453 C44.2422564,78.1359593 44.7095908,77.5 45.0228042,77.5 C45.3360177,77.5 45.3807625,78.1359593 45.1222371,78.9130453 L42.5711631,86.5869547 C42.3126377,87.3643371 41.8449926,88 41.5320899,88 C41.2188765,88 41.1741317,87.3643371 41.4323463,86.5869547 L43.983731,78.9130453 Z" id="Stroke-73" stroke="#082674" stroke-width="0.5"></path>
                    <path d="M55.8580645,84.0033128 C55.8580645,84.3331845 55.2515771,84.8474308 54.5105725,85.145788 L49.1539437,87.3023239 C48.412939,87.600681 47.8064516,87.5562072 47.8064516,87.2033624 C47.8064516,86.8505175 48.4155482,86.32449 49.1597418,86.0340852 L53.0305925,84.5240388 C53.775076,84.2336339 53.7747861,83.7591489 53.0303026,83.4696276 L49.1600317,81.9642937 C48.4155482,81.6744779 47.8064516,81.1490395 47.8064516,80.7961947 C47.8064516,80.4433498 48.4126491,80.3994651 49.1536538,80.6984113 L54.5108624,82.8596596 C55.251867,83.1586058 55.8580645,83.6734412 55.8580645,84.0033128 Z" id="Stroke-75" stroke="#082674" stroke-width="0.5"></path>
                </g>
            </g>
        </g>
    </g>
</svg>