<?xml version="1.0" encoding="UTF-8"?>
<svg width="119px" height="143px" viewBox="0 0 119 143" version="1.1" xmlns="http://www.w3.org/2000/svg" xmlns:xlink="http://www.w3.org/1999/xlink">
    <!-- Generator: Sketch 41.2 (35397) - http://www.bohemiancoding.com/sketch -->
    <title>Group 7</title>
    <desc>Created with Sketch.</desc>
    <defs></defs>
    <g id="homepage" stroke="none" stroke-width="1" fill="none" fill-rule="evenodd">
        <g id="Desktop-HD-Copy-8" transform="translate(-436.000000, -4143.000000)">
            <g id="Group-23" transform="translate(-68.000000, 4112.000000)">
                <g id="Group-31">
                    <g id="Group-29" transform="translate(505.000000, 32.000000)">
                        <g id="Group-7">
                            <polygon id="Stroke-29-Copy" stroke="#FFFFFF" stroke-width="0.892499985" points="0.0783959153 98.261237 1.03794182 96.3925986 1.90304882 99.5162453 3.5967309 96.2181818 7.31754601 103.95 3.49063287 99.0338242 1.71222782 102.496394"></polygon>
                            <path id="Fill-53-Copy" fill="#FFFFFF"></path>
                            <path id="Stroke-55-Copy" stroke="#FFFFFF" stroke-width="0.892499985"></path>
                            <path d="M116.756462,126.241493 C116.756462,127.920099 115.390113,129.293182 113.720609,129.293182 L35.0520674,129.293182 C33.382172,129.293182 32.0158228,127.920099 32.0158228,126.241493 L32.0158228,76.0748094 C32.0158228,74.3962036 33.382172,73.0227273 35.0520674,73.0227273 L113.720609,73.0227273 C115.390113,73.0227273 116.756462,74.3962036 116.756462,76.0748094 L116.756462,126.241493 Z" id="Stroke-57-Copy" stroke="#FFFFFF" stroke-width="0.892499985"></path>
                            <path d="M16.8592043,120.702273 C16.8592043,120.702273 13.6590415,139.730097 22.0501367,139.730097 C30.4412319,139.730097 22.9577681,131.330345 27.0026301,131.125647 C27.9415322,131.078134 31.6123187,131.774979 32.8779994,132.617132 C35.200238,134.161277 37.9129692,139.88174 40.5537779,140.75438 C43.2778447,141.654735 50.6506885,138.124186 43.37752,129.503107" id="Stroke-59-Copy" stroke="#FFFFFF" stroke-width="0.892499985"></path>
                            <path d="M32.0158228,96.6477273 L32.0158228,104.336437 L23.7531248,110.822727 C23.7531248,110.822727 23.184388,107.19074 18.3891873,105.9612 L32.0158228,96.6477273 Z" id="Stroke-61-Copy" stroke="#FFFFFF" stroke-width="0.920631566"></path>
                            <path id="Fill-63-Copy" fill="#FFFFFF"></path>
                            <path id="Stroke-65-Copy" stroke="#FFFFFF" stroke-width="0.892499985"></path>
                            <path id="Fill-67-Copy" fill="#FFFFFF"></path>
                            <path id="Stroke-69-Copy" stroke="#FFFFFF" stroke-width="0.892499985"></path>
                            <path d="M21.5451611,111.87089 C19.0521645,106.362846 15.1835163,108.768314 15.1835163,108.768314 C15.1835163,108.768314 12.9766013,111.11663 12.7198818,115.642969 C12.6968683,116.047315 12.3730922,116.334245 12.0017019,116.336966 C12.5294252,118.590027 14.583975,120.272727 17.0440385,120.272727 C19.9032671,120.272727 22.2216785,118.001393 22.2216785,115.199355 L22.2216785,112.813327 C21.9792433,112.620485 21.7475211,112.318003 21.5451611,111.87089 Z" id="Stroke-71-Copy" stroke="#FFFFFF" stroke-width="0.920631566"></path>
                            <path d="M21.7638191,113.233449 C22.7822096,114.079015 23.9885568,112.850221 23.9224023,112.269814 C23.6667345,110.029283 21.3649462,107.747011 20.2477131,107.024682 C19.5087281,106.54684 17.881716,106.301558 17.881716,106.301558 C17.881716,102.339285 14.2338777,99.9278126 14.2338777,99.9278126 C12.2472962,98.8480962 12.4449815,101.316417 12.4449815,101.316417 C15.3145313,102.705021 16.0223847,106.301558 16.0223847,106.301558 C16.0223847,106.301558 10.6331258,105.944568 9.65131484,110.649842 C8.83450104,114.566 10.6642574,112.035266 11.6079322,109.993505 L11.2370777,111.035852 C9.94939935,115.487496 10.9537807,116.841912 11.7406304,116.836347" id="Stroke-73-Copy" stroke="#FFFFFF" stroke-width="0.920631566"></path>
                            <path d="M104.407324,74.7414626 L112.021161,74.7414626 C112.021161,74.7414626 114.201468,74.6052386 114.201468,78.6068182" id="Stroke-75-Copy" stroke="#FFFFFF" stroke-width="0.920631566" stroke-linecap="round" stroke-linejoin="round"></path>
                            <path id="Stroke-77-Copy" stroke="#FFFFFF" stroke-width="0.920631566" stroke-linecap="round" stroke-linejoin="round"></path>
                            <path d="M40.53247,74.7410526 L36.868138,74.741458 C36.868138,74.741458 34.5708169,74.6056393 34.5708169,78.6068182" id="Stroke-79-Copy" stroke="#FFFFFF" stroke-width="0.920631566" stroke-linecap="round" stroke-linejoin="round"></path>
                            <path id="Stroke-81-Copy" stroke="#FFFFFF" stroke-width="0.920631566" stroke-linecap="round" stroke-linejoin="round"></path>
                            <path d="M115.053133,130.152273 C115.053133,130.624926 114.250669,131.011364 113.270184,131.011364 L36.3533745,131.011364 C35.3728896,131.011364 34.5708169,130.624926 34.5708169,130.152273 C34.5708169,129.67962 35.3728896,129.293182 36.3533745,129.293182 L113.270184,129.293182 C114.250669,129.293182 115.053133,129.67962 115.053133,130.152273 Z" id="Stroke-83-Copy" stroke="#FFFFFF" stroke-width="0.892499985"></path>
                            <polygon id="Stroke-85-Copy" stroke="#FFFFFF" stroke-width="1.04015516" points="73.7473939 108.245455 65.2307467 99.6547407 73.7473939 91.0636364 82.2640411 99.6547407"></polygon>
                            <polyline id="Stroke-87-Copy" stroke="#FFFFFF" stroke-width="0.920631566" stroke-linecap="round" stroke-linejoin="round" points="72.0440645 96.1585758 74.2154726 94.0704545 78.4315498 98.3659091"></polyline>
                            <path d="M49.2024819,13.8561464 C48.7778903,15.0940112 47.4159402,15.7597303 46.1759261,15.3358746 L45.5495641,15.121766 C44.30955,14.6979103 43.6422778,13.3383208 44.0672666,12.1004561 L46.3407582,5.47339906 C46.7653498,4.23553427 48.1272999,3.56981519 49.367314,3.99367088 L49.993676,4.20777946 C51.2336901,4.63163514 51.9009623,5.99122462 51.4759735,7.2290894 L49.2024819,13.8561464 Z" id="Fill-101-Copy" fill="#FFFFFF"></path>
                            <polygon id="Stroke-107-Copy" stroke="#FFFFFF" stroke-width="1.30362115" points="69.9754977 54.1227273 80.1348793 54.1227273 80.1348793 55.8409091 69.9149027 55.8409091"></polygon>
                            <path d="M106.962318,53.9079545 C106.962318,61.380632 100.956767,67.4386364 93.5487932,67.4386364 C86.1404297,67.4386364 80.1348793,61.380632 80.1348793,53.9079545 C80.1348793,46.4348845 86.1404297,40.3772727 93.5487932,40.3772727 C100.956767,40.3772727 106.962318,46.4348845 106.962318,53.9079545 Z" id="Stroke-111-Copy" stroke="#FFFFFF" stroke-width="1.31390275"></path>
                            <path d="M69.9149027,53.9079545 C69.9149027,61.380636 63.9091813,67.4386364 56.5009872,67.4386364 C49.0927932,67.4386364 43.0874641,61.380636 43.0874641,53.9079545 C43.0874641,46.4352731 49.0927932,40.3772727 56.5009872,40.3772727 C63.9091813,40.3772727 69.9149027,46.4352731 69.9149027,53.9079545 Z" id="Stroke-115-Copy" stroke="#FFFFFF" stroke-width="1.30362115"></path>
                            <path d="M97.594006,54.9818182 L97.594006,56.7 L100.269189,56.7 C100.720405,56.7 101.129345,56.165965 101.426497,55.3005165" id="Stroke-125-Copy" stroke="#FFFFFF" stroke-width="0.892499985"></path>
                            <path d="M48.6232848,55.7534164 C48.8795863,56.347654 49.1989252,56.7 49.5454418,56.7 L52.0299436,56.7 L52.0299436,53.2636364" id="Stroke-127-Copy" stroke="#FFFFFF" stroke-width="0.892499985"></path>
                            <path d="M88.9950119,72.5927886 C94.1991907,68.4435183 97.5476523,62.0613562 97.594006,54.8947921 C71.0376881,51.7921775 61.4578037,30.4977273 61.4578037,30.4977273 C59.9414896,42.8621833 56.0175356,49.5356947 52.0299436,53.129003 L52.0299436,54.7442027 C52.0299436,61.9724966 55.3897973,68.415209 60.6316875,72.5931818" id="Stroke-97-Copy" stroke="#FFFFFF" stroke-width="0.892499985"></path>
                            <path d="M97.4550744,55.0304769 C97.4550744,55.0809065 97.4515531,55.1309421 97.4511619,55.1813717 C99.6789223,55.4433691 102.025622,55.5761407 104.49752,55.5556537 C104.49752,55.5556537 101.106583,51.8786283 101.889076,49.5147419 C101.889076,49.5147419 111.018434,51.615843 116.756462,43.2110447 C116.756462,43.2110447 110.796205,41.3928221 110.23594,36.3825647 C108.553578,21.3431252 100.265401,-13.3863064 57.5478815,7.22757132 C57.5478815,7.22757132 52.5708285,-0.143420589 48.6305801,16.1575463 C48.6305801,16.1575463 48.8160312,19.2928477 51.5551514,19.3346097 C49.4216815,19.5264785 41.3764697,21.1705615 41.3764697,35.0686379 C41.3764697,39.271234 42.5502107,47.8076219 39.6808052,51.3534516 C39.6808052,51.3534516 43.9845221,51.7474326 45.6801866,47.5448365 C45.6801866,47.5448365 44.8976926,56.4752055 41.3764697,57.5255591 C41.3764697,57.5255591 46.7799818,58.2083283 52.0704236,53.4120027" id="Stroke-99-Copy" stroke="#FFFFFF" stroke-width="0.892499985"></path>
                            <path d="M49.2024819,13.8561464 C48.7778903,15.0940112 47.4159402,15.7597303 46.1759261,15.3358746 L45.5495641,15.121766 C44.30955,14.6979103 43.6422778,13.3383208 44.0672666,12.1004561 L46.3407582,5.47339906 C46.7653498,4.23553427 48.1272999,3.56981519 49.367314,3.99367088 L49.993676,4.20777946 C51.2336901,4.63163514 51.9009623,5.99122462 51.4759735,7.2290894 L49.2024819,13.8561464 Z" id="Stroke-103-Copy" stroke="#FFFFFF" stroke-width="1.31390275"></path>
                            <path d="M46.0682906,5.98512187 C46.0682906,5.98512187 42.7732385,-2.25646318 35.6423596,0.602733473 C35.6423596,0.602733473 38.0844414,1.93176695 38.0844414,2.9926275 C38.0844414,2.9926275 28.9022137,1.49007036 28.6091639,14.3071588 C28.6091639,17.4621344 30.7581959,19.8283661 28.6091639,26.9270612 C28.6091639,26.9270612 30.8558792,26.4340963 31.6373454,23.9692716 C31.6373454,23.9692716 31.6373454,30.5750018 29.1952636,32.6454545 C29.1952636,32.6454545 41.3079894,32.6454545 40.7218897,13.02545 C40.7218897,8.19439354 44.406112,10.8832215 44.3967344,10.9108275 C44.3873569,10.938828 46.0682906,5.98512187 46.0682906,5.98512187 Z" id="Stroke-105-Copy" stroke="#FFFFFF" stroke-width="0.892499985"></path>
                            <path d="M106.962318,53.9079545 C106.962318,61.380689 100.956825,67.4386364 93.5487947,67.4386364 C86.1403725,67.4386364 80.1348793,61.380689 80.1348793,53.9079545 C80.1348793,46.4352201 86.1403725,40.3772727 93.5487947,40.3772727 C100.956825,40.3772727 106.962318,46.4352201 106.962318,53.9079545" id="Fill-109-Copy" fill="#FFFFFF" opacity="0.402052239"></path>
                            <path d="M69.9149027,53.9079545 C69.9149027,61.380689 63.9094095,67.4386364 56.5013795,67.4386364 C49.0929573,67.4386364 43.0874641,61.380689 43.0874641,53.9079545 C43.0874641,46.4352201 49.0929573,40.3772727 56.5013795,40.3772727 C63.9094095,40.3772727 69.9149027,46.4352201 69.9149027,53.9079545" id="Fill-113-Copy" fill="#FFFFFF" opacity="0.402052239"></path>
                            <path d="M94.6131794,42.9545455 C94.6131794,42.9545455 98.6586968,43.6274666 102.278162,47.25" id="Stroke-117-Copy" stroke="#FFFFFF" stroke-width="0.921488366" stroke-linecap="round" stroke-linejoin="round"></path>
                            <path d="M58.8432614,42.9545455 C58.8432614,42.9545455 62.7780323,43.8863102 66.0824114,47.6795455" id="Stroke-119-Copy" stroke="#FFFFFF" stroke-width="0.921488366" stroke-linecap="round" stroke-linejoin="round"></path>
                            <path d="M70.340735,66.15 C70.340735,66.15 73.4870563,69.0494318 78.8573822,66.15" id="Stroke-129-Copy" stroke="#FFFFFF" stroke-width="0.892499985" stroke-linecap="round" stroke-linejoin="round"></path>
                            <path d="M84.606119,56.5541818 L88.8644426,56.5541818" id="Line" stroke="#FFFFFF" stroke-width="0.892499985" stroke-linecap="square"></path>
                            <path d="M61.1853393,56.5541818 L65.4436629,56.5541818" id="Line-Copy" stroke="#FFFFFF" stroke-width="0.892499985" stroke-linecap="square"></path>
                        </g>
                    </g>
                </g>
            </g>
        </g>
    </g>
</svg>