<?xml version="1.0" encoding="UTF-8"?>
<svg width="180px" height="48px" viewBox="0 0 180 48" version="1.1" xmlns="http://www.w3.org/2000/svg" xmlns:xlink="http://www.w3.org/1999/xlink">
    <!-- Generator: Sketch 41.2 (35397) - http://www.bohemiancoding.com/sketch -->
    <title>Page 1</title>
    <desc>Created with Sketch.</desc>
    <defs>
        <polygon id="path-1" points="17.1592105 26.2253408 17.1592105 0.108608451 0.138484962 0.108608451 0.138484962 26.2253408"></polygon>
        <polygon id="path-3" points="0 0.00801126761 0 46.9858141 47.0221579 46.9858141 47.0221579 0.00801126761 2.75126491e-20 0.00801126761"></polygon>
    </defs>
    <g id="final-page" stroke="none" stroke-width="1" fill="none" fill-rule="evenodd">
        <g id="Onepager" transform="translate(-49.000000, -9335.000000)">
            <g id="Page-1" transform="translate(49.000000, 9335.000000)">
                <path d="M55.9425451,11.6099493 L59.4258158,11.6099493 L59.4258158,31.3771606 C59.4258158,33.565893 60.2872444,33.9603718 61.3645376,33.9603718 C61.6879962,33.9603718 61.9755902,33.9245408 61.9755902,33.9245408 L61.9755902,37.0097239 C61.9755902,37.0097239 61.4369436,37.0813859 60.8262293,37.0813859 C58.8513045,37.0813859 55.9428835,36.5432451 55.9428835,31.9869634 L55.9425451,11.6099493 Z" id="Fill-1" fill="#6D6E71"></path>
                <path d="M76.9130526,25.7447324 C76.804782,22.6237183 74.8660602,21.1174648 72.5321504,21.1174648 C69.8751203,21.1174648 67.7201955,22.7673803 67.2174135,25.7447324 L76.9130526,25.7447324 Z M72.603203,18.3547606 C77.7382782,18.3547606 80.4673759,22.1572394 80.4673759,26.8571831 C80.4673759,27.3233239 80.3601203,28.3637746 80.3601203,28.3637746 L67.1094812,28.3637746 C67.2891429,32.3457465 70.1254962,34.3546479 73.3573759,34.3546479 C76.4816617,34.3546479 78.7435038,32.2379155 78.7435038,32.2379155 L80.1801203,34.7849577 C80.1801203,34.7849577 77.4872256,37.368169 73.142188,37.368169 C67.4332782,37.368169 63.5189549,33.2421972 63.5189549,27.8614648 C63.5189549,22.0852394 67.4332782,18.3547606 72.603203,18.3547606 L72.603203,18.3547606 Z" id="Fill-3" fill="#6D6E71"></path>
                <path d="M88.7934925,34.5698028 C91.7381165,34.5698028 93.6409737,31.4852958 93.6409737,28.7942535 L93.6409737,28.2199437 L92.7436805,28.2199437 C90.1221767,28.2199437 85.3822895,28.3994366 85.3822895,31.6641127 C85.3822895,33.1348732 86.531312,34.5698028 88.7934925,34.5698028 M92.8154098,25.6015775 L93.6054474,25.6015775 L93.6054474,25.2787606 C93.6054474,22.3003944 91.9174398,21.2961127 89.6193947,21.2961127 C86.8185677,21.2961127 84.5563872,23.0538592 84.5563872,23.0538592 L83.1197707,20.5068169 C83.1197707,20.5068169 85.7416128,18.3542535 89.9066504,18.3542535 C94.5030789,18.3542535 97.0883797,20.8651268 97.0883797,25.4575775 L97.0883797,36.9373521 L93.8565,36.9373521 L93.8565,35.2154366 C93.8565,34.3906479 93.9285677,33.780507 93.9285677,33.780507 L93.8565,33.780507 C93.8565,33.780507 92.3843571,37.368 88.0396579,37.368 C84.9150338,37.368 81.8634925,35.4662535 81.8634925,31.8436056 C81.8628158,25.8523944 89.7628534,25.6015775 92.8154098,25.6015775" id="Fill-5" fill="#6D6E71"></path>
                <path d="M109.058211,34.3908845 C111.931105,34.3908845 114.30088,32.0229972 114.30088,27.8970254 C114.30088,23.9512225 112.182158,21.4041803 109.166481,21.4041803 C106.437045,21.4041803 103.923812,23.3052507 103.923812,27.9331944 C103.923812,31.1617014 105.719075,34.3908845 109.058211,34.3908845 L109.058211,34.3908845 Z M100.548474,18.7848 L103.74415,18.7848 L103.74415,20.3275606 C103.74415,21.0448563 103.672421,21.6549972 103.672421,21.6549972 L103.74415,21.6549972 C103.74415,21.6549972 105.288023,18.3551662 109.848586,18.3551662 C114.732271,18.3551662 117.820692,22.228969 117.820692,27.8618704 C117.820692,33.6374197 114.337421,37.3685746 109.597534,37.3685746 C105.611143,37.3685746 104.031406,34.3908845 104.031406,34.3908845 L103.959677,34.3908845 C103.959677,34.3908845 104.031406,35.0365183 104.031406,35.9694761 L104.031406,44.1132507 L100.548474,44.1132507 L100.548474,18.7848 Z" id="Fill-7" fill="#6D6E71"></path>
                <path d="M121.127312,21.8343211 L118.864793,21.8343211 L118.864793,19.0361239 L121.127312,19.0361239 L121.127312,18.1755042 C121.127312,12.1839549 125.651673,11.4308282 127.94938,11.4308282 C128.739756,11.4308282 129.278741,11.5383211 129.278741,11.5383211 L129.278741,14.5166873 C129.278741,14.5166873 128.919417,14.4446873 128.380432,14.4446873 C127.052086,14.4446873 124.57438,14.8746592 124.57438,18.2475042 L124.57438,19.036462 L128.883891,19.036462 L128.883891,21.8349972 L124.57438,21.8349972 L124.57438,36.9377577 L121.127312,36.9377577 L121.127312,21.8343211 Z" id="Fill-9" fill="#6D6E71"></path>
                <path d="M131.325293,18.7848 L134.70097,18.7848 L134.70097,21.9419831 C134.70097,22.6951099 134.628902,23.3052507 134.628902,23.3052507 L134.70097,23.3052507 C135.526534,20.6507155 137.645256,18.5694761 140.446083,18.5694761 C140.912662,18.5694761 145.480669,18.3551662 145.480669,18.3551662 L141.343376,22.0859831 C141.343376,22.0859831 140.876459,21.9778141 140.33815,21.9778141 C138.112173,21.9778141 136.064842,23.5564056 135.239278,26.2474479 C134.91582,27.2875606 134.808226,28.3996732 134.808226,29.5117859 L134.808226,36.9386028 L131.325293,36.9386028 L131.325293,18.7848 Z" id="Fill-11" fill="#6D6E71"></path>
                <path d="M152.071444,34.3545465 C155.518511,34.3545465 158.319677,31.6280113 158.319677,27.8258704 C158.319677,24.0585465 155.518511,21.3681803 152.071444,21.3681803 C148.660241,21.3681803 145.823549,24.0585465 145.823549,27.8258704 C145.823549,31.6283493 148.660241,34.3545465 152.071444,34.3545465 M152.071444,18.3546592 C157.493436,18.3546592 161.874677,22.336969 161.874677,27.8258704 C161.874677,33.3502648 157.494451,37.3684056 152.071444,37.3684056 C146.649451,37.3684056 142.268211,33.3506028 142.268211,27.8258704 C142.268211,22.336631 146.649451,18.3546592 152.071444,18.3546592" id="Fill-13" fill="#6D6E71"></path>
                <g id="Group-17" transform="translate(162.744361, 18.245746)">
                    <mask id="mask-2" fill="white">
                        <use xlink:href="#path-1"></use>
                    </mask>
                    <g id="Clip-16"></g>
                    <path d="M13.748109,9.2208338 C13.748109,4.48573521 11.4500639,3.12246761 8.61371053,3.12246761 C5.4532218,3.12246761 3.65795865,5.4180169 3.65795865,9.11367887 C3.65795865,12.8803268 5.66874812,15.4632 8.93683083,15.4632 C11.4500639,15.4632 13.748109,13.9566085 13.748109,9.2208338 M7.93092857,23.2124958 C11.0907406,23.2124958 13.676718,21.8130592 13.676718,18.1180732 L13.676718,16.7909746 C13.676718,16.2166648 13.7122444,15.642693 13.7122444,15.642693 L13.6408534,15.642693 C12.5632218,17.4359324 10.8755526,18.4763831 8.25472556,18.4763831 C3.1913797,18.4763831 0.138484962,14.4227493 0.138484962,9.18466479 C0.138484962,3.98308732 3.04758271,0.108608451 8.07472556,0.108608451 C12.4556278,0.108608451 13.784312,2.79897465 13.784312,2.79897465 L13.8560414,2.79897465 C13.8560414,2.79897465 13.8198383,2.54815775 13.8198383,2.22534085 L13.8198383,0.538580282 L17.159312,0.538580282 L17.159312,17.9382423 C17.159312,23.9297915 12.5990865,26.2253408 8.00299624,26.2253408 C5.81254511,26.2253408 3.54968797,25.615538 1.79028947,24.7187493 L2.93998872,21.9918761 C2.93998872,21.9922141 5.20149248,23.2124958 7.93092857,23.2124958" id="Fill-15" fill="#6D6E71" mask="url(#mask-2)"></path>
                </g>
                <polygon id="Fill-18" fill="#6D6E71" points="112.614496 41.1979944 110.777955 41.1979944 110.777955 40.545938 115.202504 40.545938 115.202504 41.1979944 113.365962 41.1979944 113.365962 45.8989521 112.614496 45.8989521"></polygon>
                <polygon id="Fill-20" fill="#6D6E71" points="115.969195 40.5460056 119.080624 40.5460056 119.080624 41.198062 116.720662 41.198062 116.720662 42.8736676 118.640774 42.8736676 118.640774 43.5253859 116.720662 43.5253859 116.720662 45.2466254 119.209872 45.2466254 119.209872 45.8990197 115.969195 45.8990197"></polygon>
                <path d="M122.640293,40.454907 C123.930744,40.454907 124.590857,41.1600338 124.590857,41.1600338 L124.218677,41.7208225 C124.218677,41.7208225 123.596797,41.1373859 122.670744,41.1373859 C121.471647,41.1373859 120.689729,42.0473577 120.689729,43.1844845 C120.689729,44.3293859 121.486534,45.2998648 122.678188,45.2998648 C123.687812,45.2998648 124.333038,44.6025127 124.333038,44.6025127 L124.734992,45.1403155 C124.734992,45.1403155 123.99909,45.9901183 122.655519,45.9901183 C121.046684,45.9901183 119.915594,44.7613859 119.915594,43.1922592 C119.915594,41.6376676 121.084241,40.454907 122.640293,40.454907" id="Fill-22" fill="#6D6E71"></path>
                <polygon id="Fill-24" fill="#6D6E71" points="125.759741 40.5460056 126.510868 40.5460056 126.510868 42.8963155 129.288688 42.8963155 129.288688 40.5460056 130.040154 40.5460056 130.040154 45.8990197 129.288688 45.8990197 129.288688 43.5483718 126.510868 43.5483718 126.510868 45.8990197 125.759741 45.8990197"></polygon>
                <path d="M131.497105,40.5460056 L132.241128,40.5460056 L134.624436,44.0260056 C134.821692,44.3143437 135.071729,44.7997521 135.071729,44.7997521 L135.087293,44.7997521 C135.087293,44.7997521 135.033835,44.3217803 135.033835,44.0260056 L135.033835,40.5460056 L135.785639,40.5460056 L135.785639,45.8990197 L135.049398,45.8990197 L132.658647,42.4261183 C132.461391,42.1303437 132.210338,41.6452732 132.210338,41.6452732 L132.195451,41.6452732 C132.195451,41.6452732 132.249248,42.122907 132.249248,42.4261183 L132.249248,45.8990197 L131.497105,45.8990197 L131.497105,40.5460056 Z" id="Fill-26" fill="#6D6E71"></path>
                <path d="M139.632936,45.2998648 C140.725793,45.2998648 141.606508,44.390231 141.606508,43.1844845 C141.606508,42.0165972 140.725793,41.1373859 139.632936,41.1373859 C138.540417,41.1373859 137.652598,42.0165972 137.652598,43.1844845 C137.652598,44.390231 138.540417,45.2998648 139.632936,45.2998648 M139.632936,40.454907 C141.181545,40.454907 142.380643,41.6454423 142.380643,43.1844845 C142.380643,44.7613859 141.181545,45.9901183 139.632936,45.9901183 C138.085004,45.9901183 136.878801,44.7613859 136.878801,43.1844845 C136.878801,41.6454423 138.085004,40.454907 139.632936,40.454907" id="Fill-28" fill="#6D6E71"></path>
                <polygon id="Fill-30" fill="#6D6E71" points="143.473365 40.5460056 144.225508 40.5460056 144.225508 45.2466254 146.623703 45.2466254 146.623703 45.8990197 143.473365 45.8990197"></polygon>
                <path d="M149.742677,45.2998648 C150.835534,45.2998648 151.716248,44.390231 151.716248,43.1844845 C151.716248,42.0165972 150.835534,41.1373859 149.742677,41.1373859 C148.64982,41.1373859 147.762,42.0165972 147.762,43.1844845 C147.762,44.390231 148.64982,45.2998648 149.742677,45.2998648 M149.742677,40.454907 C151.290609,40.454907 152.490045,41.6454423 152.490045,43.1844845 C152.490045,44.7613859 151.290609,45.9901183 149.742677,45.9901183 C148.194744,45.9901183 146.987865,44.7613859 146.987865,43.1844845 C146.987865,41.6454423 148.194744,40.454907 149.742677,40.454907" id="Fill-32" fill="#6D6E71"></path>
                <path d="M155.958462,40.454907 C157.241132,40.454907 157.909703,41.0991887 157.909703,41.0991887 L157.529741,41.6603155 C157.529741,41.6603155 156.929853,41.1373859 156.019703,41.1373859 C154.759365,41.1373859 154.000793,42.0544563 154.000793,43.1996958 C154.000793,44.4433014 154.851056,45.2998648 155.974026,45.2998648 C156.900079,45.2998648 157.491508,44.6325972 157.491508,44.6325972 L157.491508,43.8591887 L156.618575,43.8591887 L156.618575,43.2071324 L158.174628,43.2071324 L158.174628,45.8991887 L157.514853,45.8991887 L157.514853,45.5655549 C157.514853,45.4513014 157.522297,45.3377239 157.522297,45.3377239 L157.507071,45.3377239 C157.507071,45.3377239 156.92241,45.9901183 155.860004,45.9901183 C154.417635,45.9901183 153.22632,44.8526535 153.22632,43.214569 C153.22632,41.6677521 154.395643,40.454907 155.958462,40.454907" id="Fill-34" fill="#6D6E71"></path>
                <path d="M160.48218,43.6318648 L158.683534,40.5460056 L159.53312,40.5460056 L160.527857,42.3047662 C160.694323,42.6005408 160.854023,42.9794704 160.854023,42.9794704 L160.86891,42.9794704 C160.86891,42.9794704 161.028609,42.6083155 161.195752,42.3047662 L162.174248,40.5460056 L163.024173,40.5460056 L161.233308,43.6318648 L161.233308,45.8990197 L160.48218,45.8990197 L160.48218,43.6318648 Z" id="Fill-36" fill="#6D6E71"></path>
                <path d="M47.6988496,24.3342085 C47.6988496,11.2687437 37.0964436,0.676292958 24.0186992,0.676292958 C10.9406165,0.676292958 0.338210526,11.2687437 0.338210526,24.3342085 C0.338210526,37.3996732 10.9406165,47.9921239 24.0186992,47.9921239 C37.0964436,47.9921239 47.6988496,37.3996732 47.6988496,24.3342085" id="Fill-38" fill="#19AD4A"></path>
                <g id="Group-42" transform="translate(0.000000, 0.330254)">
                    <mask id="mask-4" fill="white">
                        <use xlink:href="#path-3"></use>
                    </mask>
                    <g id="Clip-41"></g>
                    <path d="M47.0221579,23.4969127 C47.0221579,10.5244056 36.4958797,0.00801126761 23.5111805,0.00801126761 C10.5264812,0.00801126761 -0.000135338346,10.5244056 -0.000135338346,23.4969127 C-0.000135338346,36.4694197 10.5264812,46.9858141 23.5111805,46.9858141 C36.4958797,46.9858141 47.0221579,36.4694197 47.0221579,23.4969127" id="Fill-40" fill="#67BE61" mask="url(#mask-4)"></path>
                </g>
                <path d="M38.8678195,5.97802817 C36.5724812,9.04428169 34.2108271,13.0972394 31.5365414,15.2491268 C31.4468797,15.2345915 31.3575564,15.2264789 31.2655263,15.2247887 C30.2433835,15.2001127 29.3809398,15.9569577 29.2513534,16.9514366 C27.3376692,17.1613521 25.3563158,17.2390986 23.2020677,17.1880563 C21.0762406,17.1380282 18.8397744,16.9669859 16.1702256,16.6489014 C15.8680827,16.3595493 15.3663158,16.3595493 14.9156391,16.3595493 C14.8340977,16.3595493 14.7545865,16.3595493 14.677782,16.3581972 C13.5859398,16.332169 12.8442857,16.9426479 12.8182331,18.0334648 C12.7921805,19.1249577 13.6596992,20.0329014 14.7518797,20.0585915 C15.2231955,20.0704225 15.6779323,19.9149296 16.0419925,19.6218592 C18.2358271,19.4190423 20.4631579,19.0404507 22.6194361,18.6743662 C24.8142857,18.3018592 27.082218,17.9168451 29.3075188,17.7187606 C29.366391,17.9381408 29.332218,17.9590986 29.4621429,18.1450141 C28.5283083,19.0144225 27.2676316,20.0291831 26.3561278,20.8945352 C22.4066165,24.6449577 18.773797,28.5887324 14.3732707,31.3426479 C13.3220301,31.3652958 12.4609398,32.2144225 12.4362406,33.2744789 C12.410188,34.3656338 13.2777068,35.2745915 14.3695489,35.3002817 C15.4201128,35.3246197 16.2930451,34.5427606 16.3894737,33.5077183 C19.5015789,29.3604507 23.5160526,25.3700282 27.3992481,21.5104225 C28.2826692,20.6325634 29.1945113,19.7263099 30.0840226,18.8288451 C30.2552256,18.948507 30.2457519,18.9802817 30.4443609,19.0411268 C30.3059774,19.8912676 30.0914662,20.8850704 29.9645865,21.7186479 C29.4364286,25.2013521 29.1738722,28.728 28.0136842,32.2455211 C27.6956391,32.5980845 27.5153008,33.048 27.504812,33.5242817 C27.4790977,34.6154366 28.3459398,35.5230423 29.4384586,35.5490704 C30.5319925,35.5754366 31.4428195,34.7097465 31.4685338,33.6179155 C31.4803759,33.1433239 31.3223684,32.6849577 31.0229323,32.3181972 C30.5333459,28.7053521 30.8804887,25.0397746 31.2174812,21.4935211 C31.2902256,20.7336338 31.3633083,19.9517746 31.4296241,19.1766761 C32.4016917,19.0722254 33.1765038,18.2531831 33.1995113,17.2546479 C33.201203,17.2245634 33.201203,17.1927887 33.201203,17.1572958 C33.5923308,16.7310423 33.9824436,16.296338 34.361391,15.8751549 C36.3684586,13.643493 42.0042857,11.7180845 44.3195865,12.1483944 C43.2074436,10.0610704 40.2706015,6.94309859 38.8678195,5.97802817" id="Fill-43" fill="#19AD4A"></path>
                <path d="M27.1218722,22.0248 C25.8689774,23.2700958 24.6079624,24.5302648 23.3716466,25.804631 C25.7092782,26.285307 27.7082256,27.6877859 28.9722857,29.6135324 C29.3508947,27.916293 29.5880752,26.2204056 29.8147669,24.5309408 C29.2906692,23.3775887 28.3192782,22.468969 27.1218722,22.0248 M24.0405564,18.4751662 C23.6453684,18.5410817 23.2508571,18.6080113 22.8587143,18.6746028 C21.4914586,18.9064901 20.0944286,19.1437859 18.6960451,19.3381521 C20.3058947,20.933307 21.3033383,23.1426592 21.3033383,25.5845746 L21.3033383,25.6298704 C21.3943534,25.6268282 21.4846917,25.6220958 21.5760451,25.6220958 C21.619015,25.6220958 21.6609699,25.6220958 21.7036015,25.6234479 C23.0437895,24.3548282 24.3673985,23.0392225 25.7194286,21.7344338 C25.631797,21.7297014 25.5431504,21.7269972 25.452812,21.7269972 C25.4037519,21.7269972 25.3546917,21.7286873 25.3052932,21.7303775 C25.3059699,21.7226028 25.3052932,21.7134761 25.3052932,21.7057014 C25.3052932,20.4597296 24.8261955,19.324969 24.0405564,18.4751662" id="Fill-45" fill="#BBDFBD"></path>
                <path d="M30.0367895,22.8777803 L30.0367895,22.8781183 L30.0367895,25.1233014 C29.9755489,24.9194704 29.9011128,24.722062 29.8148346,24.5304 C29.5881429,26.2195268 29.3516391,27.9164282 28.9723534,29.6136676 C29.4301353,30.3106817 29.790812,31.0766535 30.0367895,31.8919775 L30.0367895,22.8777803 Z M25.7194962,21.734231 C24.3681429,23.0390197 23.0438571,24.3539493 21.7036692,25.6232451 C22.2741203,25.6313577 22.8320526,25.6928789 23.3717143,25.8037521 C24.6080301,24.5297239 25.8697218,23.270569 27.1219398,22.0245972 C26.6814135,21.8616676 26.2104361,21.7605972 25.7194962,21.734231 L25.7194962,21.734231 Z M21.679985,17.1201465 L14.9178045,17.1204845 C16.363218,17.5355831 17.657391,18.3089915 18.6957744,19.3379493 C20.0944962,19.1435831 21.4915263,18.9066254 22.8594586,18.6744 C23.2509248,18.6084845 23.6450977,18.5412169 24.0402857,18.4749634 C23.4627293,17.8496113 22.7200602,17.3784 21.8809624,17.1299493 C21.8139699,17.1272451 21.7473158,17.1235268 21.679985,17.1201465 L21.679985,17.1201465 Z M30.0367895,17.1201465 L27.5076541,17.1201465 C27.5059624,17.1204845 27.5019023,17.1204845 27.4988571,17.1204845 L30.0367895,17.1204845 L30.0367895,19.118231 L30.0367895,17.1201465 Z" id="Fill-47" fill="#9DD4B5"></path>
                <path d="M30.0367895,19.1181972 C29.2393083,19.9206761 28.4276165,20.7268732 27.6392707,21.5104225 C27.467391,21.6814648 27.2944962,21.8535211 27.1219398,22.0249014 C28.3200226,22.4690704 29.2907368,23.3776901 29.8148346,24.5310423 C29.8875789,23.9790423 29.9606617,23.4280563 30.0367895,22.8784225 L30.0367895,19.1181972 Z M29.5478797,17.7180845 C27.7191203,17.8816901 25.8626165,18.1700282 24.0402857,18.4752676 C24.8262632,19.3254085 25.3053609,20.459831 25.3053609,21.7054648 C25.3053609,21.7135775 25.3060376,21.7227042 25.3053609,21.7304789 C25.3550977,21.7287887 25.4038195,21.7270986 25.4535564,21.7270986 C25.543218,21.7270986 25.6315263,21.7298028 25.7194962,21.7341972 C26.0104737,21.4539718 26.3024662,21.1734085 26.5961504,20.8945352 C27.5076541,20.0291831 28.7693459,19.0140845 29.7018271,18.1460282 C29.5725789,17.9580845 29.6067519,17.9381408 29.5478797,17.7180845 L29.5478797,17.7180845 Z" id="Fill-49" fill="#E4F1E3"></path>
                <path d="M27.4988571,17.1204169 C26.5907368,17.1751775 25.659609,17.2025577 24.6973534,17.2025577 C24.2855865,17.2025577 23.8677293,17.1981634 23.4424286,17.1883606 C22.9298346,17.1758535 22.4104737,17.1565859 21.8809624,17.1298817 C22.7200602,17.3783324 23.4627293,17.8495437 24.0402857,18.4748958 C25.8626165,18.1699944 27.7191203,17.8816563 29.5478797,17.7180507 C29.6067519,17.938107 29.5725789,17.9590648 29.7018271,18.1449803 C28.7693459,19.0147268 27.5076541,20.0291493 26.5961504,20.8945014 C26.3024662,21.1730366 26.0104737,21.4529239 25.7194962,21.7341634 C26.2104361,21.7605296 26.6810752,21.8616 27.1219398,22.0245296 C27.2944962,21.8528113 27.467391,21.6807549 27.6392707,21.5103887 C28.4276165,20.7268394 29.2393083,19.9206423 30.0367895,19.1181634 L30.0367895,17.1204169 L27.4988571,17.1204169 Z" id="Fill-51" fill="#D6ECE0"></path>
                <path d="M38.3014962,5.4624 C36.0782256,8.58206197 33.417812,12.4007662 30.7942782,14.6155268 C30.7059699,14.6033577 30.6149549,14.5969352 30.5246165,14.5969352 C29.5011203,14.5969352 28.6576241,15.3737239 28.5510451,16.370569 C26.6424361,16.6254423 24.6644662,16.7501746 22.509203,16.7501746 C20.3826992,16.7501746 18.1428496,16.6318648 15.4658571,16.3773296 C15.1011203,16.0440338 14.6298045,15.8614986 14.1290526,15.8614986 C13.0365338,15.8614986 12.1470226,16.7481465 12.1470226,17.8399775 C12.1470226,18.9318085 13.0358571,19.8191324 14.1290526,19.8191324 C14.6007068,19.8191324 15.0510451,19.6534986 15.409015,19.3523155 C17.5970977,19.0971042 19.8139398,18.6661183 21.9607444,18.2496676 C24.1461203,17.8254423 26.4049173,17.3863437 28.6251429,17.1365408 C28.6890902,17.354907 28.7895789,17.5597521 28.9235639,17.7426254 C28.0103684,18.6340056 27.0924361,19.5497239 26.2012331,20.4353577 C22.3413835,24.278062 18.3509323,28.2515831 14.0173985,31.1089352 C12.9664962,31.1562592 12.1267218,32.0246535 12.1267218,33.0857239 C12.1267218,34.1768789 13.0148797,35.0648789 14.1077368,35.0648789 C15.1579624,35.0648789 16.0122857,34.2624 16.0846917,33.2260056 C19.096985,29.006738 23.0163835,24.9226817 26.8075489,20.9728225 C27.6699925,20.0743437 28.5601805,19.1471324 29.4283759,18.2290479 C29.6029624,18.3453296 29.7934511,18.4328789 29.9937519,18.4883155 C29.8760075,19.3418366 29.7653684,20.2051606 29.6587895,21.0417803 C29.213188,24.5349634 28.7516842,28.1474704 27.6750677,31.6913577 C27.3658195,32.0503437 27.1963083,32.5049915 27.1963083,32.9802592 C27.1963083,34.0720901 28.0851429,34.9600901 29.178,34.9600901 C30.2725489,34.9600901 31.1620602,34.0724282 31.1620602,32.9802592 C31.1620602,32.5056676 30.9939023,32.0503437 30.6860075,31.6916958 C30.1108195,28.0906817 30.3720226,24.4176676 30.6240902,20.8646535 C30.6789023,20.1037521 30.734391,19.3195268 30.7824361,18.5437521 C31.7514586,18.4163155 32.5073233,17.5800338 32.5073233,16.5808225 C32.5073233,16.550738 32.5059699,16.5172732 32.5042782,16.4824563 C32.8859323,16.0470761 33.2662331,15.6032451 33.6343534,15.1732732 C35.5879624,12.8956394 39.2008195,10.958062 42.1826617,9.14318873 C41.0671353,7.80763944 39.6420226,6.40144225 38.3014962,5.4624" id="Fill-53" fill="#FEFEFE"></path>
            </g>
        </g>
    </g>
</svg>