<?xml version="1.0" encoding="UTF-8"?>
<svg width="15px" height="20px" viewBox="0 0 15 20" version="1.1" xmlns="http://www.w3.org/2000/svg" xmlns:xlink="http://www.w3.org/1999/xlink">
    <!-- Generator: Sketch 41.2 (35397) - http://www.bohemiancoding.com/sketch -->
    <title>45944</title>
    <desc>Created with Sketch.</desc>
    <defs></defs>
    <g id="Page-1" stroke="none" stroke-width="1" fill="none" fill-rule="evenodd">
        <g id="45944" fill="#756F6F">
            <path d="M14.881555,7.46530831 C14.881555,13.1369437 10.1599464,14.2006434 7.93935657,19.6510992 C7.75892761,20.0939946 7.13538874,20.0917426 6.95490617,19.6489544 C4.95174263,14.7346917 0.915335121,13.3870777 0.1430563,9.0091689 C-0.617319035,4.69930295 2.36670241,0.477533512 6.72369973,0.0656836461 C11.1547989,-0.353190349 14.881555,3.12085791 14.881555,7.46530831 Z M11.9188609,7.46530831 C11.9188609,5.05815834 9.91707164,3.10676907 7.44761394,3.10676907 C4.97815624,3.10676907 2.97636694,5.05815834 2.97636694,7.46530831 C2.97636694,9.87251782 4.97815624,11.8238475 7.44761394,11.8238475 C9.91707164,11.8238475 11.9188609,9.87251782 11.9188609,7.46530831 Z" id="Shape"></path>
        </g>
    </g>
</svg>