<?xml version="1.0" encoding="UTF-8"?>
<svg width="299px" height="179px" viewBox="0 0 299 179" version="1.1" xmlns="http://www.w3.org/2000/svg" xmlns:xlink="http://www.w3.org/1999/xlink">
    <!-- Generator: Sketch 41.2 (35397) - http://www.bohemiancoding.com/sketch -->
    <title>Group 28</title>
    <desc>Created with Sketch.</desc>
    <defs></defs>
    <g id="homepage" stroke="none" stroke-width="1" fill="none" fill-rule="evenodd">
        <g id="Desktop-HD-Copy-8" transform="translate(-891.000000, -6001.000000)" stroke="#082674">
            <g id="Group-28" transform="translate(893.000000, 6002.000000)">
                <path d="M77.4669682,38.9312567 C25.7906215,62.048696 -6.76776392,117.090419 1.19458828,176 L261,140.945123 C253.037949,82.035241 207.033415,37.5940036 151.070668,29" id="Stroke-1" stroke-width="3" fill="#FFFFFF"></path>
                <path d="M110.634214,8.3156619 C124.639128,6.44127239 137.683564,14.529005 142.492917,27.0838725 C145.351328,27.3309293 148.188234,27.6689438 151,28.0973156 C146.390255,9.9724133 128.680946,-2.22132502 109.54743,0.339299987 C90.4136102,2.90022519 76.6025485,19.3128409 77.0087294,38 C79.6051375,36.8478688 82.2500087,35.7761887 84.9397082,34.7867608 C86.2167097,21.4174765 96.6292997,10.1900514 110.634214,8.3156619 Z" id="Stroke-3" stroke-width="2"></path>
                <path d="M142,27.4806245 C132.551747,26.6756469 122.866808,26.8684665 113.074175,28.1601815 C103.281542,29.4521895 93.8914852,31.7756941 85,35" id="Stroke-5" stroke-width="3"></path>
                <path d="M169,53 C169,53 208.853738,66.3308043 232,122" id="Stroke-7" stroke-width="2"></path>
                <path d="M103.89588,162 L290.184406,162 C292.832983,162 295,164.24 295,166.977778 L295,171.022222 C295,173.76 292.832983,176 290.184406,176 L21.8155935,176 C19.1670171,176 17,175.579378 17,175.065111 L17,174.129911" id="Stroke-9" stroke-width="2"></path>
                <path d="M232,145 L232,153.5 C232,158.175119 227.926251,162 222.947225,162 L140.052775,162 C135.073749,162 131,161.192186 131,160.204593 L131,158.409186" id="Stroke-11" stroke-width="2" fill="#F4D4A0"></path>
                <path d="M270,144.943724 C270,144.943724 286.434116,150.761486 293.129496,135.089935 C299.824877,119.418384 293.738167,116.225607 285.825445,102.45182 C277.912722,88.6780341 283.390761,87.4725301 290.086141,80.2395066 C296.781522,73.0064831 296.781522,62.0620144 294.955509,60" id="Stroke-13" stroke-width="2"></path>
                <path d="M277.677167,73.9978942 C277.677167,73.9978942 285.574127,74.5033781 284.966669,59.8509456 C284.35921,45.1988131 270.995124,50.5020439 266.135456,35.5508209 C261.275789,20.599598 273.458368,9.19996171 275.567768,8" id="Stroke-15" stroke-width="2"></path>
            </g>
        </g>
    </g>
</svg>