<?xml version="1.0" encoding="UTF-8"?>
<svg width="66px" height="127px" viewBox="0 0 66 127" version="1.1" xmlns="http://www.w3.org/2000/svg" xmlns:xlink="http://www.w3.org/1999/xlink">
    <!-- Generator: Sketch 41.2 (35397) - http://www.bohemiancoding.com/sketch -->
    <title>Page 1</title>
    <desc>Created with Sketch.</desc>
    <defs></defs>
    <g id="homepage" stroke="none" stroke-width="1" fill="none" fill-rule="evenodd">
        <g id="Desktop-HD-Copy-8" transform="translate(-957.000000, -3844.000000)">
            <g id="Page-1" transform="translate(958.000000, 3845.000000)">
                <path d="M34.5080801,110.880823 L33.0808848,116.689868 C32.9039174,117.410441 32.1510497,118 31.4078964,118 L19.2846645,118 C18.5415112,118 17.9607537,117.393606 17.9942043,116.652449 L19.3741105,85.9999324 C19.4075611,85.2587746 19.272109,85.2372745 19.0731467,85.9520833 L17.9197882,90.0971143 C17.7209175,90.8120146 16.9500873,91.3968166 16.206934,91.3968166 L10.8397159,91.3968166 C10.0965626,91.3968166 9.78808389,90.8685552 10.1542076,90.2230041 L19.8216154,73.173904 C20.1876475,72.5282614 21.0642366,72.1913964 21.7694486,72.425244 C21.7694486,72.425244 28.8622597,74.7775349 47.8779656,72 L58.8328092,90.2399297 C59.2148793,90.8762403 58.9195975,91.3968166 58.1764442,91.3968166 L52.8091345,91.3968166 C52.0659812,91.3968166 51.2952426,90.8120146 51.0963719,90.0971143 L49.9430134,85.9520833 C49.7440511,85.2372745 49.608599,85.2587746 49.6420496,85.9999324 L51.0219558,116.652449 C51.0554064,117.393606 50.4746489,118 49.7314956,118 L37.6082637,118 C36.8651104,118 36.1122427,117.410441 35.9352753,116.689868 L34.5080801,110.880823 Z" id="Stroke-1" stroke="#082674"></path>
                <path d="M22.0462471,120 C21.2832401,120 20.0347089,120.008172 19.271796,120.018096 C19.271796,120.018096 14.3698829,120.081974 14,125 L28.6127744,125 C29.3757814,125 30,124.446696 30,123.770473 L30,121.229527 C30,120.553304 29.3757814,120 28.6127744,120 L22.0462471,120 Z" id="Stroke-3" stroke="#082674"></path>
                <path d="M46.9537529,120 C47.7167599,120 48.9652911,120.008172 49.728204,120.018096 C49.728204,120.018096 54.6301171,120.081974 55,125 L40.3872256,125 C39.6242186,125 39,124.446696 39,123.770473 L39,121.229527 C39,120.553304 39.6242186,120 40.3872256,120 L46.9537529,120 Z" id="Stroke-5" stroke="#082674"></path>
                <path d="M19,100 C19,100 38.7692145,95.8093375 51,99.5601975" id="Stroke-7" stroke="#082674"></path>
                <path d="M33,87.5 C33,88.3284868 32.3284164,89 31.5000453,89 C30.6715836,89 30,88.3284868 30,87.5 C30,86.6715132 30.6715836,86 31.5000453,86 C32.3284164,86 33,86.6715132 33,87.5 Z" id="Stroke-9" stroke="#082674"></path>
                <path d="M40,87.5 C40,88.3284868 39.3284164,89 38.5000453,89 C37.6715836,89 37,88.3284868 37,87.5 C37,86.6715132 37.6715836,86 38.5000453,86 C39.3284164,86 40,86.6715132 40,87.5 Z" id="Stroke-11" stroke="#082674"></path>
                <path d="M31.9066213,83.0605713 C30.1547883,84.2006158 29,86.150136 29,88.3639674 C29,91.8786775 42,91.8786775 42,88.3639674 C42,86.150136 40.8452117,84.2006158 39.0933787,83.0605713 L38.9688643,82.9814578 C37.9649441,82.3600566 36.7755379,82 35.5,82 C34.2382358,82 33.0607668,82.352415 32.0638253,82.9614996 L31.9066213,83.0605713 Z" id="Stroke-13" stroke="#082674"></path>
                <path d="M39.461406,83 L39.5,80 L39,80 L39,82.8196794 C39.0654232,82.8438057 39.1302726,82.8682658 39.1946915,82.8932268 L39.461406,83 Z" id="Stroke-15" stroke="#082674"></path>
                <path d="M32.5,80 L32,80 L32,83 L32.2543759,82.8980627 C32.3354376,82.8667038 32.4173601,82.8360139 32.5,82.805993 L32.5,80 Z" id="Stroke-17" stroke="#082674"></path>
                <path d="M40,79.5 C40,79.7761414 39.7761649,80 39.5000526,80 C39.2238351,80 39,79.7761414 39,79.5 C39,79.2238586 39.2238351,79 39.5000526,79 C39.7761649,79 40,79.2238586 40,79.5 Z" id="Stroke-19" stroke="#082674"></path>
                <path d="M32,79.5 C32,79.7761414 31.7761649,80 31.5000526,80 C31.2238351,80 31,79.7761414 31,79.5 C31,79.2238586 31.2238351,79 31.5000526,79 C31.7761649,79 32,79.2238586 32,79.5 Z" id="Stroke-21" stroke="#082674"></path>
                <path d="M33,61 C33,61 34.2433631,63.25 36,61" id="Stroke-23" stroke="#082674"></path>
                <path d="M40,48.5 C40,49.3284003 39.7761748,50 39.499947,50 C39.2238252,50 39,49.3284003 39,48.5 C39,47.6715997 39.2238252,47 39.499947,47 C39.7761748,47 40,47.6715997 40,48.5 Z" id="Stroke-25" stroke="#082674"></path>
                <path d="M28,48.5 C28,49.3284003 27.7761748,50 27.499947,50 C27.2238252,50 27,49.3284003 27,48.5 C27,47.6715997 27.2238252,47 27.499947,47 C27.7761748,47 28,47.6715997 28,48.5 Z" id="Stroke-27" stroke="#082674"></path>
                <path d="M18,55.7987304 C18,64.7464831 25.1633853,72 33.9999541,72 C42.8365228,72 50,64.7464831 50,55.7987304 L50,44 L18,44 L18,55.7987304 Z" id="Stroke-29" stroke="#082674"></path>
                <path d="M49.0788307,44.1305075 L53.8164247,44.1305075 L53.8164247,66 C53.8164247,66 76.7294692,34.9090972 53.8164247,8.86848777 C53.8164247,8.86848777 34.7223422,-10.2688803 10.8029864,7.68126199 C10.8029864,7.68126199 -14.8752311,28.4294807 12.9464912,65.9812087 L12.8768207,44.1305075 L17.391942,44.1305075 L49.0788307,44.1305075 Z" id="Stroke-31" stroke="#082674"></path>
                <path d="M13,64 L20,64" id="Stroke-33" stroke="#082674"></path>
                <path d="M47.4807976,64 L54,64" id="Stroke-35" stroke="#082674"></path>
                <polygon id="Stroke-37" stroke="#082674" points="32 49 36 49 36 48 32 48"></polygon>
                <path d="M32,47.5 C32,52.746744 27.746744,57 22.5,57 C17.253256,57 13,52.746744 13,47.5 C13,42.253256 17.253256,38 22.5,38 C27.746744,38 32,42.253256 32,47.5 Z" id="Stroke-39" stroke="#082674"></path>
                <path d="M55,47.5 C55,52.746744 50.7466522,57 45.5,57 C40.253256,57 36,52.746744 36,47.5 C36,42.253256 40.253256,38 45.5,38 C50.7466522,38 55,42.253256 55,47.5 Z" id="Stroke-40" stroke="#082674"></path>
                <g id="Group-43" transform="translate(13.000000, 38.000000)">
                    <path d="M18.9454572,9.47539135 C18.9454572,14.6970115 14.7125678,18.929901 9.4909476,18.929901 C4.2693274,18.929901 0.0364379808,14.6970115 0.0364379808,9.47539135 C0.0364379808,4.25377115 4.2693274,0.0208817308 9.4909476,0.0208817308 C14.7125678,0.0208817308 18.9454572,4.25377115 18.9454572,9.47539135" id="Fill-41" fill-opacity="0.45" fill="#F5A623"></path>
                    <path d="M18.9454572,9.47539135 C18.9454572,14.6970115 14.7125678,18.929901 9.4909476,18.929901 C4.2693274,18.929901 0.0364379808,14.6970115 0.0364379808,9.47539135 C0.0364379808,4.25377115 4.2693274,0.0208817308 9.4909476,0.0208817308 C14.7125678,0.0208817308 18.9454572,4.25377115 18.9454572,9.47539135 Z" id="Stroke-42" stroke="#082674"></path>
                </g>
                <g id="Group-46" transform="translate(36.000000, 38.000000)">
                    <path d="M18.9957981,9.47539135 C18.9957981,14.6970115 14.7628173,18.929901 9.54128846,18.929901 C4.31966827,18.929901 0.0867788462,14.6970115 0.0867788462,9.47539135 C0.0867788462,4.25377115 4.31966827,0.0208817308 9.54128846,0.0208817308 C14.7628173,0.0208817308 18.9957981,4.25377115 18.9957981,9.47539135" id="Fill-44" fill-opacity="0.45" fill="#F5A623"></path>
                    <path d="M18.9957981,9.47539135 C18.9957981,14.6970115 14.7628173,18.929901 9.54128846,18.929901 C4.31966827,18.929901 0.0867788462,14.6970115 0.0867788462,9.47539135 C0.0867788462,4.25377115 4.31966827,0.0208817308 9.54128846,0.0208817308 C14.7628173,0.0208817308 18.9957981,4.25377115 18.9957981,9.47539135 Z" id="Stroke-45" stroke="#082674"></path>
                </g>
                <path d="M47,40 C47,40 50.5123745,41.1249847 52,45" id="Stroke-47" stroke="#FFFFFF" stroke-linecap="round" stroke-linejoin="round"></path>
                <path d="M15,45 C15,45 16.1249847,41.4876255 20,40" id="Stroke-48" stroke="#FFFFFF" stroke-linecap="round" stroke-linejoin="round"></path>
                <polygon id="Fill-49" fill="#082674" points="52 60 51 59.0000389 52 58 53 59.0000389"></polygon>
                <polygon id="Stroke-50" stroke="#082674" points="52 61 50 59 52 57 54 59"></polygon>
                <path d="M52,57 L52,55" id="Stroke-51" stroke="#082674"></path>
                <polygon id="Fill-52" fill="#082674" points="16 60 15 59.0000389 16 58 17 59.0000389"></polygon>
                <polygon id="Stroke-53" stroke="#082674" points="16 61 14 59 16 57 18 59"></polygon>
                <path d="M16,57 L16,55" id="Stroke-54" stroke="#082674"></path>
                <path d="M37,58.5 C37,58.7761047 36.7760681,59 36.4999182,59 C36.2237682,59 36,58.7761047 36,58.5 C36,58.2238953 36.2237682,58 36.4999182,58 C36.7760681,58 37,58.2238953 37,58.5" id="Fill-55" fill="#082674"></path>
            </g>
        </g>
    </g>
</svg>