<?xml version="1.0" encoding="UTF-8"?>
<svg width="111px" height="47px" viewBox="0 0 111 47" version="1.1" xmlns="http://www.w3.org/2000/svg" xmlns:xlink="http://www.w3.org/1999/xlink">
    <!-- Generator: Sketch 41.2 (35397) - http://www.bohemiancoding.com/sketch -->
    <title>Open Nepal-02 (1)</title>
    <desc>Created with Sketch.</desc>
    <defs></defs>
    <g id="rough" stroke="none" stroke-width="1" fill="none" fill-rule="evenodd">
        <g id="Artboard-Copy-4" transform="translate(-6.000000, -8.000000)">
            <g id="Open-Nepal-02-(1)" transform="translate(6.000000, 8.000000)">
                <g id="Group">
                    <g id="Shape">
                        <polygon fill="#136AB3" points="0 0 19.1102609 5.44486957 19.1102609 40.1509565 0 46.9606957 29.0233043 46.9606957 29.0233043 0"></polygon>
                        <path d="M17.6577391,27.6751304 C17.6577391,28.3492174 17.1088696,28.896 16.4347826,28.896 L16.4347826,28.896 C15.7586087,28.896 15.213913,28.3492174 15.213913,27.6751304 L15.213913,27.6751304 C15.213913,26.9989565 15.7606957,26.4521739 16.4347826,26.4521739 L16.4347826,26.4521739 C17.1109565,26.4521739 17.6577391,27.0010435 17.6577391,27.6751304 L17.6577391,27.6751304 Z" fill="#231F20"></path>
                        <polygon fill="#E43E25" points="19.1102609 20.4104348 29.0233043 23.4803478 29.0233043 0 0 0 19.1102609 5.44486957"></polygon>
                        <polygon fill="#FFFFFF" opacity="0.2" points="19.1102609 5.44486957 29.0233043 9.44765217 19.1102609 20.4104348"></polygon>
                        <polygon fill="#FFFFFF" opacity="0.2" points="19.1102609 40.1509565 29.0233043 23.4803478 19.1102609 20.4104348"></polygon>
                        <polygon fill="#FFFFFF" opacity="0.2" points="19.1102609 40.1509565 29.0233043 46.9606957 0 46.9606957"></polygon>
                        <polygon fill="#FFFFFF" opacity="0.2" points="19.1102609 5.44486957 29.0233043 0 0 0"></polygon>
                    </g>
                    <g transform="translate(35.478261, 16.695652)" id="Shape" fill="#231F20">
                        <path d="M9.00521739,3.88591304 L9.00521739,9.76904348 C9.00521739,11.0024348 8.62956522,11.9102609 7.87826087,12.4904348 C7.12695652,13.0706087 6.2253913,13.3606957 5.17565217,13.3606957 C4.12382609,13.3606957 3.21808696,13.0706087 2.45426087,12.4904348 C1.69043478,11.9102609 1.30643478,11.0024348 1.30643478,9.76904348 L1.30643478,3.86713043 C1.30643478,2.60869565 1.65286957,1.65704348 2.34156522,1.008 C3.03234783,0.361043478 3.98191304,0.0375652174 5.19234783,0.0375652174 C6.40278261,0.0375652174 7.33982609,0.379826087 8.00347826,1.06434783 C8.67130435,1.74678261 9.00521739,2.688 9.00521739,3.88591304 Z M7.99721739,9.73147826 L7.99721739,3.70226087 C7.99721739,2.81113043 7.73843478,2.13704348 7.21669565,1.68626087 C6.69913043,1.2333913 6.01043478,1.008 5.15686957,1.008 C4.30121739,1.008 3.61878261,1.2333913 3.1053913,1.68626087 C2.592,2.13704348 2.33321739,2.81113043 2.33321739,3.70226087 L2.33321739,9.75026087 C2.33321739,10.6184348 2.60034783,11.2737391 3.13252174,11.7203478 C3.6626087,12.1648696 4.34086957,12.3881739 5.16521739,12.3881739 C5.98956522,12.3881739 6.66782609,12.1711304 7.20208696,11.7370435 C7.73008696,11.3029565 7.99721739,10.6351304 7.99721739,9.73147826 Z"></path>
                        <path d="M12.669913,16.6017391 L11.6431304,17.0066087 L11.6431304,3.97773913 L12.669913,3.97773913 L12.576,4.91269565 C13.248,4.19269565 14.114087,3.83165217 15.1784348,3.83165217 C16.2406957,3.83165217 17.0671304,4.1613913 17.6598261,4.82086957 C18.2546087,5.48034783 18.5488696,6.336 18.5488696,7.38573913 L18.5488696,9.93182609 C18.5488696,11.0441739 18.237913,11.8956522 17.616,12.4883478 C16.992,13.0810435 16.1509565,13.3773913 15.0949565,13.3773913 C14.0368696,13.3773913 13.2292174,13.0476522 12.6678261,12.3881739 L12.6678261,16.6017391 L12.669913,16.6017391 Z M17.5262609,10.1154783 L17.5262609,7.3106087 C17.5262609,6.41947826 17.2925217,5.77252174 16.8208696,5.36765217 C16.3513043,4.96486957 15.7878261,4.76243478 15.1346087,4.76243478 C14.4793043,4.76243478 13.9137391,4.96069565 13.44,5.35721739 C12.9641739,5.75373913 12.7074783,6.37356522 12.669913,7.21669565 L12.669913,10.1113043 C12.669913,10.9043478 12.8953043,11.4907826 13.3481739,11.8706087 C13.7989565,12.2483478 14.3791304,12.4382609 15.0886957,12.4382609 C15.7961739,12.4382609 16.3784348,12.24 16.8375652,11.8434783 C17.2946087,11.4511304 17.5262609,10.8730435 17.5262609,10.1154783 Z"></path>
                        <path d="M22.8584348,12.48 C23.7036522,12.48 24.5926957,12.2295652 25.533913,11.7286957 L25.9366957,12.5154783 C24.9954783,13.0893913 24.0146087,13.3773913 22.9878261,13.3773913 C20.8633043,13.3773913 19.7989565,12.4862609 19.7989565,10.701913 L19.7989565,6.9453913 C19.7989565,5.95617391 20.1078261,5.18608696 20.7234783,4.63513043 C21.3391304,4.08626087 22.1551304,3.81078261 23.1693913,3.81078261 C24.1836522,3.81078261 24.9746087,4.08208696 25.5443478,4.62469565 C26.109913,5.1693913 26.3958261,5.92278261 26.3958261,6.88695652 L26.3958261,9.26817391 L20.8236522,9.58121739 L20.8236522,10.6977391 C20.8236522,11.3572174 21.0615652,11.8351304 21.5394783,12.1273043 C21.9046957,12.3631304 22.3450435,12.48 22.8584348,12.48 Z M25.3690435,8.35617391 L25.3690435,6.76173913 C25.3690435,6.23582609 25.2292174,5.80591304 24.9474783,5.46991304 C24.6678261,5.13391304 24.3735652,4.91895652 24.0688696,4.82921739 C23.7641739,4.7373913 23.4573913,4.69147826 23.1547826,4.69147826 C22.4806957,4.69147826 21.9276522,4.87513043 21.4873043,5.24034783 C21.0469565,5.60765217 20.8278261,6.18156522 20.8278261,6.96417391 L20.8278261,8.5773913 L25.3690435,8.35617391 Z"></path>
                        <path d="M29.2361739,4.59965217 C29.858087,4.07373913 30.7304348,3.81286957 31.8553043,3.81286957 C32.4918261,3.81286957 33.0323478,3.92973913 33.4852174,4.15930435 C34.5224348,4.63513043 35.0441739,5.52208696 35.0441739,6.81808696 L35.0441739,13.1582609 L34.034087,13.1582609 L34.034087,6.87234783 C34.034087,6.23791304 33.8650435,5.74330435 33.5206957,5.38852174 C33.1074783,4.96069565 32.4855652,4.74782609 31.6633043,4.74782609 C30.8410435,4.74782609 30.0521739,4.95652174 29.3092174,5.37182609 L29.3092174,13.1603478 L28.2824348,13.1603478 L28.2824348,3.97773913 L29.3092174,3.97773913 L29.2361739,4.59965217 Z"></path>
                        <polygon points="46.7165217 13.1582609 45.6897391 13.1582609 38.7276522 2.21843478 38.7276522 13.1582609 37.6987826 13.1582609 37.6987826 0.32973913 38.7276522 0.32973913 45.6897391 11.2695652 45.6897391 0.32973913 46.7165217 0.32973913"></polygon>
                        <path d="M51.885913,12.48 C52.7290435,12.48 53.618087,12.2295652 54.5593043,11.7286957 L54.9641739,12.5154783 C54.0229565,13.0893913 53.042087,13.3773913 52.0132174,13.3773913 C49.8886957,13.3773913 48.8243478,12.4862609 48.8243478,10.701913 L48.8243478,6.9453913 C48.8243478,5.95617391 49.1332174,5.18608696 49.7488696,4.63513043 C50.3666087,4.08626087 51.1826087,3.81078261 52.1968696,3.81078261 C53.2111304,3.81078261 54.002087,4.08208696 54.5697391,4.62469565 C55.1373913,5.1693913 55.4212174,5.92278261 55.4212174,6.88695652 L55.4212174,9.26817391 L49.8490435,9.58121739 L49.8490435,10.6977391 C49.8490435,11.3572174 50.0869565,11.8351304 50.5648696,12.1273043 C50.9321739,12.3631304 51.3725217,12.48 51.885913,12.48 Z M54.3944348,8.35617391 L54.3944348,6.76173913 C54.3944348,6.23582609 54.2546087,5.80591304 53.9749565,5.46991304 C53.6953043,5.13391304 53.4010435,4.91895652 53.0942609,4.82921739 C52.7916522,4.7373913 52.4848696,4.69147826 52.1801739,4.69147826 C51.5081739,4.69147826 50.9530435,4.87513043 50.5147826,5.24034783 C50.0744348,5.60765217 49.8532174,6.18156522 49.8532174,6.96417391 L49.8532174,8.5773913 L54.3944348,8.35617391 Z"></path>
                        <path d="M57.6375652,16.6017391 L56.6107826,17.0066087 L56.6107826,3.97773913 L57.6375652,3.97773913 L57.5457391,4.91269565 C58.2177391,4.19269565 59.0838261,3.83165217 60.1481739,3.83165217 C61.2104348,3.83165217 62.0368696,4.1613913 62.6274783,4.82086957 C63.2222609,5.48034783 63.5165217,6.336 63.5165217,7.38573913 L63.5165217,9.93182609 C63.5165217,11.0441739 63.2055652,11.8956522 62.5836522,12.4883478 C61.9617391,13.0810435 61.1206957,13.3773913 60.0626087,13.3773913 C59.0066087,13.3773913 58.1968696,13.0476522 57.6354783,12.3881739 L57.6354783,16.6017391 L57.6375652,16.6017391 Z M62.4918261,10.1154783 L62.4918261,7.3106087 C62.4918261,6.41947826 62.258087,5.77252174 61.7885217,5.36765217 C61.3168696,4.96486957 60.7533913,4.76243478 60.1001739,4.76243478 C59.4469565,4.76243478 58.8813913,4.96069565 58.4076522,5.35721739 C57.9318261,5.75373913 57.6730435,6.37356522 57.6354783,7.21669565 L57.6354783,10.1113043 C57.6354783,10.9043478 57.8608696,11.4907826 58.3137391,11.8706087 C58.7666087,12.2483478 59.3467826,12.4382609 60.0542609,12.4382609 C60.7617391,12.4382609 61.346087,12.24 61.8031304,11.8434783 C62.2643478,11.4511304 62.4918261,10.8730435 62.4918261,10.1154783 Z"></path>
                        <path d="M68.8132174,13.3398261 C66.1398261,13.3398261 64.802087,12.2462609 64.802087,10.0591304 L64.802087,8.53773913 C64.802087,7.3293913 65.2215652,6.51547826 66.0667826,6.10017391 C66.5071304,5.89147826 66.9391304,5.78713043 67.3669565,5.78713043 C68.8090435,5.78713043 69.9631304,6.1293913 70.8292174,6.81391304 C70.8292174,6.14191304 70.6351304,5.60765217 70.2427826,5.21113043 C69.8504348,4.8146087 69.0991304,4.61634783 67.9888696,4.61634783 L68.0452174,3.82956522 C69.0344348,3.82956522 69.7669565,3.94643478 70.2427826,4.17808696 C70.5015652,4.31165217 70.7248696,4.44730435 70.9210435,4.58086957 C71.1151304,4.71443478 71.2674783,4.89182609 71.3801739,5.11304348 C71.4907826,5.33217391 71.5805217,5.52417391 71.6556522,5.69113043 C71.7286957,5.856 71.7787826,6.07930435 71.8038261,6.35895652 C71.8393043,6.78678261 71.858087,7.2333913 71.858087,7.69669565 L71.858087,13.1561739 C70.5871304,13.2793043 69.5728696,13.3398261 68.8132174,13.3398261 Z M70.8292174,12.3151304 L70.8292174,7.60695652 C69.8149565,7.1186087 68.7777391,6.8306087 67.7154783,6.74504348 C67.6424348,6.73252174 67.5693913,6.72626087 67.4963478,6.72626087 C67.0309565,6.72626087 66.6344348,6.87026087 66.3046957,7.15617391 C65.9728696,7.44417391 65.808,7.92417391 65.808,8.59617391 L65.808,10.1906087 C65.808,11.2048696 66.2483478,11.8643478 67.1290435,12.1690435 C67.6424348,12.3526957 68.2226087,12.4445217 68.8695652,12.4445217 C69.5165217,12.4424348 70.1718261,12.4006957 70.8292174,12.3151304 Z"></path>
                        <polygon points="74.973913 13.1582609 73.9450435 13.1582609 73.9450435 0.32973913 74.973913 0.32973913"></polygon>
                    </g>
                </g>
            </g>
        </g>
    </g>
</svg>