<?xml version="1.0" encoding="UTF-8"?>
<svg width="72px" height="125px" viewBox="0 0 72 125" version="1.1" xmlns="http://www.w3.org/2000/svg" xmlns:xlink="http://www.w3.org/1999/xlink">
    <!-- Generator: Sketch 41.2 (35397) - http://www.bohemiancoding.com/sketch -->
    <title>Group 33</title>
    <desc>Created with Sketch.</desc>
    <defs></defs>
    <g id="homepage" stroke="none" stroke-width="1" fill="none" fill-rule="evenodd">
        <g id="Desktop-HD-Copy-8" transform="translate(-802.000000, -3634.000000)">
            <g id="Group-33" transform="translate(803.000000, 3635.000000)">
                <g id="Page-1">
                    <path d="M52.9128171,26 C53.5151153,39.5839754 42.0723109,49.8946515 33,55.8947775 C36.2915236,59.0569489 40.7558394,61 45.6727408,61 C55.7945917,61 64,52.7669391 64,42.6109771 C64,41.1865515 63.8384793,39.8000909 63.5330206,38.4688051 C56.1333198,35.1336722 52.9128171,26 52.9128171,26 Z" id="Stroke-1" stroke="#082674"></path>
                    <path d="M63.4921065,38.1509685 C64.0764808,38.4088569 64.6861505,38.6322588 65.3231806,38.8119608 C65.3231806,38.8119608 79.2184192,18.0608612 59.1068896,4.79030059 C59.1068896,4.79030059 33.0586945,-11.7767687 16.711355,16.7084474 C6.47275807,34.2053012 29.014879,49.1663791 22.3038659,61 C22.3038659,61 27.1651345,58.9696888 33.012836,55.1830146" id="Stroke-3" stroke="#082674"></path>
                    <path d="M47,52 C47,52 48.2433803,54.25 50,52" id="Stroke-5" stroke="#082674"></path>
                    <path d="M16.3267463,16.3069982 C15.9606899,16.9785006 15.1580658,17.2009436 14.543065,16.8012566 L13.6347149,16.2110058 C13.0197141,15.8113189 12.815988,14.9349558 13.181963,14.2634534 L15.6732774,9.69302771 C16.0392525,9.02152527 16.8419579,8.79908231 17.4569587,9.19868043 L18.3653088,9.78902005 C18.9803096,10.1886182 19.1840357,11.06507 18.8179793,11.7365725 L16.3267463,16.3069982 Z" id="Stroke-7" stroke="#082674"></path>
                    <path d="M17,8.50004286 C17,12.642171 13.642171,16 9.50004286,16 C5.35782899,16 2,12.642171 2,8.50004286 C2,4.35791471 5.35782899,1 9.50004286,1 C13.642171,1 17,4.35791471 17,8.50004286 Z" id="Stroke-9" stroke="#082674"></path>
                    <path d="M16.901804,8.27435626 C16.901804,12.5411282 13.5659567,16 9.45094458,16 C5.3358473,16 2,12.5411282 2,8.27435626 C2,4.00758436 9.63607074,11.8227593 13.7510829,11.8227593 C17.866095,11.8227593 16.901804,4.00758436 16.901804,8.27435626 Z" id="Stroke-11" stroke="#082674"></path>
                    <path d="M6.72916742,5.32701703 C6.72916742,9.46914519 13.8947743,16 9.66277329,16 C5.43077228,16 2,12.642171 2,8.50004286 C2,4.35791471 5.43077228,1 9.66277329,1 C13.8947743,1 6.72916742,1.18488888 6.72916742,5.32701703 Z" id="Stroke-13" stroke="#082674"></path>
                    <path d="M3.89295792,13 C3.89295792,13 -1.28164772,15.6972744 0.300942708,22.8343578 C1.88353314,29.9714411 3.46612357,31.2331439 1.15306933,34 C1.15306933,34 7.30211369,28.0680308 6.41890178,23.7629402 C6.41890178,23.7629402 8.5790456,28.0811949 7.23994311,30.5649372 C7.23994311,30.5649372 12.4778556,25.197657 10.5893632,20.9814669 C10.5893632,20.9814669 6.57603266,18.076986 6.60362796,15.1132667 C6.60362796,15.1132667 4.4659662,13.8344677 3.89295792,13 Z" id="Stroke-15" stroke="#082674"></path>
                    <path d="M55,41 C55,42.1046415 54.7761667,43 54.5,43 C54.2238333,43 54,42.1046415 54,41 C54,39.8954508 54.2238333,39 54.5,39 C54.7761667,39 55,39.8954508 55,41 Z" id="Stroke-17" stroke="#082674"></path>
                    <path d="M41,41 C41,42.1046415 40.7761667,43 40.5,43 C40.2238333,43 40,42.1046415 40,41 C40,39.8954508 40.2238333,39 40.5,39 C40.7761667,39 41,39.8954508 41,41 Z" id="Stroke-19" stroke="#082674"></path>
                    <path d="M47,40.5 C47,45.7467658 42.7466978,50 37.5000438,50 C32.2533022,50 28,45.7467658 28,40.5 C28,35.2532342 32.2533022,31 37.5000438,31 C42.7466978,31 47,35.2532342 47,40.5 Z" id="Stroke-21" stroke="#082674"></path>
                    <path d="M70,40.5 C70,45.7467658 65.7466978,50 60.5000438,50 C55.2533022,50 51,45.7467658 51,40.5 C51,35.2532342 55.2533022,31 60.5000438,31 C65.7466978,31 70,35.2532342 70,40.5 Z" id="Stroke-23" stroke="#082674"></path>
                    <g id="Group-29" transform="translate(28.000000, 31.000000)">
                        <path d="M18.965495,9.50812535 C18.965495,14.7487982 14.7366005,18.9970931 9.52005459,18.9970931 C4.30342156,18.9970931 0.0745270642,14.7487982 0.0745270642,9.50812535 C0.0745270642,4.26745253 4.30342156,0.0191576037 9.52005459,0.0191576037 C14.7366005,0.0191576037 18.965495,4.26745253 18.965495,9.50812535" id="Fill-25" fill="#F6A623" opacity="0.44583722"></path>
                        <path d="M18.965495,9.50812535 C18.965495,14.7487982 14.7366005,18.9970931 9.52005459,18.9970931 C4.30342156,18.9970931 0.0745270642,14.7487982 0.0745270642,9.50812535 C0.0745270642,4.26745253 4.30342156,0.0191576037 9.52005459,0.0191576037 C14.7366005,0.0191576037 18.965495,4.26745253 18.965495,9.50812535 Z" id="Stroke-27" stroke="#082674"></path>
                    </g>
                    <g id="Group-34" transform="translate(51.000000, 31.000000)">
                        <path d="M18.9207578,9.50812535 C18.9207578,14.7487982 14.6918633,18.9970931 9.47531743,18.9970931 C4.2586844,18.9970931 0.0297899083,14.7487982 0.0297899083,9.50812535 C0.0297899083,4.26745253 4.2586844,0.0191576037 9.47531743,0.0191576037 C14.6918633,0.0191576037 18.9207578,4.26745253 18.9207578,9.50812535" id="Fill-30" fill="#F6A623" opacity="0.44583722"></path>
                        <path d="M18.9207578,9.50812535 C18.9207578,14.7487982 14.6918633,18.9970931 9.47531743,18.9970931 C4.2586844,18.9970931 0.0297899083,14.7487982 0.0297899083,9.50812535 C0.0297899083,4.26745253 4.2586844,0.0191576037 9.47531743,0.0191576037 C14.6918633,0.0191576037 18.9207578,4.26745253 18.9207578,9.50812535 Z" id="Stroke-32" stroke="#082674"></path>
                    </g>
                    <polygon id="Stroke-35" stroke="#082674" points="47 41 51 41 51 40 47 40"></polygon>
                    <path d="M61,33 C61,33 64.5123967,34.125 66,38" id="Stroke-37" stroke="#FFFFFF"></path>
                    <path d="M30,38 C30,38 31.125,34.4876033 35,33" id="Stroke-38" stroke="#FFFFFF"></path>
                    <path d="M28.2943007,82.5152815 C28.1324006,82.3473327 28,81.9812543 28,82.2098974 L28,102 C28,102.228643 28.1952172,102.415715 28.433816,102.415715 L35.566184,102.415715 C35.8047828,102.415715 36,102.228643 36,102 L36,90.5110566 C36,90.2824135 35.8675126,89.9579065 35.7056993,89.7899577 L28.2943007,82.5152815 Z" id="Stroke-39" stroke="#082674"></path>
                    <polygon id="Stroke-40" stroke="#082674" points="35.961502 90 35.961502 102.401855 34 102.401855 34 114 57.5 114"></polygon>
                    <path d="M40.5021348,120.575537 C40.4457522,120.808988 40.2094019,121 39.9769401,121 L36.0230599,121 C35.7905981,121 35.5542478,120.808988 35.4978652,120.575537 L34.0122227,114.424375 C33.9558402,114.191012 34.0999665,114 34.3324283,114 L41.6675717,114 C41.9000335,114 42.0441598,114.191012 41.9877773,114.424375 L40.5021348,120.575537 Z" id="Stroke-41" stroke="#082674"></path>
                    <path d="M59.6001749,116.254376 C59.7583544,116.426259 60.017155,116.70757 60.1752496,116.879453 L65.7124627,122.898101 C65.8706421,123.069984 66,123.019185 66,122.785185 L66,82.1947132 C66,81.9607133 65.9208255,81.5950778 65.824019,81.3821805 C65.824019,81.3821805 57.4650915,63 46.9366643,63 C36.408237,63 28.0493095,81.3821805 28.0493095,81.3821805 C27.952503,81.5950778 28.0026864,81.909914 28.1608659,82.0817976 L58.1970741,114.729377 C58.3552535,114.901261 58.6140541,115.182571 58.7722336,115.354455 L59.6001749,116.254376 Z" id="Stroke-42" stroke="#082674"></path>
                    <path d="M51.3486204,114 C51.1047773,114 50.9536833,114.191012 51.0128263,114.424463 L52.5711168,120.575537 C52.6302599,120.808988 52.8781818,121 53.1220249,121 L57.2695747,121 C57.5134178,121 57.7612511,120.808988 57.8203941,120.575537 L58.9814421,115.992638 C59.0405851,115.759187 58.9535996,115.423537 58.7882296,115.246787 L57.9221876,114.321388 C57.7567289,114.144638 57.4218215,114 57.1779784,114 L51.3486204,114 Z" id="Stroke-43" stroke="#082674"></path>
                    <path d="M37.5,67.5 C37.5,67.5 56.1578777,77.2501236 61,72.943349" id="Stroke-44" stroke="#082674"></path>
                    <path d="M29,79 L66,119" id="Stroke-45" stroke="#082674"></path>
                    <path d="M42,64 C42,64 47.8048534,66.75 52.5,64.5" id="Stroke-46" stroke="#082674"></path>
                </g>
            </g>
        </g>
    </g>
</svg>