<?xml version="1.0" encoding="UTF-8"?>
<svg width="84px" height="84px" viewBox="0 0 84 84" version="1.1" xmlns="http://www.w3.org/2000/svg" xmlns:xlink="http://www.w3.org/1999/xlink">
    <!-- Generator: Sketch 41.2 (35397) - http://www.bohemiancoding.com/sketch -->
    <title>Group 53</title>
    <desc>Created with Sketch.</desc>
    <defs></defs>
    <g id="final-page" stroke="none" stroke-width="1" fill="none" fill-rule="evenodd">
        <g id="Onepager" transform="translate(-486.000000, -4923.000000)" stroke="#9B9B9B">
            <g id="Group-53" transform="translate(487.000000, 4924.000000)">
                <circle id="Oval-4-Copy-2" opacity="0.400000006" cx="41" cy="41" r="41"></circle>
                <path d="M33.7383092,58.4331161 C33.7383092,60.8754312 31.7328369,62.8528172 29.2567005,62.8528172 C26.780564,62.8528172 24.7750917,60.8754312 24.7750917,58.4331161 C24.7750917,55.9911844 26.780564,54.0130318 29.2567005,54.0130318 C31.7332255,54.0130318 33.7383092,55.9911844 33.7383092,58.4331161 L33.7383092,58.4331161 Z M42,58.5132235 C42,58.1962438 41.9976681,57.8662323 41.972794,57.5546186 L38.5440582,56.4894596 C38.3652758,55.665389 38.0897177,54.8731315 37.7068901,54.1464163 L39.5969312,51.1648141 C39.2269293,50.6565734 38.8227256,50.1736297 38.3815994,49.7270985 L35.0881164,51.0582599 C34.4184597,50.5435033 33.6986661,50.1042545 32.9011411,49.7803756 L32.4153193,46.3461096 C31.8078478,46.1935608 31.1906598,46.0628593 30.552873,46 L28.8793141,49.0877731 C28.0032803,49.1226524 27.1649462,49.2874665 26.3681985,49.5404369 L23.7494248,47.1973936 C23.1773211,47.4683787 22.6129905,47.7792258 22.1026833,48.1291683 L22.8318046,51.5638176 C22.2103414,52.1264852 21.6887631,52.7723266 21.2386978,53.4806439 L17.6482806,53.3484094 C17.3898234,53.9126102 17.1721752,54.4998084 17.0003887,55.1054044 L19.8352559,57.2889996 C19.7827871,57.674588 19.7540265,58.0620928 19.7540265,58.4599463 C19.7540265,58.8922959 19.8107705,59.2955155 19.8616846,59.7110004 L17,61.9206593 C17.1624588,62.5266386 17.3816616,63.0839402 17.6478919,63.6515906 L21.2655152,63.5189728 C21.7128599,64.1947106 22.2410453,64.8164048 22.8318046,65.3556918 L22.0758659,68.8972787 C22.5974442,69.2472212 23.1194111,69.5607512 23.6954014,69.82867 L26.4222219,67.4059026 C27.2034233,67.6324262 28.0032803,67.7665772 28.8249021,67.8052894 L30.552873,71 C31.1891052,70.9390571 31.8078478,70.8267535 32.4153193,70.6807206 L32.9011411,67.1130701 C33.6547478,66.8041395 34.3659909,66.3867382 35.006887,65.9149099 L38.3815994,67.2721349 C38.8227256,66.8290533 39.2277066,66.3441932 39.5969312,65.8348026 L37.6796841,62.7995401 C38.0582364,62.0896895 38.3326286,61.345343 38.5168522,60.5366041 L41.9720167,59.4449981 C41.9957248,59.1337677 42,58.8298199 42,58.5132235 L42,58.5132235 Z" id="Stroke-1"></path>
                <path d="M54.679155,30.9035058 C54.679155,35.8233342 50.6389,39.8069133 45.6508569,39.8069133 C40.6612196,39.8069133 36.6217617,35.8233342 36.6217617,30.9035058 C36.6217617,25.9836774 40.6612196,21.9993122 45.6508569,21.9993122 C50.6389,21.9993122 54.679155,25.9836774 54.679155,30.9035058 L54.679155,30.9035058 Z M64,31.01867 C64,30.5623369 63.99721,30.0871374 63.9609406,29.6382723 L59.0235153,28.1045845 C58.7660422,26.9179614 58.3690713,25.7773253 57.8190514,24.7306286 L60.5396572,20.4373246 C60.0071742,19.7054623 59.4248705,19.0097608 58.7903547,18.3671212 L54.0478278,20.2840345 C53.0829016,19.5423459 52.0462336,18.9099256 50.8987644,18.4437663 L50.198884,13.4983896 C49.324432,13.2790667 48.4356317,13.0907949 47.5161419,13 L45.1064169,17.4469871 C43.844161,17.4969047 42.6373057,17.734701 41.4906337,18.0986669 L37.7194101,14.7247109 C36.8959745,15.1150113 36.0829016,15.5626972 35.3479474,16.0665895 L36.397768,21.0123593 C35.5033878,21.8228319 34.7520925,22.7527923 34.1044241,23.7723685 L28.9330411,23.5821314 C28.5619769,24.3945693 28.2483061,25.2400236 28,26.1125984 L32.0821044,29.2566191 C32.0071742,29.8116081 31.966122,30.3697416 31.966122,30.942811 C31.966122,31.5654049 32.0478278,32.1459423 32.1211638,32.744167 L28.0007971,35.9263137 C28.2347549,36.7984955 28.5504185,37.6011071 28.9338382,38.4178686 L34.1442806,38.2268454 C34.7875648,39.1996484 35.5496214,40.0958064 36.3985652,40.8724766 L35.3100837,45.9719296 C36.0621762,46.4758219 36.8134715,46.9274383 37.6428856,47.313022 L41.5687525,43.824688 C42.6935034,44.1509209 43.8461538,44.3443024 45.0294938,44.3997227 L47.516939,49 C48.4340375,48.9115634 49.3252292,48.7504122 50.1996811,48.5405225 L50.8995616,43.4021574 C51.9836588,42.958009 53.0087684,42.3570329 53.9314468,41.6774465 L58.7911519,43.6320927 C59.4256676,42.9929906 60.009167,42.2957168 60.5404544,41.5618893 L57.7803906,37.1915472 C58.3252292,36.1696127 58.7198087,35.0973676 58.9848545,33.9327554 L63.9609406,32.3613346 C63.9944201,31.9120765 64,31.475003 64,31.01867 L64,31.01867 Z" id="Stroke-3"></path>
                <path d="M50.601836,59.1008459 C49.4756426,59.4338265 48.2943696,58.7874091 47.9627907,57.6564553 C47.6312118,56.5251327 48.2749082,55.3392353 49.4011016,55.0062548 C50.527295,54.6729055 51.7085679,55.3193228 52.0401469,56.4506454 C52.372093,57.5819679 51.7283966,58.7678654 50.601836,59.1008459 L50.601836,59.1008459 Z M51.671481,62.8856877 C51.8176255,62.8425441 51.969645,62.7968192 52.1099143,62.7426131 L52.1418605,61.031248 C52.4980416,60.8372859 52.826683,60.6031302 53.1105263,60.3295183 L54.7394125,60.785661 C54.9237454,60.547449 55.0930233,60.2966996 55.2395349,60.0348877 L54.1842105,58.7118155 C54.3321909,58.3353226 54.4383109,57.9466609 54.4809058,57.5384555 L56,56.848157 C55.9889841,56.5498389 55.9665851,56.2500458 55.9100367,55.949884 L54.2613219,55.6065785 C54.1276622,55.2109106 53.9396573,54.8506426 53.7160343,54.5209808 L54.446022,53.0050528 C54.2444308,52.7808533 54.0255814,52.5655038 53.795716,52.3796542 L52.3089351,53.181315 C51.9659731,52.9744466 51.598776,52.823997 51.2113831,52.715216 L50.7920441,51.056582 C50.4968176,51.0156509 50.1964504,50.9964759 49.8946144,51.0005322 L49.2670747,52.59316 C49.0820073,52.6219224 48.8995104,52.6613786 48.7159119,52.7159535 C48.5165239,52.7749533 48.3380661,52.8557094 48.153366,52.935728 L46.7506732,51.9297802 C46.4929009,52.0864986 46.2652387,52.2627607 46.0390453,52.4618853 L46.5854345,54.0965505 C46.3335373,54.3930248 46.1172583,54.7189991 45.9476132,55.0623046 L44.2129743,55.2002168 C44.1215422,55.4863662 44.046634,55.7673531 44,56.0671462 L45.4827417,56.9823817 C45.4831089,57.3699372 45.5282742,57.7538051 45.6204406,58.1343543 L44.378213,59.3593391 C44.4916769,59.6421698 44.6264382,59.9095129 44.775153,60.1668999 L46.4859241,59.9025067 C46.7290086,60.2041435 47.0172583,60.472593 47.320563,60.7008487 L47.1461444,62.4277012 C47.4101591,62.5685634 47.6877601,62.6876694 47.9719706,62.7864942 L49.1154223,61.4969782 C49.4936353,61.5729406 49.8736842,61.5969093 50.2713586,61.5703593 L51.2378213,63 C51.3847001,62.9686563 51.5253366,62.9292002 51.671481,62.8856877 L51.671481,62.8856877 Z" id="Stroke-5"></path>
            </g>
        </g>
    </g>
</svg>