<?xml version="1.0" encoding="UTF-8"?>
<svg width="77px" height="130px" viewBox="0 0 77 130" version="1.1" xmlns="http://www.w3.org/2000/svg" xmlns:xlink="http://www.w3.org/1999/xlink">
    <!-- Generator: Sketch 41.2 (35397) - http://www.bohemiancoding.com/sketch -->
    <title>Page 1</title>
    <desc>Created with Sketch.</desc>
    <defs></defs>
    <g id="homepage" stroke="none" stroke-width="1" fill="none" fill-rule="evenodd">
        <g id="Desktop-HD-Copy-8" transform="translate(-681.000000, -3844.000000)">
            <g id="Group-41" transform="translate(606.000000, 3845.000000)">
                <g id="Page-1" transform="translate(76.000000, 0.000000)">
                    <path d="M36.7057876,15.7493266 C36.7057876,15.7493266 44.9945664,20.5798071 46.8618584,25.8631451 C46.8618584,25.8631451 38.4990619,19.8250445 35.6406549,19.8250445 C35.6406549,19.8250445 24.2070265,22.2888915 24.9592389,34.793496 C24.9592389,34.793496 16.2335752,26.1650502 18.7910973,22.9950474 C18.7910973,22.9950474 9.74890265,29.6964333 10.1328319,36.3087573 C10.1328319,36.3087573 9.91047788,35.4842547 9.51361062,34.2823707 C9.17722124,35.9401313 9,37.6561595 9,39.4135486 C9,53.5445155 20.4167788,65 34.5,65 C48.5832212,65 60,53.5445155 60,39.4135486 C60,35.3372269 59.0455929,31.4864282 57.355823,28.0664481 C55.020354,27.3726703 52.4670442,25.8755233 49.7822478,23.1459999 C38.3486195,11.5226562 38.0718053,15.7493266 36.7057876,15.7493266 Z" id="Stroke-1" stroke="#082674"></path>
                    <path d="M57.148947,27.7988785 C64.7265439,30.053558 70,23.7937052 70,23.7937052 C65.6736686,20.7818438 68.7832099,13.2521902 60.992877,7.68024662 C38.0713206,-10.0897358 27.1501727,11.4450734 27.1501727,11.4450734 C25.367385,10.9932942 25.0374944,9.03558426 25.0374944,9.03558426 C24.1386098,9.93914268 25.0374944,12.9510041 25.0374944,12.9510041 C19.7122026,11.5598253 22.0768682,0 22.0768682,0 C11.3256096,4.21660599 11.0927985,17.9205754 11.0927985,17.9205754 L7.14939189,13.5934341 L10.1232017,26.5043805 C10.1232017,26.5043805 5.84331262,25.3698123 4,24.8779753 C6.43387978,25.6285312 8.51659532,30.9956682 9.50656685,34" id="Stroke-3" stroke="#082674"></path>
                    <path d="M29,40.5 C29,48.508143 22.5080772,55 14.499853,55 C6.49192281,55 0,48.508143 0,40.5 C0,32.491857 6.49192281,26 14.499853,26 C22.5080772,26 29,32.491857 29,40.5" id="Fill-5" fill-opacity="0.45" fill="#F5A623"></path>
                    <path d="M29,40.5 C29,48.508143 22.5080772,55 14.499853,55 C6.49192281,55 0,48.508143 0,40.5 C0,32.491857 6.49192281,26 14.499853,26 C22.5080772,26 29,32.491857 29,40.5 Z" id="Stroke-7" stroke="#082674"></path>
                    <path d="M71,44.5 C71,52.508143 64.5080772,59 56.499853,59 C48.4919228,59 42,52.508143 42,44.5 C42,36.491857 48.4919228,30 56.499853,30 C64.5080772,30 71,36.491857 71,44.5" id="Fill-9" fill-opacity="0.45" fill="#F5A623"></path>
                    <path d="M71,44.5 C71,52.508143 64.5080772,59 56.499853,59 C48.4919228,59 42,52.508143 42,44.5 C42,36.491857 48.4919228,30 56.499853,30 C64.5080772,30 71,36.491857 71,44.5 Z" id="Stroke-11" stroke="#082674"></path>
                    <path d="M35.7888866,72.3773137 C35.1109426,71.8860863 33.9915322,71.8727377 33.3012394,72.3476502 L31.5236429,73.5703794 C30.8333501,74.045292 30.8243973,74.8343409 31.5035762,75.3237885 L33.3216148,76.6337284 C34.0007937,77.123176 35.1109426,77.1219895 35.7888866,76.630762 L37.4917735,75.3970573 C38.1694088,74.9058299 38.1694088,74.1022459 37.4917735,73.6110184 L35.7888866,72.3773137 Z" id="Stroke-13" stroke="#082674"></path>
                    <path d="M34.7165609,76.6021499 C34.6231044,75.800069 34.4640777,75.7991859 34.3633357,76.6000895 L33.0546941,87.0059492 C32.9539521,87.8068528 32.9964094,89.1078428 33.1489042,89.8975614 L34.2133532,95.407048 C34.365848,96.1967666 34.619336,96.1976497 34.7768554,95.4096971 L35.8375359,90.0994797 C35.994804,89.3112329 36.0470592,88.0102428 35.9536028,87.2081619 L34.7165609,76.6021499 Z" id="Stroke-15" stroke="#082674"></path>
                    <path d="M34.0005743,112.012922 L32.4283061,118.530249 C32.2332983,119.338673 31.4038457,120 30.5851111,120 L17.2290185,120 C16.4102838,120 15.7704799,119.319605 15.8070997,118.488179 L17.3275644,84.0988557 C17.3641841,83.2674295 17.2150256,83.2432162 16.9959024,84.044981 L15.7252262,88.6954588 C15.5061031,89.4975263 14.6570008,90.1537083 13.8382662,90.1537083 L7.92521576,90.1537083 C7.10648112,90.1537083 6.76648296,89.5610863 7.16989584,88.8368043 L17.8202938,69.7091603 C18.2237066,68.9848783 19.1993406,68.5738566 19.9883031,68.7957114 C19.9883031,68.7957114 28.2348961,71.116259 49.1843803,68 L60.8291687,88.8377123 C61.2337724,89.561389 60.8946674,90.1537083 60.0759328,90.1537083 L54.1628824,90.1537083 C53.3441477,90.1537083 52.4950455,89.4975263 52.2759223,88.6954588 L51.0052462,84.044981 C50.786123,83.2432162 50.6369644,83.2674295 50.6735842,84.0988557 L52.1940489,118.488179 C52.2306686,119.319605 51.5908647,120 50.7721301,120 L37.4160375,120 C36.5973028,120 35.7678502,119.338673 35.5728425,118.530249 L34.0005743,112.012922" id="Stroke-17" stroke="#082674"></path>
                    <path d="M21.5490835,122 C20.7383946,122 19.4118126,122.009738 18.6014185,122.021836 C18.6014185,122.021836 13.392963,122.098264 13,128 L28.5260201,128 C29.336709,128 30,127.336055 30,126.524566 L30,123.475434 C30,122.663945 29.336709,122 28.5260201,122 L21.5490835,122 Z" id="Stroke-19" stroke="#082674"></path>
                    <path d="M49.4509165,122 C50.2616054,122 51.5881874,122.009738 52.3985815,122.021836 C52.3985815,122.021836 57.607037,122.098264 58,128 L42.4739799,128 C41.663291,128 41,127.336055 41,126.524566 L41,123.475434 C41,122.663945 41.663291,122 42.4739799,122 L49.4509165,122 Z" id="Stroke-21" stroke="#082674"></path>
                    <path d="M29,41.2187635 C29,41.2187635 35.2653624,38.1332295 41,41.7811281 L40.726002,43 C34.9913644,39.3521013 29,42.4373863 29,42.4373863 L29,41.2187635 Z" id="Fill-23" fill="#FFFFFF"></path>
                    <path d="M29,41.2187635 C29,41.2187635 35.2653624,38.1332295 41,41.7811281 L40.726002,43 C34.9913644,39.3521013 29,42.4373863 29,42.4373863 L29,41.2187635 Z" id="Stroke-25" stroke="#082674"></path>
                    <path d="M31,54 C31,54 34.5,56.25 38,54" id="Stroke-27" stroke="#082674" stroke-linecap="round" stroke-linejoin="round"></path>
                    <path d="M55.6111651,46.4576454 C55.6111651,46.4576454 53.2847191,45.6106744 53.479076,48.4696313 C53.6737247,51.3285882 60.5803977,49.131793 57.1756504,44.8339023 C53.7709032,40.5360116 49.7827934,44.0700239 51.3391076,49.0363799 C52.8954217,54.0027358 61.3584089,53.4219475 60.7747546,45.4032296 C60.1911003,37.3842251 47.2535276,38.4452311 49.1991392,47.5610572 C51.1444589,56.67717 67.8760763,57.0591092 64.5685074,42.541694" id="Stroke-29" stroke="#FFFFFF"></path>
                    <path d="M14.3888349,41.4576454 C14.3888349,41.4576454 16.7152809,40.6106744 16.520924,43.4696313 C16.3262753,46.3285882 9.41960229,44.131793 12.8243496,39.8339023 C16.2290968,35.5360116 20.2172066,39.0700239 18.6608924,44.0363799 C17.1045783,49.0027358 8.64159113,48.4219475 9.22524541,40.4032296 C9.8088997,32.3842251 22.7464724,33.4452311 20.8008608,42.5610572 C18.8555411,51.67717 2.12392373,52.0591092 5.43149256,37.541694" id="Stroke-31" stroke="#FFFFFF"></path>
                    <path d="M41.0013933,74.9699638 C40.9661544,74.1389332 41.6037117,73.4398026 42.4174633,73.4165084 L56.9367704,73.003262 C57.7508182,72.9802702 59.0727204,73.0813129 59.8743309,73.227734 L73.5662647,75.7320192 C74.3678752,75.8784403 75.0128355,76.6792187 74.999806,77.5108543 L74.6640002,98.7273958 C74.6506746,99.5590314 73.983801,100.121724 73.1818943,99.9774207 L57.4324838,97.1452006 C56.630281,97.0011997 55.3101556,96.9397875 54.4987729,97.0090653 L43.4533087,97.9526344 C42.64163,98.0219122 41.9489935,97.3987149 41.9140507,96.5673817 L41.0013933,74.9699638 Z" id="Fill-33" fill="#FFFFFF"></path>
                    <path d="M41.0013933,74.9699638 C40.9661544,74.1389332 41.6037117,73.4398026 42.4174633,73.4165084 L56.9367704,73.003262 C57.7508182,72.9802702 59.0727204,73.0813129 59.8743309,73.227734 L73.5662647,75.7320192 C74.3678752,75.8784403 75.0128355,76.6792187 74.999806,77.5108543 L74.6640002,98.7273958 C74.6506746,99.5590314 73.983801,100.121724 73.1818943,99.9774207 L57.4324838,97.1452006 C56.630281,97.0011997 55.3101556,96.9397875 54.4987729,97.0090653 L43.4533087,97.9526344 C42.64163,98.0219122 41.9489935,97.3987149 41.9140507,96.5673817 L41.0013933,74.9699638 Z" id="Stroke-35" stroke="#082674"></path>
                    <path d="M41,72.3810982 C41.767742,72.5738968 54.9381092,72.0014149 54.9381092,72.0014149 C55.7536495,71.9659305 56.4088724,72.6022843 56.3940282,73.4151732 L56.0155011,94.1413254 C56.0006569,94.9545099 56.366418,95.7144678 56.8280726,95.8306793 C57.2900241,95.9465951 57.6923019,95.3764788 57.7219903,94.5638856 L58.4781538,73.9447781 C58.5078422,73.1318893 59.1897847,72.583655 59.9937465,72.7261841 L73.5779699,75.1335061 C74.3819318,75.2760352 75.0214199,76.0575794 74.9994504,76.8704683 L74.4047918,98.7563695 C74.3825255,99.5692583 73.7068176,100.118971 72.9025589,99.9779205 L57.1127843,97.2095446 C56.3088225,97.0687897 54.9853137,97.0087619 54.1715547,97.076478 L43.0980791,97.9987772 C42.2843201,98.0664933 41.6026745,97.4567527 41.5830801,96.6438638 L41,72.3810982 Z" id="Fill-37" fill="#FFFFFF"></path>
                    <path d="M41,72.3810982 C41.767742,72.5738968 54.9381092,72.0014149 54.9381092,72.0014149 C55.7536495,71.9659305 56.4088724,72.6022843 56.3940282,73.4151732 L56.0155011,94.1413254 C56.0006569,94.9545099 56.366418,95.7144678 56.8280726,95.8306793 C57.2900241,95.9465951 57.6923019,95.3764788 57.7219903,94.5638856 L58.4781538,73.9447781 C58.5078422,73.1318893 59.1897847,72.583655 59.9937465,72.7261841 L73.5779699,75.1335061 C74.3819318,75.2760352 75.0214199,76.0575794 74.9994504,76.8704683 L74.4047918,98.7563695 C74.3825255,99.5692583 73.7068176,100.118971 72.9025589,99.9779205 L57.1127843,97.2095446 C56.3088225,97.0687897 54.9853137,97.0087619 54.1715547,97.076478 L43.0980791,97.9987772 C42.2843201,98.0664933 41.6026745,97.4567527 41.5830801,96.6438638 L41,72.3810982 Z" id="Stroke-39" stroke="#082674"></path>
                </g>
            </g>
        </g>
    </g>
</svg>