<?xml version="1.0" encoding="UTF-8"?>
<svg width="388px" height="211px" viewBox="0 0 388 211" version="1.1" xmlns="http://www.w3.org/2000/svg" xmlns:xlink="http://www.w3.org/1999/xlink">
    <!-- Generator: Sketch 41.2 (35397) - http://www.bohemiancoding.com/sketch -->
    <title>Group 20</title>
    <desc>Created with Sketch.</desc>
    <defs></defs>
    <g id="final-page" stroke="none" stroke-width="1" fill="none" fill-rule="evenodd">
        <g id="Onepager" transform="translate(-794.000000, -6383.000000)">
            <g id="Group-42" transform="translate(250.000000, 5875.000000)">
                <g id="Group-39" transform="translate(0.000000, 93.000000)">
                    <g id="Group-25" transform="translate(269.000000, 334.000000)">
                        <g id="Group-20" transform="translate(280.000000, 82.000000)">
                            <g id="Page-1">
                                <path d="M41.5722259,200 C40.3800283,200 38.4292779,200.014615 37.2372249,200.032479 C37.2372249,200.032479 29.5780965,200.147483 29,209 L51.8323549,209 C53.0245525,209 54,208.004084 54,206.786871 L54,202.213129 C54,200.995916 53.0245525,200 51.8323549,200 L41.5722259,200 Z" id="Stroke-1" stroke="#082674" stroke-width="2"></path>
                                <path d="M13.4777315,71.0590176 C9.85824589,67.5938108 7.43756159,61.2852832 8.13088622,50.6313767 C8.13088622,50.6313767 3.87324005,42.6063976 1.03490605,47.7990652 C-1.80357312,52.9917328 1.50786494,40.4520331 7.18467811,40.585015 C7.18467811,40.585015 8.4265944,29.3884613 0,28.4442609 C0,28.4442609 9.69362484,25.6119494 13.6429332,30.3325168 C13.6429332,30.3325168 12.8616364,13.8103136 23.2690547,11.4499575 C23.2690547,11.4499575 18.5384496,17.5868255 24.6883668,23.7236935 C24.6883668,23.7236935 52.5994738,-0.823778514 80.5105808,9.56170154 C108.421688,19.9471816 110.787063,25.6119494 116.93698,23.7236935 C123.086897,21.8354375 100.852604,33.1649731 93.7564782,31.2767172 C86.660498,29.3884613 101.877638,39.3018411 108.224549,38.8297409 C109.018475,38.7707827 105.773379,40.9797597 100.144762,43.7031361 L84.0879675,49.9795047 C70.0646929,54.2210186 52.7755632,56.1528775 40.2563792,47.257432 C40.2563792,47.257432 25.8945717,59.481336 32.1998192,80.8685325 L25.4499207,80.8685325 C25.4499207,80.8685325 22.9273281,74.5744909 20.6836042,74.5219066 L22.0934804,83.2003511 C26.0324817,100.824797 41.7954553,114 60.6444203,114 C82.459903,114 100.144762,96.3525209 100.144762,74.5834723 L100.144762,43.7031361 L100.144762,43.7031361 C95.9080201,45.7532011 90.3207759,48.0942908 84.0879675,49.9795047" id="Stroke-17" stroke="#082674" stroke-width="2" fill="#FFFFFF"></path>
                                <path d="M81.4277741,200 C82.6199717,200 84.5707221,200.014615 85.7627751,200.032479 C85.7627751,200.032479 93.4219035,200.147483 94,209 L71.1676451,209 C69.9754475,209 69,208.004084 69,206.786871 L69,202.213129 C69,200.995916 69.9754475,200 71.1676451,200 L81.4277741,200 Z" id="Stroke-3" stroke="#082674" stroke-width="2"></path>
                                <path d="M63,91 C63,91 68,92.643372 73,91 C73,91 72.9731656,96 67.9925713,96 C63.0118253,96 63,91 63,91 Z" id="Stroke-5" stroke="#082674" stroke-width="2" stroke-linecap="round" stroke-linejoin="round"></path>
                                <path d="M61.3836805,183.479379 L59.0750945,192.880018 C58.7887447,194.046088 57.5708832,195 56.3687681,195 L36.7586177,195 C35.5565026,195 34.6171177,194.018713 34.6710635,192.819443 L36.9032506,143.215453 C36.9573421,142.016037 36.2776259,140.369589 35.3930616,139.556631 L0.525161225,107.511693 C-0.359403071,106.698735 -0.0997345347,106.033574 1.10238062,106.033574 L9.52768422,106.033574 C10.7297994,106.033574 12.5791176,106.499536 13.6373288,107.069174 L36.7796128,119.52434 C37.8379699,120.093833 39.651713,120.821899 40.8102342,121.142102 C40.8102342,121.142102 52.9179905,124.48902 83.6774126,119.994234 L103.512094,106.275874 C104.500467,105.592366 106.292486,105.030299 107.494602,105.02695 L116.843544,105.000012 C118.045659,104.996663 118.362626,105.716137 117.547754,106.598844 L87.2473082,139.429657 C86.4325818,140.312509 85.8100188,142.016037 85.8641104,143.215453 L88.0962975,192.819443 C88.1502432,194.018713 87.2108584,195 86.0087433,195 L66.3985929,195 C65.1964777,195 63.9786163,194.046088 63.6922664,192.880018 L61.3836805,183.479379" id="Stroke-7" stroke="#082674" stroke-width="2"></path>
                                <path d="M36,167 C36,167 67.5072126,158.618619 87,166.12047" id="Stroke-9" stroke="#082674" stroke-width="2"></path>
                                <path d="M43,143.995266 C43,143.529286 43.9035884,142.798737 45.0077821,142.371496 L52.9922179,139.2834 C54.0965557,138.856299 55,138.919178 55,139.423194 C55,139.927209 54.0919441,140.677969 52.98213,141.091316 L47.2044963,143.243663 C46.0946822,143.657009 46.094394,144.334224 47.2039199,144.748412 L52.9828506,146.906093 C54.0922323,147.320422 55,148.072164 55,148.576601 C55,149.081178 54.0966998,149.143777 52.9927944,148.715833 L45.0072056,145.620439 C43.9033002,145.192496 43,144.461245 43,143.995266 Z" id="Stroke-11" stroke="#082674" stroke-width="2"></path>
                                <path d="M63.0526687,136.018581 C63.4377321,134.908355 64.1346458,134 64.6012629,134 C65.0680345,134 65.1347603,134.908355 64.7496969,136.018581 L60.9472539,146.981419 C60.5621906,148.091645 59.8652768,149 59.3986597,149 C58.9320426,149 58.8651623,148.091645 59.2503802,146.981419 L63.0526687,136.018581 Z" id="Stroke-13" stroke="#082674" stroke-width="2"></path>
                                <path d="M80,144.004805 C80,144.4762 79.0962675,145.210727 77.9914973,145.636933 L70.0083586,148.717628 C68.9037325,149.143833 68,149.08026 68,148.576307 C68,148.072355 68.9076236,147.320565 70.0168612,146.905867 L75.7861363,144.748736 C76.895374,144.334038 76.8950857,143.656206 75.7854158,143.24235 L70.0175818,141.091814 C68.9079118,140.678099 68,139.927151 68,139.423199 C68,138.919246 68.9034443,138.856234 70.0077821,139.283422 L77.9922179,142.371133 C79.0964116,142.798181 80,143.533411 80,144.004805 Z" id="Stroke-15" stroke="#082674" stroke-width="2"></path>
                                <path d="M13.3846774,71 C13.1393548,72.2248285 13,73.6143447 13,75.088678 C13,80.010251 14.5439355,84 16.4485968,84 L22,84 L22,83.193583 C21.3800161,80.4080038 20.5901935,77.4507537 20.5901935,74.4777913 C17.8777097,74.1588907 15.6307581,73.1597077 13.3846774,71 Z" id="Stroke-19" stroke="#082674" stroke-width="2"></path>
                                <path d="M21.0161131,75.00075 L21.0161131,75.00075 C21.0726131,74.99975 20.9601131,74.99975 21.0161131,75.00075 Z" id="Stroke-21" stroke="#082674" stroke-width="2"></path>
                                <path d="M56,73.5 C56,74.8808123 55.5523077,76 55,76 C54.4476923,76 54,74.8808123 54,73.5 C54,72.1191877 54.4476923,71 55,71 C55.5523077,71 56,72.1191877 56,73.5 Z" id="Stroke-23" stroke="#082674" stroke-width="2"></path>
                                <path d="M80,73.5 C80,74.8808123 79.5523077,76 79,76 C78.4476923,76 78,74.8808123 78,73.5 C78,72.1191877 78.4476923,71 79,71 C79.5523077,71 80,72.1191877 80,73.5 Z" id="Stroke-25" stroke="#082674" stroke-width="2"></path>
                                <path d="M106,74.5 C106,84.1649669 98.1649669,92 88.5,92 C78.8350331,92 71,84.1649669 71,74.5 C71,64.8350331 78.8350331,57 88.5,57 C98.1649669,57 106,64.8350331 106,74.5 Z" id="Stroke-27" stroke="#082674" stroke-width="2" stroke-linecap="round" stroke-linejoin="round"></path>
                                <path d="M66,74.5 C66,84.1649669 58.1649669,92 48.5,92 C38.8350331,92 31,84.1649669 31,74.5 C31,64.8350331 38.8350331,57 48.5,57 C58.1649669,57 66,64.8350331 66,74.5 Z" id="Stroke-29" stroke="#082674" stroke-width="2" stroke-linecap="round" stroke-linejoin="round"></path>
                                <g id="Group-35" transform="translate(71.000000, 57.000000)">
                                    <path d="M34.8879707,17.4594059 C34.8879707,27.0866025 27.0835565,34.8910167 17.4563598,34.8910167 C7.82916318,34.8910167 0.024748954,27.0866025 0.024748954,17.4594059 C0.024748954,7.83220921 7.82916318,0.0277949791 17.4563598,0.0277949791 C27.0835565,0.0277949791 34.8879707,7.83220921 34.8879707,17.4594059" id="Fill-31" fill-opacity="0.45" fill="#F5A623"></path>
                                    <path d="M34.8879707,17.4594059 C34.8879707,27.0866025 27.0835565,34.8910167 17.4563598,34.8910167 C7.82916318,34.8910167 0.024748954,27.0866025 0.024748954,17.4594059 C0.024748954,7.83220921 7.82916318,0.0277949791 17.4563598,0.0277949791 C27.0835565,0.0277949791 34.8879707,7.83220921 34.8879707,17.4594059 Z" id="Stroke-33" stroke="#082674" stroke-width="2"></path>
                                </g>
                                <g id="Group-40" transform="translate(31.000000, 57.000000)">
                                    <path d="M34.9690272,17.4594059 C34.9690272,27.0866025 27.164613,34.8910167 17.5374163,34.8910167 C7.91021967,34.8910167 0.105805439,27.0866025 0.105805439,17.4594059 C0.105805439,7.83220921 7.91021967,0.0277949791 17.5374163,0.0277949791 C27.164613,0.0277949791 34.9690272,7.83220921 34.9690272,17.4594059" id="Fill-36" fill-opacity="0.45" fill="#F5A623"></path>
                                    <path d="M34.9690272,17.4594059 C34.9690272,27.0866025 27.164613,34.8910167 17.5374163,34.8910167 C7.91021967,34.8910167 0.105805439,27.0866025 0.105805439,17.4594059 C0.105805439,7.83220921 7.91021967,0.0277949791 17.5374163,0.0277949791 C27.164613,0.0277949791 34.9690272,7.83220921 34.9690272,17.4594059 Z" id="Stroke-38" stroke="#082674" stroke-width="2"></path>
                                </g>
                                <path d="M66,73 L72,73" id="Stroke-41" stroke="#082674" stroke-width="2" stroke-linecap="round" stroke-linejoin="round"></path>
                                <path d="M66,75 L72,75" id="Stroke-43" stroke="#082674" stroke-width="2" stroke-linecap="round" stroke-linejoin="round"></path>
                                <path d="M60,82 C60,82 57.7046095,87.1620616 53,88" id="Stroke-45" stroke="#FFFFFF" stroke-width="2" stroke-linecap="round" stroke-linejoin="round"></path>
                                <path d="M100,82 C100,82 97.7046095,87.1620616 93,88" id="Stroke-47" stroke="#FFFFFF" stroke-width="2" stroke-linecap="round" stroke-linejoin="round"></path>
                                <path d="M181.01283,182.702175 L178.74097,191.920877 C178.459267,193.064395 177.260826,194 176.077848,194 L156.779658,194 C155.59668,194 154.672356,193.03768 154.725458,191.861495 L156.922187,143.217284 C156.975289,142.041099 156.759672,142.006979 156.442956,143.14135 L154.606999,149.719334 C154.29043,150.853849 153.063541,151.781905 151.880563,151.781905 L143.336689,151.781905 C142.153712,151.781905 141.662664,150.943577 142.245473,149.919115 L157.634395,122.862935 C158.217058,121.838328 159.612444,121.303738 160.735025,121.674844 C160.735025,121.674844 172.025613,125.407827 202.295487,121 L219.733796,149.945975 C220.342134,150.955773 219.871948,151.781905 218.688971,151.781905 L210.145243,151.781905 C208.962265,151.781905 207.73523,150.853849 207.418661,149.719334 L205.582704,143.14135 C205.265988,142.006979 205.050371,142.041099 205.103619,143.217284 L207.300202,191.861495 C207.353304,193.03768 206.42898,194 205.246002,194 L185.947812,194 C184.764834,194 183.566539,193.064395 183.28469,191.920877 L181.01283,182.702175" id="Stroke-49" stroke="#082674" stroke-width="2"></path>
                                <path d="M161.572261,198 C160.380063,198 158.429233,198.014711 157.237181,198.032573 C157.237181,198.032573 149.577942,198.147556 149,207 L171.83246,207 C173.024658,207 174,206.004186 174,204.786964 L174,200.213186 C174,198.995964 173.024658,198 171.83246,198 L161.572261,198 Z" id="Stroke-51" stroke="#082674" stroke-width="2"></path>
                                <path d="M201.427739,198 C202.619937,198 204.570767,198.014711 205.762819,198.032573 C205.762819,198.032573 213.422058,198.147556 214,207 L191.167687,207 C189.975342,207 189,206.004186 189,204.786964 L189,200.213186 C189,198.995964 189.975342,198 191.16754,198 L201.427739,198 Z" id="Stroke-53" stroke="#082674" stroke-width="2"></path>
                                <path d="M156,167 C156,167 186.889398,158.618675 206,166.120395" id="Stroke-55" stroke="#082674" stroke-width="2"></path>
                                <path d="M180,146.5 C180,147.880811 178.880694,149 177.500076,149 C176.119306,149 175,147.880811 175,146.5 C175,145.119189 176.119306,144 177.500076,144 C178.880694,144 180,145.119189 180,146.5 Z" id="Stroke-57" stroke="#082674" stroke-width="2"></path>
                                <path d="M191,146.5 C191,147.880811 189.880694,149 188.500076,149 C187.119306,149 186,147.880811 186,146.5 C186,145.119189 187.119306,144 188.500076,144 C189.880694,144 191,145.119189 191,146.5 Z" id="Stroke-59" stroke="#082674" stroke-width="2"></path>
                                <path d="M177.695311,139.767619 C174.865427,141.667693 173,144.916893 173,148.606612 C173,154.464463 194,154.464463 194,148.606612 C194,144.916893 192.134573,141.667693 189.304689,139.767619 L189.10355,139.635763 C187.481833,138.600094 185.560484,138 183.5,138 C181.461766,138 179.5597,138.587358 177.949256,139.602499 L177.695311,139.767619 Z" id="Stroke-61" stroke="#082674" stroke-width="2"></path>
                                <path d="M188.922812,140 L189,135 L188,135 L188,139.699605 C188.130846,139.739676 188.260545,139.780443 188.389383,139.822045 L188.922812,140 Z" id="Stroke-63" stroke="#082674" stroke-width="2"></path>
                                <path d="M178,135 L177,135 L177,140 L177.508752,139.830105 C177.670875,139.77784 177.83472,139.72669 178,139.676655 L178,135 Z" id="Stroke-65" stroke="#082674" stroke-width="2"></path>
                                <path d="M189,133.5 C189,133.776141 188.776165,134 188.500053,134 C188.223835,134 188,133.776141 188,133.5 C188,133.223859 188.223835,133 188.500053,133 C188.776165,133 189,133.223859 189,133.5 Z" id="Stroke-67" stroke="#082674" stroke-width="2"></path>
                                <path d="M178,133.5 C178,133.776141 177.776165,134 177.500053,134 C177.223835,134 177,133.776141 177,133.5 C177,133.223859 177.223835,133 177.500053,133 C177.776165,133 178,133.223859 178,133.5 Z" id="Stroke-69" stroke="#082674" stroke-width="2"></path>
                                <path d="M180,107 C180,107 182.486726,109.25 186,107" id="Stroke-71" stroke="#082674" stroke-linecap="round" stroke-linejoin="round"></path>
                                <path d="M190,83.5 C190,84.8806671 189.776175,86 189.499947,86 C189.223825,86 189,84.8806671 189,83.5 C189,82.1193329 189.223825,81 189.499947,81 C189.776175,81 190,82.1193329 190,83.5 Z" id="Stroke-73" stroke="#082674" stroke-width="2"></path>
                                <path d="M171,83.5 C171,84.8806671 170.776175,86 170.499947,86 C170.223825,86 170,84.8806671 170,83.5 C170,82.1193329 170.223825,81 170.499947,81 C170.776175,81 171,82.1193329 171,83.5 Z" id="Stroke-75" stroke="#082674" stroke-width="2"></path>
                                <path d="M155,94.5408621 C155,108.601616 166.416645,120 180.500073,120 C194.583208,120 206,108.601616 206,94.5408621 L206,76 L155,76 L155,94.5408621 Z" id="Stroke-77" stroke="#082674" stroke-width="2"></path>
                                <path d="M205.219386,76.2076255 L212.769927,76.2076255 L212.769927,111 C212.769927,111 249.287591,61.5372001 212.769927,20.1089578 C212.769927,20.1089578 182.338733,-10.3368551 144.21726,18.2201895 C144.21726,18.2201895 103.2926,51.2287193 147.63347,110.970105 L147.522433,76.2076255 L154.718408,76.2076255 L205.219386,76.2076255 Z" id="Stroke-79" stroke="#082674" stroke-width="2" fill="#FFFFFF"></path>
                                <path d="M148,108 L159,108" id="Stroke-81" stroke="#082674" stroke-width="2"></path>
                                <path d="M202,108 L213,108" id="Stroke-83" stroke="#082674" stroke-width="2"></path>
                                <polygon id="Stroke-85" stroke="#082674" stroke-width="2" points="177 85 184 85 184 83 177 83"></polygon>
                                <path d="M177,83 C177,91.2843327 170.284333,98 162,98 C153.715667,98 147,91.2843327 147,83 C147,74.7156673 153.715667,68 162,68 C170.284333,68 177,74.7156673 177,83 Z" id="Stroke-87" stroke="#082674" stroke-width="2"></path>
                                <path d="M214,83 C214,91.2843327 207.284333,98 199,98 C190.715667,98 184,91.2843327 184,83 C184,74.7156673 190.715667,68 199,68 C207.284333,68 214,74.7156673 214,83 Z" id="Stroke-88" stroke="#082674" stroke-width="2"></path>
                                <g id="Group-91" transform="translate(147.000000, 68.000000)">
                                    <path d="M29.9708077,14.9388029 C29.9708077,23.1834663 23.2872981,29.866976 15.0426346,29.866976 C6.79797115,29.866976 0.114461538,23.1834663 0.114461538,14.9388029 C0.114461538,6.69413942 6.79797115,0.0106298077 15.0426346,0.0106298077 C23.2872981,0.0106298077 29.9708077,6.69413942 29.9708077,14.9388029" id="Fill-89" fill-opacity="0.45" fill="#F5A623"></path>
                                    <path d="M29.9708077,14.9388029 C29.9708077,23.1834663 23.2872981,29.866976 15.0426346,29.866976 C6.79797115,29.866976 0.114461538,23.1834663 0.114461538,14.9388029 C0.114461538,6.69413942 6.79797115,0.0106298077 15.0426346,0.0106298077 C23.2872981,0.0106298077 29.9708077,6.69413942 29.9708077,14.9388029 Z" id="Stroke-90" stroke="#082674" stroke-width="2"></path>
                                </g>
                                <g id="Group-94" transform="translate(184.000000, 68.000000)">
                                    <path d="M29.9060769,14.9388029 C29.9060769,23.1834663 23.2225673,29.866976 14.9779038,29.866976 C6.73324038,29.866976 0.0497307692,23.1834663 0.0497307692,14.9388029 C0.0497307692,6.69413942 6.73324038,0.0106298077 14.9779038,0.0106298077 C23.2225673,0.0106298077 29.9060769,6.69413942 29.9060769,14.9388029" id="Fill-92" fill-opacity="0.45" fill="#F5A623"></path>
                                    <path d="M29.9060769,14.9388029 C29.9060769,23.1834663 23.2225673,29.866976 14.9779038,29.866976 C6.73324038,29.866976 0.0497307692,23.1834663 0.0497307692,14.9388029 C0.0497307692,6.69413942 6.73324038,0.0106298077 14.9779038,0.0106298077 C23.2225673,0.0106298077 29.9060769,6.69413942 29.9060769,14.9388029 Z" id="Stroke-93" stroke="#082674" stroke-width="2"></path>
                                </g>
                                <path d="M201,71 C201,71 206.619799,72.7999756 209,79" id="Stroke-95" stroke="#FFFFFF" stroke-width="2" stroke-linecap="round" stroke-linejoin="round"></path>
                                <path d="M151,79 C151,79 152.799976,73.3802008 159,71" id="Stroke-96" stroke="#FFFFFF" stroke-width="2" stroke-linecap="round" stroke-linejoin="round"></path>
                                <polygon id="Fill-97" fill="#082674" points="208.999922 103 207 100.999922 208.999922 99 211 100.999922"></polygon>
                                <polygon id="Stroke-98" stroke="#082674" points="209 103 206 100 209 97 212 100"></polygon>
                                <path d="M209,97 L209,94" id="Stroke-99" stroke="#082674" stroke-width="2"></path>
                                <polygon id="Fill-100" fill="#082674" points="151.999922 103 150 100.999922 151.999922 99 154 100.999922"></polygon>
                                <polygon id="Stroke-101" stroke="#082674" points="152 103 149 100 152 97 155 100"></polygon>
                                <path d="M152,97 L152,94" id="Stroke-102" stroke="#082674" stroke-width="2"></path>
                                <path d="M186,101 C186,101.552209 185.552136,102 184.999836,102 C184.447536,102 184,101.552209 184,101 C184,100.447791 184.447536,100 184.999836,100 C185.552136,100 186,100.447791 186,101" id="Fill-103" fill="#082674"></path>
                                <path d="M298.500978,179.483441 L295.793048,190.512709 C295.457233,191.880726 294.028755,193 292.618652,193 L269.616583,193 C268.20648,193 267.104557,191.84864 267.167929,190.441598 L269.786299,132.243994 C269.849526,130.836808 269.592565,130.796049 269.215226,132.153226 L267.026861,140.023119 C266.649521,141.380296 265.187042,142.490753 263.776939,142.490753 L253.593409,142.490753 C252.183306,142.490753 251.59791,141.48783 252.292544,140.262034 L270.635167,107.892276 C271.329802,106.666481 273.010032,105.970981 274.368916,106.346771 C274.368916,106.346771 288.570936,110.273479 324.650821,105 L344.70594,140.263913 C345.402455,141.488697 344.818649,142.490753 343.408691,142.490753 L333.225016,142.490753 C331.814913,142.490753 330.352579,141.380296 329.975095,140.023119 L327.78673,132.153226 C327.40939,130.796049 327.152429,130.836808 327.215657,132.243994 L329.834027,190.441598 C329.897399,191.84864 328.795476,193 327.385373,193 L304.383303,193 C302.9732,193 301.544723,191.880726 301.208908,190.512709 L298.500978,179.483441" id="Stroke-104" stroke="#082674" stroke-width="2"></path>
                                <path d="M276.086685,198 C274.656128,198 272.315124,198.016237 270.884714,198.036221 C270.884714,198.036221 261.693625,198.163896 261,208 L288.398868,208 C289.829571,208 291,206.893391 291,205.541009 L291,200.458991 C291,199.106609 289.829571,198 288.398868,198 L276.086685,198 Z" id="Stroke-105" stroke="#082674" stroke-width="2"></path>
                                <path d="M322.913315,198 C324.343872,198 326.684876,198.016237 328.115286,198.036221 C328.115286,198.036221 337.306375,198.163896 338,208 L310.601132,208 C309.170429,208 308,206.893391 308,205.541009 L308,200.458991 C308,199.106609 309.170429,198 310.601132,198 L322.913315,198 Z" id="Stroke-106" stroke="#082674" stroke-width="2"></path>
                                <path d="M269,161 C269,161 306.067353,150.523268 329,159.900596" id="Stroke-107" stroke="#082674" stroke-width="2"></path>
                                <path d="M288.389267,140.721613 L287.009066,137.187191 L285.575084,140.721613 L288.389267,140.721613 Z M286.375514,136 L287.746495,136 L291,144 L289.66974,144 L288.734086,141.603812 L285.217049,141.603812 L284.244823,144 L283,144 L286.375514,136 Z" id="Stroke-108" stroke="#082674" stroke-width="2"></path>
                                <path d="M292,144 L293,144 L293,138.194696 L292,138.194696 L292,144 Z M292,137.110924 L293,137.110924 L293,136 L292,136 L292,137.110924 Z" id="Stroke-109" stroke="#082674" stroke-width="2"></path>
                                <path d="M297,146.460734 C297,147.857409 295.857266,149 294.460734,149 L281.539266,149 C280.142734,149 279,147.857409 279,146.460734 L279,133.539266 C279,132.142734 280.142734,131 281.539266,131 L294.460734,131 C295.857266,131 297,132.142734 297,133.539266 L297,146.460734 Z" id="Stroke-110" stroke="#082674" stroke-width="2"></path>
                                <path d="M308.724262,128.036725 C308.442583,127.989457 308.084707,128.021813 307.649441,128.133653 L305.403321,128.711562 L306.196166,131.454943 L308.442434,130.877175 C308.948978,130.746765 309.330712,130.53856 309.587637,130.252419 C309.843668,129.96656 309.897349,129.56478 309.747787,129.047363 C309.579585,128.465233 309.238708,128.128307 308.724262,128.036725 Z M304,128.082305 L307.755461,127.116263 C308.498203,126.92522 309.154458,126.969675 309.726165,127.249204 C310.297127,127.528874 310.686764,128.027862 310.894481,128.746591 C311.073121,129.364594 311.024957,129.955165 310.74984,130.518021 C310.474723,131.081018 309.918076,131.470277 309.07841,131.68636 L306.458012,132.360353 L307.425321,135.707528 L306.288468,136 L304,128.082305 Z" id="Stroke-111" stroke="#082674" stroke-width="2"></path>
                                <path d="M313.609412,132.055838 C313.738888,132.399465 313.902818,132.645417 314.104448,132.792926 C314.471398,133.059732 314.993781,133.101286 315.670515,132.918202 C316.073001,132.809333 316.403797,132.628243 316.66383,132.374778 C316.922935,132.121773 317.003433,131.81694 316.905476,131.460586 C316.831314,131.190253 316.652396,131.01775 316.369034,130.942922 C316.188571,130.899221 315.852213,130.882967 315.360268,130.894007 L314.441888,130.915321 C313.855694,130.930961 313.410409,130.891554 313.103716,130.797865 C312.560475,130.637629 312.219018,130.305042 312.080118,129.799798 C311.916651,129.204546 312.003329,128.663574 312.34015,128.176884 C312.677127,127.690194 313.215424,127.346721 313.955505,127.146463 C314.923326,126.884564 315.697244,126.97396 316.278184,127.414189 C316.642354,127.694334 316.877047,128.039035 316.981029,128.448443 L315.974736,128.720769 C315.888676,128.488464 315.742669,128.296487 315.536095,128.142997 C315.20947,127.933693 314.737456,127.913146 314.118817,128.080589 C313.707369,128.191911 313.415663,128.352915 313.245243,128.562066 C313.075133,128.772137 313.024609,129.001528 313.09321,129.25116 C313.168299,129.524406 313.367457,129.705036 313.691764,129.793971 C313.879179,129.847332 314.139675,129.869566 314.47387,129.858986 L315.238981,129.835065 C316.068984,129.808231 316.640809,129.844879 316.953527,129.945468 C317.442074,130.103558 317.766071,130.472332 317.925367,131.052097 C318.079254,131.612082 317.995048,132.154587 317.673832,132.678997 C317.351688,133.203868 316.747572,133.586136 315.860556,133.826108 C314.905558,134.08448 314.171349,134.054886 313.657,133.737633 C313.142652,133.420226 312.785126,132.95209 312.585351,132.332917 L313.609412,132.055838 Z" id="Stroke-112" stroke="#082674" stroke-width="2"></path>
                                <path d="M320.910572,134.376002 C321.279004,135.727013 320.475035,137.133922 319.123879,137.502209 L306.623922,140.910631 C305.272909,141.278919 303.866143,140.474951 303.497711,139.12394 L300.089429,126.623998 C299.720997,125.272987 300.524966,123.866078 301.875978,123.497791 L314.375935,120.089369 C315.727092,119.721081 317.133858,120.525049 317.50229,121.87606 L320.910572,134.376002 Z" id="Stroke-113" stroke="#082674" stroke-width="2"></path>
                                <path d="M322.942139,13.4906001 C321.899628,12.7473065 321.68982,11.3325514 322.475932,10.3468245 L323.637147,8.89082208 C324.423259,7.90509524 325.919513,7.70671525 326.962173,8.45000885 L334.057955,13.5093999 C335.100466,14.2526935 335.310126,15.6674486 334.524014,16.6531755 L333.362799,18.1091779 C332.576687,19.0949048 331.080433,19.2932847 330.037922,18.5499911 L322.942139,13.4906001 Z" id="Stroke-114" stroke="#082674" stroke-width="2" fill="#FFFFFF"></path>
                                <path d="M295,81.1819111 C295,81.1819111 298.300443,83.8273658 303,81 C303,81 302.907313,87.0158787 299,86.9999685 C295.230206,86.9844807 295,81.1819111 295,81.1819111 Z" id="Stroke-115" stroke="#082674" stroke-width="2"></path>
                                <path d="M312,62 C312,63.6569623 311.552333,65 311,65 C310.447667,65 310,63.6569623 310,62 C310,60.3431762 310.447667,59 311,59 C311.552333,59 312,60.3431762 312,62 Z" id="Stroke-116" stroke="#082674" stroke-width="2"></path>
                                <path d="M288,63 C288,64.6569623 287.552333,66 287,66 C286.447667,66 286,64.6569623 286,63 C286,61.3431762 286.447667,60 287,60 C287.552333,60 288,61.3431762 288,63 Z" id="Stroke-117" stroke="#082674" stroke-width="2"></path>
                                <path d="M328,9.83294548 C328,9.83294548 330.092653,0.47854728 335.287725,0.0428036868 C340.482942,-0.392939906 341.788528,2.65712 348.099275,2.00350461 C348.099275,2.00350461 345.270335,5.35074164 340.047698,5.20215307 C340.047698,5.20215307 352.669192,5.89789034 356.368475,9.83294548 C356.368475,9.83294548 352.886669,8.73007845 347.664031,9.83294548 C347.664031,9.83294548 358.109451,12.4607698 362.4616,31.8504882 C366.813895,51.2400614 376.823925,51.8936768 379,52.3294204 C379,52.3294204 360.997004,59.7366257 349.216692,25.3146248 C349.216692,25.3146248 349.405007,40.8806932 351.798704,45.8425055 C351.798704,45.8425055 335.287725,30.626775 335.287725,15.3347893 L328,9.83294548 Z" id="Stroke-118" stroke="#082674" stroke-width="2" fill="#FFFFFF"></path>
                                <path d="M304.072214,61 L304.072214,62.587698 L297.0108,62.587698 L297.0108,61 C297.0108,69.7351848 289.980826,76.8164141 281.309013,76.8164141 C276.866978,76.8164141 272.856267,74.9578487 270,71.971301 C273.504483,85.2306735 285.504308,95 299.771442,95 C313.375002,95 324.91786,86.1182899 329,73.7980513 C326.409888,75.6960209 323.222124,76.8164141 319.774001,76.8164141 C311.102188,76.8164141 304.072214,69.7351848 304.072214,61 Z" id="Stroke-119" stroke="#082674" stroke-width="2"></path>
                                <path d="M335.288555,57.4665038 L335.288555,60.930924 C335.288555,64.8345449 333.860476,68.4047147 331.49839,71.148996 C331.292393,93.3990856 334.839358,112.396109 334.839358,112.396109 C336.479659,122.443912 346.420337,132 346.420337,132 C342.366994,120.645735 349,57.4665038 349,57.4665038 C349,30.1469439 326.838059,8 299.5,8 C272.161796,8 250,30.1469439 250,57.4665038 C250,57.4665038 256.86173,120.645735 252.808387,132 C252.808387,132 260.187353,127.698697 264.389367,112.396109 C264.389367,112.396109 268.170411,92.1458589 267.698342,68.972522 C266.289516,66.6211488 265.478992,63.8707915 265.478992,60.930924 L265.478992,57.4665038 L335.288555,57.4665038 Z" id="Stroke-120" stroke="#082674" stroke-width="2" fill="#FFFFFF"></path>
                                <path d="M297,61 L304,61" id="Stroke-121" stroke="#082674" stroke-width="2"></path>
                                <path d="M269.605152,58 L267,58 C267.366064,61.771458 267.571779,65.5403737 267.655003,69.233445 C268.319706,70.2356644 269.107525,71.1635931 270,72 C269.271315,69.5286308 268.88069,66.9326904 268.88069,64.2541261 C268.88069,62.1092974 269.131772,60.0175739 269.605152,58 Z" id="Stroke-122" stroke="#082674" stroke-width="2"></path>
                                <path d="M329.820514,58 C330.21657,60.0472765 330.426639,62.1697943 330.426639,64.346199 C330.426639,67.7204432 329.924698,70.9661325 329,74 C329.891715,73.28958 330.705292,72.4688063 331.423193,71.5550201 C331.460626,67.1245331 331.634833,62.5642013 332,58 L329.820514,58 Z" id="Stroke-123" stroke="#082674" stroke-width="2"></path>
                                <polygon id="Fill-124" fill="#FFFFFF" points="297 63 304 63 304 61 297 61"></polygon>
                                <polygon id="Stroke-125" stroke="#082674" stroke-width="2" points="297 63 304 63 304 61 297 61"></polygon>
                                <g id="Group-128" transform="translate(265.000000, 57.000000)">
                                    <path d="M31.5793843,0.130830597 C31.8356793,1.2233306 31.9710525,2.3600694 31.9710525,3.5270097 C31.9710525,12.0137709 24.815882,18.8936142 15.9894857,18.8936142 C7.16323687,18.8936142 0.00806635945,12.0137709 0.00806635945,3.5270097 C0.00806635945,2.36021119 0.143292166,1.22375597 0.399587097,0.131397761 L31.5793843,0.130830597 Z" id="Fill-126" fill-opacity="0.45" fill="#F5A623"></path>
                                    <path d="M31.5793843,0.130830597 C31.8356793,1.2233306 31.9710525,2.3600694 31.9710525,3.5270097 C31.9710525,12.0137709 24.815882,18.8936142 15.9894857,18.8936142 C7.16323687,18.8936142 0.00806635945,12.0137709 0.00806635945,3.5270097 C0.00806635945,2.36021119 0.143292166,1.22375597 0.399587097,0.131397761 L31.5793843,0.130830597 Z" id="Stroke-127" stroke="#082674" stroke-width="2"></path>
                                </g>
                                <g id="Group-131" transform="translate(304.000000, 57.000000)">
                                    <path d="M31.5061284,0.13156791 C31.7612477,1.22392612 31.8958532,2.36023955 31.8958532,3.52703806 C31.8958532,12.0137993 24.7735046,18.8935007 15.9875963,18.8935007 C7.20183486,18.8935007 0.0794862385,12.0137993 0.0794862385,3.52703806 C0.0794862385,2.36023955 0.214091743,1.22378433 0.469211009,0.131284328 L31.5061284,0.13156791 Z" id="Fill-129" fill-opacity="0.45" fill="#F5A623"></path>
                                    <path d="M31.5061284,0.13156791 C31.7612477,1.22392612 31.8958532,2.36023955 31.8958532,3.52703806 C31.8958532,12.0137993 24.7735046,18.8935007 15.9875963,18.8935007 C7.20183486,18.8935007 0.0794862385,12.0137993 0.0794862385,3.52703806 C0.0794862385,2.36023955 0.214091743,1.22378433 0.469211009,0.131284328 L31.5061284,0.13156791 Z" id="Stroke-130" stroke="#082674" stroke-width="2"></path>
                                </g>
                                <path d="M331,65 C331,65 329.029821,70.5670512 325,72" id="Stroke-132" stroke="#FFFFFF" stroke-width="2"></path>
                                <path d="M293,65 C293,65 291.029821,70.5670512 287,72" id="Stroke-133" stroke="#FFFFFF" stroke-width="2"></path>
                                <path d="M273,88 C273,94.0751193 272.104567,99 270.999921,99 C269.895433,99 269,94.0751193 269,88 C269,81.9248807 269.895433,77 270.999921,77 C272.104567,77 273,81.9248807 273,88 Z" id="Stroke-134" stroke="#082674" stroke-width="2"></path>
                                <path d="M330,88 C330,94.0751193 329.104567,99 327.999921,99 C326.895433,99 326,94.0751193 326,88 C326,81.9248807 326.895433,77 327.999921,77 C329.104567,77 330,81.9248807 330,88 Z" id="Stroke-135" stroke="#082674" stroke-width="2"></path>
                                <path d="M289.642251,118.62199 L292.109533,118.62199 L287.792888,124.421685 L289.642251,118.62199 Z M284.950572,118.62199 L289.049995,118.62199 L287.000284,124.960713 L284.950572,118.62199 Z M281.891034,118.62199 L284.358317,118.62199 L286.207679,124.421685 L281.891034,118.62199 Z M290.626555,115.865508 L292.190495,118.065457 L289.842599,118.065457 L290.626555,115.865508 Z M283.373871,115.865508 L284.157968,118.065457 L281.810072,118.065457 L283.373871,115.865508 Z M287.000284,115.721999 L288.879422,118.065457 L285.121003,118.065457 L287.000284,115.721999 Z M287.579778,115.561129 L290.157798,115.561129 L289.36094,117.791603 L287.579778,115.561129 Z M283.842627,115.561129 L286.420789,115.561129 L284.639485,117.791603 L283.842627,115.561129 Z M287.093723,125.986691 C287.095141,125.985244 287.096559,125.983797 287.097835,125.982351 C287.10379,125.9783 287.109462,125.973815 287.114991,125.969331 C287.116409,125.967884 287.117827,125.966437 287.119103,125.964991 C287.125058,125.960795 287.13073,125.956455 287.13626,125.951826 C287.137678,125.950524 287.139096,125.949077 287.140372,125.947631 C287.152991,125.935623 287.164334,125.922603 287.174543,125.908426 L292.927092,118.530561 C293.015569,118.433345 293.024502,118.286074 292.948502,118.178442 L290.766643,115.117581 C290.713188,115.040473 290.624853,114.996205 290.532264,115.000256 L290.532832,115.000256 C290.522906,115.001269 290.512839,115.002715 290.503056,115.004596 L283.489004,115.004596 L283.459086,115.004596 L283.454974,115.004596 C283.447885,115.004451 283.440654,115.004451 283.433564,115.004596 C283.353878,115.010527 283.280573,115.051902 283.233357,115.117725 L281.051498,118.178442 C280.975498,118.286074 280.984431,118.43349 281.072908,118.530706 L286.791569,125.904231 L286.795681,125.908571 C286.801211,125.914502 286.806882,125.920433 286.812838,125.925931 C286.82333,125.93707 286.834673,125.947197 286.846867,125.956311 C286.849703,125.957902 286.852539,125.959204 286.855375,125.960651 L286.859486,125.960651 C286.865016,125.96528 286.870688,125.96962 286.876643,125.973671 C286.878061,125.973815 286.879479,125.973815 286.880755,125.973671 C286.887844,125.976853 286.894934,125.979747 286.902165,125.982351 C286.903441,125.983797 286.904859,125.985244 286.906277,125.986691 C286.913367,125.988427 286.920456,125.989873 286.927687,125.991031 C286.936053,125.994358 286.94456,125.997107 286.953209,125.999566 L286.957463,125.999566 L286.961717,125.999566 C286.968806,125.999855 286.975896,125.999855 286.982985,125.999566 L286.987239,125.999566 C286.994328,125.999855 287.001418,125.999855 287.008507,125.999566 L287.012761,125.999566 C287.022686,126.000145 287.032612,126.000145 287.042537,125.999566 C287.049768,125.998409 287.056858,125.997107 287.063805,125.995371 C287.065223,125.993924 287.066641,125.992477 287.068059,125.991031 C287.076708,125.990018 287.085216,125.988571 287.093723,125.986691 L287.093723,125.986691 Z" id="Fill-136" fill="#082674"></path>
                                <path d="M241,186.712456 C241,187.420613 240.423149,188 239.718093,188 L125.282052,188 C124.576851,188 124,187.420613 124,186.712456 L124,127.287544 C124,126.579387 124.576851,126 125.282052,126 L239.718093,126 C240.423149,126 241,126.579387 241,127.287544 L241,186.712456 Z" id="Fill-137" fill="#FFFFFF"></path>
                                <path d="M241,186.712456 C241,187.420613 240.423149,188 239.718093,188 L125.282052,188 C124.576851,188 124,187.420613 124,186.712456 L124,127.287544 C124,126.579387 124.576851,126 125.282052,126 L239.718093,126 C240.423149,126 241,126.579387 241,127.287544 L241,186.712456 Z" id="Stroke-138" stroke="#082674" stroke-width="2"></path>
                                <polygon id="Fill-139" fill="#FFFFFF" points="117 197 248 197 248 190 117 190"></polygon>
                                <polygon id="Stroke-140" stroke="#082674" stroke-width="2" points="117 197 248 197 248 190 117 190"></polygon>
                                <polygon id="Fill-141" fill="#FFFFFF" points="117 207 145 207 145 200 117 200"></polygon>
                                <polygon id="Stroke-142" stroke="#082674" stroke-width="2" points="117 207 145 207 145 200 117 200"></polygon>
                                <polygon id="Fill-143" fill="#FFFFFF" points="220 207 248 207 248 200 220 200"></polygon>
                                <polygon id="Stroke-144" stroke="#082674" stroke-width="2" points="220 207 248 207 248 200 220 200"></polygon>
                                <path d="M231.40106,128.503822 C231.40106,128.503822 232.748675,134.154041 231.40106,135.705542 C230.053446,137.257191 227.358367,135.666234 228.032174,133.580227 C228.032174,133.580227 227.653794,136.759629 225.623539,136.983067 C223.321813,137.23665 223.771018,134.558209 223.771018,134.558209 C224.257657,133.912871 219.51645,140.899133 220.040522,131.737016 C220.040522,131.737016 220.01941,129.556727 221.463004,126.786517 C223.011263,123.815922 230.827426,124.659428 231.40106,128.503822 Z" id="Stroke-145" stroke="#082674" stroke-width="2"></path>
                                <path d="M131.59894,128.503822 C131.59894,128.503822 130.251325,134.154041 131.59894,135.705542 C132.946554,137.257191 135.641633,135.666382 134.967826,133.580227 C134.967826,133.580227 135.346206,136.759629 137.376312,136.983067 C139.678187,137.23665 139.228982,134.558209 139.228982,134.558209 C138.742343,133.912871 143.48355,140.899133 142.959478,131.737016 C142.959478,131.737016 142.98059,129.556727 141.536996,126.786517 C139.988737,123.815922 132.172574,124.659428 131.59894,128.503822 Z" id="Stroke-146" stroke="#082674" stroke-width="2"></path>
                                <polygon id="Stroke-147" stroke="#082674" points="151.069697 151.185806 155 151.185806 155 149 145 149 145 151.185806 148.805961 151.185806 148.805961 166 151.069697 166"></polygon>
                                <path d="M156.887444,163.509564 C156.495665,163.244216 156.3,162.779185 156.3,162.11492 L156.3,161.143613 L163,160.770159 L163,157.183932 C163,155.872526 162.612407,154.847166 161.837369,154.108151 C161.062481,153.369582 159.983109,153 158.6,153 C157.216442,153 156.103886,153.373603 155.262481,154.120659 C154.420628,154.867864 154,155.913773 154,157.258682 L154,162.364038 C154,164.788211 155.449925,166 158.349925,166 C159.749925,166 161.09133,165.610018 162.374888,164.829458 L161.524963,162.91186 C160.274888,163.575976 159.183109,163.908034 158.249925,163.908034 C157.733184,163.908034 157.278924,163.77536 156.887444,163.509564 Z M156.3,159.026929 L156.3,157.283401 C156.3,156.652639 156.495665,156.142044 156.887444,155.751764 C157.278924,155.361931 157.795665,155.166716 158.437519,155.166716 C159.078924,155.166716 159.616293,155.328576 160.049925,155.652147 C160.483109,155.976015 160.699851,156.47842 160.699851,157.159065 L160.699851,158.777811 L156.3,159.026929 Z" id="Stroke-148" stroke="#082674"></path>
                                <path d="M165.613073,156.106 C164.537831,156.673913 164,157.784129 164,159.437398 L164,161.516451 C164,164.505783 165.706578,166 169.119456,166 C170.085678,166 171.37896,165.916281 173,165.749591 L173,158.285247 C173,157.650688 172.976519,157.041289 172.929836,156.456602 C172.898388,156.072602 172.836331,155.767828 172.742825,155.54228 C172.64932,155.316882 172.532333,155.054043 172.392145,154.753462 C172.251957,154.452732 172.056839,154.211009 171.807771,154.026946 C171.558284,153.843483 171.27008,153.65987 170.942881,153.475807 C170.335026,153.158902 169.399972,153 168.137719,153 L167.97405,154.603097 C169.906215,154.603097 170.872717,155.304302 170.872717,156.707161 C169.89084,156.039504 168.722093,155.705226 167.366195,155.705226 C166.727031,155.705226 166.142657,155.839117 165.613073,156.106 Z M169.166278,163.921096 C167.140188,163.921096 166.127283,163.061139 166.127283,161.341075 L166.127283,159.687807 C166.127283,159.036624 166.290952,158.590021 166.618151,158.347849 C166.94549,158.105977 167.237747,157.984516 167.494782,157.984516 C167.751957,157.984516 167.934914,157.993203 168.044214,158.009677 C169.103802,158.143418 170.046543,158.46901 170.872717,158.986452 L170.872717,163.770731 C170.249208,163.870925 169.680488,163.921096 169.166278,163.921096 Z" id="Stroke-149" stroke="#082674"></path>
                                <path d="M180.398973,153 C179.565488,153 178.812491,153.188606 178.139408,153.565817 L177.995104,153.188606 L176,153.188606 L176,165 L178.187413,165 L178.187413,155.616798 C178.940554,155.192647 179.645545,154.980359 180.302818,154.980359 C180.959804,154.980359 181.516754,155.192647 181.973525,155.616798 C182.430296,156.041231 182.658682,156.685845 182.658682,157.550076 L182.658682,165 L184.846095,165 L184.846095,156.701351 C184.846095,156.277059 184.773943,155.907882 184.629783,155.593257 L185.206711,155.357571 C185.863697,155.121884 186.432577,155.004041 186.913494,155.004041 C188.179173,155.004041 188.812443,155.837261 188.812443,157.502854 L188.812443,165 L191,165 L191,156.842876 C191,155.727029 190.66353,154.807541 189.990303,154.084412 C189.31722,153.361706 188.403821,153 187.249964,153 C186.03186,153 184.741748,153.377211 183.379771,154.131634 C182.658682,153.377211 181.664795,153 180.398973,153 Z" id="Stroke-150" stroke="#082674"></path>
                                <path d="M213,159.661411 L209.583904,159.661411 L210.224458,156.844389 L213,156.844389 L213,154.610084 L210.74629,154.610084 L212.027397,149 L209.821204,149 L208.540097,154.610084 L205.71718,154.610084 L206.998145,149 L204.910531,149 L203.653254,154.610084 L200,154.610084 L200,156.844389 L203.131279,156.844389 L202.46718,159.661411 L200,159.661411 L200,161.750073 L201.992581,161.750073 L201.019978,166 L203.107592,166 L204.056507,161.750073 L206.855879,161.750073 L205.930651,166 L208.113156,166 L209.085759,161.750073 L213,161.750073 L213,159.661411 Z M204.554652,159.661411 L205.195206,156.844389 L208.018265,156.844389 L207.354024,159.661411 L204.554652,159.661411 Z" id="Stroke-151" stroke="#082674"></path>
                                <path d="M220,149 L217.747454,149 C217.400989,149.453482 216.967795,149.821873 216.448023,150.104882 C215.92825,150.388472 215.445477,150.562721 215,150.627193 L215.618784,152.594316 L215.990114,152.545672 C216.699325,152.448528 217.285401,152.262663 217.747454,151.987059 L217.722739,166 L220,166 L220,149 Z" id="Stroke-152" stroke="#082674"></path>
                                <path d="M238,180 L238,183.484848 C238,184.318182 237.365907,185 236.590904,185 L234,185" id="Stroke-153" stroke="#082674" stroke-width="2"></path>
                                <path d="M132,184 L128.515152,184 C127.681818,184 127,183.365907 127,182.590904 L127,180" id="Stroke-154" stroke="#082674" stroke-width="2"></path>
                            </g>
                        </g>
                    </g>
                </g>
            </g>
        </g>
    </g>
</svg>