<?xml version="1.0" encoding="UTF-8"?>
<svg width="311px" height="239px" viewBox="0 0 311 239" version="1.1" xmlns="http://www.w3.org/2000/svg" xmlns:xlink="http://www.w3.org/1999/xlink">
    <!-- Generator: Sketch 41.2 (35397) - http://www.bohemiancoding.com/sketch -->
    <title>Group 24</title>
    <desc>Created with Sketch.</desc>
    <defs></defs>
    <g id="homepage" stroke="none" stroke-width="1" fill="none" fill-rule="evenodd">
        <g id="Desktop-HD-Copy-8" transform="translate(-249.000000, -5108.000000)">
            <g id="Group-24" transform="translate(250.000000, 5109.000000)">
                <g id="Page-1">
                    <path d="M122.689889,74.5748209 C123.800898,75.0738532 124.959998,75.5061516 126.171115,75.8538877 C126.171115,75.8538877 152.588651,35.6990431 114.352744,10.0195703 C114.352744,10.0195703 64.8300874,-22.0388799 33.7506333,33.0820268 C14.2850804,66.9396757 57.1420119,95.890419 44.3830781,118.789312 C44.3830781,118.789312 53.6252899,114.860516 64.7429014,107.533034" id="Stroke-3" stroke="#082674" stroke-width="2" fill="#FFFFFF"></path>
                    <path d="M102.381729,51.0902948 C103.528421,76.6914873 81.7429247,96.1236195 64.470516,107.431662 C70.7371157,113.391447 79.2365474,117.05344 88.5976386,117.05344 C107.868224,117.05344 123.490172,101.536909 123.490172,82.3963603 C123.490172,79.7118005 123.182659,77.0987919 122.601109,74.5897691 C108.513115,68.3041732 102.381729,51.0902948 102.381729,51.0902948 Z" id="Stroke-1" stroke="#082674" stroke-width="2" fill="#FFFFFF"></path>
                    <path d="M91.6658477,102.009214 C91.6658477,102.009214 94.5436467,104.613022 98.6093366,102.009214" id="Stroke-5" stroke="#082674" stroke-width="2" stroke-linecap="round" stroke-linejoin="round"></path>
                    <path d="M34.1758492,33.0571105 C33.4345175,34.2713214 31.8090559,34.6735428 30.563566,33.9508288 L28.7239895,32.8835371 C27.4784996,32.1608231 27.0659166,30.5761832 27.8070836,29.3619723 L32.8524543,21.0977275 C33.5936213,19.8835166 35.2192476,19.4812952 36.4647375,20.2038486 L38.304314,21.2713008 C39.5498039,21.9938543 39.9623869,23.5786548 39.2210552,24.7928656 L34.1758492,33.0571105 Z" id="Stroke-7" stroke="#082674" stroke-width="2"></path>
                    <path d="M32,17.99992 C32,25.7318925 25.7320525,32 18.00008,32 C10.2679475,32 4,25.7318925 4,17.99992 C4,10.2679475 10.2679475,4 18.00008,4 C25.7320525,4 32,10.2679475 32,17.99992 Z" id="Stroke-9" stroke="#082674" stroke-width="2"></path>
                    <path d="M33.0354205,17.591559 C33.0354205,25.5466867 26.6014153,31.9957002 18.6645983,31.9957002 C10.727617,31.9957002 4.29361179,25.5466867 4.29361179,17.591559 C4.29361179,9.6364313 19.0216598,24.2073332 26.9584768,24.2073332 C34.8952938,24.2073332 33.0354205,9.6364313 33.0354205,17.591559 Z" id="Stroke-11" stroke="#082674" stroke-width="2"></path>
                    <path d="M12.9328718,12.0769846 C12.9328718,19.8090013 26.467907,32 18.4741273,32 C10.4803476,32 4,25.7320167 4,18 C4,10.2679833 10.4803476,4 18.4741273,4 C26.467907,4 12.9328718,4.34496788 12.9328718,12.0769846 Z" id="Stroke-13" stroke="#082674" stroke-width="2"></path>
                    <path d="M8.02481135,26.7880835 C8.02481135,26.7880835 -2.31862083,31.9161238 0.844792561,45.4850996 C4.00820595,59.0540754 7.17161934,61.4528164 2.54809412,66.713145 C2.54809412,66.713145 14.8393155,55.4354869 13.0738781,47.2505145 C13.0738781,47.2505145 17.3917532,55.4603519 14.7150437,60.1824263 C14.7150437,60.1824263 25.185019,49.9781885 21.4101432,41.9623957 C21.4101432,41.9623957 13.3879643,36.4405784 13.4431241,30.8058122 C13.4431241,30.8058122 9.17018797,28.3745679 8.02481135,26.7880835 Z" id="Stroke-15" stroke="#082674" stroke-width="2"></path>
                    <path d="M91.3765356,121.682432 C71.0840694,121.682432 54.6339066,137.886 54.6339066,157.874326 L54.6339066,173.7586 L128.119165,173.7586 L128.119165,157.874326 C128.119165,137.886 111.669002,121.682432 91.3765356,121.682432 Z" id="Stroke-25" stroke="#082674" stroke-width="2"></path>
                    <path d="M291.260467,223.824455 C291.481363,225.248288 290.485696,226.413391 289.047909,226.413391 L13.9939317,226.413391 C12.5561451,226.413391 11.5956056,225.254347 11.8593087,223.837719 L20.7033305,176.334107 C20.9670336,174.91748 22.3592359,173.7586 23.7970225,173.7586 L280.878667,173.7586 C282.316454,173.7586 283.673691,174.923539 283.894588,176.347535 L291.260467,223.824455 Z" id="Stroke-27" stroke="#082674" stroke-width="2"></path>
                    <polygon id="Stroke-29" stroke="#082674" stroke-width="2" points="117 222 74 222 78.9201336 181 110.439822 181"></polygon>
                    <polygon id="Stroke-31" stroke="#082674" stroke-width="2" points="239 222 196 222 200.920134 181 232.439822 181"></polygon>
                    <path d="M290.133907,233.586192 C290.133907,235.051287 288.956258,236.25 287.516909,236.25 L15.5899701,236.25 C14.1506217,236.25 12.972973,235.051287 12.972973,233.586192 L12.972973,229.077198 C12.972973,227.612104 14.1506217,226.413391 15.5899701,226.413391 L287.516909,226.413391 C288.956258,226.413391 290.133907,227.612104 290.133907,229.077198 L290.133907,233.586192 Z" id="Stroke-33" stroke="#082674" stroke-width="2"></path>
                    <path d="M179.038084,166 L168.62285,166" id="Stroke-35" stroke="#082674" stroke-width="2"></path>
                    <path d="M241.999215,24.4627092 C240.839172,23.6025341 240.605711,21.9653113 241.480449,20.8245807 L242.772578,19.1396246 C243.647316,17.998894 245.312257,17.7693191 246.4723,18.6294943 L254.368058,24.4844652 C255.528266,25.3446404 255.761562,26.9818632 254.886824,28.1225937 L253.594695,29.8075499 C252.719957,30.9482805 251.055016,31.1778553 249.894973,30.3176802 L241.999215,24.4627092 Z" id="Stroke-37" stroke="#082674" stroke-width="2"></path>
                    <path d="M248.472973,19.9078435 C248.472973,19.9078435 250.823465,9.38886153 256.658629,8.89886967 C262.493956,8.40887781 263.960406,11.8386575 271.048709,11.1036697 C271.048709,11.1036697 267.871211,14.8676239 262.005085,14.7005366 C262.005085,14.7005366 276.181529,15.4828903 280.336769,19.9078435 C280.336769,19.9078435 276.425964,18.6676741 270.559838,19.9078435 C270.559838,19.9078435 282.292253,22.8628211 287.180637,44.666479 C292.069184,66.4699735 303.312565,67.2049613 305.756757,67.6949532 C305.756757,67.6949532 285.535586,76.0243249 272.303804,37.3169277 C272.303804,37.3169277 272.515322,54.820907 275.20395,60.4004443 C275.20395,60.4004443 256.658629,43.2904185 256.658629,26.0946441 L248.472973,19.9078435 Z" id="Stroke-49" stroke="#082674" stroke-width="2" fill="#FFFFFF"></path>
                    <path d="M221.692175,78 L221.692175,79.774486 L213.673281,79.774486 L213.673281,78 C213.673281,87.7628536 205.690091,95.6771687 195.842439,95.6771687 C190.798094,95.6771687 186.243557,93.5999485 183,90.2620423 C186.979667,105.081341 200.606588,116 216.808248,116 C232.256194,116 245.364349,106.073383 250,92.3037043 C247.058686,94.4249646 243.438683,95.6771687 239.523018,95.6771687 C229.675366,95.6771687 221.692175,87.7628536 221.692175,78 Z" id="Stroke-51" stroke="#082674" stroke-width="2" fill="#FFFFFF"></path>
                    <path d="M256.151087,73.9687826 L256.151087,77.8809798 C256.151087,82.2891446 254.540178,86.3207595 251.875687,89.4197399 C251.643318,114.545658 255.644382,135.998052 255.644382,135.998052 C257.494682,147.344535 268.708012,158.135749 268.708012,158.135749 C264.135742,145.313943 271.617936,73.9687826 271.617936,73.9687826 C271.617936,43.1181636 246.618719,18.1087224 215.780713,18.1087224 C184.942543,18.1087224 159.943489,43.1181636 159.943489,73.9687826 C159.943489,73.9687826 167.68369,145.313943 163.111419,158.135749 C163.111419,158.135749 171.435075,153.278502 176.17505,135.998052 C176.17505,135.998052 180.440162,113.130452 179.907656,86.9619561 C178.318465,84.3066674 177.404174,81.2008258 177.404174,77.8809798 L177.404174,73.9687826 L256.151087,73.9687826 Z" id="Stroke-53" stroke="#082674" stroke-width="2" fill="#FFFFFF"></path>
                    <path d="M213,78 L221,78" id="Stroke-55" stroke="#082674" stroke-width="2"></path>
                    <path d="M182.605152,74 L180,74 C180.366064,78.3102377 180.571779,82.6175699 180.655003,86.8382228 C181.319706,87.9836165 182.107525,89.0441064 183,90 C182.271315,87.1755781 181.88069,84.208789 181.88069,81.1475727 C181.88069,78.6963399 182.131772,76.3057988 182.605152,74 Z" id="Stroke-57" stroke="#082674" stroke-width="2"></path>
                    <path d="M250.001135,74.235258 C250.45947,76.604465 250.702573,79.0607447 250.702573,81.5793851 C250.702573,85.484223 250.121702,89.2402909 249.051597,92.7512285 C250.083533,91.9290963 251.025043,90.9792574 251.855832,89.92178 C251.899152,84.7946071 252.100752,79.5171716 252.523342,74.235258 L250.001135,74.235258 Z" id="Stroke-59" stroke="#082674" stroke-width="2"></path>
                    <polygon id="Fill-61" fill="#FFFFFF" points="213.176904 80.0214988 221.277641 80.0214988 221.277641 78.2856265 213.176904 78.2856265"></polygon>
                    <polygon id="Stroke-63" stroke="#082674" stroke-width="2" points="213.176904 80.0214988 221.277641 80.0214988 221.277641 78.2856265 213.176904 78.2856265"></polygon>
                    <path d="M214.334152,100.851966 C214.334152,100.851966 217.211951,103.455774 221.277641,100.851966" id="Stroke-39" stroke="#082674" stroke-width="2" stroke-linecap="round" stroke-linejoin="round"></path>
                    <g id="Group-66" transform="translate(177.000000, 74.000000)">
                        <path d="M35.1500526,0.322431836 C35.4327464,1.59623141 35.5820634,2.9216112 35.5820634,4.28220439 C35.5820634,14.1773374 27.689895,22.1988857 17.9543609,22.1988857 C8.21898941,22.1988857 0.326820958,14.1773374 0.326820958,4.28220439 C0.326820958,2.92177652 0.475975313,1.59672738 0.758669173,0.32309312 L35.1500526,0.322431836 Z" id="Fill-64" fill="#F6A623" opacity="0.454349347"></path>
                        <path d="M35.1500526,0.322431836 C35.4327464,1.59623141 35.5820634,2.9216112 35.5820634,4.28220439 C35.5820634,14.1773374 27.689895,22.1988857 17.9543609,22.1988857 C8.21898941,22.1988857 0.326820958,14.1773374 0.326820958,4.28220439 C0.326820958,2.92177652 0.475975313,1.59672738 0.758669173,0.32309312 L35.1500526,0.322431836 Z" id="Stroke-65" stroke="#082674" stroke-width="2"></path>
                    </g>
                    <g id="Group-69" transform="translate(220.000000, 74.000000)">
                        <path d="M36.0359517,0.323291506 C36.3219619,1.59692576 36.472866,2.92180958 36.472866,4.28223745 C36.472866,14.1773705 28.4881138,22.1987534 18.6383713,22.1987534 C8.78879335,22.1987534 0.804041185,14.1773705 0.804041185,4.28223745 C0.804041185,2.92180958 0.954945283,1.59676044 1.24095545,0.322960863 L36.0359517,0.323291506 Z" id="Fill-67" fill="#F6A623" opacity="0.454349347"></path>
                        <path d="M36.0359517,0.323291506 C36.3219619,1.59692576 36.472866,2.92180958 36.472866,4.28223745 C36.472866,14.1773705 28.4881138,22.1987534 18.6383713,22.1987534 C8.78879335,22.1987534 0.804041185,14.1773705 0.804041185,4.28223745 C0.804041185,2.92180958 0.954945283,1.59676044 1.24095545,0.322960863 L36.0359517,0.323291506 Z" id="Stroke-68" stroke="#082674" stroke-width="2"></path>
                    </g>
                    <path d="M253.101966,82.9146192 C253.101966,82.9146192 250.63198,88.8969033 245.579853,90.4367322" id="Stroke-70" stroke="#FFFFFF" stroke-width="2"></path>
                    <path d="M210.283784,82.9146192 C210.283784,82.9146192 207.813799,88.8969033 202.761671,90.4367322" id="Stroke-71" stroke="#FFFFFF" stroke-width="2"></path>
                    <path d="M215.780713,121.682432 C195.488246,121.682432 179.038084,137.886 179.038084,157.874326 L179.038084,173.7586 L252.523342,173.7586 L252.523342,157.874326 C252.523342,137.886 236.073179,121.682432 215.780713,121.682432 Z" id="Stroke-72" stroke="#082674" stroke-width="2"></path>
                    <path d="M169,166.904054 C169,166.904054 171.090314,169.708 173,145" id="Stroke-73" stroke="#082674" stroke-width="2"></path>
                    <path d="M259.46683,145.40602 C261.900527,154.465662 261.955465,161.281452 265.831695,166.815111 L253.101966,166.815111" id="Stroke-74" stroke="#082674" stroke-width="2"></path>
                    <g id="Group-77" transform="translate(55.000000, 61.000000)">
                        <path d="M35.9325675,17.9074813 C35.9325675,27.7572238 27.9478153,35.7418114 18.0982373,35.7418114 C8.24849483,35.7418114 0.263742659,27.7572238 0.263742659,17.9074813 C0.263742659,8.05773875 8.24849483,0.0731511474 18.0982373,0.0731511474 C27.9478153,0.0731511474 35.9325675,8.05773875 35.9325675,17.9074813" id="Fill-75" fill="#F6A623" opacity="0.454349347"></path>
                        <path d="M35.9325675,17.9074813 C35.9325675,27.7572238 27.9478153,35.7418114 18.0982373,35.7418114 C8.24849483,35.7418114 0.263742659,27.7572238 0.263742659,17.9074813 C0.263742659,8.05773875 8.24849483,0.0731511474 18.0982373,0.0731511474 C27.9478153,0.0731511474 35.9325675,8.05773875 35.9325675,17.9074813 Z" id="Stroke-76" stroke="#082674" stroke-width="2"></path>
                    </g>
                    <g id="Group-80" transform="translate(98.000000, 61.000000)">
                        <path d="M35.830842,17.9074813 C35.830842,27.7572238 27.8460898,35.7418114 17.9965119,35.7418114 C8.14676937,35.7418114 0.162017198,27.7572238 0.162017198,17.9074813 C0.162017198,8.05773875 8.14676937,0.0731511474 17.9965119,0.0731511474 C27.8460898,0.0731511474 35.830842,8.05773875 35.830842,17.9074813" id="Fill-78" fill="#F6A623" opacity="0.454349347"></path>
                        <path d="M35.830842,17.9074813 C35.830842,27.7572238 27.8460898,35.7418114 17.9965119,35.7418114 C8.14676937,35.7418114 0.162017198,27.7572238 0.162017198,17.9074813 C0.162017198,8.05773875 8.14676937,0.0731511474 17.9965119,0.0731511474 C27.8460898,0.0731511474 35.830842,8.05773875 35.830842,17.9074813 Z" id="Stroke-79" stroke="#082674" stroke-width="2"></path>
                    </g>
                    <polygon id="Fill-81" fill="#FFFFFF" points="91 81 99 81 99 79 91 79"></polygon>
                    <polygon id="Stroke-82" stroke="#082674" stroke-width="2" points="91 81 99 81 99 79 91 79"></polygon>
                    <path d="M119.439803,64.9772727 C119.439803,64.9772727 126.349818,67.1905098 129.276413,74.8138821" id="Stroke-83" stroke="#FFFFFF" stroke-width="2" stroke-linecap="round" stroke-linejoin="round"></path>
                    <path d="M76.0429975,64.9772727 C76.0429975,64.9772727 82.9530124,67.1905098 85.8796069,74.8138821" id="Stroke-84" stroke="#FFFFFF" stroke-width="2" stroke-linecap="round" stroke-linejoin="round"></path>
                    <path d="M90.5085995,79.1535627 C90.5085995,88.9004157 82.6072918,96.8015971 72.8606465,96.8015971 C63.1138385,96.8015971 55.2125307,88.9004157 55.2125307,79.1535627 C55.2125307,69.4067096 63.1138385,61.5055283 72.8606465,61.5055283 C82.6072918,61.5055283 90.5085995,69.4067096 90.5085995,79.1535627 Z" id="Stroke-85" stroke="#082674" stroke-width="2"></path>
                    <path d="M133.905405,79.1535627 C133.905405,88.9004157 126.004098,96.8015971 116.257452,96.8015971 C106.510644,96.8015971 98.6093366,88.9004157 98.6093366,79.1535627 C98.6093366,69.4067096 106.510644,61.5055283 116.257452,61.5055283 C126.004098,61.5055283 133.905405,69.4067096 133.905405,79.1535627 Z" id="Stroke-86" stroke="#082674" stroke-width="2"></path>
                </g>
                <path d="M107,80.5 C107,82.4331226 106.552333,84 106,84 C105.447667,84 105,82.4331226 105,80.5 C105,78.5670388 105.447667,77 106,77 C106.552333,77 107,78.5670388 107,80.5" id="Fill-17" fill="#FFFFFF"></path>
                <path d="M107,80.5 C107,82.4331226 106.552333,84 106,84 C105.447667,84 105,82.4331226 105,80.5 C105,78.5670388 105.447667,77 106,77 C106.552333,77 107,78.5670388 107,80.5 Z" id="Stroke-19" stroke="#082674" stroke-width="2"></path>
                <path d="M81,81.5 C81,83.4331226 80.5523333,85 80,85 C79.4476667,85 79,83.4331226 79,81.5 C79,79.5670388 79.4476667,78 80,78 C80.5523333,78 81,79.5670388 81,81.5" id="Fill-21" fill="#FFFFFF"></path>
                <path d="M81,81.5 C81,83.4331226 80.5523333,85 80,85 C79.4476667,85 79,83.4331226 79,81.5 C79,79.5670388 79.4476667,78 80,78 C80.5523333,78 81,79.5670388 81,81.5 Z" id="Stroke-23" stroke="#082674" stroke-width="2"></path>
                <path d="M229.378378,80.0214988 C229.378378,81.9388551 228.989832,83.4932432 228.510442,83.4932432 C228.031052,83.4932432 227.642506,81.9388551 227.642506,80.0214988 C227.642506,78.1039823 228.031052,76.5497543 228.510442,76.5497543 C228.989832,76.5497543 229.378378,78.1039823 229.378378,80.0214988" id="Fill-41" fill="#FFFFFF"></path>
                <path d="M229.378378,80.0214988 C229.378378,81.9388551 228.989832,83.4932432 228.510442,83.4932432 C228.031052,83.4932432 227.642506,81.9388551 227.642506,80.0214988 C227.642506,78.1039823 228.031052,76.5497543 228.510442,76.5497543 C228.989832,76.5497543 229.378378,78.1039823 229.378378,80.0214988 Z" id="Stroke-43" stroke="#082674" stroke-width="2"></path>
                <path d="M204,80.5 C204,82.4329612 203.552333,84 203,84 C202.447667,84 202,82.4329612 202,80.5 C202,78.5668774 202.447667,77 203,77 C203.552333,77 204,78.5668774 204,80.5" id="Fill-45" fill="#FFFFFF"></path>
                <path d="M204,80.5 C204,82.4329612 203.552333,84 203,84 C202.447667,84 202,82.4329612 202,80.5 C202,78.5668774 202.447667,77 203,77 C203.552333,77 204,78.5668774 204,80.5 Z" id="Stroke-47" stroke="#082674" stroke-width="2"></path>
            </g>
        </g>
    </g>
</svg>