<?xml version="1.0" encoding="UTF-8"?>
<svg width="172px" height="47px" viewBox="0 0 172 47" version="1.1" xmlns="http://www.w3.org/2000/svg" xmlns:xlink="http://www.w3.org/1999/xlink">
    <!-- Generator: Sketch 41.2 (35397) - http://www.bohemiancoding.com/sketch -->
    <title>Logo</title>
    <desc>Created with Sketch.</desc>
    <defs></defs>
    <g id="Page-1" stroke="none" stroke-width="1" fill="none" fill-rule="evenodd">
        <g id="Logo">
            <g id="Group">
                <g transform="translate(0.000000, 26.716141)" id="Shape">
                    <polygon fill="#333333" points="5.92964557 7.78615213 9.84046835 0.590426716 11.6856582 0.590426716 6.79236709 9.40034137 6.79236709 14.9813432 5.06746835 14.9813432 5.06746835 9.47888683 0.184518987 0.590426716 2.0493038 0.590426716"></polygon>
                    <path d="M22.9358734,9.57773655 C22.9358734,11.3367273 22.4846456,12.7094026 21.5821899,13.6973655 C20.6797342,14.6847941 19.4332785,15.177974 17.8422785,15.177974 C16.8598101,15.177974 15.9872911,14.9514212 15.2252658,14.499384 C14.4632405,14.0462783 13.8748481,13.3965417 13.4606329,12.5501744 C13.0458734,11.7038071 12.839038,10.7131725 12.839038,9.57773655 C12.839038,7.81928015 13.2864557,6.44981076 14.1823797,5.46879406 C15.0783038,4.48777737 16.3214937,3.99726902 17.9124937,3.99726902 C19.4501519,3.99726902 20.6715696,4.49899814 21.5772911,5.50299072 C22.4824684,6.5069833 22.9358734,7.86523191 22.9358734,9.57773655 Z M14.5628481,9.57773655 C14.5628481,10.9557551 14.8437089,12.0056994 15.4048861,12.7281039 C15.9666076,13.449974 16.7917722,13.8101076 17.8814684,13.8101076 C18.9706203,13.8101076 19.797962,13.4510427 20.3629494,12.7323785 C20.9279367,12.0137143 21.2104304,10.9627013 21.2104304,9.57773655 C21.2104304,8.20666419 20.9279367,7.16420037 20.3629494,6.45248237 C19.797962,5.74076438 18.9640886,5.38437106 17.8613291,5.38437106 C16.7716329,5.38437106 15.9497342,5.73542115 15.3945443,6.43805566 C14.8393544,7.14069017 14.5628481,8.18635993 14.5628481,9.57773655 Z" fill="#333333"></path>
                    <path d="M27.4176709,4.19336549 L27.4176709,11.1924601 C27.4176709,12.0719555 27.6217848,12.7281039 28.0294684,13.1614397 C28.4371519,13.5947755 29.0756203,13.8106419 29.9448734,13.8106419 C31.094443,13.8106419 31.9353924,13.502872 32.4666329,12.8862635 C32.9978734,12.2696549 33.2634937,11.2619221 33.2634937,9.86413358 L33.2634937,4.19336549 L34.9279747,4.19336549 L34.9279747,14.9818776 L33.5541519,14.9818776 L33.3135696,13.534397 L33.2232152,13.534397 C32.882481,14.0660482 32.409481,14.4737365 31.8047595,14.7553247 C31.1994937,15.0369128 30.5093165,15.177974 29.7342278,15.177974 C28.3968734,15.177974 27.396443,14.8669981 26.7307595,14.2429091 C26.0656203,13.6198887 25.7330506,12.622308 25.7330506,11.2507013 L25.7330506,4.19336549 L27.4176709,4.19336549 Z" fill="#333333"></path>
                    <path d="M45.9778861,14.9818776 L45.9778861,8.00255288 C45.9778861,7.12305751 45.7737722,6.46690909 45.3660886,6.03357328 C44.9578608,5.60023748 44.3199367,5.38383673 43.4506835,5.38383673 C42.3005696,5.38383673 41.4585316,5.68893506 40.923481,6.29966605 C40.3889747,6.90986271 40.1211772,7.91706122 40.1211772,9.32072727 L40.1211772,14.9813432 L38.4566962,14.9813432 L38.4566962,4.19336549 L39.8103797,4.19336549 L40.081443,5.67023377 L40.1614557,5.67023377 C40.5021899,5.13911688 40.9800886,4.72661967 41.5951519,4.43487941 C42.2102152,4.14313915 42.8954937,3.99726902 43.650443,3.99726902 C44.9741899,3.99726902 45.9702658,4.31038219 46.6386709,4.93714286 C47.3070759,5.56390353 47.6412785,6.56629314 47.6412785,7.94431169 L47.6412785,14.9824119 L45.9778861,14.9824119 L45.9778861,14.9818776 Z" fill="#333333"></path>
                    <path d="M60.0557595,4.19336549 L60.0557595,5.22781447 L58.0200633,5.46345083 C58.2073038,5.69320965 58.3744051,5.99349907 58.5213671,6.36431911 C58.6683291,6.73513915 58.7418101,7.15351391 58.7418101,7.61997774 C58.7418101,8.67633395 58.3738608,9.51949536 57.6390506,10.149462 C56.9031519,10.7788942 55.8940127,11.0941447 54.6110886,11.0941447 C54.2834177,11.0941447 53.9758861,11.0679629 53.6884937,11.0161336 C52.9798101,11.3837477 52.6254684,11.8459369 52.6254684,12.4037699 C52.6254684,12.6992505 52.7490253,12.9177885 52.9966835,13.0588497 C53.2437975,13.1999109 53.6683544,13.2704416 54.2698101,13.2704416 L56.2151519,13.2704416 C57.405,13.2704416 58.3194304,13.5167644 58.9578987,14.0088757 C59.5958228,14.5015213 59.9153291,15.2164453 59.9153291,16.1547161 C59.9153291,17.349462 59.4276329,18.2594137 58.4516962,18.8867087 C57.4757595,19.5129351 56.0518608,19.8260482 54.18,19.8260482 C52.7424937,19.8260482 51.6348354,19.5642301 50.856481,19.0389907 C50.0775823,18.5142857 49.6884051,17.7721113 49.6884051,16.8140705 C49.6884051,16.1573878 49.9023165,15.5899369 50.3301392,15.1106494 C50.757962,14.6318961 51.3594177,14.3070278 52.1350506,14.1365788 C51.8541899,14.0120816 51.6185063,13.8186568 51.428,13.5557699 C51.2374937,13.2939518 51.1422405,12.9883191 51.1422405,12.640475 C51.1422405,12.2472134 51.2489241,11.9020408 51.4628354,11.6065603 C51.6767468,11.3116141 52.0142152,11.0257514 52.4757848,10.7500408 C51.9075316,10.520282 51.4443291,10.1302263 51.0867215,9.57880519 C50.7291139,9.02791837 50.5505823,8.39795176 50.5505823,7.6894397 C50.5505823,6.50805195 50.9114557,5.59703154 51.6337468,4.95744712 C52.3554937,4.31786271 53.3782405,3.99833766 54.7019873,3.99833766 C55.2767722,3.99833766 55.7949494,4.06352505 56.2559747,4.19443414 L60.0557595,4.19443414 L60.0557595,4.19336549 Z M51.2919241,16.7926976 C51.2919241,17.3772468 51.5423038,17.819666 52.0436076,18.1220928 C52.5449114,18.4234508 53.2633924,18.5741299 54.1995949,18.5741299 C55.5962785,18.5741299 56.631,18.3694842 57.3032152,17.9596586 C57.9748861,17.5492987 58.3107215,16.9930686 58.3107215,16.2909685 C58.3107215,15.7064193 58.1267468,15.3014026 57.7593418,15.075384 C57.3919367,14.8493655 56.7001266,14.7360891 55.6839114,14.7360891 L53.6884937,14.7360891 C52.933,14.7360891 52.3446076,14.9134842 51.9238608,15.2672059 C51.5025696,15.621462 51.2919241,16.1301373 51.2919241,16.7926976 Z M52.1943797,7.64829685 C52.1943797,8.40276067 52.411557,8.97341744 52.8464557,9.36080148 C53.2808101,9.74818553 53.8855316,9.94161039 54.6611646,9.94161039 C56.2853671,9.94161039 57.0980127,9.16791095 57.0980127,7.61890909 C57.0980127,5.99777365 56.2761139,5.18720594 54.6312278,5.18720594 C53.8490633,5.18720594 53.2476076,5.39398887 52.8263165,5.80702041 C52.4050253,6.22112059 52.1943797,6.83452319 52.1943797,7.64829685 Z" fill="#333333"></path>
                    <polygon fill="#333333" points="62.5622785 14.9818776 62.5622785 0.590426716 64.267038 0.590426716 64.267038 14.9818776"></polygon>
                    <path d="M75.5575316,14.9818776 L75.5575316,8.00255288 C75.5575316,7.12305751 75.3534177,6.46690909 74.9457342,6.03357328 C74.5375063,5.60023748 73.8995823,5.38383673 73.0303291,5.38383673 C71.8802152,5.38383673 71.0381772,5.68893506 70.5031266,6.29966605 C69.9686203,6.90986271 69.7008228,7.91706122 69.7008228,9.32072727 L69.7008228,14.9813432 L68.0363418,14.9813432 L68.0363418,4.19336549 L69.3900253,4.19336549 L69.6610886,5.67023377 L69.7411013,5.67023377 C70.0818354,5.13911688 70.5597342,4.72661967 71.1747975,4.43487941 C71.7898608,4.14313915 72.4751392,3.99726902 73.2300886,3.99726902 C74.5538354,3.99726902 75.5499114,4.31038219 76.2183165,4.93714286 C76.8867215,5.56390353 77.2209241,6.56629314 77.2209241,7.94431169 L77.2209241,14.9824119 L75.5575316,14.9824119 L75.5575316,14.9818776 Z" fill="#F26722"></path>
                    <path d="M88.1619747,14.9818776 L88.1619747,8.00255288 C88.1619747,7.12305751 87.9578608,6.46690909 87.5501772,6.03357328 C87.1424937,5.60023748 86.5040253,5.38383673 85.6353165,5.38383673 C84.4852025,5.38383673 83.6426203,5.68893506 83.1081139,6.29966605 C82.5736076,6.90986271 82.3058101,7.91706122 82.3058101,9.32072727 L82.3058101,14.9813432 L80.6413291,14.9813432 L80.6413291,4.19336549 L81.9950127,4.19336549 L82.2660759,5.67023377 L82.3460886,5.67023377 C82.6868228,5.13911688 83.1647215,4.72661967 83.7797848,4.43487941 C84.3948481,4.14313915 85.0801266,3.99726902 85.8350759,3.99726902 C87.1593671,3.99726902 88.1548987,4.31038219 88.8233038,4.93714286 C89.4917089,5.56390353 89.8259114,6.56629314 89.8259114,7.94431169 L89.8259114,14.9824119 L88.1619747,14.9824119 L88.1619747,14.9818776 Z" fill="#F26722"></path>
                    <path d="M102.73081,9.57773655 C102.73081,11.3367273 102.279582,12.7094026 101.377671,13.6973655 C100.475215,14.6847941 99.2282152,15.177974 97.6372152,15.177974 C96.6547468,15.177974 95.7827722,14.9514212 95.0202025,14.499384 C94.2581772,14.0462783 93.6703291,13.3965417 93.2555696,12.5501744 C92.8408101,11.7038071 92.6334304,10.7131725 92.6334304,9.57773655 C92.6334304,7.81928015 93.0813924,6.44981076 93.9773165,5.46879406 C94.8732405,4.48777737 96.1164304,3.99726902 97.7074304,3.99726902 C99.2450886,3.99726902 100.466506,4.49899814 101.372228,5.50299072 C102.277949,6.5069833 102.73081,7.86523191 102.73081,9.57773655 Z M94.3583291,9.57773655 C94.3583291,10.9557551 94.6391899,12.0056994 95.2009114,12.7281039 C95.7620886,13.449974 96.5877975,13.8101076 97.6774937,13.8101076 C98.7671899,13.8101076 99.5939873,13.4510427 100.159519,12.7323785 C100.723962,12.0137143 101.007,10.9627013 101.007,9.57773655 C101.007,8.20666419 100.723962,7.16420037 100.159519,6.45248237 C99.5945316,5.74076438 98.7606582,5.38437106 97.6573544,5.38437106 C96.5676582,5.38437106 95.7452152,5.73542115 95.1911139,6.43805566 C94.6359241,7.14015584 94.3583291,8.18635993 94.3583291,9.57773655 Z" fill="#333333"></path>
                    <path d="M108.055734,14.9818776 L103.884734,4.19336549 L105.669506,4.19336549 L108.036139,10.5918813 C108.570646,12.0885195 108.885253,13.059384 108.978329,13.5055436 L109.058342,13.5055436 C109.131823,13.1582338 109.364241,12.4374323 109.755051,11.3452764 C110.146405,10.2525863 111.023278,7.86897217 112.387304,4.19336549 L114.171532,4.19336549 L110.000532,14.9818776 L108.055734,14.9818776 L108.055734,14.9818776 Z" fill="#333333"></path>
                    <path d="M122.694785,14.9818776 L122.364392,13.4456994 L122.28438,13.4456994 C121.736266,14.1221521 121.189785,14.5800668 120.644937,14.8189091 C120.100089,15.05882 119.419709,15.177974 118.604342,15.177974 C117.514646,15.177974 116.660633,14.9022635 116.042304,14.3513766 C115.423975,13.8004898 115.11481,13.0161039 115.11481,11.9992876 C115.11481,9.82031911 116.889785,8.67847124 120.43919,8.57374397 L122.304519,8.51496846 L122.304519,7.84546197 C122.304519,6.99909462 122.118911,6.37393692 121.748241,5.97052319 C121.377025,5.56657514 120.784278,5.36513544 119.967823,5.36513544 C119.051759,5.36513544 118.015949,5.64084601 116.859848,6.19173284 L116.348203,4.94141744 C116.889785,4.65288312 117.483076,4.42633024 118.12862,4.26229314 C118.77362,4.09825603 119.420253,4.01650464 120.068519,4.01650464 C121.378658,4.01650464 122.349696,4.30183302 122.981633,4.87302412 C123.61357,5.44421521 123.929266,6.35897588 123.929266,7.61997774 L123.929266,14.9824119 L122.694785,14.9824119 L122.694785,14.9818776 Z M118.934734,13.8298776 C119.971089,13.8298776 120.784823,13.5514954 121.376481,12.9936623 C121.968139,12.4358293 122.263696,11.6551837 122.263696,10.6511911 L122.263696,9.67658627 L120.599215,9.74551391 C119.275468,9.79146568 118.320759,9.99290538 117.736177,10.3509017 C117.151595,10.708898 116.859304,11.265128 116.859304,12.0195918 C116.859304,12.6100186 117.041101,13.059384 117.405785,13.3676883 C117.769924,13.6759926 118.279937,13.8298776 118.934734,13.8298776 Z" fill="#333333"></path>
                    <path d="M130.907241,13.8298776 C131.201165,13.8298776 131.485291,13.809039 131.759076,13.7662931 C132.033405,13.7235473 132.250582,13.6797328 132.410608,13.6332468 L132.410608,14.8830278 C132.230443,14.9685195 131.964823,15.0395844 131.613747,15.0946197 C131.262671,15.1507236 130.94643,15.177974 130.666114,15.177974 C128.540608,15.177974 127.477582,14.078872 127.477582,11.8812022 L127.477582,5.46291651 L125.903456,5.46291651 L125.903456,4.67532468 L127.477582,3.99620037 L128.179734,1.69220037 L129.142608,1.69220037 L129.142608,4.19229685 L132.331139,4.19229685 L132.331139,5.46238219 L129.142608,5.46238219 L129.142608,11.8117403 C129.142608,12.4609425 129.299367,12.9594657 129.61343,13.3073098 C129.927494,13.656757 130.359127,13.8298776 130.907241,13.8298776 Z" fill="#333333"></path>
                    <path d="M134.466987,1.27008534 C134.466987,0.896059369 134.560608,0.621951763 134.747848,0.448296846 C134.935089,0.274641929 135.168595,0.18754731 135.45,0.18754731 C135.716709,0.18754731 135.947494,0.276244898 136.14181,0.453105751 C136.335582,0.630500928 136.432468,0.903005566 136.432468,1.27008534 C136.432468,1.63716512 136.335582,1.91180705 136.14181,2.09187384 C135.948038,2.27247495 135.717253,2.36277551 135.45,2.36277551 C135.168595,2.36277551 134.935089,2.27247495 134.747848,2.09187384 C134.560608,1.91180705 134.466987,1.63716512 134.466987,1.27008534 Z M136.271354,14.9818776 L134.606873,14.9818776 L134.606873,4.19336549 L136.271354,4.19336549 L136.271354,14.9818776 Z" fill="#333333"></path>
                    <path d="M149.286747,9.57773655 C149.286747,11.3367273 148.835519,12.7094026 147.933608,13.6973655 C147.031152,14.6847941 145.784152,15.177974 144.193152,15.177974 C143.210684,15.177974 142.338709,14.9514212 141.576139,14.499384 C140.814114,14.0462783 140.226266,13.3965417 139.811506,12.5501744 C139.396747,11.7038071 139.189367,10.7131725 139.189367,9.57773655 C139.189367,7.81928015 139.637329,6.44981076 140.533253,5.46879406 C141.429177,4.48777737 142.672367,3.99726902 144.263367,3.99726902 C145.801025,3.99726902 147.022443,4.49899814 147.928165,5.50299072 C148.833886,6.5069833 149.286747,7.86523191 149.286747,9.57773655 Z M140.914266,9.57773655 C140.914266,10.9557551 141.195127,12.0056994 141.756848,12.7281039 C142.318025,13.449974 143.143734,13.8101076 144.23343,13.8101076 C145.323127,13.8101076 146.149924,13.4510427 146.715456,12.7323785 C147.279899,12.0137143 147.562937,10.9627013 147.562937,9.57773655 C147.562937,8.20666419 147.279899,7.16420037 146.715456,6.45248237 C146.150468,5.74076438 145.316595,5.38437106 144.213291,5.38437106 C143.123595,5.38437106 142.301152,5.73542115 141.747051,6.43805566 C141.191316,7.14015584 140.914266,8.18635993 140.914266,9.57773655 Z" fill="#333333"></path>
                    <path d="M159.724861,14.9818776 L159.724861,8.00255288 C159.724861,7.12305751 159.520747,6.46690909 159.113063,6.03357328 C158.70538,5.60023748 158.066911,5.38383673 157.197658,5.38383673 C156.048089,5.38383673 155.206051,5.68893506 154.671,6.29966605 C154.135949,6.90986271 153.868152,7.91706122 153.868152,9.32072727 L153.868152,14.9813432 L152.203671,14.9813432 L152.203671,4.19336549 L153.557354,4.19336549 L153.827873,5.67023377 L153.907886,5.67023377 C154.24862,5.13911688 154.726519,4.72661967 155.341582,4.43487941 C155.956646,4.14313915 156.641924,3.99726902 157.397418,3.99726902 C158.721165,3.99726902 159.716696,4.31038219 160.385101,4.93714286 C161.053506,5.56390353 161.387709,6.56629314 161.387709,7.94431169 L161.387709,14.9824119 L159.724861,14.9824119 L159.724861,14.9818776 Z" fill="#333333"></path>
                    <path d="M171.897671,12.0382931 C171.897671,13.04282 171.516658,13.8170538 170.754089,14.3615288 C169.992608,14.9070724 168.922506,15.177974 167.545418,15.177974 C166.087772,15.177974 164.951266,14.9514212 164.135899,14.499384 L164.135899,12.9829759 C164.663873,13.2458627 165.230494,13.4526456 165.835759,13.6027904 C166.440481,13.7540037 167.023975,13.8293432 167.585152,13.8293432 C168.454405,13.8293432 169.12281,13.6936252 169.590911,13.4211206 C170.059013,13.148616 170.293063,12.7334471 170.293063,12.1761484 C170.293063,11.7556364 170.107456,11.3965714 169.736785,11.097885 C169.366114,10.7991985 168.641646,10.4465455 167.566101,10.0399258 C166.543354,9.66589981 165.816165,9.33942857 165.385076,9.06051206 C164.953987,8.78159555 164.632848,8.46527644 164.422203,8.11048609 C164.211557,7.75676438 164.106506,7.33304638 164.106506,6.84093506 C164.106506,5.9614397 164.470646,5.26788868 165.199468,4.75921336 C165.927747,4.25053803 166.927633,3.99620037 168.197494,3.99620037 C169.38081,3.99620037 170.537456,4.23183673 171.666886,4.70471243 L171.075228,6.03303896 C169.972468,5.58687941 168.973127,5.36406679 168.077203,5.36406679 C167.288506,5.36406679 166.693038,5.48535807 166.29243,5.72847495 C165.891278,5.97105751 165.690975,6.3055436 165.690975,6.73246753 C165.690975,7.02100186 165.766633,7.26679035 165.916861,7.47036735 C166.066544,7.67394434 166.309304,7.86790353 166.643506,8.05171058 C166.977709,8.23551763 167.619443,8.50107607 168.568709,8.84892022 C169.872316,9.3143154 170.753,9.78398516 171.210759,10.2563265 C171.669063,10.7292022 171.897671,11.3228349 171.897671,12.0382931 Z" fill="#333333"></path>
                </g>
                <polygon id="Shape" fill="#F26722" points="114.006608 20.5356289 114.006608 14.5293061 140.743354 0.0144267161"></polygon>
                <g transform="translate(96.886076, 0.000000)" id="Shape" fill="#333333">
                    <polygon points="17.1205316 14.5293061 35.4450633 16.6238516 43.8572785 0.0144267161"></polygon>
                    <polygon points="14.7446456 14.2263451 43.0930759 0.0144267161 0.427822785 12.9129796 11.7787342 13.9543748 16.3568734 20.5356289"></polygon>
                </g>
                <g transform="translate(77.835443, 21.372913)" id="Shape" fill="#333333">
                    <path d="M0.221531646,5.92670872 C0.582949367,5.38383673 1.00968354,4.88958813 1.462,4.41884972 L1.52786076,4.48243414 C1.06955696,4.93928015 0.632481013,5.42391095 0.263987342,5.95395918 L0.221531646,5.92670872 Z"></path>
                    <path d="M2.92781013,3.11082746 C3.44163291,2.71222263 3.99464557,2.34300557 4.56289873,2.01546568 L4.65162025,2.16881633 C4.07955696,2.4819295 3.53416456,2.82923933 3.00836709,3.21822635 L2.92781013,3.11082746 Z"></path>
                    <path d="M6.35093671,1.14825974 C6.95783544,0.90941744 7.58596203,0.707443414 8.23368354,0.536994434 L8.29518987,0.787057514 C7.66924051,0.942545455 7.04437975,1.1284898 6.42605063,1.35450835 L6.35093671,1.14825974 Z"></path>
                    <path d="M10.1969873,0.180601113 C10.8501519,0.111139147 11.5136582,0.0764081633 12.1858734,0.0710649351 L12.1820633,0.393261596 C11.5348861,0.387384045 10.8811772,0.40929128 10.2203924,0.469135436 L10.1969873,0.180601113 Z"></path>
                    <path d="M14.1812911,0.187012987 C14.8322785,0.265024119 15.4876203,0.37135436 16.1467722,0.503332096 L16.064038,0.880029685 C15.4299241,0.742174397 14.7860127,0.626226345 14.129038,0.536994434 L14.1812911,0.187012987 Z"></path>
                    <polygon points="18.0801392 0.902471243 20.0265696 1.23749165 19.9487342 1.6975436 17.9968608 1.31977737"></polygon>
                    <path d="M21.9768101,1.50625603 C22.6337848,1.58212987 23.2891266,1.64571429 23.9406582,1.69433766 L23.9036456,2.17683117 C23.2368734,2.12660482 22.5760886,2.06195176 21.9223797,1.9855436 L21.9768101,1.50625603 Z"></path>
                    <path d="M25.9045063,1.79265306 C26.5680127,1.80975139 27.2271646,1.81135436 27.8781519,1.79051577 L27.901557,2.17202226 C27.2309747,2.21850835 26.5658354,2.24201855 25.9045063,2.25056772 L25.9045063,1.79265306 Z"></path>
                    <path d="M29.8343797,1.63235622 C30.4935316,1.54365863 31.1276456,1.42610761 31.7617595,1.25245269 L31.8292532,1.4704564 C31.1951392,1.6718961 30.5343544,1.81990353 29.8866329,1.93157699 L29.8343797,1.63235622 Z"></path>
                    <path d="M33.5536076,0.497988868 C33.6575696,0.411962894 33.7522785,0.322730983 33.8241266,0.219606679 L33.8665823,0.24258256 C33.7947342,0.36387384 33.7043797,0.462723562 33.6091266,0.553558442 L33.5536076,0.497988868 Z"></path>
                </g>
            </g>
        </g>
    </g>
</svg>